<svg xmlns="http://www.w3.org/2000/svg" xmlns:xlink="http://www.w3.org/1999/xlink" width="711.853" height="454.97" viewBox="0 0 533.89 341.228"><path fill="none" d="M17.921 98.778h28.127v7.348H17.921z"/><g transform="matrix(1 0 0 -1 17.921 106.016)"><use xlink:href="#a"/><use xlink:href="#b" x="6.347"/><use xlink:href="#c" x="10.351"/><use xlink:href="#c" x="15.345"/><use xlink:href="#d" x="23.012"/></g><path fill="none" stroke="#000" stroke-width=".5" d="M98.709 108.971 63.276 147.24m35.433-38.269 35.433 38.268"/><path fill="none" stroke="#ff4136" stroke-width="1.2" d="m114.44 120.452 13.97 15.086"/><path fill="#ff4136" stroke="#ff4136" stroke-width="1.2" d="m130.288 137.566-1.49-3.643-.388 1.615-1.64.263z"/><path fill="none" stroke="#000" stroke-width=".5" d="m63.276 147.239-18.426 42.52m18.426-42.52 14.173 42.52m56.693-42.52-25.512 42.52m25.512-42.52 24.094 42.52"/><path fill="none" stroke="#ff4136" stroke-width="1.2" d="m146.472 159.995 9.36 16.518"/><path fill="#ff4136" stroke="#ff4136" stroke-width="1.2" d="m157.196 178.918-.615-3.888-.748 1.483-1.657-.12z"/><path fill="none" stroke="#000" stroke-width=".5" d="m108.63 189.759-19.843 45.354m19.843-45.354 11.339 45.354m38.267-45.354-7.086 45.354"/><path fill="none" stroke="#ff4136" stroke-width="1.2" d="m161.213 203.365-2.712 17.351"/><path fill="#ff4136" stroke="#ff4136" stroke-width="1.2" d="m158.075 223.447 1.934-3.428-1.508.697-1.223-1.123z"/><path fill="none" stroke="#000" stroke-width=".5" d="m158.236 189.759 24.095 45.354"/><path fill="#ff4a4a" d="M98.709 102.735a6.24 6.24 0 0 0-6.237 6.236 6.24 6.24 0 0 0 6.237 6.237 6.24 6.24 0 0 0 6.236-6.237 6.24 6.24 0 0 0-6.236-6.236"/><path fill="#7a7aff" d="M63.276 141.003a6.24 6.24 0 0 0-6.237 6.236 6.24 6.24 0 0 0 6.237 6.236 6.24 6.24 0 0 0 6.236-6.236 6.24 6.24 0 0 0-6.236-6.236"/><path fill="#ff4a4a" d="M134.142 141.003a6.24 6.24 0 0 0-6.236 6.236 6.24 6.24 0 0 0 6.236 6.236 6.24 6.24 0 0 0 6.236-6.236 6.24 6.24 0 0 0-6.236-6.236"/><path fill="#7a7aff" d="M44.85 183.522a6.24 6.24 0 0 0-6.236 6.237 6.24 6.24 0 0 0 6.236 6.236 6.24 6.24 0 0 0 6.237-6.236 6.24 6.24 0 0 0-6.237-6.237m32.599 0a6.24 6.24 0 0 0-6.236 6.237 6.24 6.24 0 0 0 6.236 6.236 6.24 6.24 0 0 0 6.236-6.236 6.24 6.24 0 0 0-6.236-6.237m31.181 0a6.24 6.24 0 0 0-6.236 6.237 6.24 6.24 0 0 0 6.236 6.236 6.24 6.24 0 0 0 6.236-6.236 6.24 6.24 0 0 0-6.236-6.237"/><path fill="#ff4a4a" d="M158.236 183.522A6.24 6.24 0 0 0 152 189.76a6.24 6.24 0 0 0 6.236 6.236 6.24 6.24 0 0 0 6.236-6.236 6.24 6.24 0 0 0-6.236-6.237"/><path fill="#7a7aff" d="M88.787 228.877a6.24 6.24 0 0 0-6.236 6.236 6.24 6.24 0 0 0 6.236 6.236 6.24 6.24 0 0 0 6.237-6.236 6.24 6.24 0 0 0-6.237-6.236m31.182 0a6.24 6.24 0 0 0-6.237 6.236 6.24 6.24 0 0 0 6.237 6.236 6.24 6.24 0 0 0 6.236-6.236 6.24 6.24 0 0 0-6.236-6.236"/><path fill="#ff4a4a" d="M151.15 228.877a6.24 6.24 0 0 0-6.237 6.236 6.24 6.24 0 0 0 6.237 6.236 6.24 6.24 0 0 0 6.236-6.236 6.24 6.24 0 0 0-6.236-6.236"/><path fill="#7a7aff" d="M182.331 228.877a6.24 6.24 0 0 0-6.237 6.236 6.24 6.24 0 0 0 6.237 6.236 6.24 6.24 0 0 0 6.236-6.236 6.24 6.24 0 0 0-6.236-6.236"/><path fill="none" stroke="#000" stroke-width=".5" d="M11 88.856c-1.655 0-3 1.345-3 3v159.25c0 1.655 1.345 3 3 3h188.74c1.656 0 3-1.345 3-3V91.855c0-1.655-1.344-3-3-3z"/><path fill="none" d="M216.346 98.778h28.127v7.348h-28.127z"/><g transform="matrix(1 0 0 -1 216.346 106.016)"><use xlink:href="#a"/><use xlink:href="#b" x="6.347"/><use xlink:href="#c" x="10.351"/><use xlink:href="#c" x="15.345"/><use xlink:href="#e" x="23.012"/></g><path fill="none" stroke="#000" stroke-width=".5" d="m282.961 108.971-32.599 38.268"/><path fill="none" stroke="#ff4136" stroke-width="1.2" d="m278.283 120.452-12.746 14.963"/><path fill="#ff4136" stroke="#ff4136" stroke-width="1.2" d="m263.744 137.519 3.442-1.909-1.65-.195-.454-1.597z"/><path fill="none" stroke="#000" stroke-width=".5" d="m282.96 108.971 32.6 38.268m-65.198 0-11.338 42.52m11.338-42.52 19.843 42.52"/><path fill="none" stroke="#ff4136" stroke-width="1.2" d="m261.417 159.995 7.633 16.356"/><path fill="#ff4136" stroke="#ff4136" stroke-width="1.2" d="m270.219 178.856-.306-3.924-.863 1.42-1.641-.251z"/><path fill="none" stroke="#000" stroke-width=".5" d="m239.024 189.759-12.756 45.354m12.756-45.354 12.756 45.354m63.78-87.874-11.34 42.52m11.34-42.52 14.172 42.52m0 0-9.921 45.354m9.921-45.354 15.59 45.354"/><path fill="#ff4a4a" d="M282.961 102.735a6.24 6.24 0 0 0-6.237 6.236 6.24 6.24 0 0 0 6.237 6.237 6.24 6.24 0 0 0 6.236-6.237 6.24 6.24 0 0 0-6.236-6.236m-32.599 38.268a6.24 6.24 0 0 0-6.236 6.236 6.24 6.24 0 0 0 6.236 6.236 6.24 6.24 0 0 0 6.236-6.236 6.24 6.24 0 0 0-6.236-6.236"/><path fill="#7a7aff" d="M315.559 141.003a6.24 6.24 0 0 0-6.236 6.236 6.24 6.24 0 0 0 6.236 6.236 6.24 6.24 0 0 0 6.236-6.236 6.24 6.24 0 0 0-6.236-6.236m-76.535 42.519a6.24 6.24 0 0 0-6.237 6.237 6.24 6.24 0 0 0 6.237 6.236 6.24 6.24 0 0 0 6.236-6.236 6.24 6.24 0 0 0-6.236-6.237"/><path fill="#ff4a4a" d="M270.205 183.522a6.24 6.24 0 0 0-6.236 6.237 6.24 6.24 0 0 0 6.236 6.236 6.24 6.24 0 0 0 6.236-6.236 6.24 6.24 0 0 0-6.236-6.237"/><path fill="#7a7aff" d="M304.22 183.522a6.24 6.24 0 0 0-6.236 6.237 6.24 6.24 0 0 0 6.236 6.236 6.24 6.24 0 0 0 6.237-6.236 6.24 6.24 0 0 0-6.237-6.237m25.512 0a6.24 6.24 0 0 0-6.236 6.237 6.24 6.24 0 0 0 6.236 6.236 6.24 6.24 0 0 0 6.237-6.236 6.24 6.24 0 0 0-6.237-6.237m-103.464 45.355a6.24 6.24 0 0 0-6.237 6.236 6.24 6.24 0 0 0 6.237 6.236 6.24 6.24 0 0 0 6.236-6.236 6.24 6.24 0 0 0-6.236-6.236m25.512 0a6.24 6.24 0 0 0-6.237 6.236 6.24 6.24 0 0 0 6.237 6.236 6.24 6.24 0 0 0 6.236-6.236 6.24 6.24 0 0 0-6.236-6.236m68.031 0a6.24 6.24 0 0 0-6.236 6.236 6.24 6.24 0 0 0 6.236 6.236 6.24 6.24 0 0 0 6.236-6.236 6.24 6.24 0 0 0-6.236-6.236m25.512 0a6.24 6.24 0 0 0-6.236 6.236 6.24 6.24 0 0 0 6.236 6.236 6.24 6.24 0 0 0 6.236-6.236 6.24 6.24 0 0 0-6.236-6.236"/><path fill="none" stroke="#000" stroke-width=".5" d="M209.425 88.856c-1.655 0-3 1.345-3 3v159.25c0 1.655 1.345 3 3 3h153.307c1.656 0 3-1.345 3-3V91.855c0-1.655-1.344-3-3-3z"/><path fill="none" d="M406.268 98.635h29.612v7.634h-29.612z"/><g transform="matrix(1 0 0 -1 406.268 106.148)"><use xlink:href="#a"/><use xlink:href="#b" x="6.347"/><use xlink:href="#c" x="10.351"/><use xlink:href="#c" x="15.345"/></g><use xlink:href="#f" transform="matrix(1 0 0 -1 429.28 106.148)"/><path fill="none" stroke="#000" stroke-width=".5" d="m461.543 108.971-32.598 38.268m32.598-38.268 32.599 38.268"/><path fill="none" stroke="#ff4136" stroke-width="1.2" d="m476.425 120.452 12.747 14.963"/><path fill="#ff4136" stroke="#ff4136" stroke-width="1.2" d="m490.964 137.519-1.337-3.701-.455 1.597-1.65.195z"/><path fill="none" stroke="#000" stroke-width=".5" d="m428.945 147.239-11.339 42.52m11.339-42.52 17.008 42.52m48.189-42.52-17.008 42.52"/><path fill="none" stroke="#ff4136" stroke-width="1.2" d="m494.142 159.995-6.503 16.257"/><path fill="#ff4136" stroke="#ff4136" stroke-width="1.2" d="m486.613 178.818 2.651-2.908-1.625.342-.94-1.369z"/><path fill="none" stroke="#000" stroke-width=".5" d="m494.142 147.239 11.338 42.52m-28.346 0-14.173 45.354m14.173-45.354 14.173 45.354"/><path fill="none" stroke="#ff4136" stroke-width="1.2" d="m486.488 203.365 5.47 17.501"/><path fill="#ff4136" stroke="#ff4136" stroke-width="1.2" d="m492.782 223.505.22-3.93-1.045 1.291-1.593-.467z"/><path fill="#ff4a4a" d="M461.543 102.735a6.24 6.24 0 0 0-6.236 6.236 6.24 6.24 0 0 0 6.236 6.237 6.24 6.24 0 0 0 6.237-6.237 6.24 6.24 0 0 0-6.237-6.236"/><path fill="#7a7aff" d="M428.945 141.003a6.24 6.24 0 0 0-6.236 6.236 6.24 6.24 0 0 0 6.236 6.236 6.24 6.24 0 0 0 6.236-6.236 6.24 6.24 0 0 0-6.236-6.236"/><path fill="#ff4a4a" d="M494.142 141.003a6.24 6.24 0 0 0-6.236 6.236 6.24 6.24 0 0 0 6.236 6.236 6.24 6.24 0 0 0 6.236-6.236 6.24 6.24 0 0 0-6.236-6.236"/><path fill="#7a7aff" d="M417.606 183.522a6.24 6.24 0 0 0-6.236 6.237 6.24 6.24 0 0 0 6.236 6.236 6.24 6.24 0 0 0 6.237-6.236 6.24 6.24 0 0 0-6.237-6.237m28.347 0a6.24 6.24 0 0 0-6.236 6.237 6.24 6.24 0 0 0 6.236 6.236 6.24 6.24 0 0 0 6.236-6.236 6.24 6.24 0 0 0-6.236-6.237"/><path fill="#ff4a4a" d="M477.134 183.522a6.24 6.24 0 0 0-6.236 6.237 6.24 6.24 0 0 0 6.236 6.236 6.24 6.24 0 0 0 6.236-6.236 6.24 6.24 0 0 0-6.236-6.237"/><path fill="#7a7aff" d="M505.48 183.522a6.24 6.24 0 0 0-6.236 6.237 6.24 6.24 0 0 0 6.236 6.236 6.24 6.24 0 0 0 6.237-6.236 6.24 6.24 0 0 0-6.237-6.237m-42.519 45.355a6.24 6.24 0 0 0-6.237 6.236 6.24 6.24 0 0 0 6.237 6.236 6.24 6.24 0 0 0 6.236-6.236 6.24 6.24 0 0 0-6.236-6.236"/><path fill="#ff4a4a" d="M491.307 228.877a6.24 6.24 0 0 0-6.236 6.236 6.24 6.24 0 0 0 6.236 6.236 6.24 6.24 0 0 0 6.236-6.236 6.24 6.24 0 0 0-6.236-6.236"/><path fill="none" stroke="#000" stroke-width=".5" d="M399.346 88.713c-1.655 0-3 1.345-3 3v159.392c0 1.656 1.345 3 3 3H522.89c1.655 0 3-1.344 3-3V91.713c0-1.655-1.345-3-3-3z"/><path fill="#fff" stroke="#000" stroke-width=".1" d="M255.043 8h72.843v14.856h-72.843z"/><g transform="matrix(1 0 0 -1 260.043 18.238)"><use xlink:href="#a"/><use xlink:href="#b" x="6.347"/><use xlink:href="#g" x="10.439"/><use xlink:href="#h" x="15.466"/><use xlink:href="#i" x="18.447"/><use xlink:href="#h" x="24.409"/><use xlink:href="#i" x="27.39"/><use xlink:href="#j" x="33.352"/><use xlink:href="#k" x="41.602"/><use xlink:href="#g" x="49.313"/><use xlink:href="#l" x="54.34"/><use xlink:href="#g" x="57.816"/></g><path fill="#fff" stroke="#000" stroke-width=".1" d="M224.551 42.016h133.827v14.856H224.551z"/><g transform="matrix(1 0 0 -1 229.551 52.254)"><use xlink:href="#m"/><use xlink:href="#g" x="4.29"/><use xlink:href="#n" x="9.317"/><use xlink:href="#o" x="18.007"/><use xlink:href="#p" x="23.716"/><use xlink:href="#c" x="26.62"/><use xlink:href="#g" x="34.287"/><use xlink:href="#i" x="39.314"/><use xlink:href="#q" x="45.276"/><use xlink:href="#r" x="53.592"/><use xlink:href="#c" x="57.002"/><use xlink:href="#g" x="61.919"/><use xlink:href="#l" x="66.946"/><use xlink:href="#s" x="70.422"/><use xlink:href="#b" x="76.263"/><use xlink:href="#c" x="80.267"/><use xlink:href="#t" x="87.934"/><use xlink:href="#g" x="93.357"/><use xlink:href="#j" x="98.384"/><use xlink:href="#j" x="103.884"/><use xlink:href="#h" x="109.384"/><use xlink:href="#i" x="112.365"/><use xlink:href="#j" x="118.327"/></g><path fill="none" d="M374.49 158.903h15.366v13.523H374.49z"/><use xlink:href="#u" transform="matrix(1 0 0 -1 374.49 172.426)"/><path fill="#fff" stroke="#000" stroke-width=".1" d="M169.656 278.709h243.618v14.856H169.656z"/><g transform="matrix(1 0 0 -1 174.656 288.947)"><use xlink:href="#n"/><use xlink:href="#c" x="8.69"/><use xlink:href="#g" x="13.607"/><use xlink:href="#i" x="18.634"/><use xlink:href="#h" x="27.346"/><use xlink:href="#i" x="30.327"/><use xlink:href="#b" x="39.039"/><use xlink:href="#c" x="43.043"/><use xlink:href="#j" x="47.96"/><use xlink:href="#b" x="53.46"/><use xlink:href="#c" x="57.464"/><use xlink:href="#m" x="62.381"/><use xlink:href="#m" x="66.671"/><use xlink:href="#h" x="70.961"/><use xlink:href="#v" x="73.942"/><use xlink:href="#i" x="79.486"/><use xlink:href="#v" x="88.198"/><use xlink:href="#b" x="93.742"/><use xlink:href="#n" x="100.584"/><use xlink:href="#g" x="109.274"/><use xlink:href="#w" x="114.301"/><use xlink:href="#v" x="117.293"/><use xlink:href="#b" x="122.837"/><use xlink:href="#h" x="126.929"/><use xlink:href="#l" x="129.91"/><use xlink:href="#x" x="133.386"/><use xlink:href="#y" x="141.801"/><use xlink:href="#v" x="147.18"/><use xlink:href="#l" x="152.724"/><use xlink:href="#c" x="156.2"/><use xlink:href="#h" x="163.867"/><use xlink:href="#i" x="166.848"/><use xlink:href="#z" x="175.56"/><use xlink:href="#p" x="180.268"/><use xlink:href="#g" x="183.172"/><use xlink:href="#m" x="188.199"/><use xlink:href="#m" x="192.489"/><use xlink:href="#h" x="196.779"/><use xlink:href="#A" x="199.76"/><use xlink:href="#z" x="205.92"/><use xlink:href="#g" x="210.628"/><use xlink:href="#l" x="215.655"/><use xlink:href="#h" x="219.131"/><use xlink:href="#v" x="222.112"/><use xlink:href="#i" x="227.656"/></g><path fill="#fff" stroke="#000" stroke-width=".1" d="M263.502 318.416h55.925v14.812h-55.925z"/><g transform="matrix(1 0 0 -1 268.502 328.654)"><use xlink:href="#o"/><use xlink:href="#b" x="5.709"/><use xlink:href="#c" x="9.713"/><use xlink:href="#q" x="14.707"/><use xlink:href="#h" x="20.273"/><use xlink:href="#z" x="23.254"/><use xlink:href="#l" x="27.962"/><use xlink:href="#h" x="31.438"/><use xlink:href="#v" x="34.419"/><use xlink:href="#i" x="39.963"/></g><path fill="none" stroke="#000" stroke-width=".5" d="M291.465 22.856v19.16m-35.073 14.856L108.146 88.268"/><path stroke="#000" stroke-width=".5" d="m106.067 88.709 2.993.452-.914-.893.474-1.186z"/><path fill="none" stroke="#000" stroke-width=".5" d="m290.45 56.872-3.987 29.173"/><path stroke="#000" stroke-width=".5" d="m286.176 88.151 1.436-2.665-1.149.559-.957-.847z"/><path fill="none" stroke="#000" stroke-width=".5" d="m323.555 56.872 134.798 31.201"/><path stroke="#000" stroke-width=".5" d="m460.424 88.553-2.521-1.675.45 1.195-.93.876z"/><path fill="none" stroke="#000" stroke-width=".5" d="m105.37 254.105 140.143 24.122"/><path stroke="#000" stroke-width=".5" d="m247.608 278.588-2.613-1.529.518 1.168-.879.928z"/><path fill="none" stroke="#000" stroke-width=".5" d="m286.079 254.105 3.666 21.805"/><path stroke="#000" stroke-width=".5" d="m290.098 278.007.578-2.972-.931.875-1.166-.523z"/><path fill="none" stroke="#000" stroke-width=".5" d="m461.118 254.105-127.523 24.077"/><path stroke="#000" stroke-width=".5" d="m331.506 278.576 2.983.52-.894-.914.5-1.176z"/><path fill="none" stroke="#000" stroke-width=".5" d="M291.465 293.565v22.013"/><path stroke="#000" stroke-width=".5" d="m291.465 317.704 1.063-2.835-1.063.709-1.063-.709z"/><defs><symbol id="a" overflow="visible"><path d="M3.85 1.342v4.202c0 .704.11 1.122.506 1.122h.242c.825 0 1.342-.286 1.529-1.133.121 0 .275.011.374.055a13 13 0 0 0-.143 1.562c0 .011-.022.033-.033.033a39 39 0 0 0-2.464-.088h-.946c-.847 0-2.145.055-2.563.088-.022 0-.044-.022-.044-.033a12 12 0 0 0-.275-1.595c.11-.044.242-.055.374-.055.22.88.726 1.166 1.452 1.166h.539c.407 0 .517-.418.517-1.089V1.342c0-.913-.187-.968-1.067-1.001-.066-.066-.066-.297 0-.363.539.011 1.1.022 1.54.022.418 0 .979-.011 1.529-.022.066.066.066.297 0 .363-.88.033-1.067.088-1.067 1.001"/></symbol><symbol id="b" overflow="visible"><path d="M1.936 3.938c-.022.44-.033.726-.088.836-.022.055-.044.088-.132.088-.308-.121-.594-.22-1.353-.319-.022-.066 0-.242.022-.308.594-.055.715-.11.715-.748V1.342C1.1.429.968.385.286.341.22.275.22.044.286-.022.671-.011 1.1 0 1.54 0s.946-.011 1.331-.022c.066.066.066.297 0 .363-.77.055-.902.088-.902 1.001v1.529c0 .286.132.539.264.737.121.176.374.539.506.539a.32.32 0 0 0 .286-.143c.077-.11.209-.253.396-.253.264 0 .517.275.517.55 0 .209-.198.528-.66.528-.517 0-.968-.484-1.221-.913-.066-.121-.121-.033-.121.022"/></symbol><symbol id="c" overflow="visible"><path d="M4.246 1.023C3.839.605 3.52.429 2.882.429c-.396 0-.858.231-1.199.792-.22.363-.352.869-.352 1.507l2.926-.022c.132 0 .209.066.209.187 0 .924-.33 1.914-1.859 1.914-.957 0-2.2-.913-2.2-2.585 0-.616.154-1.21.517-1.628.374-.44.891-.704 1.683-.704.836 0 1.43.385 1.87.957-.033.11-.099.165-.231.176M1.364 3.102c.209 1.243.979 1.342 1.243 1.342.418 0 .913-.231.913-1.155 0-.099-.044-.154-.165-.154Z"/></symbol><symbol id="d" overflow="visible"><path d="M3.168 1.342v3.817c0 .66.011 1.331.033 1.474 0 .055-.022.055-.066.055-.605-.374-1.188-.649-2.156-1.1.022-.121.066-.231.165-.297.506.209.748.275.957.275.187 0 .22-.264.22-.638V1.342c0-.913-.297-.968-1.067-1.001-.066-.066-.066-.297 0-.363.539.011.935.022 1.529.022.528 0 .792-.011 1.342-.022.066.066.066.297 0 .363-.77.033-.957.088-.957 1.001"/></symbol><symbol id="e" overflow="visible"><path d="M.671 5.148c0-.231.209-.429.44-.429.187 0 .517.198.517.44 0 .088-.022.154-.044.231s-.088.176-.088.264c0 .275.286.671 1.089.671.396 0 .957-.275.957-1.331 0-.704-.253-1.276-.902-1.936l-.814-.803C.748 1.155.572.627.572-.022c0 0 .561.022.913.022H3.41c.352 0 .858-.022.858-.022.143.583.253 1.408.264 1.738-.066.055-.209.077-.319.055C4.026.99 3.839.715 3.443.715H1.485c0 .528.759 1.276.814 1.331L3.41 3.113c.627.605 1.1 1.089 1.1 1.925 0 1.188-.968 1.672-1.859 1.672-1.221 0-1.98-.902-1.98-1.562"/></symbol><symbol id="f" overflow="visible"><path d="M5.907 1.507C5.654.638 5.291.198 4.84.198c-.143 0-.22.11-.22.319 0 .154.066.407.198.748.44 1.199.66 1.991.66 2.398 0 .77-.517 1.199-1.287 1.199-.649 0-1.21-.286-1.661-.869-.088.484-.473.869-1.034.869-.616 0-.858-.572-1.012-1.067-.11-.352-.165-.561-.165-.638 0-.099.055-.154.176-.154.055 0 .088.011.121.033a.8.8 0 0 1 .099.253c.198.836.451 1.254.748 1.254q.297 0 .297-.462c0-.143-.055-.44-.176-.891L.957.693A5 5 0 0 1 .858.209q0-.33.363-.33c.209 0 .363.11.44.33.022.055.088.33.209.803l.231.979.33 1.254c.121.253.308.506.539.77q.478.528 1.188.528c.363 0 .539-.242.539-.715 0-.418-.231-1.254-.704-2.508a1.4 1.4 0 0 1-.11-.506c0-.539.407-.935.935-.935.484 0 .869.275 1.144.825.209.44.319.737.319.88 0 .099-.055.154-.176.154-.033 0-.198-.099-.198-.231"/></symbol><symbol id="g" overflow="visible"><path d="M3.223.528c.066-.341.187-.638.737-.638.418 0 .814.187 1.045.407-.022.132-.066.231-.187.297-.077-.066-.264-.176-.407-.176-.319 0-.33.429-.33.935V2.97c0 1.562-.858 1.859-1.661 1.859-.902 0-1.815-.594-1.815-1.221 0-.264.132-.396.385-.396.319 0 .517.231.517.374a.5.5 0 0 1-.033.198.8.8 0 0 0-.022.22c0 .341.462.462.88.462.374 0 .891-.187.891-1.43 0-.077-.033-.121-.066-.132l-.946-.231C1.155 2.409.396 1.826.396 1.078c0-.902.616-1.188 1.386-1.188.385 0 .715.088 1.199.462l.22.176Zm0 2.035V1.111c0-.143-.066-.22-.154-.286-.286-.231-.66-.484-.968-.484-.55 0-.792.44-.792.781 0 .495.231 1.001 1.045 1.21Z"/></symbol><symbol id="h" overflow="visible"><path d="M1.991 1.342v2.189c0 .55.044 1.254.044 1.254 0 .044-.055.077-.143.077-.308-.121-.748-.22-1.507-.319-.022-.066 0-.242.022-.308.605-.055.715-.121.715-.748V1.342C1.122.429 1.001.396.33.341.264.275.264.044.33-.022.693-.011 1.122 0 1.562 0s.858-.011 1.221-.022c.066.066.066.297 0 .363-.671.044-.792.088-.792 1.001M.99 6.589c0-.286.264-.572.528-.572.308 0 .572.297.572.528 0 .264-.231.572-.528.572-.264 0-.572-.264-.572-.528"/></symbol><symbol id="i" overflow="visible"><path d="M2.024 3.938c-.066-.077-.132-.099-.132 0-.011.297-.033.726-.088.836-.022.055-.044.088-.132.088-.308-.121-.594-.22-1.353-.319-.022-.066 0-.242.022-.308.594-.055.715-.11.715-.748V1.342C1.056.44.946.396.286.341.22.275.22.044.286-.022a30 30 0 0 0 2.31 0c.066.066.066.297 0 .363-.561.055-.671.099-.671 1.001v1.804c0 .231.099.363.187.462.418.407.913.649 1.342.649.22 0 .451-.143.583-.396.11-.22.132-.517.132-.847V1.342c0-.902-.11-.946-.682-1.001-.055-.066-.055-.297 0-.363.33.011.682.022 1.122.022s.836-.011 1.166-.022c.055.066.055.297 0 .363-.616.055-.737.099-.737 1.001v1.639c0 .605-.044 1.133-.297 1.474-.187.242-.528.374-.913.374-.539 0-1.155-.143-1.804-.891"/></symbol><symbol id="j" overflow="visible"><path d="M4.884 4.257c.209 0 .407.198.407.418 0 .231-.209.407-.506.407-.286 0-.814-.187-1.1-.561-.132.088-.495.308-1.144.308-.979 0-1.881-.66-1.881-1.672 0-.594.264-.935.572-1.232C.924 1.661.748 1.188.748.814c0-.396.22-.704.506-.847C.66-.385.352-.891.352-1.364c0-.957.902-1.254 1.749-1.254 1.485 0 3.091.715 3.091 1.903 0 .352-.165.627-.484.891-.429.352-1.199.363-1.606.363-.198 0-.473-.022-.737-.055C2.2.473 2.09.462 2.035.462c-.319 0-.704.154-.704.627 0 .22.066.451.198.638.264-.154.572-.231 1.001-.231.968 0 1.859.605 1.859 1.683 0 .517-.154.814-.473 1.144.077.11.297.264.44.264.077 0 .154-.033.22-.132.044-.088.187-.198.308-.198M1.452-.11c.121-.033.297-.055.44-.055.341 0 .649.033.803.033.55 0 1.012-.011 1.331-.187.429-.242.561-.396.561-.682 0-.792-1.166-1.21-2.156-1.21-.396 0-1.32.319-1.32 1.067 0 .374.022.649.341 1.034m2.057 3.179c0-1.023-.517-1.232-.924-1.232-.924 0-1.023.781-1.023 1.485 0 .77.275 1.166.88 1.166.693 0 1.067-.506 1.067-1.419"/></symbol><symbol id="k" overflow="visible"><path d="M1.628 7.095c-.396 0-.979.011-1.419.022-.066-.066-.066-.297 0-.363.77-.033.957-.088.957-1.001V1.342C1.166.429.979.374.209.341.143.275.143.044.209-.022.638-.011 1.221 0 1.639 0c.407 0 .869-.022 2.002-.022 1.551 0 3.597.704 3.597 3.41 0 2.046-1.683 3.729-3.795 3.729-.781 0-1.386-.022-1.815-.022M2.101.924v5.28c0 .385.385.539.924.539 2.376 0 3.157-1.925 3.157-3.619C6.182.902 4.851.352 3.3.352c-1.078 0-1.199.22-1.199.572"/></symbol><symbol id="l" overflow="visible"><path d="M.473 4.719c-.154 0-.198-.132-.198-.22v-.143c0-.055.011-.066.055-.066h.649V.979c0-.781.341-1.089.847-1.089s1.056.242 1.485.726c-.022.11-.088.176-.198.187a1.5 1.5 0 0 0-.902-.308c-.297 0-.363.33-.363 1.012V4.29h1.144c.11 0 .264.044.264.143v.22c0 .044-.033.066-.088.066h-1.32v.429c0 .715.044 1.155.044 1.155 0 .066-.033.099-.088.099a.7.7 0 0 1-.242-.099 1.4 1.4 0 0 0-.374-.154c-.132-.044-.242-.077-.242-.154 0-.132.033-.055.033-1.276Z"/></symbol><symbol id="m" overflow="visible"><path d="M.528 1.518A19 19 0 0 0 .605 0c.11.022.22.033.275.033.077 0 .143 0 .22-.022A3.8 3.8 0 0 1 2.101-.11c.616 0 1.749.297 1.749 1.386 0 .748-.539 1.188-1.287 1.463-.66.253-1.1.418-1.1 1.023 0 .451.396.704.77.704.242 0 .88-.088 1.023-1.023.066-.066.286-.055.352.011.033.396.055.803.066 1.166-.341.055-.869.209-1.441.209-.814 0-1.551-.528-1.551-1.232 0-.803.363-1.144 1.21-1.496.913-.374 1.122-.605 1.122-1.078 0-.539-.528-.77-.935-.77-.429 0-.671.143-.781.264-.242.253-.363.737-.429 1.012-.066.066-.275.055-.341-.011"/></symbol><symbol id="n" overflow="visible"><path d="M1.87 3.938c-.011.33-.033.726-.088.836-.022.055-.044.088-.132.088-.308-.121-.594-.22-1.353-.319-.022-.066 0-.242.022-.308.594-.055.715-.11.715-.748V1.342C1.034.44.891.385.286.341.22.275.22.044.286-.022a31 31 0 0 0 2.299 0c.066.066.066.297 0 .363-.561.055-.682.099-.682 1.001v1.804c0 .231.099.363.187.462.44.429.847.649 1.188.649.418 0 .726-.264.726-1.001V1.342c0-.902-.088-.957-.682-1.001-.055-.066-.055-.297 0-.363a29 29 0 0 0 2.2 0c.055.066.055.297 0 .363-.55.044-.649.099-.649 1.001v1.749c0 .154 0 .308-.011.44.528.583 1.023.726 1.452.726.418 0 .66-.242.66-.979V1.342c0-.902-.11-.957-.682-1.001-.055-.066-.055-.297 0-.363a29 29 0 0 0 2.255 0c.055.066.055.297 0 .363-.605.044-.704.099-.704 1.001V3.08c0 .979-.165 1.749-1.133 1.749-.561 0-1.243-.209-1.815-.814-.033-.033-.099-.088-.121.011-.099.451-.528.803-1.1.803-.638 0-1.21-.374-1.672-.891-.055-.055-.121-.132-.132 0"/></symbol><symbol id="o" overflow="visible"><path d="M1.716 4.048c-.011.33-.033.616-.088.726-.022.055-.044.088-.132.088-.308-.121-.594-.22-1.353-.319-.022-.066 0-.242.022-.308.594-.055.715-.11.715-.748V-1.21c0-.913-.121-.968-.792-1.001-.066-.066-.066-.297 0-.363a42 42 0 0 0 1.232.022c.44 0 .968-.011 1.331-.022.066.066.066.297 0 .363-.781.044-.902.088-.902 1.001v1.188c0 .143.044.132.154.088.275-.11.605-.176.957-.176.616 0 1.166.187 1.617.616.517.506.814 1.188.814 2.079 0 1.166-.825 2.244-1.947 2.244-.506 0-1.067-.33-1.507-.825-.066-.066-.11-.066-.121.044m.209-.407c.286.352.792.682 1.111.682.704 0 1.309-.792 1.309-2.035 0-.902-.319-2.024-1.551-2.024-.198 0-.583.055-.781.231-.22.198-.264.264-.264.66v2.002c0 .231.044.33.176.484"/></symbol><symbol id="p" overflow="visible"><path d="M1.045 1.342C1.045.429.924.374.253.341.187.275.187.044.253-.022A42 42 0 0 0 1.485 0c.44 0 .858-.011 1.221-.022.066.066.066.297 0 .363-.671.033-.792.088-.792 1.001v5.071c0 .715.044 1.155.044 1.155 0 .077-.044.11-.143.11-.275-.11-1.1-.264-1.54-.297-.022-.088 0-.264.066-.33.638-.044.704-.077.704-.902Z"/></symbol><symbol id="q" overflow="visible"><path d="M3.674.55c.055.044.154.066.165-.011.033-.264.121-.649.121-.649a.27.27 0 0 1 .209 0c.242.198.627.363 1.298.44.066.066.066.231 0 .297-.704.055-.803.264-.803.803v4.983c0 .715.044 1.155.044 1.155 0 .077-.044.11-.143.11-.275-.11-1.1-.264-1.54-.297-.022-.088 0-.264.066-.33h.099c.484-.033.605-.033.605-.902V4.741c0-.077-.022-.099-.099-.099-.044 0-.495.187-.858.187-.726 0-1.21-.242-1.65-.66C.715 3.696.429 3.047.429 2.233.429.88 1.111-.11 2.299-.11c.429 0 .836.22 1.375.66m.121.814c0-.209-.022-.297-.176-.429C3.212.583 2.86.407 2.585.407c-.594 0-1.21.649-1.21 2.024 0 .792.154 1.232.319 1.463.341.517.803.55 1.023.55.396 0 .671-.143.891-.396.154-.176.187-.253.187-.594Z"/></symbol><symbol id="r" overflow="visible"><path d="M1.925 1.342V4.29h1.023c.099 0 .253.044.253.143v.22c0 .044-.033.066-.088.066H1.925v.627c0 1.694.506 1.958.869 1.958.33 0 .506-.132.66-.517.088-.198.209-.352.44-.352.187 0 .451.231.451.451 0 .187-.121.385-.352.561-.286.198-.572.231-.99.231-.924 0-1.947-.803-1.947-2.519v-.44H.495c-.198 0-.253-.132-.253-.22v-.143c0-.055.011-.066.055-.066h.759V1.342C1.056.429.88.385.286.341.22.275.22.044.286-.022c.385.011.77.022 1.21.022s.968-.011 1.353-.022c.066.066.066.297 0 .363-.858.044-.924.088-.924 1.001"/></symbol><symbol id="s" overflow="visible"><path d="M2.387-.11c.429 0 .946.22 1.485.66.055.044.154.066.165-.011.033-.275.121-.649.121-.649a.27.27 0 0 1 .209 0c.242.198.627.363 1.298.44.066.066.066.231 0 .297-.704.055-.803.264-.803.803v2.112c0 .33.044 1.133.044 1.133 0 .033-.033.066-.088.066a3 3 0 0 0-.385-.022c-.352 0-.748.011-1.122.022-.066-.066-.066-.297 0-.363.539-.033.682-.165.682-.891V1.364c0-.209-.022-.297-.176-.429-.407-.352-.825-.528-1.1-.528-.33 0-.88.154-.88 1.133v2.002c0 .33.044 1.133.044 1.133 0 .033-.033.066-.088.066a3 3 0 0 0-.385-.022c-.352 0-.748.011-1.122.022-.066-.066-.066-.297 0-.363.528-.044.682-.165.682-.88V1.386c0-.759.33-1.496 1.419-1.496"/></symbol><symbol id="t" overflow="visible"><path d="M1.837 4.334c-.066-.066-.11-.044-.11.055v2.024c0 .715.044 1.155.044 1.155 0 .077-.044.11-.143.11-.275-.11-1.1-.264-1.54-.297-.022-.088 0-.264.066-.33h.099c.484-.033.605-.033.605-.902V.781C.858.352.847.154.814 0c.055-.088.11-.132.242-.132.066.066.176.165.264.264.11.132.176.132.297.033.253-.209.583-.275.968-.275 1.122 0 2.431 1.023 2.431 2.772 0 1.342-.99 2.167-1.947 2.167-.473 0-.891-.187-1.232-.495m.077-.341c.286.253.616.352.935.352.671 0 1.221-.814 1.221-1.881 0-1.254-.506-2.2-1.551-2.2-.341 0-.572.242-.792.517v2.75c0 .231.044.341.187.462"/></symbol><symbol id="u" overflow="visible"><path d="M14.256 4.95c0 .594-.515 1.05-1.109 1.05-.614 0-1.128-.456-1.128-1.05s.514-1.05 1.128-1.05c.594 0 1.109.456 1.109 1.05m-5.465 0c0 .594-.515 1.05-1.109 1.05-.613 0-1.108-.456-1.108-1.05S7.069 3.9 7.682 3.9c.594 0 1.11.456 1.11 1.05m-5.445 0c0 .594-.515 1.05-1.128 1.05-.594 0-1.11-.456-1.11-1.05s.516-1.05 1.11-1.05 1.128.456 1.128 1.05"/></symbol><symbol id="v" overflow="visible"><path d="M.451 2.255c0-1.122.748-2.365 2.31-2.365.704 0 1.243.253 1.617.616.495.484.715 1.177.715 1.848 0 1.144-.627 2.475-2.31 2.475-.726 0-1.32-.297-1.727-.77C.66 3.586.451 2.948.451 2.255m2.167 2.189c.946 0 1.529-.858 1.529-2.442C4.147.616 3.432.275 2.915.275c-1.144 0-1.518 1.386-1.518 2.233 0 .957.231 1.936 1.221 1.936"/></symbol><symbol id="w" overflow="visible"><path d="M1.243 3.487V.836c0-1.452-.044-2.805-.594-2.805a.52.52 0 0 0-.341.121c-.11.11-.242.286-.484.286-.121 0-.352-.22-.352-.418 0-.319.396-.473.605-.473.231 0 .803.033 1.21.374.517.418.825 1.21.825 3.289v2.321c0 .55.044 1.254.044 1.254 0 .044-.055.077-.143.077-.308-.121-.748-.22-1.507-.319-.022-.066 0-.242.022-.308.594-.055.715-.121.715-.748m-.154 3.102c0-.286.264-.572.528-.572.308 0 .572.297.572.528 0 .264-.231.572-.528.572-.264 0-.572-.264-.572-.528"/></symbol><symbol id="x" overflow="visible"><path d="M2.244-1.76c.176.308.319.616.451.946.88 2.123 1.375 3.256 1.947 4.488.22.462.374.638.891.704.066.066.066.297 0 .363-.22-.011-.473-.022-.781-.022-.33 0-.671.011-1.001.022-.066-.066-.066-.297 0-.363.352-.033.704-.099.528-.495L3.19 1.364c-.077-.176-.176-.209-.264.011l-.979 2.288c-.198.462-.253.671.363.715.066.066.066.297 0 .363a48 48 0 0 0-1.243-.022c-.374 0-.671.011-.891.022-.066-.066-.066-.297 0-.363.44-.055.583-.154.869-.825L2.288.66c.099-.22.264-.726.154-1.034a10 10 0 0 0-.429-1.012c-.121-.22-.275-.319-.55-.319-.154 0-.198.033-.319.033-.319 0-.484-.33-.484-.473 0-.231.22-.407.517-.407.231 0 .671.088 1.067.792"/></symbol><symbol id="y" overflow="visible"><path d="M3.575 4.378c.594-.044.66-.176.429-.737l-.891-2.156c-.176-.429-.231-.429-.407.033l-.792 2.123c-.198.528-.242.66.341.737.066.066.066.297 0 .363a37 37 0 0 0-1.111-.022c-.363 0-.693.011-1.023.022-.066-.066-.066-.297 0-.363.583-.066.66-.242.88-.803L2.409.099c.066-.165.132-.231.275-.231.11 0 .187.066.264.253l1.463 3.443c.209.484.33.759.946.814.066.066.066.297 0 .363-.22-.011-.484-.022-.77-.022-.363 0-.737.011-1.012.022-.066-.066-.066-.297 0-.363"/></symbol><symbol id="z" overflow="visible"><path d="M4.378 1.001c-.044.099-.132.143-.231.154C3.773.671 3.3.429 2.827.429c-.803 0-1.474.814-1.474 2.101 0 1.21.528 1.936 1.254 1.936.649 0 .737-.385.781-.77.033-.297.187-.396.418-.396s.539.143.539.484c0 .605-.627 1.045-1.683 1.045-1.089 0-2.255-.979-2.255-2.541C.407.869 1.199-.11 2.585-.11c.66 0 1.243.209 1.793 1.111"/></symbol><symbol id="A" overflow="visible"><path d="M5.17 1.342v2.321c0 .429.044 1.133.044 1.133 0 .044-.066.066-.11.066-.33-.132-.649-.143-1.034-.143H1.903v.627c0 1.045.374 1.958 1.122 1.958.473 0 .847-.121.935-.572.11-.55.341-.715.682-.715.242 0 .473.22.473.451 0 .682-.935 1.21-1.958 1.21a2.05 2.05 0 0 1-1.562-.726c-.462-.539-.561-1.21-.561-2.068v-.165H.495c-.198 0-.253-.132-.253-.22v-.143c0-.055.011-.066.055-.066h.737V1.342C1.034.429.913.385.319.341.253.275.253.044.319-.022c.374.011.77.022 1.155.022s.88-.011 1.243-.022c.066.066.066.297 0 .363-.704.044-.814.088-.814 1.001V4.29h1.969c.341 0 .429-.22.429-.781V1.342c0-.913-.132-.957-.737-1.001-.066-.066-.066-.297 0-.363.385.011.781.022 1.177.022.385 0 .814-.011 1.221-.022.066.066.066.297 0 .363-.671.044-.792.088-.792 1.001"/></symbol></defs></svg>