<svg xmlns="http://www.w3.org/2000/svg" xmlns:xlink="http://www.w3.org/1999/xlink" width="395.312" height="357.711" viewBox="0 0 296.484 268.283"><path fill="#fff" stroke="#000" stroke-width="2.2" d="M44.354 223.433c-10.166 0-18.425 8.259-18.425 18.425s8.259 18.425 18.425 18.425h223.937c10.167 0 18.426-8.258 18.426-18.425 0-10.166-8.259-18.425-18.426-18.425z"/><path fill="none" d="M8 237h8.008v9.716H8z"/><use xlink:href="#a" transform="matrix(1 0 0 -1 8 246.562)"/><use xlink:href="#b" transform="matrix(1 0 0 -1 16.302 246.562)"/><path fill="#fff" stroke="#000" stroke-width="1.5" d="M42.937 232.787c-5.005 0-9.07 4.066-9.07 9.071s4.065 9.071 9.07 9.071 9.071-4.066 9.071-9.07c0-5.006-4.066-9.072-9.07-9.072Zm28.346 0c-5.005 0-9.07 4.066-9.07 9.071s4.065 9.071 9.07 9.071c5.006 0 9.071-4.066 9.071-9.07 0-5.006-4.065-9.072-9.07-9.072Zm28.347 0c-5.005 0-9.07 4.066-9.07 9.071s4.065 9.071 9.07 9.071 9.07-4.066 9.07-9.07c0-5.006-4.065-9.072-9.07-9.072Zm28.346 0c-5.005 0-9.07 4.066-9.07 9.071s4.065 9.071 9.07 9.071c5.006 0 9.071-4.066 9.071-9.07 0-5.006-4.065-9.072-9.07-9.072Zm28.347 0c-5.005 0-9.07 4.066-9.07 9.071s4.065 9.071 9.07 9.071 9.07-4.066 9.07-9.07c0-5.006-4.065-9.072-9.07-9.072Zm28.346 0c-5.005 0-9.07 4.066-9.07 9.071s4.065 9.071 9.07 9.071c5.006 0 9.071-4.066 9.071-9.07 0-5.006-4.065-9.072-9.07-9.072Zm28.346 0c-5.004 0-9.07 4.066-9.07 9.071s4.066 9.071 9.07 9.071c5.006 0 9.072-4.066 9.072-9.07 0-5.006-4.066-9.072-9.071-9.072Zm28.347 0c-5.005 0-9.07 4.066-9.07 9.071s4.065 9.071 9.07 9.071 9.071-4.066 9.071-9.07c0-5.006-4.066-9.072-9.07-9.072Zm28.346 0c-5.004 0-9.07 4.066-9.07 9.071s4.066 9.071 9.07 9.071c5.006 0 9.072-4.066 9.072-9.07 0-5.006-4.066-9.072-9.071-9.072Z"/><path fill="#bfbfbf" stroke="#000" stroke-width="2.2" d="M101.756 115.717c-10.167 0-18.425 8.258-18.425 18.425 0 10.166 8.258 18.425 18.425 18.425H210.89c10.167 0 18.425-8.259 18.425-18.425s-8.258-18.425-18.425-18.425z"/><path fill="none" d="M58.985 127.632H73.41v13.02H58.985z"/><use xlink:href="#c" transform="matrix(1 0 0 -1 58.985 137.194)"/><use xlink:href="#b" transform="matrix(1 0 0 -1 66.251 133.778)"/><use xlink:href="#d" transform="matrix(1 0 0 -1 67.05 140.652)"/><path fill="#fff" stroke="#000" stroke-width="1.5" d="M99.63 125.07c-5.005 0-9.07 4.067-9.07 9.072s4.065 9.07 9.07 9.07 9.07-4.065 9.07-9.07-4.065-9.071-9.07-9.071Zm28.346 0c-5.005 0-9.07 4.067-9.07 9.072s4.065 9.07 9.07 9.07c5.006 0 9.071-4.065 9.071-9.07s-4.065-9.071-9.07-9.071Zm28.347 0c-5.005 0-9.07 4.067-9.07 9.072s4.065 9.07 9.07 9.07 9.07-4.065 9.07-9.07-4.065-9.071-9.07-9.071Zm28.346 0c-5.005 0-9.07 4.067-9.07 9.072s4.065 9.07 9.07 9.07c5.006 0 9.071-4.065 9.071-9.07s-4.065-9.071-9.07-9.071Zm28.346 0c-5.004 0-9.07 4.067-9.07 9.072s4.066 9.07 9.07 9.07c5.006 0 9.072-4.065 9.072-9.07s-4.066-9.071-9.071-9.071Z"/><path fill="#bfbfbf" stroke="#000" stroke-width="2.2" d="M101.756 8c-10.167 0-18.425 8.258-18.425 18.425s8.258 18.425 18.425 18.425H210.89c10.167 0 18.425-8.258 18.425-18.425S221.057 8 210.89 8z"/><path fill="none" d="M58.985 19.915H73.41v13.02H58.985z"/><use xlink:href="#c" transform="matrix(1 0 0 -1 58.985 29.477)"/><use xlink:href="#b" transform="matrix(1 0 0 -1 66.251 26.061)"/><use xlink:href="#e" transform="matrix(1 0 0 -1 67.05 32.935)"/><path fill="#fff" stroke="#000" stroke-width="1.5" d="M99.63 17.354c-5.005 0-9.07 4.066-9.07 9.071s4.065 9.071 9.07 9.071 9.07-4.066 9.07-9.07c0-5.006-4.065-9.072-9.07-9.072Zm28.346 0c-5.005 0-9.07 4.066-9.07 9.071s4.065 9.071 9.07 9.071c5.006 0 9.071-4.066 9.071-9.07 0-5.006-4.065-9.072-9.07-9.072Zm28.347 0c-5.005 0-9.07 4.066-9.07 9.071s4.065 9.071 9.07 9.071 9.07-4.066 9.07-9.07c0-5.006-4.065-9.072-9.07-9.072Zm28.346 0c-5.005 0-9.07 4.066-9.07 9.071s4.065 9.071 9.07 9.071c5.006 0 9.071-4.066 9.071-9.07 0-5.006-4.065-9.072-9.07-9.072Zm28.346 0c-5.004 0-9.07 4.066-9.07 9.071s4.066 9.071 9.07 9.071c5.006 0 9.072-4.066 9.072-9.07 0-5.006-4.066-9.072-9.071-9.072Z"/><path fill="none" stroke="#000" stroke-width="1.2" d="m47.162 233.831 46.26-87.892"/><path stroke="#000" stroke-width="1.2" d="m94.609 143.681-2.713 2.416 1.525-.158.733 1.346z"/><path fill="none" stroke="#000" stroke-width="1.2" d="m48.557 234.74 71.16-90.137"/><path stroke="#000" stroke-width="1.2" d="m121.298 142.601-3.109 1.88 1.528.122.475 1.458z"/><path fill="none" stroke="#000" stroke-width="1.2" d="m49.512 235.612 97.148-92.29"/><path stroke="#000" stroke-width="1.2" d="m148.509 141.565-3.344 1.418 1.495.339.262 1.51z"/><path fill="none" stroke="#000" stroke-width="1.2" d="m50.158 236.371 123.9-94.164"/><path stroke="#000" stroke-width="1.2" d="m176.088 140.663-3.48 1.043 1.45.5.094 1.531z"/><path fill="none" stroke="#000" stroke-width="1.2" d="m50.6 237.005 151.154-95.731"/><path stroke="#000" stroke-width="1.2" d="m203.91 139.909-3.556.742 1.4.623-.035 1.533z"/><path fill="none" stroke="#000" stroke-width="1.2" d="m73.592 233.085 22.645-86.05"/><path stroke="#000" stroke-width="1.2" d="m96.887 144.568-2.1 2.965 1.45-.498 1.017 1.147z"/><path fill="none" stroke="#000" stroke-width="1.2" d="m75.508 233.831 46.26-87.892"/><path stroke="#000" stroke-width="1.2" d="m122.956 143.681-2.713 2.416 1.525-.158.732 1.346z"/><path fill="none" stroke="#000" stroke-width="1.2" d="m76.903 234.74 71.16-90.137"/><path stroke="#000" stroke-width="1.2" d="m149.645 142.601-3.11 1.88 1.529.122.474 1.458z"/><path fill="none" stroke="#000" stroke-width="1.2" d="m77.858 235.612 97.148-92.29"/><path stroke="#000" stroke-width="1.2" d="m176.856 141.565-3.345 1.418 1.495.339.262 1.51z"/><path fill="none" stroke="#000" stroke-width="1.2" d="m78.504 236.371 123.9-94.164"/><path stroke="#000" stroke-width="1.2" d="m204.435 140.663-3.48 1.043 1.449.5.095 1.531z"/><path fill="none" stroke="#000" stroke-width="1.2" d="M99.63 232.787v-85.314"/><path stroke="#000" stroke-width="1.2" d="m99.63 144.921-1.276 3.402 1.276-.85 1.276.85z"/><path fill="none" stroke="#000" stroke-width="1.2" d="m101.939 233.085 22.644-86.05"/><path stroke="#000" stroke-width="1.2" d="m125.233 144.568-2.1 2.965 1.45-.498 1.018 1.147z"/><path fill="none" stroke="#000" stroke-width="1.2" d="m103.855 233.831 46.26-87.892"/><path stroke="#000" stroke-width="1.2" d="m151.302 143.681-2.713 2.416 1.525-.158.733 1.346z"/><path fill="none" stroke="#000" stroke-width="1.2" d="m105.25 234.74 71.16-90.137"/><path stroke="#000" stroke-width="1.2" d="m177.992 142.601-3.11 1.88 1.528.122.474 1.458z"/><path fill="none" stroke="#000" stroke-width="1.2" d="m106.205 235.612 97.148-92.29"/><path stroke="#000" stroke-width="1.2" d="m205.202 141.565-3.344 1.418 1.495.339.262 1.51z"/><path fill="none" stroke="#000" stroke-width="1.2" d="m125.668 233.085-22.645-86.05"/><path stroke="#000" stroke-width="1.2" d="m102.374 144.568-.368 3.614 1.017-1.147 1.45.498z"/><path fill="none" stroke="#000" stroke-width="1.2" d="M127.977 232.787v-85.314"/><path stroke="#000" stroke-width="1.2" d="m127.977 144.921-1.276 3.402 1.276-.85 1.275.85z"/><path fill="none" stroke="#000" stroke-width="1.2" d="m130.285 233.085 22.645-86.05"/><path stroke="#000" stroke-width="1.2" d="m153.58 144.568-2.1 2.965 1.45-.498 1.017 1.147z"/><path fill="none" stroke="#000" stroke-width="1.2" d="m132.201 233.831 46.26-87.892"/><path stroke="#000" stroke-width="1.2" d="m179.649 143.681-2.713 2.416 1.525-.158.732 1.346z"/><path fill="none" stroke="#000" stroke-width="1.2" d="m133.596 234.74 71.16-90.137"/><path stroke="#000" stroke-width="1.2" d="m206.338 142.601-3.11 1.88 1.529.122.474 1.458z"/><path fill="none" stroke="#000" stroke-width="1.2" d="m152.099 233.831-46.26-87.892"/><path stroke="#000" stroke-width="1.2" d="m104.65 143.681.456 3.604.733-1.346 1.525.158z"/><path fill="none" stroke="#000" stroke-width="1.2" d="m154.014 233.085-22.644-86.05"/><path stroke="#000" stroke-width="1.2" d="m130.72 144.568-.368 3.614 1.018-1.147 1.45.498z"/><path fill="none" stroke="#000" stroke-width="1.2" d="M156.323 232.787v-85.314"/><path stroke="#000" stroke-width="1.2" d="m156.323 144.921-1.276 3.402 1.276-.85 1.276.85z"/><path fill="none" stroke="#000" stroke-width="1.2" d="m158.632 233.085 22.644-86.05"/><path stroke="#000" stroke-width="1.2" d="m181.926 144.568-2.1 2.965 1.45-.498 1.018 1.147z"/><path fill="none" stroke="#000" stroke-width="1.2" d="m160.548 233.831 46.259-87.892"/><path stroke="#000" stroke-width="1.2" d="m207.995 143.681-2.713 2.416 1.525-.158.733 1.346z"/><path fill="none" stroke="#000" stroke-width="1.2" d="m179.05 234.74-71.16-90.137"/><path stroke="#000" stroke-width="1.2" d="m106.308 142.601 1.107 3.46.474-1.458 1.528-.123z"/><path fill="none" stroke="#000" stroke-width="1.2" d="m180.445 233.831-46.26-87.892"/><path stroke="#000" stroke-width="1.2" d="m132.997 143.681.456 3.604.732-1.346 1.525.158z"/><path fill="none" stroke="#000" stroke-width="1.2" d="m182.361 233.085-22.645-86.05"/><path stroke="#000" stroke-width="1.2" d="m159.067 144.568-.368 3.614 1.017-1.147 1.45.498z"/><path fill="none" stroke="#000" stroke-width="1.2" d="M184.67 232.787v-85.314"/><path stroke="#000" stroke-width="1.2" d="m184.669 144.921-1.275 3.402 1.275-.85 1.276.85z"/><path fill="none" stroke="#000" stroke-width="1.2" d="m186.978 233.085 22.645-86.05"/><path stroke="#000" stroke-width="1.2" d="m210.273 144.568-2.1 2.965 1.45-.498 1.017 1.147z"/><path fill="none" stroke="#000" stroke-width="1.2" d="m206.441 235.612-97.148-92.29"/><path stroke="#000" stroke-width="1.2" d="m107.444 141.565 1.587 3.267.262-1.51 1.495-.34z"/><path fill="none" stroke="#000" stroke-width="1.2" d="m207.396 234.74-71.16-90.137"/><path stroke="#000" stroke-width="1.2" d="m134.655 142.601 1.106 3.46.475-1.458 1.528-.123z"/><path fill="none" stroke="#000" stroke-width="1.2" d="m208.792 233.831-46.26-87.892"/><path stroke="#000" stroke-width="1.2" d="m161.344 143.681.455 3.604.733-1.346 1.525.158z"/><path fill="none" stroke="#000" stroke-width="1.2" d="m210.707 233.085-22.645-86.05"/><path stroke="#000" stroke-width="1.2" d="m187.413 144.568-.368 3.614 1.017-1.147 1.45.498z"/><path fill="none" stroke="#000" stroke-width="1.2" d="M213.016 232.787v-85.314"/><path stroke="#000" stroke-width="1.2" d="m213.016 144.921-1.276 3.402 1.276-.85 1.275.85z"/><path fill="none" stroke="#000" stroke-width="1.2" d="m234.142 236.371-123.9-94.164"/><path stroke="#000" stroke-width="1.2" d="m108.211 140.663 1.936 3.074.095-1.53 1.449-.501z"/><path fill="none" stroke="#000" stroke-width="1.2" d="m234.788 235.612-97.148-92.29"/><path stroke="#000" stroke-width="1.2" d="m135.79 141.565 1.588 3.267.262-1.51 1.495-.34z"/><path fill="none" stroke="#000" stroke-width="1.2" d="m235.742 234.74-71.16-90.137"/><path stroke="#000" stroke-width="1.2" d="m163.001 142.601 1.107 3.46.474-1.458 1.528-.123z"/><path fill="none" stroke="#000" stroke-width="1.2" d="m237.138 233.831-46.26-87.892"/><path stroke="#000" stroke-width="1.2" d="m189.69 143.681.456 3.604.732-1.346 1.525.158z"/><path fill="none" stroke="#000" stroke-width="1.2" d="m239.053 233.085-22.644-86.05"/><path stroke="#000" stroke-width="1.2" d="m215.76 144.568-.368 3.614 1.017-1.147 1.45.498z"/><path fill="none" stroke="#000" stroke-width="1.2" d="m262.046 237.005-151.155-95.731"/><path stroke="#000" stroke-width="1.2" d="m108.736 139.909 2.191 2.898-.036-1.533 1.401-.623z"/><path fill="none" stroke="#000" stroke-width="1.2" d="m262.489 236.371-123.9-94.164"/><path stroke="#000" stroke-width="1.2" d="m136.557 140.663 1.937 3.074.095-1.53 1.449-.501z"/><path fill="none" stroke="#000" stroke-width="1.2" d="m263.134 235.612-97.148-92.29"/><path stroke="#000" stroke-width="1.2" d="m164.136 141.565 1.588 3.267.262-1.51 1.495-.34z"/><path fill="none" stroke="#000" stroke-width="1.2" d="m264.089 234.74-71.16-90.137"/><path stroke="#000" stroke-width="1.2" d="m191.348 142.601 1.106 3.46.475-1.458 1.528-.123z"/><path fill="none" stroke="#000" stroke-width="1.2" d="m265.484 233.831-46.26-87.892"/><path stroke="#000" stroke-width="1.2" d="m218.037 143.681.455 3.604.733-1.346 1.525.158z"/><path fill="none" stroke="#000" stroke-width="1.2" d="M99.63 120.811V39.756"/><path stroke="#000" stroke-width="1.2" d="m99.63 123.362 1.276-3.402-1.276.85-1.276-.85zm0-86.157-1.276 3.401 1.276-.85 1.276.85z"/><path fill="none" stroke="#000" stroke-width="1.2" d="m103.023 121.249 21.56-81.93"/><path stroke="#000" stroke-width="1.2" d="m102.374 123.715 2.1-2.964-1.45.497-1.018-1.147zm22.859-86.864-2.1 2.965 1.45-.497 1.018 1.147z"/><path fill="none" stroke="#000" stroke-width="1.2" d="m105.839 122.345 44.275-84.123"/><path stroke="#000" stroke-width="1.2" d="m104.65 124.603 2.714-2.417-1.525.159-.733-1.347zm46.652-88.639-2.713 2.416 1.525-.158.733 1.347z"/><path fill="none" stroke="#000" stroke-width="1.2" d="m107.89 123.68 68.52-86.793"/><path stroke="#000" stroke-width="1.2" d="m106.308 125.682 3.11-1.879-1.529-.123-.474-1.458zm71.684-90.798-3.11 1.88 1.528.123.474 1.458z"/><path fill="none" stroke="#000" stroke-width="1.2" d="m109.293 124.962 94.06-89.357"/><path stroke="#000" stroke-width="1.2" d="m107.444 126.719 3.344-1.418-1.495-.34-.262-1.51zm97.758-92.871-3.344 1.418 1.495.34.262 1.51z"/><path fill="none" stroke="#000" stroke-width="1.2" d="m124.583 121.249-21.56-81.93"/><path stroke="#000" stroke-width="1.2" d="m125.233 123.715.368-3.614-1.018 1.147-1.45-.497zm-22.859-86.864-.368 3.615 1.017-1.147 1.45.497z"/><path fill="none" stroke="#000" stroke-width="1.2" d="M127.977 120.811V39.756"/><path stroke="#000" stroke-width="1.2" d="m127.977 123.362 1.275-3.402-1.275.85-1.276-.85zm0-86.157-1.276 3.401 1.276-.85 1.275.85z"/><path fill="none" stroke="#000" stroke-width="1.2" d="m131.37 121.249 21.56-81.93"/><path stroke="#000" stroke-width="1.2" d="m130.72 123.715 2.1-2.964-1.45.497-1.018-1.147zm22.86-86.864-2.1 2.965 1.45-.497 1.017 1.147z"/><path fill="none" stroke="#000" stroke-width="1.2" d="m134.185 122.345 44.276-84.123"/><path stroke="#000" stroke-width="1.2" d="m132.997 124.603 2.713-2.417-1.525.159-.732-1.347zm46.652-88.639-2.713 2.416 1.525-.158.732 1.347z"/><path fill="none" stroke="#000" stroke-width="1.2" d="m136.236 123.68 68.52-86.793"/><path stroke="#000" stroke-width="1.2" d="m134.655 125.682 3.109-1.879-1.528-.123-.475-1.458zm71.683-90.798-3.11 1.88 1.529.123.474 1.458z"/><path fill="none" stroke="#000" stroke-width="1.2" d="M150.114 122.345 105.84 38.222"/><path stroke="#000" stroke-width="1.2" d="m151.302 124.603-.455-3.605-.733 1.347-1.525-.159zM104.65 35.964l.456 3.605.733-1.347 1.525.158z"/><path fill="none" stroke="#000" stroke-width="1.2" d="m152.93 121.249-21.56-81.93"/><path stroke="#000" stroke-width="1.2" d="m153.58 123.715.367-3.614-1.017 1.147-1.45-.497zm-22.86-86.864-.368 3.615 1.018-1.147 1.45.497z"/><path fill="none" stroke="#000" stroke-width="1.2" d="M156.323 120.811V39.756"/><path stroke="#000" stroke-width="1.2" d="m156.323 123.362 1.276-3.402-1.276.85-1.276-.85zm0-86.157-1.276 3.401 1.276-.85 1.276.85z"/><path fill="none" stroke="#000" stroke-width="1.2" d="m159.716 121.249 21.56-81.93"/><path stroke="#000" stroke-width="1.2" d="m159.067 123.715 2.099-2.964-1.45.497-1.017-1.147zm22.859-86.864-2.1 2.965 1.45-.497 1.018 1.147z"/><path fill="none" stroke="#000" stroke-width="1.2" d="m162.532 122.345 44.275-84.123"/><path stroke="#000" stroke-width="1.2" d="m161.344 124.603 2.713-2.417-1.525.159-.733-1.347zm46.651-88.639-2.713 2.416 1.525-.158.733 1.347z"/><path fill="none" stroke="#000" stroke-width="1.2" d="m176.41 123.68-68.52-86.793"/><path stroke="#000" stroke-width="1.2" d="m177.992 125.682-1.108-3.46-.474 1.458-1.528.123zm-71.684-90.798 1.107 3.46.474-1.457 1.528-.123z"/><path fill="none" stroke="#000" stroke-width="1.2" d="m178.461 122.345-44.276-84.123"/><path stroke="#000" stroke-width="1.2" d="m179.649 124.603-.456-3.605-.732 1.347-1.525-.159zm-46.652-88.639.456 3.605.732-1.347 1.525.158z"/><path fill="none" stroke="#000" stroke-width="1.2" d="m181.276 121.249-21.56-81.93"/><path stroke="#000" stroke-width="1.2" d="m181.926 123.715.368-3.614-1.018 1.147-1.45-.497zm-22.859-86.864-.368 3.615 1.017-1.147 1.45.497z"/><path fill="none" stroke="#000" stroke-width="1.2" d="M184.67 120.811V39.756"/><path stroke="#000" stroke-width="1.2" d="m184.669 123.362 1.276-3.402-1.276.85-1.275-.85zm0-86.157-1.275 3.401 1.275-.85 1.276.85z"/><path fill="none" stroke="#000" stroke-width="1.2" d="m188.062 121.249 21.56-81.93"/><path stroke="#000" stroke-width="1.2" d="m187.413 123.715 2.1-2.964-1.45.497-1.018-1.147zm22.86-86.864-2.1 2.965 1.45-.497 1.017 1.147z"/><path fill="none" stroke="#000" stroke-width="1.2" d="m203.353 124.962-94.06-89.357"/><path stroke="#000" stroke-width="1.2" d="m205.202 126.719-1.587-3.268-.262 1.51-1.495.34zm-97.758-92.871 1.587 3.268.262-1.51 1.495-.34z"/><path fill="none" stroke="#000" stroke-width="1.2" d="m204.756 123.68-68.52-86.793"/><path stroke="#000" stroke-width="1.2" d="m206.338 125.682-1.107-3.46-.474 1.458-1.528.123zm-71.683-90.798 1.106 3.46.475-1.457 1.528-.123z"/><path fill="none" stroke="#000" stroke-width="1.2" d="m206.807 122.345-44.275-84.123"/><path stroke="#000" stroke-width="1.2" d="m207.995 124.603-.455-3.605-.733 1.347-1.525-.159zm-46.651-88.639.455 3.605.733-1.347 1.525.158z"/><path fill="none" stroke="#000" stroke-width="1.2" d="m209.622 121.249-21.56-81.93"/><path stroke="#000" stroke-width="1.2" d="m210.273 123.715.367-3.614-1.017 1.147-1.45-.497zm-22.86-86.864-.368 3.615 1.017-1.147 1.45.497z"/><path fill="none" stroke="#000" stroke-width="1.2" d="M213.016 120.811V39.756"/><path stroke="#000" stroke-width="1.2" d="m213.016 123.362 1.275-3.402-1.275.85-1.276-.85zm0-86.157-1.276 3.401 1.276-.85 1.275.85z"/><path fill="none" d="M267.942 178.655h20.542v13.02h-20.542z"/><use xlink:href="#f" transform="matrix(1 0 0 -1 267.942 188.217)"/><use xlink:href="#d" transform="matrix(1 0 0 -1 282.124 191.675)"/><path fill="none" d="M242.43 70.939h20.542v13.02H242.43z"/><use xlink:href="#f" transform="matrix(1 0 0 -1 242.43 80.5)"/><use xlink:href="#e" transform="matrix(1 0 0 -1 256.612 83.959)"/><defs><symbol id="a" overflow="visible"><path d="M7.378 5.222c0 .644-.63.966-1.33.966-.602 0-1.078-.322-1.442-.966-.294.644-.784.966-1.498.966-.686 0-1.246-.322-1.694-.952C1.036 4.69.84 4.284.84 4.018c0-.126.07-.196.21-.196.126 0 .21.07.238.196.266.812.854 1.764 1.792 1.764.462 0 .686-.294.686-.868 0-.294-.252-1.386-.742-3.262-.238-.938-.658-1.4-1.26-1.4a1.3 1.3 0 0 0-.532.112q.546.21.546.756c0 .364-.182.546-.56.546-.462 0-.812-.392-.812-.854 0-.644.658-.966 1.344-.966.588 0 1.064.322 1.442.966.266-.644.77-.966 1.498-.966.672 0 1.232.322 1.68.952.378.546.574.952.574 1.218 0 .126-.07.196-.21.196-.126 0-.196-.07-.238-.196C6.258 1.218 5.628.252 4.718.252c-.462 0-.7.28-.7.854 0 .182.07.574.224 1.204l.476 1.89c.266 1.05.7 1.582 1.316 1.582.196 0 .378-.042.532-.112-.378-.126-.56-.378-.56-.756 0-.364.196-.546.574-.546.448 0 .798.406.798.854"/></symbol><symbol id="b" overflow="visible"><path d="M-.966 8.386c.126.042.182.112.182.238s-.056.196-.182.238c-.504.168-.868.476-1.092.938a.24.24 0 0 1-.224.154c-.182 0-.266-.084-.266-.252 0-.21.182-.49.546-.826h-4.34c-.182 0-.266-.084-.266-.252s.084-.252.266-.252h4.34c-.364-.336-.546-.616-.546-.826 0-.168.084-.252.266-.252a.24.24 0 0 1 .224.154c.224.462.588.77 1.092.938"/></symbol><symbol id="c" overflow="visible"><path d="M7.168 1.932C6.846.826 6.398.266 5.81.266c-.182 0-.28.126-.28.392q0 .315.252.966.84 2.247.84 3.066c0 .994-.644 1.54-1.638 1.54-.742 0-1.386-.308-1.932-.91l1.022 4.186c-.028.126-.056.21-.238.21-.462 0-1.484-.126-1.666-.14-.21-.028-.322-.126-.322-.336q0-.21.378-.21c.294 0 .616.014.644-.182L.826.602A1.3 1.3 0 0 1 .77.294c0-.294.154-.448.448-.448.28 0 .476.14.574.406l.56 2.296c.168.686.294 1.204.392 1.554.042.098.154.294.336.574.504.756 1.12 1.134 1.862 1.134.462 0 .686-.308.686-.91 0-.574-.28-1.596-.84-3.08-.126-.322-.182-.574-.182-.784 0-.672.504-1.19 1.176-1.19.616 0 1.106.35 1.456 1.064.266.56.406.938.406 1.12 0 .126-.07.196-.224.196-.042 0-.252-.126-.252-.294"/></symbol><symbol id="d" overflow="visible"><path d="M2.97 6.507c-.422-.411-1.05-.617-1.902-.617v-.431c.578 0 1.039.088 1.392.254V.833c0-.127-.01-.206-.04-.245C2.373.48 2.079.421 1.54.421h-.402V0L2.88.04 4.635 0v.421h-.401c-.54 0-.833.06-.892.167a.6.6 0 0 0-.03.245v5.36c0 .265-.039.314-.343.314"/></symbol><symbol id="e" overflow="visible"><path d="M1.166 4.155c.314 0 .549.235.549.549 0 .353-.186.539-.549.549.216.46.706.833 1.343.833.862 0 1.43-.647 1.43-1.51 0-.47-.166-.92-.509-1.362a5 5 0 0 0-.382-.47L.725.441C.598.323.617.294.617 0h4.038l.304 1.842h-.412C4.48 1.323 4.4 1.02 4.312.951 4.263.92 3.959.9 3.381.9H1.715a50 50 0 0 0 1.842 1.56c.441.343.755.647.951.911q.441.573.441 1.206c0 .607-.235 1.087-.715 1.44-.422.324-.951.49-1.578.49a2.2 2.2 0 0 1-1.402-.47C.833 5.694.617 5.263.617 4.733c0-.333.245-.578.55-.578"/></symbol><symbol id="f" overflow="visible"><path d="M16.898 9.352a.26.26 0 0 1-.252.252c-.378 0-.798-.042-1.19-.042-.532 0-1.092.042-1.61.042-.112 0-.378 0-.378-.406 0-.252.252-.252.35-.252.056 0 .616 0 .98-.154l-4.046-6.398-.84 6.482c.266.056.7.07.91.07.294 0 .518 0 .518.406 0 0 0 .252-.294.252l-2.058-.042-.896.014c-.406 0-.938.028-.938.028-.098 0-.378 0-.378-.406 0-.252.238-.252.462-.252.21 0 .49-.014.672-.028l.182-1.4c0-.042 0-.07-.112-.224l-3.094-4.9-.84 6.482c.266.056.7.07.91.07.322 0 .336.014.406.084.084.07.112.322.112.322s0 .252-.294.252l-2.072-.042-.896.014c-.378 0-.924.028-.924.028-.112 0-.378 0-.378-.406 0-.252.224-.252.462-.252.21 0 .49-.014.672-.028L3.178.182c.042-.28.07-.42.406-.42.294 0 .42.098.588.364l4.046 6.426.826-6.37c.042-.322.084-.42.42-.42.308 0 .42.112.574.364l5.222 8.288c.168.266.336.518 1.218.532.168 0 .42 0 .42.406"/></symbol></defs></svg>