<svg viewBox="0 0 397.165354331 147.88511811" width="397.165354331pt" height="147.88511811pt" xmlns="http://www.w3.org/2000/svg" xmlns:xlink="http://www.w3.org/1999/xlink" xmlns:h5="http://www.w3.org/1999/xhtml"><g transform="translate(8 8)"><g><g transform="translate(10.823192555 40.781239649)"><path fill="none" stroke="#000000" stroke-width="0.55" stroke-linecap="butt" stroke-linejoin="miter" stroke-miterlimit="4" transform="translate(0 18.746319406)" d="M 0 0m 10.823192555 18.746319406l -10.823192555 -18.746319406"/><path fill="none" stroke="#000000" stroke-width="0.55" stroke-linecap="butt" stroke-linejoin="miter" stroke-miterlimit="4" transform="translate(0 18.746319406)" d="M 0 0h 21.646385111"/><path fill="none" stroke="#000000" stroke-width="0.55" stroke-linecap="butt" stroke-linejoin="miter" stroke-miterlimit="4" transform="translate(21.646385111)" d="M 0 0m 0 18.746319406l 10.823192555 -18.746319406"/><path fill="none" stroke="#000000" stroke-width="0.55" stroke-linecap="butt" stroke-linejoin="miter" stroke-miterlimit="4" transform="translate(32.469577666)" d="M 0 0h 21.646385111"/><path fill="none" stroke="#000000" stroke-width="0.55" stroke-linecap="butt" stroke-linejoin="miter" stroke-miterlimit="4" transform="translate(43.292770222)" d="M 0 0m 10.823192555 0l -10.823192555 18.746319406"/><path fill="none" stroke="#000000" stroke-width="0.55" stroke-linecap="butt" stroke-linejoin="miter" stroke-miterlimit="4" transform="translate(43.292770222 18.746319406)" d="M 0 0l 10.823192555 18.746319406"/><path fill="none" stroke="#000000" stroke-width="0.55" stroke-linecap="butt" stroke-linejoin="miter" stroke-miterlimit="4" transform="translate(54.115962777 18.746319406)" d="M 0 0m 0 18.746319406l 10.823192555 -18.746319406"/><path fill="none" stroke="#000000" stroke-width="0.55" stroke-linecap="butt" stroke-linejoin="miter" stroke-miterlimit="4" transform="translate(64.939155333 18.746319406)" d="M 0 0l 10.823192555 18.746319406"/><path fill="none" stroke="#000000" stroke-width="0.55" stroke-linecap="butt" stroke-linejoin="miter" stroke-miterlimit="4" transform="translate(75.762347888 37.492638812)" d="M 0 0h 21.646385111"/></g></g><g transform="translate(131.05511811)"><g transform="translate(5.952755906 33.751369872)"><path fill="none" stroke="#000000" stroke-width="0.55" stroke-linecap="butt" stroke-linejoin="miter" stroke-miterlimit="4" transform="translate(0 51.552378367)" d="M 0 0m 11.905511811 0h -11.905511811"/><path fill="none" stroke="#000000" stroke-width="0.55" stroke-linecap="butt" stroke-linejoin="miter" stroke-miterlimit="4" transform="translate(0 41.241902694)" d="M 0 0m 0 10.310475673l 5.952755906 -10.310475673"/><path fill="none" stroke="#000000" stroke-width="0.55" stroke-linecap="butt" stroke-linejoin="miter" stroke-miterlimit="4" transform="translate(0 30.93142702)" d="M 0 0m 5.952755906 10.310475673l -5.952755906 -10.310475673"/><path fill="none" stroke="#000000" stroke-width="0.55" stroke-linecap="butt" stroke-linejoin="miter" stroke-miterlimit="4" transform="translate(0 20.620951347)" d="M 0 0m 0 10.310475673l 5.952755906 -10.310475673"/><path fill="none" stroke="#000000" stroke-width="0.55" stroke-linecap="butt" stroke-linejoin="miter" stroke-miterlimit="4" transform="translate(5.952755906 20.620951347)" d="M 0 0l 5.952755906 10.310475673"/><path fill="none" stroke="#000000" stroke-width="0.55" stroke-linecap="butt" stroke-linejoin="miter" stroke-miterlimit="4" transform="translate(11.905511811 30.93142702)" d="M 0 0h 11.905511811"/><path fill="none" stroke="#000000" stroke-width="0.55" stroke-linecap="butt" stroke-linejoin="miter" stroke-miterlimit="4" transform="translate(17.858267717 20.620951347)" d="M 0 0m 5.952755906 10.310475673l -5.952755906 -10.310475673"/><path fill="none" stroke="#000000" stroke-width="0.55" stroke-linecap="butt" stroke-linejoin="miter" stroke-miterlimit="4" transform="translate(17.858267717 20.620951347)" d="M 0 0h 11.905511811"/><path fill="none" stroke="#000000" stroke-width="0.55" stroke-linecap="butt" stroke-linejoin="miter" stroke-miterlimit="4" transform="translate(29.763779528 10.310475673)" d="M 0 0m 0 10.310475673l 5.952755906 -10.310475673"/><path fill="none" stroke="#000000" stroke-width="0.55" stroke-linecap="butt" stroke-linejoin="miter" stroke-miterlimit="4" transform="translate(35.716535433)" d="M 0 0m 0 10.310475673l 5.952755906 -10.310475673"/><path fill="none" stroke="#000000" stroke-width="0.55" stroke-linecap="butt" stroke-linejoin="miter" stroke-miterlimit="4" transform="translate(41.669291339)" d="M 0 0l 5.952755906 10.310475673"/><path fill="none" stroke="#000000" stroke-width="0.55" stroke-linecap="butt" stroke-linejoin="miter" stroke-miterlimit="4" transform="translate(47.622047244 10.310475673)" d="M 0 0h 11.905511811"/><path fill="none" stroke="#000000" stroke-width="0.55" stroke-linecap="butt" stroke-linejoin="miter" stroke-miterlimit="4" transform="translate(59.527559055 10.310475673)" d="M 0 0l 5.952755906 10.310475673"/><path fill="none" stroke="#000000" stroke-width="0.55" stroke-linecap="butt" stroke-linejoin="miter" stroke-miterlimit="4" transform="translate(53.57480315 20.620951347)" d="M 0 0m 11.905511811 0h -11.905511811"/><path fill="none" stroke="#000000" stroke-width="0.55" stroke-linecap="butt" stroke-linejoin="miter" stroke-miterlimit="4" transform="translate(47.622047244 20.620951347)" d="M 0 0m 5.952755906 0l -5.952755906 10.310475673"/><path fill="none" stroke="#000000" stroke-width="0.55" stroke-linecap="butt" stroke-linejoin="miter" stroke-miterlimit="4" transform="translate(47.622047244 30.93142702)" d="M 0 0h 11.905511811"/><path fill="none" stroke="#000000" stroke-width="0.55" stroke-linecap="butt" stroke-linejoin="miter" stroke-miterlimit="4" transform="translate(53.57480315 30.93142702)" d="M 0 0m 5.952755906 0l -5.952755906 10.310475673"/><path fill="none" stroke="#000000" stroke-width="0.55" stroke-linecap="butt" stroke-linejoin="miter" stroke-miterlimit="4" transform="translate(53.57480315 41.241902694)" d="M 0 0l 5.952755906 10.310475673"/><path fill="none" stroke="#000000" stroke-width="0.55" stroke-linecap="butt" stroke-linejoin="miter" stroke-miterlimit="4" transform="translate(53.57480315 41.241902694)" d="M 0 0m 5.952755906 10.310475673l -5.952755906 -10.310475673"/><path fill="none" stroke="#000000" stroke-width="0.55" stroke-linecap="butt" stroke-linejoin="miter" stroke-miterlimit="4" transform="translate(53.57480315 41.241902694)" d="M 0 0h 11.905511811"/><path fill="none" stroke="#000000" stroke-width="0.55" stroke-linecap="butt" stroke-linejoin="miter" stroke-miterlimit="4" transform="translate(65.480314961 30.93142702)" d="M 0 0m 0 10.310475673l 5.952755906 -10.310475673"/><path fill="none" stroke="#000000" stroke-width="0.55" stroke-linecap="butt" stroke-linejoin="miter" stroke-miterlimit="4" transform="translate(71.433070866 30.93142702)" d="M 0 0h 11.905511811"/><path fill="none" stroke="#000000" stroke-width="0.55" stroke-linecap="butt" stroke-linejoin="miter" stroke-miterlimit="4" transform="translate(77.385826772 30.93142702)" d="M 0 0m 5.952755906 0l -5.952755906 10.310475673"/><path fill="none" stroke="#000000" stroke-width="0.55" stroke-linecap="butt" stroke-linejoin="miter" stroke-miterlimit="4" transform="translate(77.385826772 41.241902694)" d="M 0 0l 5.952755906 10.310475673"/><path fill="none" stroke="#000000" stroke-width="0.55" stroke-linecap="butt" stroke-linejoin="miter" stroke-miterlimit="4" transform="translate(83.338582677 41.241902694)" d="M 0 0m 0 10.310475673l 5.952755906 -10.310475673"/><path fill="none" stroke="#000000" stroke-width="0.55" stroke-linecap="butt" stroke-linejoin="miter" stroke-miterlimit="4" transform="translate(89.291338583 41.241902694)" d="M 0 0l 5.952755906 10.310475673"/><path fill="none" stroke="#000000" stroke-width="0.55" stroke-linecap="butt" stroke-linejoin="miter" stroke-miterlimit="4" transform="translate(95.244094488 51.552378367)" d="M 0 0h 11.905511811"/></g></g><g transform="translate(262.11023622)"><g transform="translate(3.052695336 30.446730233)"><path fill="none" stroke="#000000" stroke-width="0.55" stroke-linecap="butt" stroke-linejoin="miter" stroke-miterlimit="4" transform="translate(12.210781345 52.874234223)" d="M 0 0m 3.052695336 0l -3.052695336 5.287423422"/><path fill="none" stroke="#000000" stroke-width="0.55" stroke-linecap="butt" stroke-linejoin="miter" stroke-miterlimit="4" transform="translate(9.158086008 52.874234223)" d="M 0 0m 3.052695336 5.287423422l -3.052695336 -5.287423422"/><path fill="none" stroke="#000000" stroke-width="0.55" stroke-linecap="butt" stroke-linejoin="miter" stroke-miterlimit="4" transform="translate(3.052695336 52.874234223)" d="M 0 0m 6.105390672 0h -6.105390672"/><path fill="none" stroke="#000000" stroke-width="0.55" stroke-linecap="butt" stroke-linejoin="miter" stroke-miterlimit="4" transform="translate(0 47.5868108)" d="M 0 0m 3.052695336 5.287423422l -3.052695336 -5.287423422"/><path fill="none" stroke="#000000" stroke-width="0.55" stroke-linecap="butt" stroke-linejoin="miter" stroke-miterlimit="4" transform="translate(0 47.5868108)" d="M 0 0h 6.105390672"/><path fill="none" stroke="#000000" stroke-width="0.55" stroke-linecap="butt" stroke-linejoin="miter" stroke-miterlimit="4" transform="translate(6.105390672 42.299387378)" d="M 0 0m 0 5.287423422l 3.052695336 -5.287423422"/><path fill="none" stroke="#000000" stroke-width="0.55" stroke-linecap="butt" stroke-linejoin="miter" stroke-miterlimit="4" transform="translate(3.052695336 42.299387378)" d="M 0 0m 6.105390672 0h -6.105390672"/><path fill="none" stroke="#000000" stroke-width="0.55" stroke-linecap="butt" stroke-linejoin="miter" stroke-miterlimit="4" transform="translate(3.052695336 37.011963956)" d="M 0 0m 0 5.287423422l 3.052695336 -5.287423422"/><path fill="none" stroke="#000000" stroke-width="0.55" stroke-linecap="butt" stroke-linejoin="miter" stroke-miterlimit="4" transform="translate(3.052695336 31.724540534)" d="M 0 0m 3.052695336 5.287423422l -3.052695336 -5.287423422"/><path fill="none" stroke="#000000" stroke-width="0.55" stroke-linecap="butt" stroke-linejoin="miter" stroke-miterlimit="4" transform="translate(0 26.437117111)" d="M 0 0m 3.052695336 5.287423422l -3.052695336 -5.287423422"/><path fill="none" stroke="#000000" stroke-width="0.55" stroke-linecap="butt" stroke-linejoin="miter" stroke-miterlimit="4" transform="translate(0 26.437117111)" d="M 0 0h 6.105390672"/><path fill="none" stroke="#000000" stroke-width="0.55" stroke-linecap="butt" stroke-linejoin="miter" stroke-miterlimit="4" transform="translate(6.105390672 21.149693689)" d="M 0 0m 0 5.287423422l 3.052695336 -5.287423422"/><path fill="none" stroke="#000000" stroke-width="0.55" stroke-linecap="butt" stroke-linejoin="miter" stroke-miterlimit="4" transform="translate(9.158086008 21.149693689)" d="M 0 0h 6.105390672"/><path fill="none" stroke="#000000" stroke-width="0.55" stroke-linecap="butt" stroke-linejoin="miter" stroke-miterlimit="4" transform="translate(12.210781345 21.149693689)" d="M 0 0m 3.052695336 0l -3.052695336 5.287423422"/><path fill="none" stroke="#000000" stroke-width="0.55" stroke-linecap="butt" stroke-linejoin="miter" stroke-miterlimit="4" transform="translate(12.210781345 26.437117111)" d="M 0 0l 3.052695336 5.287423422"/><path fill="none" stroke="#000000" stroke-width="0.55" stroke-linecap="butt" stroke-linejoin="miter" stroke-miterlimit="4" transform="translate(15.263476681 26.437117111)" d="M 0 0m 0 5.287423422l 3.052695336 -5.287423422"/><path fill="none" stroke="#000000" stroke-width="0.55" stroke-linecap="butt" stroke-linejoin="miter" stroke-miterlimit="4" transform="translate(18.316172017 26.437117111)" d="M 0 0l 3.052695336 5.287423422"/><path fill="none" stroke="#000000" stroke-width="0.55" stroke-linecap="butt" stroke-linejoin="miter" stroke-miterlimit="4" transform="translate(21.368867353 31.724540534)" d="M 0 0h 6.105390672"/><path fill="none" stroke="#000000" stroke-width="0.55" stroke-linecap="butt" stroke-linejoin="miter" stroke-miterlimit="4" transform="translate(21.368867353 31.724540534)" d="M 0 0m 6.105390672 0h -6.105390672"/><path fill="none" stroke="#000000" stroke-width="0.55" stroke-linecap="butt" stroke-linejoin="miter" stroke-miterlimit="4" transform="translate(21.368867353 26.437117111)" d="M 0 0m 0 5.287423422l 3.052695336 -5.287423422"/><path fill="none" stroke="#000000" stroke-width="0.55" stroke-linecap="butt" stroke-linejoin="miter" stroke-miterlimit="4" transform="translate(21.368867353 21.149693689)" d="M 0 0m 3.052695336 5.287423422l -3.052695336 -5.287423422"/><path fill="none" stroke="#000000" stroke-width="0.55" stroke-linecap="butt" stroke-linejoin="miter" stroke-miterlimit="4" transform="translate(21.368867353 15.862270267)" d="M 0 0m 0 5.287423422l 3.052695336 -5.287423422"/><path fill="none" stroke="#000000" stroke-width="0.55" stroke-linecap="butt" stroke-linejoin="miter" stroke-miterlimit="4" transform="translate(24.421562689 15.862270267)" d="M 0 0l 3.052695336 5.287423422"/><path fill="none" stroke="#000000" stroke-width="0.55" stroke-linecap="butt" stroke-linejoin="miter" stroke-miterlimit="4" transform="translate(27.474258025 21.149693689)" d="M 0 0h 6.105390672"/><path fill="none" stroke="#000000" stroke-width="0.55" stroke-linecap="butt" stroke-linejoin="miter" stroke-miterlimit="4" transform="translate(30.526953362 15.862270267)" d="M 0 0m 3.052695336 5.287423422l -3.052695336 -5.287423422"/><path fill="none" stroke="#000000" stroke-width="0.55" stroke-linecap="butt" stroke-linejoin="miter" stroke-miterlimit="4" transform="translate(30.526953362 15.862270267)" d="M 0 0h 6.105390672"/><path fill="none" stroke="#000000" stroke-width="0.55" stroke-linecap="butt" stroke-linejoin="miter" stroke-miterlimit="4" transform="translate(36.632344034 10.574846845)" d="M 0 0m 0 5.287423422l 3.052695336 -5.287423422"/><path fill="none" stroke="#000000" stroke-width="0.55" stroke-linecap="butt" stroke-linejoin="miter" stroke-miterlimit="4" transform="translate(36.632344034 5.287423422)" d="M 0 0m 3.052695336 5.287423422l -3.052695336 -5.287423422"/><path fill="none" stroke="#000000" stroke-width="0.55" stroke-linecap="butt" stroke-linejoin="miter" stroke-miterlimit="4" transform="translate(36.632344034 5.287423422)" d="M 0 0h 6.105390672"/><path fill="none" stroke="#000000" stroke-width="0.55" stroke-linecap="butt" stroke-linejoin="miter" stroke-miterlimit="4" transform="translate(42.737734706)" d="M 0 0m 0 5.287423422l 3.052695336 -5.287423422"/><path fill="none" stroke="#000000" stroke-width="0.55" stroke-linecap="butt" stroke-linejoin="miter" stroke-miterlimit="4" transform="translate(45.790430042)" d="M 0 0h 6.105390672"/><path fill="none" stroke="#000000" stroke-width="0.55" stroke-linecap="butt" stroke-linejoin="miter" stroke-miterlimit="4" transform="translate(48.843125379)" d="M 0 0m 3.052695336 0l -3.052695336 5.287423422"/><path fill="none" stroke="#000000" stroke-width="0.55" stroke-linecap="butt" stroke-linejoin="miter" stroke-miterlimit="4" transform="translate(48.843125379 5.287423422)" d="M 0 0l 3.052695336 5.287423422"/><path fill="none" stroke="#000000" stroke-width="0.55" stroke-linecap="butt" stroke-linejoin="miter" stroke-miterlimit="4" transform="translate(51.895820715 5.287423422)" d="M 0 0m 0 5.287423422l 3.052695336 -5.287423422"/><path fill="none" stroke="#000000" stroke-width="0.55" stroke-linecap="butt" stroke-linejoin="miter" stroke-miterlimit="4" transform="translate(54.948516051 5.287423422)" d="M 0 0l 3.052695336 5.287423422"/><path fill="none" stroke="#000000" stroke-width="0.55" stroke-linecap="butt" stroke-linejoin="miter" stroke-miterlimit="4" transform="translate(58.001211387 10.574846845)" d="M 0 0h 6.105390672"/><path fill="none" stroke="#000000" stroke-width="0.55" stroke-linecap="butt" stroke-linejoin="miter" stroke-miterlimit="4" transform="translate(64.106602059 10.574846845)" d="M 0 0h 6.105390672"/><path fill="none" stroke="#000000" stroke-width="0.55" stroke-linecap="butt" stroke-linejoin="miter" stroke-miterlimit="4" transform="translate(67.159297396 10.574846845)" d="M 0 0m 3.052695336 0l -3.052695336 5.287423422"/><path fill="none" stroke="#000000" stroke-width="0.55" stroke-linecap="butt" stroke-linejoin="miter" stroke-miterlimit="4" transform="translate(67.159297396 15.862270267)" d="M 0 0l 3.052695336 5.287423422"/><path fill="none" stroke="#000000" stroke-width="0.55" stroke-linecap="butt" stroke-linejoin="miter" stroke-miterlimit="4" transform="translate(67.159297396 21.149693689)" d="M 0 0m 3.052695336 0l -3.052695336 5.287423422"/><path fill="none" stroke="#000000" stroke-width="0.55" stroke-linecap="butt" stroke-linejoin="miter" stroke-miterlimit="4" transform="translate(64.106602059 21.149693689)" d="M 0 0m 3.052695336 5.287423422l -3.052695336 -5.287423422"/><path fill="none" stroke="#000000" stroke-width="0.55" stroke-linecap="butt" stroke-linejoin="miter" stroke-miterlimit="4" transform="translate(58.001211387 21.149693689)" d="M 0 0m 6.105390672 0h -6.105390672"/><path fill="none" stroke="#000000" stroke-width="0.55" stroke-linecap="butt" stroke-linejoin="miter" stroke-miterlimit="4" transform="translate(58.001211387 21.149693689)" d="M 0 0l 3.052695336 5.287423422"/><path fill="none" stroke="#000000" stroke-width="0.55" stroke-linecap="butt" stroke-linejoin="miter" stroke-miterlimit="4" transform="translate(54.948516051 26.437117111)" d="M 0 0m 6.105390672 0h -6.105390672"/><path fill="none" stroke="#000000" stroke-width="0.55" stroke-linecap="butt" stroke-linejoin="miter" stroke-miterlimit="4" transform="translate(51.895820715 26.437117111)" d="M 0 0m 3.052695336 0l -3.052695336 5.287423422"/><path fill="none" stroke="#000000" stroke-width="0.55" stroke-linecap="butt" stroke-linejoin="miter" stroke-miterlimit="4" transform="translate(51.895820715 26.437117111)" d="M 0 0m 0 5.287423422l 3.052695336 -5.287423422"/><path fill="none" stroke="#000000" stroke-width="0.55" stroke-linecap="butt" stroke-linejoin="miter" stroke-miterlimit="4" transform="translate(54.948516051 26.437117111)" d="M 0 0l 3.052695336 5.287423422"/><path fill="none" stroke="#000000" stroke-width="0.55" stroke-linecap="butt" stroke-linejoin="miter" stroke-miterlimit="4" transform="translate(58.001211387 31.724540534)" d="M 0 0h 6.105390672"/><path fill="none" stroke="#000000" stroke-width="0.55" stroke-linecap="butt" stroke-linejoin="miter" stroke-miterlimit="4" transform="translate(64.106602059 31.724540534)" d="M 0 0l 3.052695336 5.287423422"/><path fill="none" stroke="#000000" stroke-width="0.55" stroke-linecap="butt" stroke-linejoin="miter" stroke-miterlimit="4" transform="translate(61.053906723 37.011963956)" d="M 0 0m 6.105390672 0h -6.105390672"/><path fill="none" stroke="#000000" stroke-width="0.55" stroke-linecap="butt" stroke-linejoin="miter" stroke-miterlimit="4" transform="translate(58.001211387 37.011963956)" d="M 0 0m 3.052695336 0l -3.052695336 5.287423422"/><path fill="none" stroke="#000000" stroke-width="0.55" stroke-linecap="butt" stroke-linejoin="miter" stroke-miterlimit="4" transform="translate(58.001211387 42.299387378)" d="M 0 0h 6.105390672"/><path fill="none" stroke="#000000" stroke-width="0.55" stroke-linecap="butt" stroke-linejoin="miter" stroke-miterlimit="4" transform="translate(61.053906723 42.299387378)" d="M 0 0m 3.052695336 0l -3.052695336 5.287423422"/><path fill="none" stroke="#000000" stroke-width="0.55" stroke-linecap="butt" stroke-linejoin="miter" stroke-miterlimit="4" transform="translate(61.053906723 47.5868108)" d="M 0 0l 3.052695336 5.287423422"/><path fill="none" stroke="#000000" stroke-width="0.55" stroke-linecap="butt" stroke-linejoin="miter" stroke-miterlimit="4" transform="translate(58.001211387 52.874234223)" d="M 0 0m 6.105390672 0h -6.105390672"/><path fill="none" stroke="#000000" stroke-width="0.55" stroke-linecap="butt" stroke-linejoin="miter" stroke-miterlimit="4" transform="translate(58.001211387 47.5868108)" d="M 0 0m 0 5.287423422l 3.052695336 -5.287423422"/><path fill="none" stroke="#000000" stroke-width="0.55" stroke-linecap="butt" stroke-linejoin="miter" stroke-miterlimit="4" transform="translate(58.001211387 42.299387378)" d="M 0 0m 3.052695336 5.287423422l -3.052695336 -5.287423422"/><path fill="none" stroke="#000000" stroke-width="0.55" stroke-linecap="butt" stroke-linejoin="miter" stroke-miterlimit="4" transform="translate(58.001211387 37.011963956)" d="M 0 0m 0 5.287423422l 3.052695336 -5.287423422"/><path fill="none" stroke="#000000" stroke-width="0.55" stroke-linecap="butt" stroke-linejoin="miter" stroke-miterlimit="4" transform="translate(61.053906723 37.011963956)" d="M 0 0l 3.052695336 5.287423422"/><path fill="none" stroke="#000000" stroke-width="0.55" stroke-linecap="butt" stroke-linejoin="miter" stroke-miterlimit="4" transform="translate(64.106602059 42.299387378)" d="M 0 0h 6.105390672"/><path fill="none" stroke="#000000" stroke-width="0.55" stroke-linecap="butt" stroke-linejoin="miter" stroke-miterlimit="4" transform="translate(67.159297396 37.011963956)" d="M 0 0m 3.052695336 5.287423422l -3.052695336 -5.287423422"/><path fill="none" stroke="#000000" stroke-width="0.55" stroke-linecap="butt" stroke-linejoin="miter" stroke-miterlimit="4" transform="translate(67.159297396 37.011963956)" d="M 0 0h 6.105390672"/><path fill="none" stroke="#000000" stroke-width="0.55" stroke-linecap="butt" stroke-linejoin="miter" stroke-miterlimit="4" transform="translate(73.264688068 31.724540534)" d="M 0 0m 0 5.287423422l 3.052695336 -5.287423422"/><path fill="none" stroke="#000000" stroke-width="0.55" stroke-linecap="butt" stroke-linejoin="miter" stroke-miterlimit="4" transform="translate(76.317383404 26.437117111)" d="M 0 0m 0 5.287423422l 3.052695336 -5.287423422"/><path fill="none" stroke="#000000" stroke-width="0.55" stroke-linecap="butt" stroke-linejoin="miter" stroke-miterlimit="4" transform="translate(79.37007874 26.437117111)" d="M 0 0l 3.052695336 5.287423422"/><path fill="none" stroke="#000000" stroke-width="0.55" stroke-linecap="butt" stroke-linejoin="miter" stroke-miterlimit="4" transform="translate(82.422774076 31.724540534)" d="M 0 0h 6.105390672"/><path fill="none" stroke="#000000" stroke-width="0.55" stroke-linecap="butt" stroke-linejoin="miter" stroke-miterlimit="4" transform="translate(88.528164749 31.724540534)" d="M 0 0l 3.052695336 5.287423422"/><path fill="none" stroke="#000000" stroke-width="0.55" stroke-linecap="butt" stroke-linejoin="miter" stroke-miterlimit="4" transform="translate(85.475469412 37.011963956)" d="M 0 0m 6.105390672 0h -6.105390672"/><path fill="none" stroke="#000000" stroke-width="0.55" stroke-linecap="butt" stroke-linejoin="miter" stroke-miterlimit="4" transform="translate(82.422774076 37.011963956)" d="M 0 0m 3.052695336 0l -3.052695336 5.287423422"/><path fill="none" stroke="#000000" stroke-width="0.55" stroke-linecap="butt" stroke-linejoin="miter" stroke-miterlimit="4" transform="translate(82.422774076 42.299387378)" d="M 0 0h 6.105390672"/><path fill="none" stroke="#000000" stroke-width="0.55" stroke-linecap="butt" stroke-linejoin="miter" stroke-miterlimit="4" transform="translate(85.475469412 42.299387378)" d="M 0 0m 3.052695336 0l -3.052695336 5.287423422"/><path fill="none" stroke="#000000" stroke-width="0.55" stroke-linecap="butt" stroke-linejoin="miter" stroke-miterlimit="4" transform="translate(85.475469412 47.5868108)" d="M 0 0l 3.052695336 5.287423422"/><path fill="none" stroke="#000000" stroke-width="0.55" stroke-linecap="butt" stroke-linejoin="miter" stroke-miterlimit="4" transform="translate(85.475469412 47.5868108)" d="M 0 0m 3.052695336 5.287423422l -3.052695336 -5.287423422"/><path fill="none" stroke="#000000" stroke-width="0.55" stroke-linecap="butt" stroke-linejoin="miter" stroke-miterlimit="4" transform="translate(85.475469412 47.5868108)" d="M 0 0h 6.105390672"/><path fill="none" stroke="#000000" stroke-width="0.55" stroke-linecap="butt" stroke-linejoin="miter" stroke-miterlimit="4" transform="translate(91.580860085 42.299387378)" d="M 0 0m 0 5.287423422l 3.052695336 -5.287423422"/><path fill="none" stroke="#000000" stroke-width="0.55" stroke-linecap="butt" stroke-linejoin="miter" stroke-miterlimit="4" transform="translate(94.633555421 42.299387378)" d="M 0 0h 6.105390672"/><path fill="none" stroke="#000000" stroke-width="0.55" stroke-linecap="butt" stroke-linejoin="miter" stroke-miterlimit="4" transform="translate(97.686250757 42.299387378)" d="M 0 0m 3.052695336 0l -3.052695336 5.287423422"/><path fill="none" stroke="#000000" stroke-width="0.55" stroke-linecap="butt" stroke-linejoin="miter" stroke-miterlimit="4" transform="translate(97.686250757 47.5868108)" d="M 0 0l 3.052695336 5.287423422"/><path fill="none" stroke="#000000" stroke-width="0.55" stroke-linecap="butt" stroke-linejoin="miter" stroke-miterlimit="4" transform="translate(100.738946093 47.5868108)" d="M 0 0m 0 5.287423422l 3.052695336 -5.287423422"/><path fill="none" stroke="#000000" stroke-width="0.55" stroke-linecap="butt" stroke-linejoin="miter" stroke-miterlimit="4" transform="translate(103.791641429 47.5868108)" d="M 0 0l 3.052695336 5.287423422"/><path fill="none" stroke="#000000" stroke-width="0.55" stroke-linecap="butt" stroke-linejoin="miter" stroke-miterlimit="4" transform="translate(106.844336766 52.874234223)" d="M 0 0h 6.105390672"/></g></g><g transform="matrix(1 0 0 -1 47.359781277 131.88511811)"><use xlink:href="#g2EFE33C5504D867B813D7940C7587DC4" x="0" y="0" fill="#000000" fill-rule="nonzero"/></g><g transform="matrix(1 0 0 -1 56.137559055 131.88511811)"><use xlink:href="#g7679559C61795D4B2FBCEF1D6942AEE" x="0" y="0" fill="#000000" fill-rule="nonzero"/></g><g transform="matrix(1 0 0 -1 66.695336833 131.88511811)"><use xlink:href="#g187F960CD8D343F130EAFAB63E4BE0DE" x="0" y="0" fill="#000000" fill-rule="nonzero"/></g><g transform="matrix(1 0 0 -1 178.414899388 131.88511811)"><use xlink:href="#g2EFE33C5504D867B813D7940C7587DC4" x="0" y="0" fill="#000000" fill-rule="nonzero"/></g><g transform="matrix(1 0 0 -1 187.192677165 131.88511811)"><use xlink:href="#g7679559C61795D4B2FBCEF1D6942AEE" x="0" y="0" fill="#000000" fill-rule="nonzero"/></g><g transform="matrix(1 0 0 -1 197.750454943 131.88511811)"><use xlink:href="#g2944E08BBD755E2996904E6E0A970414" x="0" y="0" fill="#000000" fill-rule="nonzero"/></g><g transform="matrix(1 0 0 -1 309.470017498 131.88511811)"><use xlink:href="#g2EFE33C5504D867B813D7940C7587DC4" x="0" y="0" fill="#000000" fill-rule="nonzero"/></g><g transform="matrix(1 0 0 -1 318.247795276 131.88511811)"><use xlink:href="#g7679559C61795D4B2FBCEF1D6942AEE" x="0" y="0" fill="#000000" fill-rule="nonzero"/></g><g transform="matrix(1 0 0 -1 328.805573053 131.88511811)"><use xlink:href="#g25AA077DE012500399ECCD32292552DD" x="0" y="0" fill="#000000" fill-rule="nonzero"/></g></g><defs><symbol id="g2EFE33C5504D867B813D7940C7587DC4" overflow="visible"><path d="M 0 0m 5.37 1.37c -0.23 -0.79 -0.56 -1.19 -0.97 -1.19c -0.13 0 -0.2 0.1 -0.2 0.29c 0 0.14 0.06 0.37 0.18 0.68c 0.4 1.09 0.6 1.81 0.6 2.18c 0 0.7 -0.47 1.09 -1.17 1.09c -0.59 0 -1.1 -0.26 -1.51 -0.79c -0.08 0.44 -0.43 0.79 -0.94 0.79c -0.56 0 -0.78 -0.52 -0.92 -0.97c -0.1 -0.32 -0.15 -0.51 -0.15 -0.58c 0 -0.09 0.05 -0.14 0.16 -0.14c 0.05 0 0.08 0.01 0.11 0.03c 0.05 0.09 0.08 0.16 0.09 0.23c 0.18 0.76 0.41 1.14 0.68 1.14c 0.18 0 0.27 -0.14 0.27 -0.42c 0 -0.13 -0.05 -0.4 -0.16 -0.81l -0.57 -2.27c -0.03 -0.13 -0.09 -0.39 -0.09 -0.44c 0 -0.2 0.11 -0.3 0.33 -0.3c 0.19 0 0.33 0.1 0.4 0.3c 0.02 0.05 0.08 0.3 0.19 0.73l 0.21 0.89l 0.3 1.14c 0.11 0.23 0.28 0.46 0.49 0.7c 0.29 0.32 0.65 0.48 1.08 0.48c 0.33 0 0.49 -0.22 0.49 -0.65c 0 -0.38 -0.21 -1.14 -0.64 -2.28c -0.07 -0.18 -0.1 -0.33 -0.1 -0.46c 0 -0.49 0.37 -0.85 0.85 -0.85c 0.44 0 0.79 0.25 1.04 0.75c 0.19 0.4 0.29 0.67 0.29 0.8c 0 0.09 -0.05 0.14 -0.16 0.14c -0.03 0 -0.18 -0.09 -0.18 -0.21Z "/></symbol><symbol id="g7679559C61795D4B2FBCEF1D6942AEE" overflow="visible"><path d="M 0 0m 6.98 3.67h -6.18c -0.16 0 -0.24 -0.08 -0.24 -0.23c 0 -0.15 0.08 -0.23 0.24 -0.23h 6.18c 0.16 0 0.24 0.08 0.24 0.23c 0 0.12 -0.11 0.23 -0.24 0.23Z m 0 -1.88h -6.18c -0.16 0 -0.24 -0.08 -0.24 -0.23c 0 -0.15 0.08 -0.23 0.24 -0.23h 6.18c 0.16 0 0.24 0.08 0.24 0.23c 0 0.13 -0.11 0.23 -0.24 0.23Z "/></symbol><symbol id="g187F960CD8D343F130EAFAB63E4BE0DE" overflow="visible"><path d="M 0 0m 2.37 6.66c -0.51 0 -0.94 -0.18 -1.31 -0.54c -0.37 -0.36 -0.56 -0.78 -0.56 -1.29c 0 -0.34 0.25 -0.59 0.56 -0.59c 0.3 0 0.55 0.26 0.55 0.56c 0 0.33 -0.24 0.56 -0.56 0.56c -0.03 0 -0.05 0 -0.07 -0.01c 0.19 0.49 0.63 0.92 1.26 0.92c 0.82 0 1.28 -0.71 1.28 -1.57c 0 -0.67 -0.34 -1.39 -1.02 -2.15l -1.88 -2.12c -0.13 -0.15 -0.12 -0.14 -0.12 -0.43h 3.71l 0.29 1.8h -0.33c -0.08 -0.51 -0.15 -0.8 -0.21 -0.89c -0.05 -0.05 -0.35 -0.07 -0.9 -0.07h -1.67l 0.97 0.95c 0.68 0.64 1.54 1.33 1.83 1.86c 0.2 0.35 0.3 0.7 0.3 1.05c 0 1.18 -0.92 1.96 -2.12 1.96Z "/></symbol><symbol id="g2944E08BBD755E2996904E6E0A970414" overflow="visible"><path d="M 0 0m 3.03 3.53c 0.66 0.25 1.28 0.88 1.28 1.73c 0 0.43 -0.21 0.78 -0.62 1.05c -0.36 0.23 -0.77 0.35 -1.23 0.35c -0.45 0 -0.84 -0.12 -1.19 -0.35c -0.39 -0.26 -0.59 -0.6 -0.59 -1.03c 0 -0.33 0.22 -0.56 0.54 -0.56c 0.32 0 0.54 0.23 0.54 0.55c 0 0.33 -0.19 0.51 -0.57 0.53c 0.26 0.35 0.67 0.53 1.23 0.53c 0.6 0 0.9 -0.35 0.9 -1.06c 0 -0.42 -0.08 -0.77 -0.23 -1.06c -0.27 -0.48 -0.64 -0.57 -1.26 -0.57c -0.12 -0.02 -0.18 -0.07 -0.18 -0.16c 0 -0.15 0.07 -0.15 0.27 -0.15h 0.43c 0.75 0 1.13 -0.53 1.13 -1.6c 0 -0.85 -0.31 -1.59 -1.07 -1.59c -0.65 0 -1.13 0.22 -1.42 0.66c 0.35 -0.01 0.61 0.25 0.61 0.59c 0 0.34 -0.25 0.59 -0.59 0.59c -0.39 0 -0.59 -0.2 -0.59 -0.61c 0 -0.49 0.22 -0.88 0.66 -1.19c 0.39 -0.27 0.85 -0.4 1.36 -0.4c 0.57 0 1.06 0.19 1.49 0.56c 0.43 0.37 0.64 0.83 0.64 1.39c 0 0.94 -0.74 1.59 -1.54 1.8Z "/></symbol><symbol id="g25AA077DE012500399ECCD32292552DD" overflow="visible"><path d="M 0 0m 3.53 6.77c -0.09 0 -0.17 -0.05 -0.23 -0.14l -3.02 -4.64v -0.36h 2.61v -0.82c 0 -0.18 -0.04 -0.3 -0.11 -0.35c -0.07 -0.05 -0.26 -0.07 -0.59 -0.07h -0.25v -0.39c 0.29 0.02 0.75 0.03 1.37 0.03c 0.62 0 1.08 -0.01 1.37 -0.03v 0.39h -0.25c -0.33 0 -0.52 0.02 -0.59 0.07c -0.07 0.05 -0.11 0.17 -0.11 0.35v 0.82h 0.98v 0.39h -0.98v 4.58c 0 0.1 -0.07 0.17 -0.2 0.17Z m -0.58 -1.24v -3.51h -2.28Z "/></symbol></defs></svg>