<svg viewBox="0 0 393.165354331 176.11711811" width="393.165354331pt" height="176.11711811pt" xmlns="http://www.w3.org/2000/svg" xmlns:xlink="http://www.w3.org/1999/xlink" xmlns:h5="http://www.w3.org/1999/xhtml"><g transform="translate(8 8)"><g transform="matrix(1 0 0 -1 156.446677165 7.74)"><use xlink:href="#gC3A16C23031426E502F928A531042C94" x="0" y="0" fill="#1a1a1a" fill-rule="nonzero"/><use xlink:href="#g482B6484D8169192ED302BC1FABC0EB8" x="8.592" y="0" fill="#1a1a1a" fill-rule="nonzero"/><use xlink:href="#gEF03CC905B39DF2CE13E9EED9CECE9CC" x="15.288" y="0" fill="#1a1a1a" fill-rule="nonzero"/><use xlink:href="#g5C8521CD324BD598695A36491E4CE69D" x="20.76" y="0" fill="#1a1a1a" fill-rule="nonzero"/><use xlink:href="#gC2725F9DC1D542B814F24406C37F92E1" x="31.188" y="0" fill="#1a1a1a" fill-rule="nonzero"/><use xlink:href="#gC76A03CC6B2F66C4058A56BA6A9EE20" x="39.66" y="0" fill="#1a1a1a" fill-rule="nonzero"/><use xlink:href="#g56D9AC69DF1E60AEC4FA898FA388366B" x="46.836" y="0" fill="#1a1a1a" fill-rule="nonzero"/><use xlink:href="#g6C16E7DDF88281BB582DC6D05B7A637" x="52.152" y="0" fill="#1a1a1a" fill-rule="nonzero"/><use xlink:href="#gE18113BE1243CA6EC5596891CC422939" x="58.404" y="0" fill="#1a1a1a" fill-rule="nonzero"/></g><g transform="translate(0 30.14)"><g transform="translate(10.823192555 40.781239649)"><path fill="none" stroke="#1f3a5f" stroke-width="0.7" stroke-linecap="butt" stroke-linejoin="miter" stroke-miterlimit="4" transform="translate(0 18.746319406)" d="M 0 0m 10.823192555 18.746319406l -10.823192555 -18.746319406"/><path fill="none" stroke="#1f3a5f" stroke-width="0.7" stroke-linecap="butt" stroke-linejoin="miter" stroke-miterlimit="4" transform="translate(0 18.746319406)" d="M 0 0h 21.646385111"/><path fill="none" stroke="#1f3a5f" stroke-width="0.7" stroke-linecap="butt" stroke-linejoin="miter" stroke-miterlimit="4" transform="translate(21.646385111)" d="M 0 0m 0 18.746319406l 10.823192555 -18.746319406"/><path fill="none" stroke="#1f3a5f" stroke-width="0.7" stroke-linecap="butt" stroke-linejoin="miter" stroke-miterlimit="4" transform="translate(32.469577666)" d="M 0 0h 21.646385111"/><path fill="none" stroke="#1f3a5f" stroke-width="0.7" stroke-linecap="butt" stroke-linejoin="miter" stroke-miterlimit="4" transform="translate(43.292770222)" d="M 0 0m 10.823192555 0l -10.823192555 18.746319406"/><path fill="none" stroke="#1f3a5f" stroke-width="0.7" stroke-linecap="butt" stroke-linejoin="miter" stroke-miterlimit="4" transform="translate(43.292770222 18.746319406)" d="M 0 0l 10.823192555 18.746319406"/><path fill="none" stroke="#1f3a5f" stroke-width="0.7" stroke-linecap="butt" stroke-linejoin="miter" stroke-miterlimit="4" transform="translate(54.115962777 18.746319406)" d="M 0 0m 0 18.746319406l 10.823192555 -18.746319406"/><path fill="none" stroke="#1f3a5f" stroke-width="0.7" stroke-linecap="butt" stroke-linejoin="miter" stroke-miterlimit="4" transform="translate(64.939155333 18.746319406)" d="M 0 0l 10.823192555 18.746319406"/><path fill="none" stroke="#1f3a5f" stroke-width="0.7" stroke-linecap="butt" stroke-linejoin="miter" stroke-miterlimit="4" transform="translate(75.762347888 37.492638812)" d="M 0 0h 21.646385111"/></g></g><g transform="translate(129.05511811 30.14)"><g transform="translate(5.952755906 33.751369872)"><path fill="none" stroke="#1f3a5f" stroke-width="0.7" stroke-linecap="butt" stroke-linejoin="miter" stroke-miterlimit="4" transform="translate(0 51.552378367)" d="M 0 0m 11.905511811 0h -11.905511811"/><path fill="none" stroke="#1f3a5f" stroke-width="0.7" stroke-linecap="butt" stroke-linejoin="miter" stroke-miterlimit="4" transform="translate(0 41.241902694)" d="M 0 0m 0 10.310475673l 5.952755906 -10.310475673"/><path fill="none" stroke="#1f3a5f" stroke-width="0.7" stroke-linecap="butt" stroke-linejoin="miter" stroke-miterlimit="4" transform="translate(0 30.93142702)" d="M 0 0m 5.952755906 10.310475673l -5.952755906 -10.310475673"/><path fill="none" stroke="#1f3a5f" stroke-width="0.7" stroke-linecap="butt" stroke-linejoin="miter" stroke-miterlimit="4" transform="translate(0 20.620951347)" d="M 0 0m 0 10.310475673l 5.952755906 -10.310475673"/><path fill="none" stroke="#1f3a5f" stroke-width="0.7" stroke-linecap="butt" stroke-linejoin="miter" stroke-miterlimit="4" transform="translate(5.952755906 20.620951347)" d="M 0 0l 5.952755906 10.310475673"/><path fill="none" stroke="#1f3a5f" stroke-width="0.7" stroke-linecap="butt" stroke-linejoin="miter" stroke-miterlimit="4" transform="translate(11.905511811 30.93142702)" d="M 0 0h 11.905511811"/><path fill="none" stroke="#1f3a5f" stroke-width="0.7" stroke-linecap="butt" stroke-linejoin="miter" stroke-miterlimit="4" transform="translate(17.858267717 20.620951347)" d="M 0 0m 5.952755906 10.310475673l -5.952755906 -10.310475673"/><path fill="none" stroke="#1f3a5f" stroke-width="0.7" stroke-linecap="butt" stroke-linejoin="miter" stroke-miterlimit="4" transform="translate(17.858267717 20.620951347)" d="M 0 0h 11.905511811"/><path fill="none" stroke="#1f3a5f" stroke-width="0.7" stroke-linecap="butt" stroke-linejoin="miter" stroke-miterlimit="4" transform="translate(29.763779528 10.310475673)" d="M 0 0m 0 10.310475673l 5.952755906 -10.310475673"/><path fill="none" stroke="#1f3a5f" stroke-width="0.7" stroke-linecap="butt" stroke-linejoin="miter" stroke-miterlimit="4" transform="translate(35.716535433)" d="M 0 0m 0 10.310475673l 5.952755906 -10.310475673"/><path fill="none" stroke="#1f3a5f" stroke-width="0.7" stroke-linecap="butt" stroke-linejoin="miter" stroke-miterlimit="4" transform="translate(41.669291339)" d="M 0 0l 5.952755906 10.310475673"/><path fill="none" stroke="#1f3a5f" stroke-width="0.7" stroke-linecap="butt" stroke-linejoin="miter" stroke-miterlimit="4" transform="translate(47.622047244 10.310475673)" d="M 0 0h 11.905511811"/><path fill="none" stroke="#1f3a5f" stroke-width="0.7" stroke-linecap="butt" stroke-linejoin="miter" stroke-miterlimit="4" transform="translate(59.527559055 10.310475673)" d="M 0 0l 5.952755906 10.310475673"/><path fill="none" stroke="#1f3a5f" stroke-width="0.7" stroke-linecap="butt" stroke-linejoin="miter" stroke-miterlimit="4" transform="translate(53.57480315 20.620951347)" d="M 0 0m 11.905511811 0h -11.905511811"/><path fill="none" stroke="#1f3a5f" stroke-width="0.7" stroke-linecap="butt" stroke-linejoin="miter" stroke-miterlimit="4" transform="translate(47.622047244 20.620951347)" d="M 0 0m 5.952755906 0l -5.952755906 10.310475673"/><path fill="none" stroke="#1f3a5f" stroke-width="0.7" stroke-linecap="butt" stroke-linejoin="miter" stroke-miterlimit="4" transform="translate(47.622047244 30.93142702)" d="M 0 0h 11.905511811"/><path fill="none" stroke="#1f3a5f" stroke-width="0.7" stroke-linecap="butt" stroke-linejoin="miter" stroke-miterlimit="4" transform="translate(53.57480315 30.93142702)" d="M 0 0m 5.952755906 0l -5.952755906 10.310475673"/><path fill="none" stroke="#1f3a5f" stroke-width="0.7" stroke-linecap="butt" stroke-linejoin="miter" stroke-miterlimit="4" transform="translate(53.57480315 41.241902694)" d="M 0 0l 5.952755906 10.310475673"/><path fill="none" stroke="#1f3a5f" stroke-width="0.7" stroke-linecap="butt" stroke-linejoin="miter" stroke-miterlimit="4" transform="translate(53.57480315 41.241902694)" d="M 0 0m 5.952755906 10.310475673l -5.952755906 -10.310475673"/><path fill="none" stroke="#1f3a5f" stroke-width="0.7" stroke-linecap="butt" stroke-linejoin="miter" stroke-miterlimit="4" transform="translate(53.57480315 41.241902694)" d="M 0 0h 11.905511811"/><path fill="none" stroke="#1f3a5f" stroke-width="0.7" stroke-linecap="butt" stroke-linejoin="miter" stroke-miterlimit="4" transform="translate(65.480314961 30.93142702)" d="M 0 0m 0 10.310475673l 5.952755906 -10.310475673"/><path fill="none" stroke="#1f3a5f" stroke-width="0.7" stroke-linecap="butt" stroke-linejoin="miter" stroke-miterlimit="4" transform="translate(71.433070866 30.93142702)" d="M 0 0h 11.905511811"/><path fill="none" stroke="#1f3a5f" stroke-width="0.7" stroke-linecap="butt" stroke-linejoin="miter" stroke-miterlimit="4" transform="translate(77.385826772 30.93142702)" d="M 0 0m 5.952755906 0l -5.952755906 10.310475673"/><path fill="none" stroke="#1f3a5f" stroke-width="0.7" stroke-linecap="butt" stroke-linejoin="miter" stroke-miterlimit="4" transform="translate(77.385826772 41.241902694)" d="M 0 0l 5.952755906 10.310475673"/><path fill="none" stroke="#1f3a5f" stroke-width="0.7" stroke-linecap="butt" stroke-linejoin="miter" stroke-miterlimit="4" transform="translate(83.338582677 41.241902694)" d="M 0 0m 0 10.310475673l 5.952755906 -10.310475673"/><path fill="none" stroke="#1f3a5f" stroke-width="0.7" stroke-linecap="butt" stroke-linejoin="miter" stroke-miterlimit="4" transform="translate(89.291338583 41.241902694)" d="M 0 0l 5.952755906 10.310475673"/><path fill="none" stroke="#1f3a5f" stroke-width="0.7" stroke-linecap="butt" stroke-linejoin="miter" stroke-miterlimit="4" transform="translate(95.244094488 51.552378367)" d="M 0 0h 11.905511811"/></g></g><g transform="translate(258.11023622 30.14)"><g transform="translate(3.052695336 30.446730233)"><path fill="none" stroke="#1f3a5f" stroke-width="0.7" stroke-linecap="butt" stroke-linejoin="miter" stroke-miterlimit="4" transform="translate(12.210781345 52.874234223)" d="M 0 0m 3.052695336 0l -3.052695336 5.287423422"/><path fill="none" stroke="#1f3a5f" stroke-width="0.7" stroke-linecap="butt" stroke-linejoin="miter" stroke-miterlimit="4" transform="translate(9.158086008 52.874234223)" d="M 0 0m 3.052695336 5.287423422l -3.052695336 -5.287423422"/><path fill="none" stroke="#1f3a5f" stroke-width="0.7" stroke-linecap="butt" stroke-linejoin="miter" stroke-miterlimit="4" transform="translate(3.052695336 52.874234223)" d="M 0 0m 6.105390672 0h -6.105390672"/><path fill="none" stroke="#1f3a5f" stroke-width="0.7" stroke-linecap="butt" stroke-linejoin="miter" stroke-miterlimit="4" transform="translate(0 47.5868108)" d="M 0 0m 3.052695336 5.287423422l -3.052695336 -5.287423422"/><path fill="none" stroke="#1f3a5f" stroke-width="0.7" stroke-linecap="butt" stroke-linejoin="miter" stroke-miterlimit="4" transform="translate(0 47.5868108)" d="M 0 0h 6.105390672"/><path fill="none" stroke="#1f3a5f" stroke-width="0.7" stroke-linecap="butt" stroke-linejoin="miter" stroke-miterlimit="4" transform="translate(6.105390672 42.299387378)" d="M 0 0m 0 5.287423422l 3.052695336 -5.287423422"/><path fill="none" stroke="#1f3a5f" stroke-width="0.7" stroke-linecap="butt" stroke-linejoin="miter" stroke-miterlimit="4" transform="translate(3.052695336 42.299387378)" d="M 0 0m 6.105390672 0h -6.105390672"/><path fill="none" stroke="#1f3a5f" stroke-width="0.7" stroke-linecap="butt" stroke-linejoin="miter" stroke-miterlimit="4" transform="translate(3.052695336 37.011963956)" d="M 0 0m 0 5.287423422l 3.052695336 -5.287423422"/><path fill="none" stroke="#1f3a5f" stroke-width="0.7" stroke-linecap="butt" stroke-linejoin="miter" stroke-miterlimit="4" transform="translate(3.052695336 31.724540534)" d="M 0 0m 3.052695336 5.287423422l -3.052695336 -5.287423422"/><path fill="none" stroke="#1f3a5f" stroke-width="0.7" stroke-linecap="butt" stroke-linejoin="miter" stroke-miterlimit="4" transform="translate(0 26.437117111)" d="M 0 0m 3.052695336 5.287423422l -3.052695336 -5.287423422"/><path fill="none" stroke="#1f3a5f" stroke-width="0.7" stroke-linecap="butt" stroke-linejoin="miter" stroke-miterlimit="4" transform="translate(0 26.437117111)" d="M 0 0h 6.105390672"/><path fill="none" stroke="#1f3a5f" stroke-width="0.7" stroke-linecap="butt" stroke-linejoin="miter" stroke-miterlimit="4" transform="translate(6.105390672 21.149693689)" d="M 0 0m 0 5.287423422l 3.052695336 -5.287423422"/><path fill="none" stroke="#1f3a5f" stroke-width="0.7" stroke-linecap="butt" stroke-linejoin="miter" stroke-miterlimit="4" transform="translate(9.158086008 21.149693689)" d="M 0 0h 6.105390672"/><path fill="none" stroke="#1f3a5f" stroke-width="0.7" stroke-linecap="butt" stroke-linejoin="miter" stroke-miterlimit="4" transform="translate(12.210781345 21.149693689)" d="M 0 0m 3.052695336 0l -3.052695336 5.287423422"/><path fill="none" stroke="#1f3a5f" stroke-width="0.7" stroke-linecap="butt" stroke-linejoin="miter" stroke-miterlimit="4" transform="translate(12.210781345 26.437117111)" d="M 0 0l 3.052695336 5.287423422"/><path fill="none" stroke="#1f3a5f" stroke-width="0.7" stroke-linecap="butt" stroke-linejoin="miter" stroke-miterlimit="4" transform="translate(15.263476681 26.437117111)" d="M 0 0m 0 5.287423422l 3.052695336 -5.287423422"/><path fill="none" stroke="#1f3a5f" stroke-width="0.7" stroke-linecap="butt" stroke-linejoin="miter" stroke-miterlimit="4" transform="translate(18.316172017 26.437117111)" d="M 0 0l 3.052695336 5.287423422"/><path fill="none" stroke="#1f3a5f" stroke-width="0.7" stroke-linecap="butt" stroke-linejoin="miter" stroke-miterlimit="4" transform="translate(21.368867353 31.724540534)" d="M 0 0h 6.105390672"/><path fill="none" stroke="#1f3a5f" stroke-width="0.7" stroke-linecap="butt" stroke-linejoin="miter" stroke-miterlimit="4" transform="translate(21.368867353 31.724540534)" d="M 0 0m 6.105390672 0h -6.105390672"/><path fill="none" stroke="#1f3a5f" stroke-width="0.7" stroke-linecap="butt" stroke-linejoin="miter" stroke-miterlimit="4" transform="translate(21.368867353 26.437117111)" d="M 0 0m 0 5.287423422l 3.052695336 -5.287423422"/><path fill="none" stroke="#1f3a5f" stroke-width="0.7" stroke-linecap="butt" stroke-linejoin="miter" stroke-miterlimit="4" transform="translate(21.368867353 21.149693689)" d="M 0 0m 3.052695336 5.287423422l -3.052695336 -5.287423422"/><path fill="none" stroke="#1f3a5f" stroke-width="0.7" stroke-linecap="butt" stroke-linejoin="miter" stroke-miterlimit="4" transform="translate(21.368867353 15.862270267)" d="M 0 0m 0 5.287423422l 3.052695336 -5.287423422"/><path fill="none" stroke="#1f3a5f" stroke-width="0.7" stroke-linecap="butt" stroke-linejoin="miter" stroke-miterlimit="4" transform="translate(24.421562689 15.862270267)" d="M 0 0l 3.052695336 5.287423422"/><path fill="none" stroke="#1f3a5f" stroke-width="0.7" stroke-linecap="butt" stroke-linejoin="miter" stroke-miterlimit="4" transform="translate(27.474258025 21.149693689)" d="M 0 0h 6.105390672"/><path fill="none" stroke="#1f3a5f" stroke-width="0.7" stroke-linecap="butt" stroke-linejoin="miter" stroke-miterlimit="4" transform="translate(30.526953362 15.862270267)" d="M 0 0m 3.052695336 5.287423422l -3.052695336 -5.287423422"/><path fill="none" stroke="#1f3a5f" stroke-width="0.7" stroke-linecap="butt" stroke-linejoin="miter" stroke-miterlimit="4" transform="translate(30.526953362 15.862270267)" d="M 0 0h 6.105390672"/><path fill="none" stroke="#1f3a5f" stroke-width="0.7" stroke-linecap="butt" stroke-linejoin="miter" stroke-miterlimit="4" transform="translate(36.632344034 10.574846845)" d="M 0 0m 0 5.287423422l 3.052695336 -5.287423422"/><path fill="none" stroke="#1f3a5f" stroke-width="0.7" stroke-linecap="butt" stroke-linejoin="miter" stroke-miterlimit="4" transform="translate(36.632344034 5.287423422)" d="M 0 0m 3.052695336 5.287423422l -3.052695336 -5.287423422"/><path fill="none" stroke="#1f3a5f" stroke-width="0.7" stroke-linecap="butt" stroke-linejoin="miter" stroke-miterlimit="4" transform="translate(36.632344034 5.287423422)" d="M 0 0h 6.105390672"/><path fill="none" stroke="#1f3a5f" stroke-width="0.7" stroke-linecap="butt" stroke-linejoin="miter" stroke-miterlimit="4" transform="translate(42.737734706)" d="M 0 0m 0 5.287423422l 3.052695336 -5.287423422"/><path fill="none" stroke="#1f3a5f" stroke-width="0.7" stroke-linecap="butt" stroke-linejoin="miter" stroke-miterlimit="4" transform="translate(45.790430042)" d="M 0 0h 6.105390672"/><path fill="none" stroke="#1f3a5f" stroke-width="0.7" stroke-linecap="butt" stroke-linejoin="miter" stroke-miterlimit="4" transform="translate(48.843125379)" d="M 0 0m 3.052695336 0l -3.052695336 5.287423422"/><path fill="none" stroke="#1f3a5f" stroke-width="0.7" stroke-linecap="butt" stroke-linejoin="miter" stroke-miterlimit="4" transform="translate(48.843125379 5.287423422)" d="M 0 0l 3.052695336 5.287423422"/><path fill="none" stroke="#1f3a5f" stroke-width="0.7" stroke-linecap="butt" stroke-linejoin="miter" stroke-miterlimit="4" transform="translate(51.895820715 5.287423422)" d="M 0 0m 0 5.287423422l 3.052695336 -5.287423422"/><path fill="none" stroke="#1f3a5f" stroke-width="0.7" stroke-linecap="butt" stroke-linejoin="miter" stroke-miterlimit="4" transform="translate(54.948516051 5.287423422)" d="M 0 0l 3.052695336 5.287423422"/><path fill="none" stroke="#1f3a5f" stroke-width="0.7" stroke-linecap="butt" stroke-linejoin="miter" stroke-miterlimit="4" transform="translate(58.001211387 10.574846845)" d="M 0 0h 6.105390672"/><path fill="none" stroke="#1f3a5f" stroke-width="0.7" stroke-linecap="butt" stroke-linejoin="miter" stroke-miterlimit="4" transform="translate(64.106602059 10.574846845)" d="M 0 0h 6.105390672"/><path fill="none" stroke="#1f3a5f" stroke-width="0.7" stroke-linecap="butt" stroke-linejoin="miter" stroke-miterlimit="4" transform="translate(67.159297396 10.574846845)" d="M 0 0m 3.052695336 0l -3.052695336 5.287423422"/><path fill="none" stroke="#1f3a5f" stroke-width="0.7" stroke-linecap="butt" stroke-linejoin="miter" stroke-miterlimit="4" transform="translate(67.159297396 15.862270267)" d="M 0 0l 3.052695336 5.287423422"/><path fill="none" stroke="#1f3a5f" stroke-width="0.7" stroke-linecap="butt" stroke-linejoin="miter" stroke-miterlimit="4" transform="translate(67.159297396 21.149693689)" d="M 0 0m 3.052695336 0l -3.052695336 5.287423422"/><path fill="none" stroke="#1f3a5f" stroke-width="0.7" stroke-linecap="butt" stroke-linejoin="miter" stroke-miterlimit="4" transform="translate(64.106602059 21.149693689)" d="M 0 0m 3.052695336 5.287423422l -3.052695336 -5.287423422"/><path fill="none" stroke="#1f3a5f" stroke-width="0.7" stroke-linecap="butt" stroke-linejoin="miter" stroke-miterlimit="4" transform="translate(58.001211387 21.149693689)" d="M 0 0m 6.105390672 0h -6.105390672"/><path fill="none" stroke="#1f3a5f" stroke-width="0.7" stroke-linecap="butt" stroke-linejoin="miter" stroke-miterlimit="4" transform="translate(58.001211387 21.149693689)" d="M 0 0l 3.052695336 5.287423422"/><path fill="none" stroke="#1f3a5f" stroke-width="0.7" stroke-linecap="butt" stroke-linejoin="miter" stroke-miterlimit="4" transform="translate(54.948516051 26.437117111)" d="M 0 0m 6.105390672 0h -6.105390672"/><path fill="none" stroke="#1f3a5f" stroke-width="0.7" stroke-linecap="butt" stroke-linejoin="miter" stroke-miterlimit="4" transform="translate(51.895820715 26.437117111)" d="M 0 0m 3.052695336 0l -3.052695336 5.287423422"/><path fill="none" stroke="#1f3a5f" stroke-width="0.7" stroke-linecap="butt" stroke-linejoin="miter" stroke-miterlimit="4" transform="translate(51.895820715 26.437117111)" d="M 0 0m 0 5.287423422l 3.052695336 -5.287423422"/><path fill="none" stroke="#1f3a5f" stroke-width="0.7" stroke-linecap="butt" stroke-linejoin="miter" stroke-miterlimit="4" transform="translate(54.948516051 26.437117111)" d="M 0 0l 3.052695336 5.287423422"/><path fill="none" stroke="#1f3a5f" stroke-width="0.7" stroke-linecap="butt" stroke-linejoin="miter" stroke-miterlimit="4" transform="translate(58.001211387 31.724540534)" d="M 0 0h 6.105390672"/><path fill="none" stroke="#1f3a5f" stroke-width="0.7" stroke-linecap="butt" stroke-linejoin="miter" stroke-miterlimit="4" transform="translate(64.106602059 31.724540534)" d="M 0 0l 3.052695336 5.287423422"/><path fill="none" stroke="#1f3a5f" stroke-width="0.7" stroke-linecap="butt" stroke-linejoin="miter" stroke-miterlimit="4" transform="translate(61.053906723 37.011963956)" d="M 0 0m 6.105390672 0h -6.105390672"/><path fill="none" stroke="#1f3a5f" stroke-width="0.7" stroke-linecap="butt" stroke-linejoin="miter" stroke-miterlimit="4" transform="translate(58.001211387 37.011963956)" d="M 0 0m 3.052695336 0l -3.052695336 5.287423422"/><path fill="none" stroke="#1f3a5f" stroke-width="0.7" stroke-linecap="butt" stroke-linejoin="miter" stroke-miterlimit="4" transform="translate(58.001211387 42.299387378)" d="M 0 0h 6.105390672"/><path fill="none" stroke="#1f3a5f" stroke-width="0.7" stroke-linecap="butt" stroke-linejoin="miter" stroke-miterlimit="4" transform="translate(61.053906723 42.299387378)" d="M 0 0m 3.052695336 0l -3.052695336 5.287423422"/><path fill="none" stroke="#1f3a5f" stroke-width="0.7" stroke-linecap="butt" stroke-linejoin="miter" stroke-miterlimit="4" transform="translate(61.053906723 47.5868108)" d="M 0 0l 3.052695336 5.287423422"/><path fill="none" stroke="#1f3a5f" stroke-width="0.7" stroke-linecap="butt" stroke-linejoin="miter" stroke-miterlimit="4" transform="translate(58.001211387 52.874234223)" d="M 0 0m 6.105390672 0h -6.105390672"/><path fill="none" stroke="#1f3a5f" stroke-width="0.7" stroke-linecap="butt" stroke-linejoin="miter" stroke-miterlimit="4" transform="translate(58.001211387 47.5868108)" d="M 0 0m 0 5.287423422l 3.052695336 -5.287423422"/><path fill="none" stroke="#1f3a5f" stroke-width="0.7" stroke-linecap="butt" stroke-linejoin="miter" stroke-miterlimit="4" transform="translate(58.001211387 42.299387378)" d="M 0 0m 3.052695336 5.287423422l -3.052695336 -5.287423422"/><path fill="none" stroke="#1f3a5f" stroke-width="0.7" stroke-linecap="butt" stroke-linejoin="miter" stroke-miterlimit="4" transform="translate(58.001211387 37.011963956)" d="M 0 0m 0 5.287423422l 3.052695336 -5.287423422"/><path fill="none" stroke="#1f3a5f" stroke-width="0.7" stroke-linecap="butt" stroke-linejoin="miter" stroke-miterlimit="4" transform="translate(61.053906723 37.011963956)" d="M 0 0l 3.052695336 5.287423422"/><path fill="none" stroke="#1f3a5f" stroke-width="0.7" stroke-linecap="butt" stroke-linejoin="miter" stroke-miterlimit="4" transform="translate(64.106602059 42.299387378)" d="M 0 0h 6.105390672"/><path fill="none" stroke="#1f3a5f" stroke-width="0.7" stroke-linecap="butt" stroke-linejoin="miter" stroke-miterlimit="4" transform="translate(67.159297396 37.011963956)" d="M 0 0m 3.052695336 5.287423422l -3.052695336 -5.287423422"/><path fill="none" stroke="#1f3a5f" stroke-width="0.7" stroke-linecap="butt" stroke-linejoin="miter" stroke-miterlimit="4" transform="translate(67.159297396 37.011963956)" d="M 0 0h 6.105390672"/><path fill="none" stroke="#1f3a5f" stroke-width="0.7" stroke-linecap="butt" stroke-linejoin="miter" stroke-miterlimit="4" transform="translate(73.264688068 31.724540534)" d="M 0 0m 0 5.287423422l 3.052695336 -5.287423422"/><path fill="none" stroke="#1f3a5f" stroke-width="0.7" stroke-linecap="butt" stroke-linejoin="miter" stroke-miterlimit="4" transform="translate(76.317383404 26.437117111)" d="M 0 0m 0 5.287423422l 3.052695336 -5.287423422"/><path fill="none" stroke="#1f3a5f" stroke-width="0.7" stroke-linecap="butt" stroke-linejoin="miter" stroke-miterlimit="4" transform="translate(79.37007874 26.437117111)" d="M 0 0l 3.052695336 5.287423422"/><path fill="none" stroke="#1f3a5f" stroke-width="0.7" stroke-linecap="butt" stroke-linejoin="miter" stroke-miterlimit="4" transform="translate(82.422774076 31.724540534)" d="M 0 0h 6.105390672"/><path fill="none" stroke="#1f3a5f" stroke-width="0.7" stroke-linecap="butt" stroke-linejoin="miter" stroke-miterlimit="4" transform="translate(88.528164749 31.724540534)" d="M 0 0l 3.052695336 5.287423422"/><path fill="none" stroke="#1f3a5f" stroke-width="0.7" stroke-linecap="butt" stroke-linejoin="miter" stroke-miterlimit="4" transform="translate(85.475469412 37.011963956)" d="M 0 0m 6.105390672 0h -6.105390672"/><path fill="none" stroke="#1f3a5f" stroke-width="0.7" stroke-linecap="butt" stroke-linejoin="miter" stroke-miterlimit="4" transform="translate(82.422774076 37.011963956)" d="M 0 0m 3.052695336 0l -3.052695336 5.287423422"/><path fill="none" stroke="#1f3a5f" stroke-width="0.7" stroke-linecap="butt" stroke-linejoin="miter" stroke-miterlimit="4" transform="translate(82.422774076 42.299387378)" d="M 0 0h 6.105390672"/><path fill="none" stroke="#1f3a5f" stroke-width="0.7" stroke-linecap="butt" stroke-linejoin="miter" stroke-miterlimit="4" transform="translate(85.475469412 42.299387378)" d="M 0 0m 3.052695336 0l -3.052695336 5.287423422"/><path fill="none" stroke="#1f3a5f" stroke-width="0.7" stroke-linecap="butt" stroke-linejoin="miter" stroke-miterlimit="4" transform="translate(85.475469412 47.5868108)" d="M 0 0l 3.052695336 5.287423422"/><path fill="none" stroke="#1f3a5f" stroke-width="0.7" stroke-linecap="butt" stroke-linejoin="miter" stroke-miterlimit="4" transform="translate(85.475469412 47.5868108)" d="M 0 0m 3.052695336 5.287423422l -3.052695336 -5.287423422"/><path fill="none" stroke="#1f3a5f" stroke-width="0.7" stroke-linecap="butt" stroke-linejoin="miter" stroke-miterlimit="4" transform="translate(85.475469412 47.5868108)" d="M 0 0h 6.105390672"/><path fill="none" stroke="#1f3a5f" stroke-width="0.7" stroke-linecap="butt" stroke-linejoin="miter" stroke-miterlimit="4" transform="translate(91.580860085 42.299387378)" d="M 0 0m 0 5.287423422l 3.052695336 -5.287423422"/><path fill="none" stroke="#1f3a5f" stroke-width="0.7" stroke-linecap="butt" stroke-linejoin="miter" stroke-miterlimit="4" transform="translate(94.633555421 42.299387378)" d="M 0 0h 6.105390672"/><path fill="none" stroke="#1f3a5f" stroke-width="0.7" stroke-linecap="butt" stroke-linejoin="miter" stroke-miterlimit="4" transform="translate(97.686250757 42.299387378)" d="M 0 0m 3.052695336 0l -3.052695336 5.287423422"/><path fill="none" stroke="#1f3a5f" stroke-width="0.7" stroke-linecap="butt" stroke-linejoin="miter" stroke-miterlimit="4" transform="translate(97.686250757 47.5868108)" d="M 0 0l 3.052695336 5.287423422"/><path fill="none" stroke="#1f3a5f" stroke-width="0.7" stroke-linecap="butt" stroke-linejoin="miter" stroke-miterlimit="4" transform="translate(100.738946093 47.5868108)" d="M 0 0m 0 5.287423422l 3.052695336 -5.287423422"/><path fill="none" stroke="#1f3a5f" stroke-width="0.7" stroke-linecap="butt" stroke-linejoin="miter" stroke-miterlimit="4" transform="translate(103.791641429 47.5868108)" d="M 0 0l 3.052695336 5.287423422"/><path fill="none" stroke="#1f3a5f" stroke-width="0.7" stroke-linecap="butt" stroke-linejoin="miter" stroke-miterlimit="4" transform="translate(106.844336766 52.874234223)" d="M 0 0h 6.105390672"/></g></g><g transform="matrix(1 0 0 -1 46.441559055 160.11711811)"><use xlink:href="#gF71CD90141C058754731CB923424AFF5" x="0" y="0" fill="#646464" fill-rule="nonzero"/><use xlink:href="#gB56A4169EDF414CCDA3A7A5C17A02142" x="4.536" y="0" fill="#646464" fill-rule="nonzero"/><use xlink:href="#gAB89768063FECB7A3B2DCA9C98B07790" x="7.812" y="0" fill="#646464" fill-rule="nonzero"/><use xlink:href="#g15283247E004048E8F39F157505A0F31" x="12.366" y="0" fill="#646464" fill-rule="nonzero"/><use xlink:href="#gB56A4169EDF414CCDA3A7A5C17A02142" x="16.389" y="0" fill="#646464" fill-rule="nonzero"/><use xlink:href="#g847357BB8876AF51969CA80692415844" x="21.987" y="0" fill="#646464" fill-rule="nonzero"/></g><g transform="matrix(1 0 0 -1 175.496677165 160.11711811)"><use xlink:href="#gF71CD90141C058754731CB923424AFF5" x="0" y="0" fill="#646464" fill-rule="nonzero"/><use xlink:href="#gB56A4169EDF414CCDA3A7A5C17A02142" x="4.536" y="0" fill="#646464" fill-rule="nonzero"/><use xlink:href="#gAB89768063FECB7A3B2DCA9C98B07790" x="7.812" y="0" fill="#646464" fill-rule="nonzero"/><use xlink:href="#g15283247E004048E8F39F157505A0F31" x="12.366" y="0" fill="#646464" fill-rule="nonzero"/><use xlink:href="#gB56A4169EDF414CCDA3A7A5C17A02142" x="16.389" y="0" fill="#646464" fill-rule="nonzero"/><use xlink:href="#g7BD485DADED4F14262FB7E0C3DAF849D" x="21.987" y="0" fill="#646464" fill-rule="nonzero"/></g><g transform="matrix(1 0 0 -1 304.551795276 160.11711811)"><use xlink:href="#gF71CD90141C058754731CB923424AFF5" x="0" y="0" fill="#646464" fill-rule="nonzero"/><use xlink:href="#gB56A4169EDF414CCDA3A7A5C17A02142" x="4.536" y="0" fill="#646464" fill-rule="nonzero"/><use xlink:href="#gAB89768063FECB7A3B2DCA9C98B07790" x="7.812" y="0" fill="#646464" fill-rule="nonzero"/><use xlink:href="#g15283247E004048E8F39F157505A0F31" x="12.366" y="0" fill="#646464" fill-rule="nonzero"/><use xlink:href="#gB56A4169EDF414CCDA3A7A5C17A02142" x="16.389" y="0" fill="#646464" fill-rule="nonzero"/><use xlink:href="#gD11A58C3A3B421C2056FF05E75045811" x="21.987" y="0" fill="#646464" fill-rule="nonzero"/></g></g><defs><symbol id="gC3A16C23031426E502F928A531042C94" overflow="visible"><path d="M 0 0m 1.296 6.276v -4.812c 0 -0.996 -0.336 -1.044 -0.996 -1.08c -0.12 -0.072 -0.12 -0.336 0 -0.408c 0.48 0.012 1.368 0.024 1.848 0.024c 0.48 0 1.344 -0.012 1.824 -0.024c 0.12 0.072 0.12 0.336 0 0.408c -0.66 0.036 -0.996 0.084 -0.996 1.08v 2.352c 0.36 -0.084 0.54 -0.252 0.78 -0.564l 1.812 -2.364c 0.24 -0.312 0.408 -0.648 0.432 -0.84c 0 -0.036 0.012 -0.072 0.06 -0.072c 0.24 0.012 0.876 0.024 1.236 0.024c 0.468 0 0.948 -0.012 1.416 -0.024c 0.072 0.072 0.072 0.336 0 0.408c -0.36 0.048 -0.624 0.144 -0.936 0.504l -2.628 3.108c -0.204 0.24 -0.36 0.444 -0.36 0.54c 0 0.084 0.012 0.228 0.144 0.348l 1.308 1.164c 0.708 0.624 1.38 1.212 2.088 1.308c 0.072 0.072 0.072 0.336 0 0.408c -0.3 -0.012 -0.72 -0.024 -1.14 -0.024c -0.48 0 -1.02 0.012 -1.476 0.024c -0.072 -0.072 -0.072 -0.336 0 -0.408c 0.708 -0.072 0.66 -0.444 0.06 -1.056c -0.372 -0.384 -1.284 -1.14 -1.284 -1.14c -0.78 -0.696 -1.116 -0.924 -1.512 -1.056v 2.172c 0 0.996 0.336 1.044 0.996 1.08c 0.12 0.072 0.12 0.336 0 0.408c -0.48 -0.012 -1.344 -0.024 -1.824 -0.024c -0.48 0 -1.368 0.012 -1.848 0.024c -0.12 -0.072 -0.12 -0.336 0 -0.408c 0.66 -0.036 0.996 -0.084 0.996 -1.08Z "/></symbol><symbol id="g482B6484D8169192ED302BC1FABC0EB8" overflow="visible"><path d="M 0 0m 0.444 2.484c 0 -1.572 1.248 -2.604 2.856 -2.604c 0.852 0 1.56 0.24 2.052 0.684c 0.612 0.54 0.816 1.356 0.816 2.028c 0 1.572 -1.068 2.736 -2.856 2.736c -0.996 0 -1.74 -0.348 -2.208 -0.888c -0.456 -0.528 -0.66 -1.248 -0.66 -1.956Z m 2.676 2.34c 0.816 0 1.368 -0.972 1.368 -2.616c 0 -1.44 -0.564 -1.824 -0.996 -1.824c -0.984 0 -1.368 1.476 -1.368 2.364c 0 1.104 0.192 2.076 0.996 2.076Z "/></symbol><symbol id="gEF03CC905B39DF2CE13E9EED9CECE9CC" overflow="visible"><path d="M 0 0m 5.064 1.044c 0 0.144 -0.024 0.372 -0.156 0.372c -0.48 -0.444 -0.888 -0.672 -1.236 -0.672c -0.9 0 -1.608 0.648 -1.608 2.088c 0 1.332 0.3 1.992 0.936 1.992c 0.444 0 0.624 -0.468 0.66 -0.852c 0.036 -0.324 0.36 -0.564 0.744 -0.564c 0.384 0 0.66 0.3 0.66 0.672c 0 0.54 -0.648 1.248 -1.956 1.248c -1.416 0 -2.664 -1.14 -2.664 -2.916c 0 -0.78 0.276 -1.464 0.744 -1.908c 0.468 -0.444 1.02 -0.624 1.872 -0.624c 0.72 0 1.548 0.504 2.004 1.164Z "/></symbol><symbol id="g5C8521CD324BD598695A36491E4CE69D" overflow="visible"><path d="M 0 0m 6.336 1.536v 1.872c 0 1.32 -0.564 1.92 -1.596 1.92c -0.444 0 -1.296 -0.444 -1.98 -0.864v 2.532c 0 0.78 0.036 1.224 0.036 1.224c 0 0.108 -0.084 0.156 -0.192 0.156c -0.444 -0.144 -1.404 -0.276 -2.256 -0.312c -0.036 -0.144 -0.024 -0.276 0.036 -0.384c 0.756 -0.06 0.816 -0.072 0.816 -0.9v -5.256c 0 -0.996 -0.192 -1.104 -0.924 -1.14c -0.072 -0.072 -0.072 -0.336 0 -0.408c 0.504 0.012 1.044 0.024 1.704 0.024c 0.576 0 0.948 -0.012 1.464 -0.024c 0.072 0.072 0.072 0.336 0 0.408c -0.504 0.036 -0.684 0.144 -0.684 1.14v 2.46c 0.504 0.312 0.9 0.456 1.116 0.456c 0.48 0 0.9 -0.216 0.9 -0.9v -2.004c 0 -1.008 -0.192 -1.116 -0.684 -1.152c -0.072 -0.072 -0.072 -0.336 0 -0.408c 0.504 0.012 0.888 0.024 1.464 0.024c 0.66 0 1.188 -0.012 1.704 -0.024c 0.072 0.072 0.072 0.336 0 0.408c -0.732 0.036 -0.924 0.144 -0.924 1.152Z "/></symbol><symbol id="gC2725F9DC1D542B814F24406C37F92E1" overflow="visible"><path d="M 0 0m 4.764 -0.12c 1.164 0 2.232 0.552 3.048 1.62c -0.06 0.108 -0.264 0.252 -0.396 0.252c -0.852 -0.936 -1.824 -1.248 -2.664 -1.248c -1.392 0 -2.496 1.632 -2.496 3.504c 0 1.86 0.96 3.396 2.388 3.396c 1.656 0 2.196 -0.936 2.508 -1.968c 0.144 -0.048 0.384 -0.012 0.516 0.06c -0.06 0.624 -0.156 1.2 -0.264 1.86c -0.612 0.06 -1.152 0.54 -2.628 0.54c -2.352 0 -4.332 -1.476 -4.332 -4.116c 0 -1.128 0.492 -2.448 1.452 -3.144c 0.768 -0.552 1.704 -0.756 2.868 -0.756Z "/></symbol><symbol id="gC76A03CC6B2F66C4058A56BA6A9EE20" overflow="visible"><path d="M 0 0m 6.12 1.596v 2.076c 0 1.008 0.024 0.864 0.024 1.152c 0 0.204 -0.048 0.336 -0.12 0.408c -0.216 -0.012 -0.456 -0.024 -0.684 -0.024c -0.336 0 -1.116 0.012 -1.584 0.024c -0.072 -0.072 -0.072 -0.336 0 -0.408c 0.612 -0.06 0.804 -0.144 0.804 -1.152v -2.22c 0 -0.12 0 -0.24 0.012 -0.36c -0.492 -0.3 -0.888 -0.324 -1.104 -0.324c -0.48 0 -0.84 0.06 -0.84 0.9v 2.004c 0 1.008 0.024 0.864 0.024 1.152c 0 0.204 -0.048 0.336 -0.12 0.408c -0.216 -0.012 -0.468 -0.024 -0.684 -0.024c -0.612 0 -1.068 0.012 -1.584 0.024c -0.072 -0.072 -0.072 -0.336 0 -0.408c 0.552 -0.024 0.804 -0.144 0.804 -1.152v -1.872c 0 -1.272 0.504 -1.92 1.536 -1.92c 0.432 0 1.308 0.348 2.004 0.732c 0.024 -0.3 0.048 -0.528 0.048 -0.528c 0.012 -0.144 0.108 -0.204 0.276 -0.204c 0.444 0.12 1.164 0.288 1.992 0.396c 0.024 0.072 0 0.312 -0.024 0.384c -0.648 0.06 -0.78 0.252 -0.78 0.936Z "/></symbol><symbol id="g56D9AC69DF1E60AEC4FA898FA388366B" overflow="visible"><path d="M 0 0m 2.736 3.216c 0 0.432 0.132 0.612 0.288 0.792c 0.096 0.12 0.204 0.204 0.384 0.204c 0.108 0 0.24 -0.108 0.336 -0.228c 0.084 -0.096 0.288 -0.192 0.564 -0.192c 0.348 0 0.684 0.36 0.684 0.864c 0 0.312 -0.36 0.672 -0.792 0.672c -0.42 0 -0.876 -0.36 -1.428 -1.152h -0.048c -0.024 0.36 -0.084 0.948 -0.084 0.948c -0.012 0.108 -0.108 0.204 -0.276 0.204c -0.564 -0.144 -1.2 -0.312 -1.992 -0.396c -0.024 -0.072 0 -0.3 0.024 -0.372c 0.66 -0.06 0.78 -0.168 0.78 -0.852v -2.244c 0 -0.996 -0.132 -1.02 -0.864 -1.08c -0.072 -0.072 -0.072 -0.336 0 -0.408c 0.504 0.012 1.008 0.024 1.644 0.024c 0.636 0 1.128 -0.012 1.644 -0.024c 0.072 0.072 0.072 0.336 0 0.408c -0.732 0.048 -0.864 0.084 -0.864 1.08Z "/></symbol><symbol id="g6C16E7DDF88281BB582DC6D05B7A637" overflow="visible"><path d="M 0 0m 4.104 4.824c 0.648 -0.048 0.732 -0.24 0.468 -0.852l -0.948 -2.196c -0.048 -0.108 -0.096 -0.024 -0.132 0.06l -0.756 2.136c -0.024 0.06 -0.048 0.12 -0.06 0.168c -0.168 0.456 -0.24 0.624 0.432 0.684c 0.072 0.072 0.072 0.336 0 0.408c -0.444 -0.012 -0.924 -0.024 -1.512 -0.024c -0.42 0 -1.032 0.012 -1.476 0.024c -0.072 -0.072 -0.072 -0.336 0 -0.408c 0.696 -0.084 0.72 -0.324 0.96 -0.924l 1.572 -3.792c 0.072 -0.18 0.276 -0.252 0.432 -0.252c 0.12 0 0.36 0.024 0.468 0.276l 1.644 3.756c 0.24 0.54 0.396 0.876 1.032 0.936c 0.072 0.072 0.072 0.336 0 0.408c -0.264 -0.012 -0.648 -0.024 -0.912 -0.024c -0.444 0 -0.888 0.012 -1.212 0.024c -0.072 -0.072 -0.072 -0.336 0 -0.408Z "/></symbol><symbol id="gE18113BE1243CA6EC5596891CC422939" overflow="visible"><path d="M 0 0m 5.172 1.548c -0.492 -0.504 -1.14 -0.636 -1.596 -0.636c -0.936 0 -1.512 0.54 -1.512 1.716c 0 0.084 0.012 0.132 0.012 0.192h 2.88c 0.288 0 0.348 0.204 0.348 0.372c 0 1.02 -0.396 2.136 -2.16 2.136c -1.26 0 -2.7 -1.116 -2.7 -2.952c 0 -0.696 0.252 -1.428 0.768 -1.896c 0.456 -0.408 1.044 -0.6 1.896 -0.6c 0.828 0 1.644 0.42 2.244 1.296c 0 0.156 -0.06 0.372 -0.18 0.372Z m -3.048 1.752c 0.012 0.42 0.072 0.876 0.24 1.116c 0.192 0.288 0.516 0.408 0.648 0.408c 0.324 0 0.768 -0.312 0.768 -1.272c 0 -0.072 0 -0.228 -0.024 -0.252Z "/></symbol><symbol id="gF71CD90141C058754731CB923424AFF5" overflow="visible"><path d="M 0 0m 0.369 1.845c 0 -0.918 0.612 -1.935 1.89 -1.935c 0.576 0 1.017 0.207 1.323 0.504c 0.405 0.396 0.585 0.963 0.585 1.512c 0 0.936 -0.513 2.025 -1.89 2.025c -0.594 0 -1.08 -0.243 -1.413 -0.63c -0.324 -0.387 -0.495 -0.909 -0.495 -1.476Z m 1.773 1.791c 0.774 0 1.251 -0.702 1.251 -1.998c 0 -1.134 -0.585 -1.413 -1.008 -1.413c -0.936 0 -1.242 1.134 -1.242 1.827c 0 0.783 0.189 1.584 0.999 1.584Z "/></symbol><symbol id="gB56A4169EDF414CCDA3A7A5C17A02142" overflow="visible"><path d="M 0 0m 1.584 3.222c -0.018 0.36 -0.027 0.594 -0.072 0.684c -0.018 0.045 -0.036 0.072 -0.108 0.072c -0.252 -0.099 -0.486 -0.18 -1.107 -0.261c -0.018 -0.054 0 -0.198 0.018 -0.252c 0.486 -0.045 0.585 -0.09 0.585 -0.612v -1.755c 0 -0.747 -0.108 -0.783 -0.666 -0.819c -0.054 -0.054 -0.054 -0.243 0 -0.297c 0.315 0.009 0.666 0.018 1.026 0.018c 0.36 0 0.774 -0.009 1.089 -0.018c 0.054 0.054 0.054 0.243 0 0.297c -0.63 0.045 -0.738 0.072 -0.738 0.819v 1.251c 0 0.234 0.108 0.441 0.216 0.603c 0.099 0.144 0.306 0.441 0.414 0.441c 0.081 0 0.162 -0.018 0.234 -0.117c 0.063 -0.09 0.171 -0.207 0.324 -0.207c 0.216 0 0.423 0.225 0.423 0.45c 0 0.171 -0.162 0.432 -0.54 0.432c -0.423 0 -0.792 -0.396 -0.999 -0.747c -0.054 -0.099 -0.099 -0.027 -0.099 0.018Z "/></symbol><symbol id="gAB89768063FECB7A3B2DCA9C98B07790" overflow="visible"><path d="M 0 0m 3.006 0.45c 0.045 0.036 0.126 0.054 0.135 -0.009c 0.027 -0.216 0.099 -0.531 0.099 -0.531c 0.072 -0.027 0.117 -0.018 0.171 0c 0.198 0.162 0.513 0.297 1.062 0.36c 0.054 0.054 0.054 0.189 0 0.243c -0.576 0.045 -0.657 0.216 -0.657 0.657v 4.077c 0 0.585 0.036 0.945 0.036 0.945c 0 0.063 -0.036 0.09 -0.117 0.09c -0.225 -0.09 -0.9 -0.216 -1.26 -0.243c -0.018 -0.072 0 -0.216 0.054 -0.27c 0.027 0 0.054 0 0.081 0c 0.396 -0.027 0.495 -0.027 0.495 -0.738v -1.152c 0 -0.063 -0.018 -0.081 -0.081 -0.081c -0.036 0 -0.405 0.153 -0.702 0.153c -0.594 0 -0.99 -0.198 -1.35 -0.54c -0.387 -0.387 -0.621 -0.918 -0.621 -1.584c 0 -1.107 0.558 -1.917 1.53 -1.917c 0.351 0 0.684 0.18 1.125 0.54Z m 0.099 0.666c 0 -0.171 -0.018 -0.243 -0.144 -0.351c -0.333 -0.288 -0.621 -0.432 -0.846 -0.432c -0.486 0 -0.99 0.531 -0.99 1.656c 0 0.648 0.126 1.008 0.261 1.197c 0.279 0.423 0.657 0.45 0.837 0.45c 0.324 0 0.549 -0.117 0.729 -0.324c 0.126 -0.144 0.153 -0.207 0.153 -0.486Z "/></symbol><symbol id="g15283247E004048E8F39F157505A0F31" overflow="visible"><path d="M 0 0m 3.474 0.837c -0.333 -0.342 -0.594 -0.486 -1.116 -0.486c -0.324 0 -0.702 0.189 -0.981 0.648c -0.18 0.297 -0.288 0.711 -0.288 1.233l 2.394 -0.018c 0.108 0 0.171 0.054 0.171 0.153c 0 0.756 -0.27 1.566 -1.521 1.566c -0.783 0 -1.8 -0.747 -1.8 -2.115c 0 -0.504 0.126 -0.99 0.423 -1.332c 0.306 -0.36 0.729 -0.576 1.377 -0.576c 0.684 0 1.17 0.315 1.53 0.783c -0.027 0.09 -0.081 0.135 -0.189 0.144Z m -2.358 1.701c 0.171 1.017 0.801 1.098 1.017 1.098c 0.342 0 0.747 -0.189 0.747 -0.945c 0 -0.081 -0.036 -0.126 -0.135 -0.126Z "/></symbol><symbol id="g847357BB8876AF51969CA80692415844" overflow="visible"><path d="M 0 0m 0.549 4.212c 0 -0.189 0.171 -0.351 0.36 -0.351c 0.153 0 0.423 0.162 0.423 0.36c 0 0.072 -0.018 0.126 -0.036 0.189c -0.018 0.063 -0.072 0.144 -0.072 0.216c 0 0.225 0.234 0.549 0.891 0.549c 0.324 0 0.783 -0.225 0.783 -1.089c 0 -0.576 -0.207 -1.044 -0.738 -1.584l -0.666 -0.657c -0.882 -0.9 -1.026 -1.332 -1.026 -1.863c 0 0 0.459 0.018 0.747 0.018h 1.575c 0.288 0 0.702 -0.018 0.702 -0.018c 0.117 0.477 0.207 1.152 0.216 1.422c -0.054 0.045 -0.171 0.063 -0.261 0.045c -0.153 -0.639 -0.306 -0.864 -0.63 -0.864h -1.602c 0 0.432 0.621 1.044 0.666 1.089l 0.909 0.873c 0.513 0.495 0.9 0.891 0.9 1.575c 0 0.972 -0.792 1.368 -1.521 1.368c -0.999 0 -1.62 -0.738 -1.62 -1.278Z "/></symbol><symbol id="g7BD485DADED4F14262FB7E0C3DAF849D" overflow="visible"><path d="M 0 0m 1.935 5.175c 0.387 0 0.747 -0.234 0.747 -0.81c 0 -0.45 -0.522 -1.143 -1.413 -1.269l 0.045 -0.288c 0.153 0.018 0.315 0.018 0.432 0.018c 0.513 0 1.179 -0.144 1.179 -1.161c 0 -1.197 -0.801 -1.44 -1.116 -1.44c -0.459 0 -0.54 0.207 -0.648 0.369c -0.09 0.126 -0.207 0.234 -0.387 0.234c -0.189 0 -0.378 -0.171 -0.378 -0.315c 0 -0.36 0.756 -0.603 1.296 -0.603c 1.071 0 2.025 0.693 2.025 1.881c 0 0.981 -0.738 1.332 -1.269 1.422l -0.009 0.018c 0.738 0.351 0.945 0.72 0.945 1.197c 0 0.27 -0.063 0.486 -0.279 0.711c -0.198 0.198 -0.513 0.351 -0.981 0.351c -1.323 0 -1.701 -0.864 -1.701 -1.161c 0 -0.126 0.09 -0.306 0.306 -0.306c 0.315 0 0.351 0.297 0.351 0.468c 0 0.576 0.621 0.684 0.855 0.684Z "/></symbol><symbol id="gD11A58C3A3B421C2056FF05E75045811" overflow="visible"><path d="M 0 0m 3.87 1.971h -0.747v 2.628c 0 0.45 0 0.801 0.018 0.873l -0.018 0.018h -0.288c -0.063 0 -0.108 -0.054 -0.144 -0.099c -0.567 -0.693 -1.611 -2.178 -2.439 -3.465c 0.027 -0.135 0.081 -0.378 0.351 -0.378h 1.836v -0.828c 0 -0.414 -0.342 -0.414 -0.729 -0.441c -0.054 -0.054 -0.054 -0.243 0 -0.297c 0.288 0.009 0.648 0.018 1.062 0.018c 0.351 0 0.693 -0.009 0.981 -0.018c 0.054 0.054 0.054 0.243 0 0.297c -0.441 0.036 -0.63 0.018 -0.63 0.441v 0.828h 0.621c 0.126 0 0.261 0.171 0.261 0.279c 0 0.09 -0.036 0.144 -0.135 0.144Z m -1.431 2.592v -2.592h -1.719c 0.459 0.738 1.098 1.746 1.719 2.592Z "/></symbol></defs></svg>