<svg xmlns="http://www.w3.org/2000/svg" xmlns:xlink="http://www.w3.org/1999/xlink" width="587.65" height="552.342" viewBox="0 0 440.737 414.257"><path fill="none" stroke="gold" stroke-width="3" d="M222.016 206.482h106.299m0 0 56.902 63.197m-56.902-63.197 81.745 23.44m-81.745-23.44 81.745-23.44m-81.745 23.44 56.902-63.196"/><path fill="none" stroke="#b10dc9" stroke-width="3" d="m222.016 206.482 53.15-92.057m-.001 0 73.647-42.52m-73.647 42.519 29.086-79.91m-29.086 79.91-29.085-79.91"/><path fill="none" stroke="#006400" stroke-width="3" d="m222.016 206.482-53.15-92.057m0 0-65.144-54.663m65.144 54.663L154.1 30.677"/><path fill="none" stroke="#ff4136" stroke-width="3" d="M222.016 206.482h-106.3m.001 0L50.573 151.82m65.144 54.662h-85.04m85.04 0-65.144 54.663"/><path fill="none" stroke="#39cccc" stroke-width="3" d="m222.016 206.482-53.15 92.058m0 0v85.04m0-85.04L95.22 341.06"/><path fill="none" stroke="#00008b" stroke-width="3" d="m222.016 206.482 53.15 92.058m-.001 0-29.085 79.911m29.085-79.911 29.086 79.911m-29.086-79.911 73.647 42.52"/><path fill="#ff851b" stroke="#fff" stroke-width="2" d="M222.016 163.963c-23.462 0-42.52 19.058-42.52 42.52 0 23.461 19.058 42.52 42.52 42.52 23.461 0 42.52-19.059 42.52-42.52s-19.059-42.52-42.52-42.52Z"/><path fill="none" d="M203.123 201.659h37.785v9.647h-37.785z"/><g fill="#fff" transform="matrix(1 0 0 -1 203.123 208.754)"><use xlink:href="#a"/><use xlink:href="#b" x="6.886"/><use xlink:href="#c" x="13.695"/><use xlink:href="#d" x="19.833"/><use xlink:href="#e" x="24.53"/><use xlink:href="#f" x="28.072"/><use xlink:href="#d" x="33.088"/></g><path fill="gold" stroke="#fff" stroke-width="2" d="M328.315 172.467c-18.77 0-34.016 15.246-34.016 34.015 0 18.77 15.247 34.016 34.016 34.016 18.77 0 34.016-15.246 34.016-34.016s-15.247-34.015-34.016-34.015Z"/><path fill="none" d="M306.728 197.707h43.173v17.55h-43.173z"/><g transform="matrix(1 0 0 -1 310.315 203.512)"><use xlink:href="#g"/><use xlink:href="#h" x="6.354"/><use xlink:href="#i" x="9.279"/><use xlink:href="#j" x="13.833"/><use xlink:href="#j" x="17.676"/><use xlink:href="#k" x="21.519"/><use xlink:href="#l" x="24.417"/><use xlink:href="#i" x="28.521"/><use xlink:href="#h" x="33.075"/></g><g transform="matrix(1 0 0 -1 306.728 215.167)"><use xlink:href="#m"/><use xlink:href="#n" x="8.091"/><use xlink:href="#l" x="12.555"/><use xlink:href="#o" x="16.659"/><use xlink:href="#i" x="22.23"/><use xlink:href="#p" x="26.784"/><use xlink:href="#k" x="32.328"/><use xlink:href="#l" x="35.226"/><use xlink:href="#j" x="39.33"/></g><path fill="gold" stroke="#fff" stroke-width="2" d="M385.217 247.002c-12.512 0-22.677 10.164-22.677 22.677s10.165 22.677 22.677 22.677 22.678-10.164 22.678-22.677-10.165-22.677-22.678-22.677Z"/><path fill="none" d="M367.617 260.967h35.2v17.424h-35.2z"/><g transform="matrix(1 0 0 -1 368.561 266.127)"><use xlink:href="#q"/><use xlink:href="#r" x="4.616"/><use xlink:href="#s" x="8.664"/><use xlink:href="#t" x="12.832"/><use xlink:href="#r" x="16.256"/><use xlink:href="#u" x="20.304"/><use xlink:href="#s" x="25.232"/><use xlink:href="#v" x="29.4"/></g><g transform="matrix(1 0 0 -1 367.617 276.487)"><use xlink:href="#w"/><use xlink:href="#r" x="6.536"/><use xlink:href="#x" x="10.584"/><use xlink:href="#y" x="17.824"/><use xlink:href="#z" x="20.4"/><use xlink:href="#A" x="23"/><use xlink:href="#B" x="25.864"/><use xlink:href="#u" x="30.272"/></g><path fill="gold" stroke="#fff" stroke-width="2" d="M410.06 207.245c-12.513 0-22.677 10.165-22.677 22.677S397.547 252.6 410.06 252.6s22.677-10.165 22.677-22.678c0-12.512-10.164-22.677-22.677-22.677Z"/><path fill="none" d="M396.784 221.234h26.552v17.376h-26.552z"/><g transform="matrix(1 0 0 -1 398.824 226.394)"><use xlink:href="#C"/><use xlink:href="#D" x="5.648"/><use xlink:href="#r" x="10.6"/><use xlink:href="#B" x="14.648"/><use xlink:href="#E" x="19.056"/></g><g transform="matrix(1 0 0 -1 396.784 236.754)"><use xlink:href="#F"/><use xlink:href="#D" x="5.216"/><use xlink:href="#v" x="10.168"/><use xlink:href="#B" x="14.136"/><use xlink:href="#t" x="18.544"/><use xlink:href="#G" x="22.088"/></g><path fill="gold" stroke="#fff" stroke-width="2" d="M410.06 160.365c-12.513 0-22.677 10.164-22.677 22.677s10.164 22.678 22.677 22.678 22.677-10.165 22.677-22.678-10.164-22.677-22.677-22.677Z"/><path fill="none" d="M394.984 175.242h30.152v15.6h-30.152z"/><g transform="matrix(1 0 0 -1 399.736 180.402)"><use xlink:href="#H"/><use xlink:href="#r" x="5.856"/><use xlink:href="#E" x="9.904"/><use xlink:href="#v" x="13.32"/><use xlink:href="#E" x="17.232"/></g><g transform="matrix(1 0 0 -1 394.984 190.762)"><use xlink:href="#I"/><use xlink:href="#J" x="7.832"/><use xlink:href="#z" x="12.288"/><use xlink:href="#K" x="14.888"/><use xlink:href="#y" x="19.672"/><use xlink:href="#L" x="22.248"/><use xlink:href="#E" x="26.736"/></g><path fill="gold" stroke="#fff" stroke-width="2" d="M385.217 120.609c-12.512 0-22.677 10.164-22.677 22.677s10.165 22.677 22.677 22.677 22.678-10.164 22.678-22.677-10.165-22.677-22.678-22.677Z"/><path fill="none" d="M367.813 134.598h34.808v17.376h-34.808z"/><g transform="matrix(1 0 0 -1 372.357 139.758)"><use xlink:href="#M"/><use xlink:href="#z" x="4.872"/><use xlink:href="#v" x="7.472"/><use xlink:href="#N" x="11.44"/><use xlink:href="#A" x="15.088"/><use xlink:href="#t" x="17.952"/><use xlink:href="#B" x="21.312"/></g><g transform="matrix(1 0 0 -1 367.813 150.118)"><use xlink:href="#L"/><use xlink:href="#G" x="4.488"/><use xlink:href="#u" x="8.952"/><use xlink:href="#r" x="13.88"/><use xlink:href="#x" x="17.928"/><use xlink:href="#y" x="25.168"/><use xlink:href="#N" x="27.744"/><use xlink:href="#E" x="31.392"/></g><path fill="#b10dc9" stroke="#fff" stroke-width="2" d="M275.165 80.409c-18.769 0-34.015 15.246-34.015 34.016s15.246 34.015 34.015 34.015c18.77 0 34.016-15.246 34.016-34.015 0-18.77-15.246-34.016-34.016-34.016Z"/><path fill="none" d="M248.804 110.451h52.722v7.947h-52.722z"/><g fill="#fff" transform="matrix(1 0 0 -1 248.804 116.256)"><use xlink:href="#O"/><use xlink:href="#k" x="7.353"/><use xlink:href="#P" x="10.251"/><use xlink:href="#o" x="14.94"/><use xlink:href="#Q" x="20.511"/><use xlink:href="#R" x="23.733"/><use xlink:href="#p" x="29.214"/><use xlink:href="#n" x="34.758"/><use xlink:href="#S" x="39.159"/><use xlink:href="#P" x="43.011"/><use xlink:href="#T" x="47.7"/></g><path fill="#b10dc9" stroke="#fff" stroke-width="2" d="M348.812 49.228c-12.513 0-22.678 10.164-22.678 22.677s10.165 22.677 22.678 22.677 22.677-10.164 22.677-22.677-10.164-22.677-22.677-22.677Z"/><path fill="none" d="M334.82 63.217h27.984v17.376H334.82z"/><g fill="#fff"><g transform="matrix(1 0 0 -1 334.82 68.377)"><use xlink:href="#U"/><use xlink:href="#r" x="4.912"/><use xlink:href="#t" x="8.96"/><use xlink:href="#A" x="12.384"/><use xlink:href="#y" x="15.248"/><use xlink:href="#N" x="17.824"/><use xlink:href="#z" x="21.472"/><use xlink:href="#v" x="24.072"/></g><g transform="matrix(1 0 0 -1 335.072 78.737)"><use xlink:href="#U"/><use xlink:href="#D" x="5.008"/><use xlink:href="#G" x="9.96"/><use xlink:href="#E" x="14.424"/><use xlink:href="#y" x="17.84"/><use xlink:href="#N" x="20.416"/><use xlink:href="#E" x="24.064"/></g></g><path fill="#b10dc9" stroke="#fff" stroke-width="2" d="M304.251 11.837c-12.513 0-22.678 10.164-22.678 22.677s10.165 22.677 22.678 22.677c12.512 0 22.677-10.164 22.677-22.677s-10.165-22.677-22.677-22.677Z"/><path fill="none" d="M287.007 20.646h34.488v27.736h-34.488z"/><g fill="#fff"><g transform="matrix(1 0 0 -1 287.007 25.806)"><use xlink:href="#V"/><use xlink:href="#K" x="5.84"/><use xlink:href="#r" x="10.624"/><use xlink:href="#u" x="14.672"/><use xlink:href="#A" x="19.6"/><use xlink:href="#K" x="22.464"/><use xlink:href="#x" x="27.248"/></g><g transform="matrix(1 0 0 -1 295.283 36.166)"><use xlink:href="#J"/><use xlink:href="#y" x="4.36"/><use xlink:href="#v" x="6.936"/><use xlink:href="#z" x="10.848"/><use xlink:href="#L" x="13.448"/></g><g transform="matrix(1 0 0 -1 290.975 46.526)"><use xlink:href="#F"/><use xlink:href="#D" x="5.216"/><use xlink:href="#v" x="10.168"/><use xlink:href="#B" x="14.136"/><use xlink:href="#t" x="18.544"/><use xlink:href="#G" x="22.088"/></g></g><path fill="#b10dc9" stroke="#fff" stroke-width="2" d="M246.08 11.837c-12.513 0-22.677 10.164-22.677 22.677S233.567 57.19 246.08 57.19s22.677-10.164 22.677-22.677-10.164-22.677-22.677-22.677Z"/><path fill="none" d="M231.912 25.826h28.336v17.376h-28.336z"/><g fill="#fff"><g transform="matrix(1 0 0 -1 231.912 30.986)"><use xlink:href="#W"/><use xlink:href="#K" x="5.92"/><use xlink:href="#N" x="10.704"/><use xlink:href="#z" x="14.352"/><use xlink:href="#v" x="16.952"/><use xlink:href="#r" x="20.864"/><use xlink:href="#t" x="24.912"/></g><g transform="matrix(1 0 0 -1 232.34 41.346)"><use xlink:href="#U"/><use xlink:href="#D" x="5.008"/><use xlink:href="#G" x="9.96"/><use xlink:href="#E" x="14.424"/><use xlink:href="#y" x="17.84"/><use xlink:href="#N" x="20.416"/><use xlink:href="#E" x="24.064"/></g></g><path fill="#006400" stroke="#fff" stroke-width="2" d="M168.866 80.409c-18.77 0-34.016 15.246-34.016 34.016s15.247 34.015 34.016 34.015c18.77 0 34.016-15.246 34.016-34.015 0-18.77-15.247-34.016-34.016-34.016Z"/><path fill="none" d="M145.939 110.451h45.855v7.947h-45.855z"/><g fill="#fff" transform="matrix(1 0 0 -1 145.939 116.256)"><use xlink:href="#g"/><use xlink:href="#X" x="6.354"/><use xlink:href="#j" x="11.313"/><use xlink:href="#Y" x="15.156"/><use xlink:href="#X" x="23.301"/><use xlink:href="#h" x="28.26"/><use xlink:href="#X" x="31.185"/><use xlink:href="#P" x="36.144"/><use xlink:href="#T" x="40.833"/></g><path fill="#006400" stroke="#fff" stroke-width="2" d="M103.722 37.085c-12.513 0-22.677 10.164-22.677 22.677S91.209 82.44 103.722 82.44 126.4 72.275 126.4 59.762s-10.164-22.677-22.677-22.677Z"/><path fill="none" d="M83.266 56.254h40.912v7.016H83.266z"/><g fill="#fff" transform="matrix(1 0 0 -1 83.266 61.414)"><use xlink:href="#Z"/><use xlink:href="#E" x="5.824"/><use xlink:href="#A" x="9.24"/><use xlink:href="#t" x="12.104"/><use xlink:href="#B" x="15.464"/><use xlink:href="#u" x="19.872"/><use xlink:href="#B" x="24.8"/><use xlink:href="#x" x="29.208"/><use xlink:href="#G" x="36.448"/></g><path fill="#006400" stroke="#fff" stroke-width="2" d="M154.099 8c-12.513 0-22.677 10.164-22.677 22.677s10.164 22.677 22.677 22.677 22.677-10.164 22.677-22.677S166.612 8 154.1 8Z"/><path fill="none" d="M138.003 21.99h32.192v17.375h-32.192z"/><g fill="#fff"><g transform="matrix(1 0 0 -1 144.395 27.15)"><use xlink:href="#M"/><use xlink:href="#r" x="4.872"/><use xlink:href="#t" x="8.92"/><use xlink:href="#z" x="12.344"/><use xlink:href="#G" x="14.944"/></g><g transform="matrix(1 0 0 -1 138.003 37.51)"><use xlink:href="#aa"/><use xlink:href="#u" x="5.856"/><use xlink:href="#y" x="10.784"/><use xlink:href="#ab" x="13.36"/><use xlink:href="#v" x="17.528"/><use xlink:href="#t" x="21.44"/><use xlink:href="#E" x="24.864"/><use xlink:href="#v" x="28.28"/></g></g><path fill="#ff4136" stroke="#fff" stroke-width="2" d="M115.717 172.467c-18.77 0-34.016 15.246-34.016 34.015 0 18.77 15.246 34.016 34.016 34.016s34.015-15.246 34.015-34.016-15.246-34.015-34.015-34.015Z"/><path fill="none" d="M94.13 197.707h43.173v17.55H94.13z"/><g fill="#fff"><g transform="matrix(1 0 0 -1 95.728 203.512)"><use xlink:href="#ac"/><use xlink:href="#ad" x="4.536"/><use xlink:href="#i" x="7.758"/><use xlink:href="#ad" x="12.312"/><use xlink:href="#k" x="15.534"/><use xlink:href="#j" x="18.432"/><use xlink:href="#ad" x="22.275"/><use xlink:href="#k" x="25.497"/><use xlink:href="#l" x="28.395"/><use xlink:href="#i" x="32.499"/><use xlink:href="#h" x="37.053"/></g><g transform="matrix(1 0 0 -1 94.13 215.167)"><use xlink:href="#m"/><use xlink:href="#n" x="8.091"/><use xlink:href="#l" x="12.555"/><use xlink:href="#o" x="16.659"/><use xlink:href="#i" x="22.23"/><use xlink:href="#p" x="26.784"/><use xlink:href="#k" x="32.328"/><use xlink:href="#l" x="35.226"/><use xlink:href="#j" x="39.33"/></g></g><path fill="#ff4136" stroke="#fff" stroke-width="2" d="M50.573 129.143c-12.513 0-22.678 10.164-22.678 22.677s10.165 22.677 22.678 22.677c12.512 0 22.677-10.164 22.677-22.677s-10.165-22.677-22.677-22.677Z"/><path fill="none" d="M33.169 143.132h34.808v17.376H33.169z"/><g fill="#fff"><g transform="matrix(1 0 0 -1 35.997 148.292)"><use xlink:href="#F"/><use xlink:href="#D" x="5.216"/><use xlink:href="#v" x="10.168"/><use xlink:href="#t" x="14.08"/><use xlink:href="#x" x="17.504"/><use xlink:href="#B" x="24.744"/></g><g transform="matrix(1 0 0 -1 33.169 158.652)"><use xlink:href="#L"/><use xlink:href="#G" x="4.488"/><use xlink:href="#u" x="8.952"/><use xlink:href="#r" x="13.88"/><use xlink:href="#x" x="17.928"/><use xlink:href="#y" x="25.168"/><use xlink:href="#N" x="27.744"/><use xlink:href="#E" x="31.392"/></g></g><path fill="#ff4136" stroke="#fff" stroke-width="2" d="M30.677 183.805C18.164 183.805 8 193.97 8 206.482s10.164 22.678 22.677 22.678 22.677-10.165 22.677-22.678c0-12.512-10.164-22.677-22.677-22.677Z"/><path fill="none" d="M17.401 192.614h26.552v27.736H17.401z"/><g fill="#fff"><g transform="matrix(1 0 0 -1 17.481 197.774)"><use xlink:href="#ae"/><use xlink:href="#y" x="5.888"/><use xlink:href="#u" x="8.464"/><use xlink:href="#v" x="13.392"/><use xlink:href="#A" x="17.304"/><use xlink:href="#y" x="20.168"/><use xlink:href="#N" x="22.744"/></g><g transform="matrix(1 0 0 -1 24.017 208.134)"><use xlink:href="#H"/><use xlink:href="#r" x="5.856"/><use xlink:href="#E" x="9.904"/></g><g transform="matrix(1 0 0 -1 17.401 218.494)"><use xlink:href="#F"/><use xlink:href="#D" x="5.216"/><use xlink:href="#v" x="10.168"/><use xlink:href="#B" x="14.136"/><use xlink:href="#t" x="18.544"/><use xlink:href="#G" x="22.088"/></g></g><path fill="#ff4136" stroke="#fff" stroke-width="2" d="M50.573 238.468c-12.513 0-22.678 10.164-22.678 22.677s10.165 22.677 22.678 22.677c12.512 0 22.677-10.164 22.677-22.677s-10.165-22.677-22.677-22.677Z"/><path fill="none" d="M30.48 253.345h40.185v15.6H30.48z"/><g fill="#fff"><g transform="matrix(1 0 0 -1 30.48 258.505)"><use xlink:href="#C"/><use xlink:href="#B" x="5.648"/><use xlink:href="#u" x="10.056"/><use xlink:href="#L" x="14.984"/><use xlink:href="#v" x="19.472"/><use xlink:href="#u" x="23.384"/><use xlink:href="#E" x="28.312"/><use xlink:href="#v" x="31.728"/><use xlink:href="#L" x="35.696"/></g><g transform="matrix(1 0 0 -1 38.42 268.865)"><use xlink:href="#af"/><use xlink:href="#r" x="7.192"/><use xlink:href="#A" x="11.24"/><use xlink:href="#A" x="14.104"/><use xlink:href="#v" x="16.968"/><use xlink:href="#t" x="20.88"/></g></g><path fill="#39cccc" stroke="#fff" stroke-width="2" d="M168.866 264.524c-18.77 0-34.016 15.247-34.016 34.016 0 18.77 15.247 34.016 34.016 34.016 18.77 0 34.016-15.246 34.016-34.016s-15.247-34.016-34.016-34.016Z"/><path fill="none" d="M148.693 294.594h40.347v7.893h-40.347z"/><g fill="#fff" transform="matrix(1 0 0 -1 148.693 300.399)"><use xlink:href="#ag"/><use xlink:href="#n" x="6.444"/><use xlink:href="#h" x="10.845"/><use xlink:href="#i" x="13.77"/><use xlink:href="#ad" x="18.324"/><use xlink:href="#k" x="21.546"/><use xlink:href="#ah" x="24.444"/><use xlink:href="#k" x="29.205"/><use xlink:href="#ad" x="32.103"/><use xlink:href="#T" x="35.325"/></g><path fill="#39cccc" stroke="#fff" stroke-width="2" d="M168.866 360.902c-12.513 0-22.677 10.165-22.677 22.678s10.164 22.677 22.677 22.677 22.677-10.164 22.677-22.677-10.164-22.678-22.677-22.678Z"/><path fill="none" d="M156.078 380.064h25.576v7.032h-25.576z"/><g fill="#fff" transform="matrix(1 0 0 -1 156.078 385.224)"><use xlink:href="#ai"/><use xlink:href="#aj" x="4.032"/><use xlink:href="#v" x="8.736"/><use xlink:href="#N" x="12.704"/><use xlink:href="#y" x="16.352"/><use xlink:href="#r" x="18.928"/><use xlink:href="#z" x="22.976"/></g><path fill="#39cccc" stroke="#fff" stroke-width="2" d="M95.22 318.383c-12.513 0-22.677 10.164-22.677 22.677s10.164 22.677 22.677 22.677 22.677-10.164 22.677-22.677-10.164-22.677-22.677-22.677Z"/><path fill="none" d="M80.88 338.44h28.68v5.24H80.88z"/><g fill="#fff" transform="matrix(1 0 0 -1 80.88 343.6)"><use xlink:href="#H"/><use xlink:href="#v" x="5.856"/><use xlink:href="#u" x="9.768"/><use xlink:href="#v" x="14.696"/><use xlink:href="#t" x="18.608"/><use xlink:href="#r" x="22.032"/><use xlink:href="#z" x="26.08"/></g><path fill="#00008b" stroke="#fff" stroke-width="2" d="M275.165 264.524c-18.769 0-34.015 15.247-34.015 34.016 0 18.77 15.246 34.016 34.015 34.016 18.77 0 34.016-15.246 34.016-34.016s-15.246-34.016-34.016-34.016Z"/><path fill="none" d="M253.579 288.856h43.173v19.368h-43.173z"/><g fill="#fff"><g transform="matrix(1 0 0 -1 255.766 294.661)"><use xlink:href="#ak"/><use xlink:href="#al" x="6.57"/><use xlink:href="#i" x="11.952"/><use xlink:href="#p" x="16.506"/><use xlink:href="#ad" x="22.05"/><use xlink:href="#al" x="25.272"/><use xlink:href="#Y" x="30.654"/></g><g transform="matrix(1 0 0 -1 253.579 306.316)"><use xlink:href="#m"/><use xlink:href="#n" x="8.091"/><use xlink:href="#l" x="12.555"/><use xlink:href="#o" x="16.659"/><use xlink:href="#i" x="22.23"/><use xlink:href="#p" x="26.784"/><use xlink:href="#k" x="32.328"/><use xlink:href="#l" x="35.226"/><use xlink:href="#j" x="39.33"/></g></g><path fill="#00008b" stroke="#fff" stroke-width="2" d="M246.08 355.774c-12.513 0-22.677 10.164-22.677 22.677s10.164 22.677 22.677 22.677 22.677-10.164 22.677-22.677-10.164-22.677-22.677-22.677Z"/><path fill="none" d="M232.34 369.763h27.48v17.376h-27.48z"/><g fill="#fff"><g transform="matrix(1 0 0 -1 232.752 374.923)"><use xlink:href="#Z"/><use xlink:href="#A" x="5.92"/><use xlink:href="#B" x="8.784"/><use xlink:href="#x" x="13.192"/><use xlink:href="#y" x="20.432"/><use xlink:href="#N" x="23.008"/></g><g transform="matrix(1 0 0 -1 232.34 385.283)"><use xlink:href="#U"/><use xlink:href="#D" x="5.008"/><use xlink:href="#G" x="9.96"/><use xlink:href="#E" x="14.424"/><use xlink:href="#y" x="17.84"/><use xlink:href="#N" x="20.416"/><use xlink:href="#E" x="24.064"/></g></g><path fill="#00008b" stroke="#fff" stroke-width="2" d="M304.251 355.774c-12.513 0-22.678 10.164-22.678 22.677s10.165 22.677 22.678 22.677c12.512 0 22.677-10.164 22.677-22.677s-10.165-22.677-22.677-22.677Z"/><path fill="none" d="M285.915 369.763h36.672v17.376h-36.672z"/><g fill="#fff"><g transform="matrix(1 0 0 -1 285.915 374.923)"><use xlink:href="#af"/><use xlink:href="#B" x="7.192"/><use xlink:href="#z" x="11.6"/><use xlink:href="#v" x="14.2"/><use xlink:href="#N" x="18.168"/><use xlink:href="#K" x="21.816"/><use xlink:href="#z" x="26.6"/><use xlink:href="#r" x="29.2"/><use xlink:href="#t" x="33.248"/></g><g transform="matrix(1 0 0 -1 290.51 385.283)"><use xlink:href="#U"/><use xlink:href="#D" x="5.008"/><use xlink:href="#G" x="9.96"/><use xlink:href="#E" x="14.424"/><use xlink:href="#y" x="17.84"/><use xlink:href="#N" x="20.416"/><use xlink:href="#E" x="24.064"/></g></g><path fill="#00008b" stroke="#fff" stroke-width="2" d="M348.812 318.383c-12.513 0-22.678 10.164-22.678 22.677s10.165 22.677 22.678 22.677 22.677-10.164 22.677-22.677-10.164-22.677-22.677-22.677Z"/><path fill="none" d="M329.504 337.552h38.616v7.016h-38.616z"/><g fill="#fff" transform="matrix(1 0 0 -1 329.504 342.712)"><use xlink:href="#C"/><use xlink:href="#D" x="5.648"/><use xlink:href="#v" x="10.6"/><use xlink:href="#x" x="14.512"/><use xlink:href="#y" x="21.752"/><use xlink:href="#E" x="24.328"/><use xlink:href="#A" x="27.744"/><use xlink:href="#t" x="30.608"/><use xlink:href="#G" x="34.152"/></g><defs><symbol id="a" overflow="visible"><path d="M3.806 7.194c-.44 0-3.025-.077-3.465-.077-.11-.066-.11-.308 0-.374.605-.033.913-.077.913-.99V1.342c0-.913-.308-.957-.913-.99-.11-.066-.11-.308 0-.374C.781-.011 1.595 0 2.035 0s1.232-.011 1.672-.022c.11.066.11.308 0 .374-.605.033-.913.077-.913.99v4.422c0 .748.077.979.66.979.638 0 1.375-.264 1.375-1.606 0-1.144-.319-1.628-1.221-1.628-.165 0-.396.011-.55.033 0-.209.066-.363.22-.462.154-.022.121-.033.385-.033.968 0 1.65.165 2.09.528.55.451.737 1.166.737 1.749 0 .44-.165 1.1-.847 1.507-.407.242-1.012.363-1.837.363"/></symbol><symbol id="b" overflow="visible"><path d="M5.808 1.408v1.716c0 1.21-.517 1.76-1.463 1.76-.407 0-1.188-.407-1.815-.792v2.321c0 .715.033 1.122.033 1.122 0 .099-.077.143-.176.143C1.98 7.546 1.1 7.425.319 7.392a.48.48 0 0 1 .033-.352c.693-.055.748-.066.748-.825V1.397C1.1.484.924.385.253.352.187.286.187.044.253-.022.715-.011 1.21 0 1.815 0c.528 0 .869-.011 1.342-.022.066.066.066.308 0 .374-.462.033-.627.132-.627 1.045v2.255c.462.286.825.418 1.023.418.44 0 .825-.198.825-.825V1.408c0-.924-.176-1.023-.627-1.056-.066-.066-.066-.308 0-.374.462.011.814.022 1.342.022.605 0 1.089-.011 1.562-.022.066.066.066.308 0 .374-.671.033-.847.132-.847 1.056"/></symbol><symbol id="c" overflow="visible"><path d="M2.662-1.848c.176.308.341.704.473 1.034a92 92 0 0 0 2.002 4.543c.154.319.484.66.891.693.066.066.066.308 0 .374-.275-.011-.473-.022-.781-.022-.385 0-.759.011-1.166.022-.066-.066-.066-.308 0-.374.352-.033.704-.088.528-.484L3.476 1.397c0-.011 0-.011-.011-.022 0 .011 0 .022-.011.044L2.431 3.718c-.011.011-.011.022-.011.033-.198.429-.275.616.374.671.066.066.066.308 0 .374a66 66 0 0 0-1.463-.022c-.374 0-1.001.011-1.221.022-.066-.066-.066-.308 0-.374.484-.044.572-.121.869-.814L2.398.352c.033-.055.077-.099.11-.143.143-.198.264-.363.198-.517l-.264-.605c-.143-.341-.275-.539-.583-.539-.198 0-.231.044-.385.044-.418 0-.66-.286-.66-.506 0-.143.033-.319.132-.44a.6.6 0 0 1 .429-.198c.143 0 .473.044.627.11.231.11.539.374.66.594"/></symbol><symbol id="d" overflow="visible"><path d="M.528 1.606C.572 1.067.627.55.715.132.924.066 1.628-.11 2.244-.11c.847 0 1.903.462 1.903 1.419 0 .374-.088.671-.341.946-.308.352-.77.627-1.276.847-.44.187-.594.539-.594.858 0 .253.209.462.528.462.385 0 .759-.352 1.034-1.023.198-.033.319-.022.429.055 0 .396-.044.814-.143 1.166-.352.154-.627.264-1.232.264-.583 0-1.133-.22-1.485-.572a1.22 1.22 0 0 1-.374-.858c0-.33.132-.594.341-.825.341-.374.946-.759 1.276-.913a.93.93 0 0 0 .561-.858c0-.352-.352-.539-.649-.539-.495 0-1.023.506-1.254 1.309a.86.86 0 0 1-.44-.022"/></symbol><symbol id="e" overflow="visible"><path d="M2.552 1.342v2.189c0 .55.044 1.166.044 1.166 0 .121-.099.187-.253.187-.308-.121-1.199-.209-1.958-.308-.022-.066 0-.286.022-.352.605-.055.715-.143.715-.77V1.342c0-.913-.121-.935-.792-.99C.264.286.264.044.33-.022.792-.011 1.254 0 1.837 0s1.034-.011 1.507-.022c.066.066.066.308 0 .374-.671.044-.792.077-.792.99M1.067 6.556c0-.363.264-.726.704-.726.495 0 .781.396.781.682 0 .33-.253.726-.715.726-.517 0-.77-.352-.77-.682"/></symbol><symbol id="f" overflow="visible"><path d="M4.642.957c0 .132-.022.341-.143.341-.44-.407-.814-.616-1.133-.616-.825 0-1.474.594-1.474 1.914 0 1.221.275 1.826.858 1.826.407 0 .572-.429.605-.781.033-.297.33-.517.682-.517s.605.275.605.616c0 .495-.594 1.144-1.793 1.144-1.298 0-2.442-1.045-2.442-2.673 0-.715.253-1.342.682-1.749S2.024-.11 2.805-.11c.66 0 1.419.462 1.837 1.067"/></symbol><symbol id="g" overflow="visible"><path d="M3.573-.09c.873 0 1.674.414 2.286 1.215-.045.081-.198.189-.297.189C4.923.612 4.194.378 3.564.378c-1.044 0-1.872 1.224-1.872 2.628 0 1.395.72 2.547 1.791 2.547 1.242 0 1.647-.702 1.881-1.476a.58.58 0 0 1 .387.045c-.045.468-.117.9-.198 1.395-.459.045-.864.405-1.971.405-1.764 0-3.249-1.107-3.249-3.087 0-.846.369-1.836 1.089-2.358C1.998.063 2.7-.09 3.573-.09"/></symbol><symbol id="h" overflow="visible"><path d="M.9 1.143C.9.396.756.315.207.288.153.234.153.036.207-.018.585-.009.99 0 1.485 0s.891-.009 1.278-.018c.054.054.054.252 0 .306-.549.027-.693.108-.693.855v4.104c0 .585.027.918.027.918 0 .081-.063.117-.144.117C1.62 6.174.9 6.075.261 6.048a.4.4 0 0 1 .027-.288C.855 5.715.9 5.706.9 5.085Z"/></symbol><symbol id="i" overflow="visible"><path d="M2.655.441c.063-.369.306-.531.702-.531.495 0 .846.189 1.179.504a.33.33 0 0 1-.162.252.54.54 0 0 0-.378-.126c-.198 0-.252.162-.252.603l.018 1.296c0 1.296-.801 1.557-1.539 1.557-.657 0-1.665-.378-1.665-.972 0-.252.108-.45.459-.45.324 0 .558.198.558.414 0 .045-.009.099-.018.153-.018.09-.036.18-.018.27.009.099.081.207.378.207.378 0 .693-.162.693-1.305l-.603-.189C1.062 1.827.396 1.566.396.855c0-.621.342-.945 1.125-.945.261 0 .783.288 1.08.522ZM2.61 1.962V.774C2.385.594 2.16.45 1.998.45c-.387 0-.522.261-.522.54 0 .333.027.612.666.819Z"/></symbol><symbol id="j" overflow="visible"><path d="M.432 1.314A10 10 0 0 1 .585.108 5 5 0 0 1 1.836-.09c.693 0 1.557.378 1.557 1.161 0 .306-.072.549-.279.774-.252.288-.63.513-1.044.693-.36.153-.486.441-.486.702 0 .207.171.378.432.378.315 0 .621-.288.846-.837.162-.027.261-.018.351.045 0 .324-.036.666-.117.954a2.1 2.1 0 0 1-1.008.216c-.477 0-.927-.18-1.215-.468a1 1 0 0 1-.306-.702c0-.27.108-.486.279-.675.279-.306.774-.621 1.044-.747a.76.76 0 0 0 .459-.702c0-.288-.288-.441-.531-.441-.405 0-.837.414-1.026 1.071a.7.7 0 0 1-.36-.018"/></symbol><symbol id="k" overflow="visible"><path d="M2.088 1.098v1.791c0 .45.036.954.036.954 0 .099-.081.153-.207.153-.252-.099-.981-.171-1.602-.252a.8.8 0 0 1 .018-.288c.495-.045.585-.117.585-.63V1.098C.918.351.819.333.27.288.216.234.216.036.27-.018.648-.009 1.026 0 1.503 0s.846-.009 1.233-.018c.054.054.054.252 0 .306-.549.036-.648.063-.648.81M.873 5.364c0-.297.216-.594.576-.594.405 0 .639.324.639.558 0 .27-.207.594-.585.594-.423 0-.63-.288-.63-.558"/></symbol><symbol id="l" overflow="visible"><path d="M3.798.783c0 .108-.018.279-.117.279-.36-.333-.666-.504-.927-.504-.675 0-1.206.486-1.206 1.566 0 .999.225 1.494.702 1.494.333 0 .468-.351.495-.639.027-.243.27-.423.558-.423a.49.49 0 0 1 .495.504c0 .405-.486.936-1.467.936-1.062 0-1.998-.855-1.998-2.187C.333 1.224.54.711.891.378S1.656-.09 2.295-.09c.54 0 1.161.378 1.503.873"/></symbol><symbol id="m" overflow="visible"><path d="M5.967 1.044c.045-.729.009-.729-.576-.756-.054-.054-.054-.252 0-.306C5.814-.009 6.624 0 6.894 0s.684-.009.981-.018c.054.054.054.252 0 .306-.612.027-.639.054-.693.801l-.27 3.789c-.036.486.009.603.621.639.054.054.054.252 0 .306l-1.809-.018-1.71-3.996h-.045L2.358 5.805l-1.845.018c-.054-.054-.054-.252 0-.306.621-.036.675-.045.612-.72l-.36-3.708C.711.549.603.333.09.288.036.234.036.036.09-.018.36-.009.648 0 .864 0S1.62-.009 1.89-.018c.054.054.054.252 0 .306-.594.045-.639.315-.594.819l.234 3.375h.036L3.339.045c.027-.063.126-.117.18-.117s.135.036.171.117l2.025 4.761h.018Z"/></symbol><symbol id="n" overflow="visible"><path d="M3.879 1.161C3.51.783 3.024.684 2.682.684c-.702 0-1.134.405-1.134 1.287 0 .063.009.099.009.144h2.16c.216 0 .261.153.261.279 0 .765-.297 1.602-1.62 1.602-.945 0-2.025-.837-2.025-2.214C.333 1.26.522.711.909.36c.342-.306.783-.45 1.422-.45.621 0 1.233.315 1.683.972 0 .117-.045.279-.135.279M1.593 2.475c.009.315.054.657.18.837.144.216.387.306.486.306.243 0 .576-.234.576-.954 0-.054 0-.171-.018-.189Z"/></symbol><symbol id="o" overflow="visible"><path d="M4.752 1.152v1.404c0 .99-.423 1.44-1.197 1.44-.333 0-.972-.333-1.485-.648v1.899c0 .585.027.918.027.918 0 .081-.063.117-.144.117C1.62 6.174.9 6.075.261 6.048a.4.4 0 0 1 .027-.288C.855 5.715.9 5.706.9 5.085V1.143C.9.396.756.315.207.288.153.234.153.036.207-.018.585-.009.99 0 1.485 0c.432 0 .711-.009 1.098-.018.054.054.054.252 0 .306-.378.027-.513.108-.513.855v1.845c.378.234.675.342.837.342.36 0 .675-.162.675-.675V1.152c0-.756-.144-.837-.513-.864-.054-.054-.054-.252 0-.306.378.009.666.018 1.098.018.495 0 .891-.009 1.278-.018.054.054.054.252 0 .306-.549.027-.693.108-.693.864"/></symbol><symbol id="p" overflow="visible"><path d="M2.052 1.098v1.809c.36.243.72.423.882.423.36 0 .63-.162.63-.675V1.152c0-.756-.144-.837-.513-.864-.054-.054-.054-.252 0-.306.378.009.666.018 1.098.018.495 0 .891-.009 1.278-.018.054.054.054.252 0 .306-.549.027-.693.108-.693.864v1.404c0 .99-.423 1.44-1.197 1.44-.36 0-.999-.396-1.494-.738-.027.315-.063.585-.063.585-.009.108-.081.153-.207.153C1.44 3.906.9 3.78.279 3.699a.8.8 0 0 1 .018-.288c.495-.045.585-.117.585-.63V1.098C.882.351.783.333.234.288.18.234.18.036.234-.018.612-.009.99 0 1.467 0c.414 0 .666-.009 1.053-.018.054.054.054.252 0 .306-.378.036-.468.063-.468.81"/></symbol><symbol id="q" overflow="visible"><path d="M2.792.336h-.48c-.168 0-.28.152-.28.632v3.216c0 .664.224.696.664.72.08.048.08.224 0 .272C2.04 5.168 1.8 5.16 1.48 5.16s-1.232.016-1.232.016c-.08-.048-.08-.224 0-.272.44-.024.664-.056.664-.72V.976C.912.312.688.28.248.256c-.08-.048-.08-.224 0-.272 0 0 .92.016 1.232.016h1.784c.232 0 .96-.016.96-.016.08.4.16.92.208 1.336a.7.7 0 0 1-.344.04C3.928.784 3.632.336 2.792.336"/></symbol><symbol id="r" overflow="visible"><path d="M2.36.392c.056-.328.272-.472.624-.472.44 0 .752.168 1.048.448a.3.3 0 0 1-.144.224.48.48 0 0 0-.336-.112c-.176 0-.224.144-.224.536l.016 1.152c0 1.152-.712 1.384-1.368 1.384-.584 0-1.48-.336-1.48-.864 0-.224.096-.4.408-.4.288 0 .496.176.496.368 0 .04-.008.088-.016.136a.6.6 0 0 0-.016.24c.008.088.072.184.336.184.336 0 .616-.144.616-1.16l-.536-.168C.944 1.624.352 1.392.352.76c0-.552.304-.84 1-.84.232 0 .696.256.96.464Zm-.04 1.352V.688C2.12.528 1.92.4 1.776.4c-.344 0-.464.232-.464.48 0 .296.024.544.592.728Z"/></symbol><symbol id="s" overflow="visible"><path d="M3.736 3.152c.224 0 .352.096.352.392 0 .152-.208.384-.512.384-.352 0-.816-.264-1.048-.472-.144.08-.312.096-.672.096-.344 0-.68-.08-.944-.256-.328-.208-.544-.52-.544-.928 0-.392.232-.816.616-1.024-.248-.216-.632-.64-.632-.8 0-.152.024-.248.104-.368C.528.064.624 0 .784-.048.44-.256.088-.712.088-.848c0-.296.096-.64.312-.792.312-.216.84-.264 1.224-.264 1.112 0 2.384.584 2.384 1.464 0 .168-.08.512-.4.728-.312.208-1.512.264-2.104.264-.144 0-.36.016-.36.336 0 .128.08.24.12.336.168-.08.336-.088.584-.088.408 0 .784.104 1.056.344.232.208.392.488.392.848 0 .448-.224.744-.496.968.064.08.328.224.408.224a.18.18 0 0 0 .152-.096.42.42 0 0 1 .376-.272M1.4-.2c.616 0 1.8-.024 1.8-.448 0-.288-.128-.616-.392-.76-.248-.144-.656-.16-.96-.16-.528 0-.888.392-.888.8 0 .272 0 .456.088.616A1 1 0 0 1 1.4-.2m.92 2.504c0-.768-.224-.864-.432-.864-.496 0-.56.592-.56 1 0 .592.144.808.456.808.376 0 .536-.312.536-.944"/></symbol><symbol id="t" overflow="visible"><path d="M1.824 2.144c0 .288.088.408.192.528.064.08.136.136.256.136.072 0 .16-.072.224-.152.056-.064.192-.128.376-.128.232 0 .456.24.456.576 0 .208-.24.448-.528.448-.28 0-.584-.24-.952-.768h-.032c-.016.24-.056.632-.056.632-.008.072-.072.136-.184.136-.376-.096-.8-.208-1.328-.264a.7.7 0 0 1 .016-.248c.44-.04.52-.112.52-.568V.976c0-.664-.088-.68-.576-.72C.16.208.16.032.208-.016.544-.008.88 0 1.304 0S2.056-.008 2.4-.016c.048.048.048.224 0 .272-.488.032-.576.056-.576.72Z"/></symbol><symbol id="u" overflow="visible"><path d="M1.824.976v1.608c.32.216.64.376.784.376.32 0 .56-.144.56-.6V1.024c0-.672-.128-.744-.456-.768-.048-.048-.048-.224 0-.272.336.008.592.016.976.016.44 0 .792-.008 1.136-.016.048.048.048.224 0 .272-.488.024-.616.096-.616.768v1.248c0 .88-.376 1.28-1.064 1.28-.32 0-.888-.352-1.328-.656-.024.28-.056.52-.056.52-.008.096-.072.136-.184.136C1.28 3.472.8 3.36.248 3.288a.7.7 0 0 1 .016-.256c.44-.04.52-.104.52-.56V.976c0-.664-.088-.68-.576-.72C.16.208.16.032.208-.016.544-.008.88 0 1.304 0c.368 0 .592-.008.936-.016.048.048.048.224 0 .272-.336.032-.416.056-.416.72"/></symbol><symbol id="v" overflow="visible"><path d="M3.448 1.032C3.12.696 2.688.608 2.384.608c-.624 0-1.008.36-1.008 1.144 0 .056.008.088.008.128h1.92c.192 0 .232.136.232.248 0 .68-.264 1.424-1.44 1.424-.84 0-1.8-.744-1.8-1.968C.296 1.12.464.632.808.32c.304-.272.696-.4 1.264-.4.552 0 1.096.28 1.496.864 0 .104-.04.248-.12.248M1.416 2.2c.008.28.048.584.16.744.128.192.344.272.432.272.216 0 .512-.208.512-.848 0-.048 0-.152-.016-.168Z"/></symbol><symbol id="w" overflow="visible"><path d="M4.512 4.184V2.936h-2.48v1.248c0 .664.224.696.664.72.08.048.08.224 0 .272-.32-.008-.896-.016-1.216-.016s-.912.008-1.232.016c-.08-.048-.08-.224 0-.272.44-.024.664-.056.664-.72V.976C.912.312.688.28.248.256c-.08-.048-.08-.224 0-.272C.568-.008 1.16 0 1.48 0s.896-.008 1.216-.016c.08.048.08.224 0 .272-.44.024-.664.056-.664.72v1.576h2.48V.976c0-.664-.224-.696-.664-.72-.08-.048-.08-.224 0-.272.32.008.912.016 1.232.016s.896-.008 1.216-.016c.08.048.08.224 0 .272-.44.024-.664.056-.664.72v3.208c0 .664.224.696.664.72.08.048.08.224 0 .272-.32-.008-.896-.016-1.216-.016s-.912.008-1.232.016c-.08-.048-.08-.224 0-.272.44-.024.664-.056.664-.72"/></symbol><symbol id="x" overflow="visible"><path d="M1.824.976v1.712c.312.192.592.272.728.272.32 0 .56-.144.56-.6V1.024c0-.672-.128-.744-.456-.768-.048-.048-.048-.224 0-.272.336.008.592.016.976.016s.632-.008.976-.016c.048.048.048.224 0 .272-.32.024-.456.096-.456.768v1.248c0 .2-.008.36-.032.44.304.152.648.248.776.248.32 0 .544-.144.544-.6V1.024c0-.672-.128-.744-.456-.768-.048-.048-.048-.224 0-.272.336.008.592.016.976.016.44 0 .792-.008 1.136-.016.048.048.048.224 0 .272-.488.024-.616.096-.616.768v1.248c0 .88-.32 1.28-1.008 1.28-.296 0-.968-.32-1.432-.576-.12.344-.44.576-.912.576-.288 0-.864-.304-1.32-.56-.024.24-.048.424-.048.424-.008.096-.072.136-.184.136C1.28 3.472.8 3.36.248 3.288a.7.7 0 0 1 .016-.256c.44-.04.52-.104.52-.56V.976c0-.664-.088-.68-.576-.72C.16.208.16.032.208-.016.544-.008.88 0 1.304 0c.368 0 .592-.008.936-.016.048.048.048.224 0 .272-.336.032-.416.056-.416.72"/></symbol><symbol id="y" overflow="visible"><path d="M1.856.976v1.592c0 .4.032.848.032.848 0 .088-.072.136-.184.136C1.48 3.464.832 3.4.28 3.328a.7.7 0 0 1 .016-.256c.44-.04.52-.104.52-.56V.976C.816.312.728.296.24.256.192.208.192.032.24-.016.576-.008.912 0 1.336 0s.752-.008 1.096-.016c.048.048.048.224 0 .272-.488.032-.576.056-.576.72M.776 4.768c0-.264.192-.528.512-.528.36 0 .568.288.568.496 0 .24-.184.528-.52.528-.376 0-.56-.256-.56-.496"/></symbol><symbol id="z" overflow="visible"><path d="M.8 1.016C.8.352.672.28.184.256.136.208.136.032.184-.016.52-.008.88 0 1.32 0s.792-.008 1.136-.016c.048.048.048.224 0 .272-.488.024-.616.096-.616.76v3.648c0 .52.024.816.024.816 0 .072-.056.104-.128.104C1.44 5.488.8 5.4.232 5.376a.35.35 0 0 1 .024-.256C.76 5.08.8 5.072.8 4.52Z"/></symbol><symbol id="A" overflow="visible"><path d="M.504 3.472a.5.5 0 0 1-.336-.12V3.12c0-.04.008-.048.04-.048h.52C.712 2.264.704 1.24.704.84c0-.28.072-.552.24-.696.184-.152.472-.224.664-.224.44 0 .928.224 1.088.448 0 .096-.048.144-.144.224C2.448.512 2.248.48 2.096.48c-.176 0-.352.136-.352.536s-.008 1.256-.008 2.056h.808c.08 0 .192.032.192.104v.248q-.002.048-.064.048h-.936l.008.272c.016.536.04.904.04.904 0 .048-.024.072-.064.072-.056 0-.352-.088-.48-.144C1.104 4.52.872 4.472.816 4.4s-.088-.288-.088-.928Z"/></symbol><symbol id="B" overflow="visible"><path d="M.296 1.656C.296.608 1.128-.08 2.2-.08c.568 0 1.04.16 1.368.456.408.36.544.904.544 1.352 0 1.048-.712 1.824-1.904 1.824-.664 0-1.16-.232-1.472-.592-.304-.352-.44-.832-.44-1.304m1.784 1.56c.544 0 .912-.648.912-1.744 0-.96-.376-1.216-.664-1.216-.656 0-.912.984-.912 1.576 0 .736.128 1.384.664 1.384"/></symbol><symbol id="C" overflow="visible"><path d="M3.176-.08c.776 0 1.488.368 2.032 1.08-.04.072-.176.168-.264.168C4.376.544 3.728.336 3.168.336c-.928 0-1.664 1.088-1.664 2.336 0 1.24.64 2.264 1.592 2.264 1.104 0 1.464-.624 1.672-1.312a.5.5 0 0 1 .344.04c-.04.416-.104.8-.176 1.24-.408.04-.768.36-1.752.36C1.616 5.264.296 4.28.296 2.52c0-.752.328-1.632.968-2.096C1.776.056 2.4-.08 3.176-.08"/></symbol><symbol id="D" overflow="visible"><path d="M4.224 1.024v1.248c0 .88-.376 1.28-1.064 1.28-.296 0-.864-.296-1.32-.576v1.688c0 .52.024.816.024.816 0 .072-.056.104-.128.104C1.44 5.488.8 5.4.232 5.376a.35.35 0 0 1 .024-.256C.76 5.08.8 5.072.8 4.52V1.016C.8.352.672.28.184.256.136.208.136.032.184-.016.52-.008.88 0 1.32 0c.384 0 .632-.008.976-.016.048.048.048.224 0 .272-.336.024-.456.096-.456.76v1.64c.336.208.6.304.744.304.32 0 .6-.144.6-.6V1.024c0-.672-.128-.744-.456-.768-.048-.048-.048-.224 0-.272.336.008.592.016.976.016.44 0 .792-.008 1.136-.016.048.048.048.224 0 .272-.488.024-.616.096-.616.768"/></symbol><symbol id="E" overflow="visible"><path d="M.384 1.168C.416.776.456.4.52.096A4.4 4.4 0 0 1 1.632-.08c.616 0 1.384.336 1.384 1.032 0 .272-.064.488-.248.688-.224.256-.56.456-.928.616-.32.136-.432.392-.432.624 0 .184.152.336.384.336.28 0 .552-.256.752-.744.144-.024.232-.016.312.04 0 .288-.032.592-.104.848a1.9 1.9 0 0 1-.896.192c-.424 0-.824-.16-1.08-.416a.88.88 0 0 1-.272-.624c0-.24.096-.432.248-.6.248-.272.688-.552.928-.664a.68.68 0 0 0 .408-.624c0-.256-.256-.392-.472-.392-.36 0-.744.368-.912.952a.6.6 0 0 1-.32-.016"/></symbol><symbol id="F" overflow="visible"><path d="M3.24.984v3.04c0 .512.08.808.368.808h.176c.6 0 .936-.2 1.072-.816.088 0 .24.008.312.04A9 9 0 0 0 5.064 5.2c0 .008-.016.024-.024.024a29 29 0 0 0-1.792-.064H2.12c-.616 0-1.56.04-1.864.064-.016 0-.032-.016-.032-.024a9 9 0 0 0-.2-1.168 1 1 0 0 1 .312-.04c.16.64.488.84 1.016.84h.392c.296 0 .376-.296.376-.784V.984c0-.664-.136-.704-.776-.728-.048-.048-.048-.224 0-.272.392.008.808.016 1.32.016.528 0 .952-.008 1.352-.016.048.048.048.224 0 .272-.64.024-.776.064-.776.728"/></symbol><symbol id="G" overflow="visible"><path d="M1.936-1.344c.128.224.248.512.344.752a67 67 0 0 0 1.456 3.304c.112.232.352.48.648.504.048.048.048.224 0 .272-.2-.008-.344-.016-.568-.016-.28 0-.552.008-.848.016-.048-.048-.048-.224 0-.272.256-.024.512-.064.384-.352l-.824-1.848c0-.008 0-.008-.008-.016 0 .008 0 .016-.008.032l-.744 1.672c-.008.008-.008.016-.008.024-.144.312-.2.448.272.488.048.048.048.224 0 .272a48 48 0 0 0-1.064-.016c-.272 0-.728.008-.888.016-.048-.048-.048-.224 0-.272.352-.032.416-.088.632-.592L1.744.256c.024-.04.056-.072.08-.104.104-.144.192-.264.144-.376l-.192-.44c-.104-.248-.2-.392-.424-.392-.144 0-.168.032-.28.032-.304 0-.48-.208-.48-.368a.52.52 0 0 1 .096-.32A.44.44 0 0 1 1-1.856c.104 0 .344.032.456.08.168.08.392.272.48.432"/></symbol><symbol id="H" overflow="visible"><path d="M3.16 5.264c-.784 0-1.496-.248-2.048-.744-.536-.48-.848-1.2-.848-2.064 0-.72.288-1.464.84-1.928C1.608.096 2.24-.08 3.08-.08c.896 0 1.76.272 2.272.704-.08.072-.12.136-.12.224v.936c0 .28.12.36.344.384.048.048.048.248 0 .296-.224-.008-.6-.016-.904-.016-.296 0-.824.008-1.184.016-.048-.048-.048-.248 0-.296.416-.032.624-.064.624-.384V.592C3.856.336 3.664.256 3.256.256c-1.352 0-1.784 1.304-1.784 2.36 0 .688.104 1.312.4 1.72.312.424.752.592 1.176.592 1.04 0 1.568-.616 1.768-1.304a.63.63 0 0 1 .352.048c-.072.336-.112.736-.168 1.312-.416 0-.84.28-1.84.28"/></symbol><symbol id="I" overflow="visible"><path d="M4.808 2.592c.216.352.416.576.824.624.048.048.048.224 0 .272a23 23 0 0 0-.744-.016c-.296 0-.592.008-.808.016-.048-.048-.048-.224 0-.272.464-.032.384-.376.272-.608a3.8 3.8 0 0 0-.608-.96c-.032-.04-.08-.04-.12.008 0 0-.784 1.088-.912 1.312l-.032.04c.688.272 1.2.72 1.2 1.368 0 .4-.408.888-1.144.888-.52 0-.952-.192-1.2-.464a1.3 1.3 0 0 1-.328-.872c0-.368.16-.64.512-1.128C.648 2.28.312 1.704.312 1.152.312.224.944-.08 1.856-.08c.632 0 1.128.272 1.472.608.4-.536.752-.608 1.2-.608.36 0 .76.16 1.064.568 0 .12-.064.288-.144.288-.168-.2-.384-.368-.64-.368-.4 0-.704.48-.928.84.36.448.76 1.048.928 1.344m-2.92-.056c.216-.32.816-1.224 1.192-1.728C2.728.424 2.44.336 2.048.336c-.328 0-.712.368-.712 1.024 0 .384.064.768.552 1.176m.176 1.752c0 .368.2.64.528.64.272 0 .472-.288.472-.632 0-.296-.232-.728-.568-.992l-.04.048c-.208.304-.392.688-.392.936"/></symbol><symbol id="J" overflow="visible"><path d="M1.936.976v1.416h.648c.552 0 .704-.152.728-.512.048-.048.296-.048.344 0-.016.28-.016.52-.016.704s.008.456.016.688c-.048.048-.296.048-.344 0-.024-.44-.192-.512-.728-.512h-.648v1.672c0 .192.136.392.328.392h.72c.6 0 .808-.344.984-.896.096-.016.2 0 .28.04a67 67 0 0 1-.096 1.2c0 .016-.008.024-.032.024a1.8 1.8 0 0 0-.392-.032H1.352S.52 5.168.12 5.176c-.048-.048-.048-.224 0-.272.56-.024.696-.064.696-.728v-3.2C.816.312.592.28.152.256c-.08-.048-.08-.224 0-.272.32.008.912.016 1.232.016S2.36-.008 2.68-.016c.08.048.08.224 0 .272-.44.024-.744.056-.744.72"/></symbol><symbol id="K" overflow="visible"><path d="M4.08 1.064v1.384c0 .672.016.576.016.768 0 .136-.032.224-.08.272a8 8 0 0 0-.456-.016c-.224 0-.744.008-1.056.016-.048-.048-.048-.224 0-.272.408-.04.536-.096.536-.768V.968c0-.08 0-.16.008-.24a1.36 1.36 0 0 0-.736-.216c-.32 0-.56.04-.56.6v1.336c0 .672.016.576.016.768 0 .136-.032.224-.08.272a9 9 0 0 0-.456-.016c-.408 0-.712.008-1.056.016-.048-.048-.048-.224 0-.272.368-.016.536-.096.536-.768V1.2c0-.848.336-1.28 1.024-1.28.288 0 .872.232 1.336.488.016-.2.032-.352.032-.352.008-.096.072-.136.184-.136.296.08.776.192 1.328.264A.7.7 0 0 1 4.6.44c-.432.04-.52.168-.52.624"/></symbol><symbol id="L" overflow="visible"><path d="M2.84.384c.016-.192.032-.328.032-.328.008-.096.072-.136.184-.136.296.08.776.192 1.328.264a.7.7 0 0 1-.016.256c-.432.04-.52.168-.52.624v3.6c0 .52.024.816.024.816 0 .072-.056.104-.128.104-.296-.096-.936-.184-1.504-.208a.4.4 0 0 1 .024-.272c.504-.04.544-.048.544-.6v-1.04a1.9 1.9 0 0 1-.576.088C1.2 3.552.296 2.648.296 1.584c0-.472.168-1.024.56-1.328.288-.224.488-.336.936-.336.216 0 .808.352.976.464ZM2.816.76C2.648.624 2.224.448 2.128.448c-.4 0-.712.448-.712 1.384 0 .424.048.792.2 1.04a.7.7 0 0 0 .592.344c.208 0 .408-.024.6-.288V.96c0-.064 0-.136.008-.2"/></symbol><symbol id="M" overflow="visible"><path d="M2.584 2.92h-.648v1.512c0 .192.136.392.328.392h.68c.6 0 .768-.304.944-.856a.7.7 0 0 1 .344.04c-.04.328-.08 1.096-.096 1.16q.002.024-.032.024a1.8 1.8 0 0 0-.392-.032h-2.36S.52 5.168.12 5.176c-.048-.048-.048-.224 0-.272.56-.024.696-.064.696-.728v-3.2C.816.312.68.28.12.256.072.208.072.032.12-.016.512-.008 1.36 0 1.36 0h1.88c.384 0 1.104-.016 1.104-.016.112.4.152.928.216 1.336a.6.6 0 0 1-.36.04C4.04.784 3.68.336 3.072.336h-.808c-.176 0-.328.168-.328.384v1.832h.648c.552 0 .704-.152.728-.512.048-.048.296-.048.344 0-.008.28-.016.432-.016.704s.008.448.016.688c-.048.048-.296.048-.344 0-.024-.44-.192-.512-.728-.512"/></symbol><symbol id="N" overflow="visible"><path d="M3.376.696c0 .096-.016.248-.104.248-.32-.296-.592-.448-.824-.448-.6 0-1.072.432-1.072 1.392 0 .888.2 1.328.624 1.328.296 0 .416-.312.44-.568.024-.216.24-.376.496-.376s.44.2.44.448c0 .36-.432.832-1.304.832-.944 0-1.776-.76-1.776-1.944 0-.52.184-.976.496-1.272S1.472-.08 2.04-.08c.48 0 1.032.336 1.336.776"/></symbol><symbol id="O" overflow="visible"><path d="M5.076 4.707V3.303h-2.79v1.404c0 .747.252.783.747.81.09.054.09.252 0 .306a69 69 0 0 0-1.368-.018c-.36 0-1.026.009-1.386.018-.09-.054-.09-.252 0-.306.495-.027.747-.063.747-.81V1.098c0-.747-.252-.783-.747-.81-.09-.054-.09-.252 0-.306C.639-.009 1.305 0 1.665 0s1.008-.009 1.368-.018c.09.054.09.252 0 .306-.495.027-.747.063-.747.81v1.773h2.79V1.098c0-.747-.252-.783-.747-.81-.09-.054-.09-.252 0-.306.36.009 1.026.018 1.386.018s1.008-.009 1.368-.018c.09.054.09.252 0 .306-.495.027-.747.063-.747.81v3.609c0 .747.252.783.747.81.09.054.09.252 0 .306a69 69 0 0 0-1.368-.018c-.36 0-1.026.009-1.386.018-.09-.054-.09-.252 0-.306.495-.027.747-.063.747-.81"/></symbol><symbol id="P" overflow="visible"><path d="M4.203 3.546c.252 0 .396.108.396.441 0 .171-.234.432-.576.432-.396 0-.918-.297-1.179-.531-.162.09-.351.108-.756.108-.387 0-.765-.09-1.062-.288-.369-.234-.612-.585-.612-1.044 0-.441.261-.918.693-1.152-.279-.243-.711-.72-.711-.9 0-.171.027-.279.117-.414C.594.072.702 0 .882-.054.495-.288.099-.801.099-.954c0-.333.108-.72.351-.891.351-.243.945-.297 1.377-.297 1.251 0 2.682.657 2.682 1.647 0 .189-.09.576-.45.819-.351.234-1.701.297-2.367.297-.162 0-.405.018-.405.378 0 .144.09.27.135.378.189-.09.378-.099.657-.099.459 0 .882.117 1.188.387.261.234.441.549.441.954 0 .504-.252.837-.558 1.089.072.09.369.252.459.252a.2.2 0 0 0 .171-.108.48.48 0 0 1 .423-.306M1.575-.225c.693 0 2.025-.027 2.025-.504 0-.324-.144-.693-.441-.855-.279-.162-.738-.18-1.08-.18-.594 0-.999.441-.999.9 0 .306 0 .513.099.693.09-.036.207-.054.396-.054M2.61 2.592c0-.864-.252-.972-.486-.972-.558 0-.63.666-.63 1.125 0 .666.162.909.513.909.423 0 .603-.351.603-1.062"/></symbol><symbol id="Q" overflow="visible"><path d="M2.457 1.935c.207 0 .423.405.423.522 0 .099-.072.189-.324.189h-1.8c-.189 0-.414-.369-.414-.522 0-.099.117-.189.333-.189Z"/></symbol><symbol id="R" overflow="visible"><path d="M2.907 3.285h-.729v1.701c0 .216.153.441.369.441h.765c.675 0 .864-.342 1.062-.963a.8.8 0 0 1 .387.045c-.045.369-.09 1.233-.108 1.305 0 .018-.009.027-.036.027a2 2 0 0 0-.441-.036H1.521s-.936.009-1.386.018c-.054-.054-.054-.252 0-.306.63-.027.783-.072.783-.819v-3.6C.918.351.765.315.135.288.081.234.081.036.135-.018.576-.009 1.53 0 1.53 0h2.115c.432 0 1.242-.018 1.242-.018.126.45.171 1.044.243 1.503-.09.054-.288.072-.405.045C4.545.882 4.14.378 3.456.378h-.909c-.198 0-.369.189-.369.432v2.061h.729c.621 0 .792-.171.819-.576.054-.054.333-.054.387 0-.009.315-.018.486-.018.792s.009.504.018.774c-.054.054-.333.054-.387 0-.027-.495-.216-.576-.819-.576"/></symbol><symbol id="S" overflow="visible"><path d="M2.052 2.412c0 .324.099.459.216.594.072.09.153.153.288.153.081 0 .18-.081.252-.171.063-.072.216-.144.423-.144.261 0 .513.27.513.648 0 .234-.27.504-.594.504-.315 0-.657-.27-1.071-.864h-.036c-.018.27-.063.711-.063.711-.009.081-.081.153-.207.153-.423-.108-.9-.234-1.494-.297a.7.7 0 0 1 .018-.279c.495-.045.585-.126.585-.639V1.098C.882.351.783.333.234.288.18.234.18.036.234-.018.612-.009.99 0 1.467 0S2.313-.009 2.7-.018c.054.054.054.252 0 .306-.549.036-.648.063-.648.81Z"/></symbol><symbol id="T" overflow="visible"><path d="M2.178-1.512c.144.252.279.576.387.846a75 75 0 0 0 1.638 3.717c.126.261.396.54.729.567.054.054.054.252 0 .306-.225-.009-.387-.018-.639-.018-.315 0-.621.009-.954.018-.054-.054-.054-.252 0-.306.288-.027.576-.072.432-.396l-.927-2.079c0-.009 0-.009-.009-.018 0 .009 0 .018-.009.036l-.837 1.881c-.009.009-.009.018-.009.027-.162.351-.225.504.306.549.054.054.054.252 0 .306a54 54 0 0 0-1.197-.018c-.306 0-.819.009-.999.018-.054-.054-.054-.252 0-.306.396-.036.468-.099.711-.666L1.962.288c.027-.045.063-.081.09-.117.117-.162.216-.297.162-.423l-.216-.495c-.117-.279-.225-.441-.477-.441-.162 0-.189.036-.315.036-.342 0-.54-.234-.54-.414 0-.117.027-.261.108-.36a.5.5 0 0 1 .351-.162c.117 0 .387.036.513.09.189.09.441.306.54.486"/></symbol><symbol id="U" overflow="visible"><path d="M2.768 5.232c-.32 0-2.2-.056-2.52-.056-.08-.048-.08-.224 0-.272.44-.024.664-.056.664-.72V.976C.912.312.688.28.248.256c-.08-.048-.08-.224 0-.272C.568-.008 1.16 0 1.48 0s.896-.008 1.216-.016c.08.048.08.224 0 .272-.44.024-.664.056-.664.72v3.216c0 .544.056.712.48.712.464 0 1-.192 1-1.168 0-.832-.232-1.184-.888-1.184-.12 0-.288.008-.4.024 0-.152.048-.264.16-.336.112-.016.088-.024.28-.024.704 0 1.2.12 1.52.384.4.328.536.848.536 1.272 0 .32-.12.8-.616 1.096-.296.176-.736.264-1.336.264"/></symbol><symbol id="V" overflow="visible"><path d="m2.584-.512-.024.024c.192.144.648.376.92.456.568.104 1.04.368 1.384.744.44.48.688 1.136.688 1.92 0 1.592-1.184 2.632-2.648 2.632-.8 0-1.496-.344-1.96-.896-.416-.496-.648-1.16-.648-1.896C.296 1.048 1.32.12 2.512-.048a3.9 3.9 0 0 1-1.248-1.176c.104-.04.232-.152.32-.24.128.2.328.44.448.52.088.064.176.072.28.072.272 0 1.424-.144 2.48-.528.704-.256 1.48-.296 2.144-.296.832 0 1.648.368 2.144.832l-.136.192c-.528-.296-1.168-.496-1.568-.496-.608 0-1.424.184-2.16.416-.8.256-1.528.272-2.384.272a1 1 0 0 1-.248-.032m.224 5.44c.856 0 1.536-.84 1.536-2.464 0-1.328-.464-2.208-1.272-2.208-.88 0-1.568.872-1.568 2.376 0 1.632.592 2.296 1.304 2.296"/></symbol><symbol id="W" overflow="visible"><path d="M5.048 0s-.04.568-.04.816v3.28c0 .712.136.752.696.808.048.048.048.224 0 .272-.392-.008-.528-.016-.864-.016-.36 0-.528.008-.928.016-.048-.048-.048-.224 0-.272.56-.056.696-.08.696-.808V1.848c0-.2-.104-.16-.216-.024L2.272 4.32l-.712.84-1.304.016c-.048-.048-.048-.224 0-.272C.6 4.88.84 4.608.888 4.4V1.064C.888.352.752.312.192.256.144.208.144.032.192-.016.584-.008.736 0 1.088 0s.496-.008.896-.016c.048.048.048.224 0 .272-.56.056-.696.08-.696.808V3.44c0 .08.016.16.064.16q.06-.002.192-.16L4.224.256c.16-.2.32-.352.32-.352.28 0 .36.024.504.096"/></symbol><symbol id="X" overflow="visible"><path d="M.333 1.863C.333.684 1.269-.09 2.475-.09c.639 0 1.17.18 1.539.513.459.405.612 1.017.612 1.521 0 1.179-.801 2.052-2.142 2.052-.747 0-1.305-.261-1.656-.666-.342-.396-.495-.936-.495-1.467M2.34 3.618c.612 0 1.026-.729 1.026-1.962 0-1.08-.423-1.368-.747-1.368-.738 0-1.026 1.107-1.026 1.773 0 .828.144 1.557.747 1.557"/></symbol><symbol id="Y" overflow="visible"><path d="M2.052 1.098v1.926c.351.216.666.306.819.306.36 0 .63-.162.63-.675V1.152c0-.756-.144-.837-.513-.864-.054-.054-.054-.252 0-.306.378.009.666.018 1.098.018s.711-.009 1.098-.018c.054.054.054.252 0 .306-.36.027-.513.108-.513.864v1.404c0 .225-.009.405-.036.495.342.171.729.279.873.279.36 0 .612-.162.612-.675V1.152c0-.756-.144-.837-.513-.864-.054-.054-.054-.252 0-.306.378.009.666.018 1.098.018.495 0 .891-.009 1.278-.018.054.054.054.252 0 .306-.549.027-.693.108-.693.864v1.404c0 .99-.36 1.44-1.134 1.44-.333 0-1.089-.36-1.611-.648-.135.387-.495.648-1.026.648-.324 0-.972-.342-1.485-.63-.027.27-.054.477-.054.477-.009.108-.081.153-.207.153C1.44 3.906.9 3.78.279 3.699a.8.8 0 0 1 .018-.288c.495-.045.585-.117.585-.63V1.098C.882.351.783.333.234.288.18.234.18.036.234-.018.612-.009.99 0 1.467 0c.414 0 .666-.009 1.053-.018.054.054.054.252 0 .306-.378.036-.468.063-.468.81"/></symbol><symbol id="Z" overflow="visible"><path d="m1.32.632.424 1.112c.04.104.088.136.28.136h1.52L3.992.576c.096-.288-.136-.296-.44-.312-.048 0-.104-.008-.152-.008-.048-.048-.048-.224 0-.272a45 45 0 0 0 2.44 0c.048.048.048.224 0 .272-.312.032-.576.024-.72.432L3.472 5.264c-.12-.072-.6-.352-.88-.352L.856.816C.648.32.408.28.056.256.008.208.008.032.056-.016.352-.008.496 0 .808 0c.328 0 .768-.008 1.064-.016.048.048.048.224 0 .272-.304.024-.68.048-.552.376m.864 1.632c-.176 0-.232.024-.2.104l.704 1.792h.056L3.4 2.264Z"/></symbol><symbol id="aa" overflow="visible"><path d="M1.816 4.176c0 .664.12.704.736.728.048.048.048.224 0 .272-.392-.008-.92-.016-1.304-.016a61 61 0 0 0-1.168.016c-.048-.048-.048-.224 0-.272.48-.024.616-.064.616-.728V1.888c0-.776.248-1.336.696-1.632.504-.328 1.24-.336 1.616-.336 1.64 0 2.16 1.016 2.16 2.44v1.816c0 .664.144.68.616.728.048.048.048.224 0 .272a38 38 0 0 0-.856-.016c-.232 0-.648.008-1.016.016-.048-.048-.048-.224 0-.272.608-.048.736-.064.736-.728v-1.96c0-.896-.12-1.96-1.472-1.96-.384 0-.712.168-.952.4-.392.376-.408.976-.408 1.496Z"/></symbol><symbol id="ab" overflow="visible"><path d="M2.736 3.216c.432-.032.488-.16.312-.568l-.632-1.464c-.032-.072-.064-.016-.088.04l-.504 1.424c-.016.04-.032.08-.04.112-.112.304-.16.416.288.456.048.048.048.224 0 .272a35 35 0 0 0-1.008-.016c-.28 0-.688.008-.984.016-.048-.048-.048-.224 0-.272C.544 3.16.56 3 .72 2.6L1.768.072c.048-.12.184-.168.288-.168.08 0 .24.016.312.184l1.096 2.504c.16.36.264.584.688.624.048.048.048.224 0 .272a15 15 0 0 0-1.416 0c-.048-.048-.048-.224 0-.272"/></symbol><symbol id="ac" overflow="visible"><path d="M3.789 5.679c-.495.072-.684.243-1.521.243-.405 0-.936-.126-1.314-.432-.333-.27-.585-.684-.585-1.125 0-.342.09-.774.297-1.044.414-.558 1.161-.864 1.548-1.134.414-.288.819-.648.819-1.152 0-.441-.387-.747-.936-.747C1.494.288.873.783.693 1.602c-.144.054-.288.018-.423-.018-.009 0-.018-.009-.027-.009C.243.9.315.423.414.09c.513 0 .54-.18 1.782-.18.549 0 .99.162 1.359.495.324.279.612.693.612 1.251 0 .468-.198.783-.468 1.08-.351.387-.855.666-1.206.846-.36.18-.999.648-.999 1.161 0 .504.306.81.765.81.765 0 1.017-.693 1.179-1.287.126-.036.351-.036.45.045 0 .477-.036.846-.099 1.368"/></symbol><symbol id="ad" overflow="visible"><path d="M.567 3.906a.57.57 0 0 1-.378-.135V3.51c0-.045.009-.054.045-.054h.585C.801 2.547.792 1.395.792.945c0-.315.081-.621.27-.783.207-.171.531-.252.747-.252.495 0 1.044.252 1.224.504 0 .108-.054.162-.162.252C2.754.576 2.529.54 2.358.54c-.198 0-.396.153-.396.603s-.009 1.413-.009 2.313h.909c.09 0 .216.036.216.117v.279c0 .036-.027.054-.072.054H1.953l.009.306c.018.603.045 1.017.045 1.017 0 .054-.027.081-.072.081-.063 0-.396-.099-.54-.162-.153-.063-.414-.117-.477-.198S.819 4.626.819 3.906Z"/></symbol><symbol id="ae" overflow="visible"><path d="M.864 4.184V.976C.864.312.64.28.2.256.12.208.12.032.2-.016.52-.008 1.112 0 1.432 0s.896-.008 1.216-.016c.08.048.08.224 0 .272-.44.024-.664.056-.664.72v1.568c.24-.056.36-.168.52-.376L3.712.592c.16-.208.272-.432.288-.56 0-.024.008-.048.04-.048a24 24 0 0 0 1.768 0c.048.048.048.224 0 .272a.88.88 0 0 0-.624.336L3.432 2.664c-.136.16-.24.296-.24.36 0 .056.008.152.096.232l.872.776c.472.416.92.808 1.392.872.048.048.048.224 0 .272-.2-.008-.48-.016-.76-.016-.32 0-.68.008-.984.016-.048-.048-.048-.224 0-.272.472-.048.44-.296.04-.704-.248-.256-.856-.76-.856-.76-.52-.464-.744-.616-1.008-.704v1.448c0 .664.224.696.664.72.08.048.08.224 0 .272-.32-.008-.896-.016-1.216-.016S.52 5.168.2 5.176c-.08-.048-.08-.224 0-.272.44-.024.664-.056.664-.72"/></symbol><symbol id="af" overflow="visible"><path d="M5.304.928c.04-.648.008-.648-.512-.672-.048-.048-.048-.224 0-.272C5.168-.008 5.888 0 6.128 0S6.736-.008 7-.016c.048.048.048.224 0 .272-.544.024-.568.048-.616.712l-.24 3.368c-.032.432.008.536.552.568.048.048.048.224 0 .272L5.088 5.16l-1.52-3.552h-.04L2.096 5.16l-1.64.016c-.048-.048-.048-.224 0-.272.552-.032.6-.04.544-.64L.68.968C.632.488.536.296.08.256.032.208.032.032.08-.016.32-.008.576 0 .768 0s.672-.008.912-.016c.048.048.048.224 0 .272-.528.04-.568.28-.528.728l.208 3h.032L2.968.04c.024-.056.112-.104.16-.104s.12.032.152.104l1.8 4.232h.016Z"/></symbol><symbol id="ag" overflow="visible"><path d="M3.258 5.886c-.36 0-2.619-.063-2.979-.063-.09-.054-.09-.252 0-.306.495-.027.747-.063.747-.81V1.098c0-.747-.252-.783-.747-.81-.09-.054-.09-.252 0-.306C.639-.009 1.305 0 1.665 0s1.008-.009 1.368-.018c.09.054.09.252 0 .306-.495.027-.747.063-.747.81v1.449c.711 0 .792-.063.918-.27L4.257.711c.279-.405.648-.801 1.188-.801.36 0 .828.027.918.072.036.063.027.234-.009.306-.405 0-.612.216-.864.594l-1.224 1.89c.486.198 1.188.666 1.188 1.584 0 .36-.135.9-.693 1.233-.333.198-.828.297-1.503.297m.837-1.683c0-1.107-.666-1.278-1.422-1.278h-.387v1.791c0 .612.207.801.684.801.522 0 1.125-.216 1.125-1.314"/></symbol><symbol id="ah" overflow="visible"><path d="M3.078 3.618c.486-.036.549-.18.351-.639l-.711-1.647c-.036-.081-.072-.018-.099.045l-.567 1.602c-.018.045-.036.09-.045.126-.126.342-.18.468.324.513.054.054.054.252 0 .306a40 40 0 0 0-1.134-.018c-.315 0-.774.009-1.107.018-.054-.054-.054-.252 0-.306.522-.063.54-.243.72-.693L1.989.081c.054-.135.207-.189.324-.189.09 0 .27.018.351.207l1.233 2.817c.18.405.297.657.774.702.054.054.054.252 0 .306a17 17 0 0 0-1.593 0c-.054-.054-.054-.252 0-.306"/></symbol><symbol id="ai" overflow="visible"><path d="M3.368 5.048c-.44.064-.608.216-1.352.216-.36 0-.832-.112-1.168-.384-.296-.24-.52-.608-.52-1 0-.304.08-.688.264-.928.368-.496 1.032-.768 1.376-1.008.368-.256.728-.576.728-1.024 0-.392-.344-.664-.832-.664-.536 0-1.088.44-1.248 1.168-.128.048-.256.016-.376-.016-.008 0-.016-.008-.024-.008C.216.8.28.376.368.08c.456 0 .48-.16 1.584-.16.488 0 .88.144 1.208.44.288.248.544.616.544 1.112 0 .416-.176.696-.416.96-.312.344-.76.592-1.072.752-.32.16-.888.576-.888 1.032 0 .448.272.72.68.72.68 0 .904-.616 1.048-1.144.112-.032.312-.032.4.04 0 .424-.032.752-.088 1.216"/></symbol><symbol id="aj" overflow="visible"><path d="M.76 2.472V-.88c0-.664-.088-.68-.576-.72-.048-.048-.048-.224 0-.272.336.008.672.016 1.096.016s.752-.008 1.096-.016c.048.048.048.224 0 .272-.488.032-.576.056-.576.72v.936c.176-.088.344-.136.536-.136 1.216 0 2.008.8 2.008 1.976 0 .448-.168.944-.48 1.256-.28.28-.68.4-1.096.4-.232 0-.664-.28-.944-.536h-.048c-.016.224-.04.4-.04.4-.008.096-.072.136-.184.136-.296-.08-.776-.192-1.328-.264a.7.7 0 0 1 .016-.256c.44-.04.52-.104.52-.56M1.8.52v2.184c.232.208.528.312.712.312.328 0 .712-.4.712-1.336 0-.672-.24-1.424-.936-1.424C2.2.256 2 .304 1.8.52"/></symbol><symbol id="ak" overflow="visible"><path d="m2.907-.576-.027.027c.216.162.729.423 1.035.513.639.117 1.17.414 1.557.837.495.54.774 1.278.774 2.16 0 1.791-1.332 2.961-2.979 2.961-.9 0-1.683-.387-2.205-1.008C.594 4.356.333 3.609.333 2.781c0-1.602 1.152-2.646 2.493-2.835a4.36 4.36 0 0 1-1.404-1.323c.117-.045.261-.171.36-.27.144.225.369.495.504.585.099.072.198.081.315.081.306 0 1.602-.162 2.79-.594.792-.288 1.665-.333 2.412-.333.936 0 1.854.414 2.412.936l-.153.216c-.594-.333-1.314-.558-1.764-.558-.684 0-1.602.207-2.43.468-.9.288-1.719.306-2.682.306a1.2 1.2 0 0 1-.279-.036m.252 6.12c.963 0 1.728-.945 1.728-2.772 0-1.494-.522-2.484-1.431-2.484-.99 0-1.764.981-1.764 2.673 0 1.836.666 2.583 1.467 2.583"/></symbol><symbol id="al" overflow="visible"><path d="M4.59 1.197v1.557c0 .756.018.648.018.864 0 .153-.036.252-.09.306a9 9 0 0 0-.513-.018c-.252 0-.837.009-1.188.018-.054-.054-.054-.252 0-.306.459-.045.603-.108.603-.864V1.089c0-.09 0-.18.009-.27a1.53 1.53 0 0 0-.828-.243c-.36 0-.63.045-.63.675v1.503c0 .756.018.648.018.864 0 .153-.036.252-.09.306a10 10 0 0 0-.513-.018c-.459 0-.801.009-1.188.018-.054-.054-.054-.252 0-.306.414-.018.603-.108.603-.864V1.35c0-.954.378-1.44 1.152-1.44.324 0 .981.261 1.503.549.018-.225.036-.396.036-.396.009-.108.081-.153.207-.153.333.09.873.216 1.494.297a.8.8 0 0 1-.018.288c-.486.045-.585.189-.585.702"/></symbol></defs></svg>