<svg class="typst-doc" viewBox="0 0 228.5984251968504 129.38582677165354" width="228.5984251968504pt" height="129.38582677165354pt" xmlns="http://www.w3.org/2000/svg" xmlns:xlink="http://www.w3.org/1999/xlink" xmlns:h5="http://www.w3.org/1999/xhtml">
    <path class="typst-shape" fill="#ffffff" fill-rule="nonzero" d="M 0 0v 129.38583 h 228.59842 v -129.38583 Z "/>
    <g>
        <g class="typst-group" transform="matrix(1 0 0 1 8 8)">
            <g>
                <path class="typst-shape" fill="none" stroke="#c8c8c8" stroke-width="1.4" stroke-linecap="butt" stroke-linejoin="miter" stroke-miterlimit="4" stroke-dashoffset="0" stroke-dasharray="3 3" transform="matrix(1 0 0 1 113.38582677165354 0)" d="M 0 0v 113.385826 "/>
                <path class="typst-shape" fill="none" stroke="#000000" stroke-width="1.4" stroke-linecap="butt" stroke-linejoin="miter" stroke-miterlimit="4" stroke-dashoffset="0" stroke-dasharray="3 3" transform="matrix(1 0 0 1 0 28.346456692913385)" d="M 0 0m 0 56.692913 l 14.173228 -3.7984238 l 14.173228 -10.374805 l 14.173227 -14.173227 l 14.173229 -14.173228 l 14.173229 -10.374804 l 14.173225 -3.7984252 l 14.173233 3.7984252 l 14.173225 10.374804 l 14.173225 14.173228 l 14.173233 14.173227 l 14.173233 10.374805 l 14.173218 3.7984238 l 14.173233 -3.7984238 l 14.173233 -10.374805 l 14.173218 -14.173227 "/>
                <path class="typst-shape" fill="#999999" fill-rule="nonzero" transform="matrix(1 0 0 1 86.45669291338582 49.60629921259842)" d="M 0 0m 4.2519684 0 c -2.346168 0 -4.2519684 1.9058003 -4.2519684 4.2519684 c 0 2.3461685 1.9058003 4.2519684 4.2519684 4.2519684 c 2.3461685 0 4.2519684 -1.9057999 4.2519684 -4.2519684 c 0 -2.346168 -1.9057999 -4.2519684 -4.2519684 -4.2519684 Z "/>
                <path class="typst-shape" fill="#999999" fill-rule="nonzero" transform="matrix(1 0 0 1 100.62992125984252 49.60629921259842)" d="M 0 0m 4.2519684 0 c -2.346168 0 -4.2519684 1.9058003 -4.2519684 4.2519684 c 0 2.3461685 1.9058003 4.2519684 4.2519684 4.2519684 c 2.3461685 0 4.2519684 -1.9057999 4.2519684 -4.2519684 c 0 -2.346168 -1.9057999 -4.2519684 -4.2519684 -4.2519684 Z "/>
                <path class="typst-shape" fill="#999999" fill-rule="nonzero" transform="matrix(1 0 0 1 97.79527559055117 60.94488188976378)" d="M 0 0m 4.2519684 0 c -2.346168 0 -4.2519684 1.9058003 -4.2519684 4.2519684 c 0 2.3461685 1.9058003 4.2519684 4.2519684 4.2519684 c 2.3461685 0 4.2519684 -1.9057999 4.2519684 -4.2519684 c 0 -2.346168 -1.9057999 -4.2519684 -4.2519684 -4.2519684 Z "/>
                <path class="typst-shape" fill="#999999" fill-rule="nonzero" transform="matrix(1 0 0 1 111.96850393700785 61.795275590551185)" d="M 0 0m 4.2519684 0 c -2.346168 0 -4.2519684 1.9058003 -4.2519684 4.2519684 c 0 2.3461685 1.9058003 4.2519684 4.2519684 4.2519684 c 2.3461685 0 4.2519684 -1.9057999 4.2519684 -4.2519684 c 0 -2.346168 -1.9057999 -4.2519684 -4.2519684 -4.2519684 Z "/>
                <path class="typst-shape" fill="#999999" fill-rule="nonzero" transform="matrix(1 0 0 1 106.2992125984252 72.28346456692914)" d="M 0 0m 4.2519684 0 c -2.346168 0 -4.2519684 1.9058003 -4.2519684 4.2519684 c 0 2.3461685 1.9058003 4.2519684 4.2519684 4.2519684 c 2.3461685 0 4.2519684 -1.9057999 4.2519684 -4.2519684 c 0 -2.346168 -1.9057999 -4.2519684 -4.2519684 -4.2519684 Z "/>
                <path class="typst-shape" fill="#999999" fill-rule="nonzero" transform="matrix(1 0 0 1 117.63779527559053 77.95275590551181)" d="M 0 0m 4.2519684 0 c -2.346168 0 -4.2519684 1.9058003 -4.2519684 4.2519684 c 0 2.3461685 1.9058003 4.2519684 4.2519684 4.2519684 c 2.3461685 0 4.2519684 -1.9057999 4.2519684 -4.2519684 c 0 -2.346168 -1.9057999 -4.2519684 -4.2519684 -4.2519684 Z "/>
                <path class="typst-shape" fill="#999999" fill-rule="nonzero" transform="matrix(1 0 0 1 120.4724409448819 89.29133858267718)" d="M 0 0m 4.2519684 0 c -2.346168 0 -4.2519684 1.9058003 -4.2519684 4.2519684 c 0 2.3461685 1.9058003 4.2519684 4.2519684 4.2519684 c 2.3461685 0 4.2519684 -1.9057999 4.2519684 -4.2519684 c 0 -2.346168 -1.9057999 -4.2519684 -4.2519684 -4.2519684 Z "/>
                <path class="typst-shape" fill="#999999" fill-rule="nonzero" transform="matrix(1 0 0 1 134.64566929133858 86.45669291338582)" d="M 0 0m 4.2519684 0 c -2.346168 0 -4.2519684 1.9058003 -4.2519684 4.2519684 c 0 2.3461685 1.9058003 4.2519684 4.2519684 4.2519684 c 2.3461685 0 4.2519684 -1.9057999 4.2519684 -4.2519684 c 0 -2.346168 -1.9057999 -4.2519684 -4.2519684 -4.2519684 Z "/>
                <path class="typst-shape" fill="#999999" fill-rule="nonzero" transform="matrix(1 0 0 1 148.8188976377953 83.62204724409449)" d="M 0 0m 4.2519684 0 c -2.346168 0 -4.2519684 1.9058003 -4.2519684 4.2519684 c 0 2.3461685 1.9058003 4.2519684 4.2519684 4.2519684 c 2.3461685 0 4.2519684 -1.9057999 4.2519684 -4.2519684 c 0 -2.346168 -1.9057999 -4.2519684 -4.2519684 -4.2519684 Z "/>
                <path class="typst-shape" fill="#999999" fill-rule="nonzero" transform="matrix(1 0 0 1 162.99212598425197 89.29133858267718)" d="M 0 0m 4.2519684 0 c -2.346168 0 -4.2519684 1.9058003 -4.2519684 4.2519684 c 0 2.3461685 1.9058003 4.2519684 4.2519684 4.2519684 c 2.3461685 0 4.2519684 -1.9057999 4.2519684 -4.2519684 c 0 -2.346168 -1.9057999 -4.2519684 -4.2519684 -4.2519684 Z "/>
                <path class="typst-shape" fill="#999999" fill-rule="nonzero" transform="matrix(1 0 0 1 164.40944881889763 100.62992125984252)" d="M 0 0m 4.2519684 0 c -2.346168 0 -4.2519684 1.9058003 -4.2519684 4.2519684 c 0 2.3461685 1.9058003 4.2519684 4.2519684 4.2519684 c 2.3461685 0 4.2519684 -1.9057999 4.2519684 -4.2519684 c 0 -2.346168 -1.9057999 -4.2519684 -4.2519684 -4.2519684 Z "/>
                <path class="typst-shape" fill="#999999" fill-rule="nonzero" transform="matrix(1 0 0 1 174.3307086614173 94.96062992125984)" d="M 0 0m 4.2519684 0 c -2.346168 0 -4.2519684 1.9058003 -4.2519684 4.2519684 c 0 2.3461685 1.9058003 4.2519684 4.2519684 4.2519684 c 2.3461685 0 4.2519684 -1.9057999 4.2519684 -4.2519684 c 0 -2.346168 -1.9057999 -4.2519684 -4.2519684 -4.2519684 Z "/>
                <path class="typst-shape" fill="#999999" fill-rule="nonzero" transform="matrix(1 0 0 1 185.66929133858264 92.1259842519685)" d="M 0 0m 4.2519684 0 c -2.346168 0 -4.2519684 1.9058003 -4.2519684 4.2519684 c 0 2.3461685 1.9058003 4.2519684 4.2519684 4.2519684 c 2.3461685 0 4.2519684 -1.9057999 4.2519684 -4.2519684 c 0 -2.346168 -1.9057999 -4.2519684 -4.2519684 -4.2519684 Z "/>
                <path class="typst-shape" fill="#999999" fill-rule="nonzero" transform="matrix(1 0 0 1 188.50393700787401 80.78740157480316)" d="M 0 0m 4.2519684 0 c -2.346168 0 -4.2519684 1.9058003 -4.2519684 4.2519684 c 0 2.3461685 1.9058003 4.2519684 4.2519684 4.2519684 c 2.3461685 0 4.2519684 -1.9057999 4.2519684 -4.2519684 c 0 -2.346168 -1.9057999 -4.2519684 -4.2519684 -4.2519684 Z "/>
                <path class="typst-shape" fill="#999999" fill-rule="nonzero" transform="matrix(1 0 0 1 197.007874015748 89.29133858267718)" d="M 0 0m 4.2519684 0 c -2.346168 0 -4.2519684 1.9058003 -4.2519684 4.2519684 c 0 2.3461685 1.9058003 4.2519684 4.2519684 4.2519684 c 2.3461685 0 4.2519684 -1.9057999 4.2519684 -4.2519684 c 0 -2.346168 -1.9057999 -4.2519684 -4.2519684 -4.2519684 Z "/>
                <path class="typst-shape" fill="#999999" fill-rule="nonzero" transform="matrix(1 0 0 1 126.14173228346455 29.763779527559052)" d="M 0 0m 4.2519684 0 c -2.346168 0 -4.2519684 1.9058003 -4.2519684 4.2519684 c 0 2.3461685 1.9058003 4.2519684 4.2519684 4.2519684 c 2.3461685 0 4.2519684 -1.9057999 4.2519684 -4.2519684 c 0 -2.346168 -1.9057999 -4.2519684 -4.2519684 -4.2519684 Z "/>
                <path class="typst-shape" fill="#999999" fill-rule="nonzero" transform="matrix(1 0 0 1 114.80314960629921 26.929133858267715)" d="M 0 0m 4.2519684 0 c -2.346168 0 -4.2519684 1.9058003 -4.2519684 4.2519684 c 0 2.3461685 1.9058003 4.2519684 4.2519684 4.2519684 c 2.3461685 0 4.2519684 -1.9057999 4.2519684 -4.2519684 c 0 -2.346168 -1.9057999 -4.2519684 -4.2519684 -4.2519684 Z "/>
                <path class="typst-shape" fill="#999999" fill-rule="nonzero" transform="matrix(1 0 0 1 117.63779527559053 15.590551181102365)" d="M 0 0m 4.2519684 0 c -2.346168 0 -4.2519684 1.9058003 -4.2519684 4.2519684 c 0 2.3461685 1.9058003 4.2519684 4.2519684 4.2519684 c 2.3461685 0 4.2519684 -1.9057999 4.2519684 -4.2519684 c 0 -2.346168 -1.9057999 -4.2519684 -4.2519684 -4.2519684 Z "/>
                <path class="typst-shape" fill="#999999" fill-rule="nonzero" transform="matrix(1 0 0 1 106.2992125984252 19.842519685039374)" d="M 0 0m 4.2519684 0 c -2.346168 0 -4.2519684 1.9058003 -4.2519684 4.2519684 c 0 2.3461685 1.9058003 4.2519684 4.2519684 4.2519684 c 2.3461685 0 4.2519684 -1.9057999 4.2519684 -4.2519684 c 0 -2.346168 -1.9057999 -4.2519684 -4.2519684 -4.2519684 Z "/>
                <path class="typst-shape" fill="#999999" fill-rule="nonzero" transform="matrix(1 0 0 1 94.96062992125982 18.425196850393704)" d="M 0 0m 4.2519684 0 c -2.346168 0 -4.2519684 1.9058003 -4.2519684 4.2519684 c 0 2.3461685 1.9058003 4.2519684 4.2519684 4.2519684 c 2.3461685 0 4.2519684 -1.9057999 4.2519684 -4.2519684 c 0 -2.346168 -1.9057999 -4.2519684 -4.2519684 -4.2519684 Z "/>
                <path class="typst-shape" fill="#999999" fill-rule="nonzero" transform="matrix(1 0 0 1 89.29133858267716 9.921259842519687)" d="M 0 0m 4.2519684 0 c -2.346168 0 -4.2519684 1.9058003 -4.2519684 4.2519684 c 0 2.3461685 1.9058003 4.2519684 4.2519684 4.2519684 c 2.3461685 0 4.2519684 -1.9057999 4.2519684 -4.2519684 c 0 -2.346168 -1.9057999 -4.2519684 -4.2519684 -4.2519684 Z "/>
                <path class="typst-shape" fill="#999999" fill-rule="nonzero" transform="matrix(1 0 0 1 75.11811023622046 7.086614173228346)" d="M 0 0m 4.2519684 0 c -2.346168 0 -4.2519684 1.9058003 -4.2519684 4.2519684 c 0 2.3461685 1.9058003 4.2519684 4.2519684 4.2519684 c 2.3461685 0 4.2519684 -1.9057999 4.2519684 -4.2519684 c 0 -2.346168 -1.9057999 -4.2519684 -4.2519684 -4.2519684 Z "/>
                <path class="typst-shape" fill="#999999" fill-rule="nonzero" transform="matrix(1 0 0 1 72.28346456692914 18.425196850393704)" d="M 0 0m 4.2519684 0 c -2.346168 0 -4.2519684 1.9058003 -4.2519684 4.2519684 c 0 2.3461685 1.9058003 4.2519684 4.2519684 4.2519684 c 2.3461685 0 4.2519684 -1.9057999 4.2519684 -4.2519684 c 0 -2.346168 -1.9057999 -4.2519684 -4.2519684 -4.2519684 Z "/>
                <path class="typst-shape" fill="#999999" fill-rule="nonzero" transform="matrix(1 0 0 1 60.94488188976378 15.590551181102365)" d="M 0 0m 4.2519684 0 c -2.346168 0 -4.2519684 1.9058003 -4.2519684 4.2519684 c 0 2.3461685 1.9058003 4.2519684 4.2519684 4.2519684 c 2.3461685 0 4.2519684 -1.9057999 4.2519684 -4.2519684 c 0 -2.346168 -1.9057999 -4.2519684 -4.2519684 -4.2519684 Z "/>
                <path class="typst-shape" fill="#999999" fill-rule="nonzero" transform="matrix(1 0 0 1 49.60629921259842 15.590551181102365)" d="M 0 0m 4.2519684 0 c -2.346168 0 -4.2519684 1.9058003 -4.2519684 4.2519684 c 0 2.3461685 1.9058003 4.2519684 4.2519684 4.2519684 c 2.3461685 0 4.2519684 -1.9057999 4.2519684 -4.2519684 c 0 -2.346168 -1.9057999 -4.2519684 -4.2519684 -4.2519684 Z "/>
                <path class="typst-shape" fill="#999999" fill-rule="nonzero" transform="matrix(1 0 0 1 49.60629921259842 29.763779527559052)" d="M 0 0m 4.2519684 0 c -2.346168 0 -4.2519684 1.9058003 -4.2519684 4.2519684 c 0 2.3461685 1.9058003 4.2519684 4.2519684 4.2519684 c 2.3461685 0 4.2519684 -1.9057999 4.2519684 -4.2519684 c 0 -2.346168 -1.9057999 -4.2519684 -4.2519684 -4.2519684 Z "/>
                <path class="typst-shape" fill="#999999" fill-rule="nonzero" transform="matrix(1 0 0 1 41.102362204724415 21.25984251968504)" d="M 0 0m 4.2519684 0 c -2.346168 0 -4.2519684 1.9058003 -4.2519684 4.2519684 c 0 2.3461685 1.9058003 4.2519684 4.2519684 4.2519684 c 2.3461685 0 4.2519684 -1.9057999 4.2519684 -4.2519684 c 0 -2.346168 -1.9057999 -4.2519684 -4.2519684 -4.2519684 Z "/>
                <path class="typst-shape" fill="#999999" fill-rule="nonzero" transform="matrix(1 0 0 1 31.18110236220473 32.59842519685039)" d="M 0 0m 4.2519684 0 c -2.346168 0 -4.2519684 1.9058003 -4.2519684 4.2519684 c 0 2.3461685 1.9058003 4.2519684 4.2519684 4.2519684 c 2.3461685 0 4.2519684 -1.9057999 4.2519684 -4.2519684 c 0 -2.346168 -1.9057999 -4.2519684 -4.2519684 -4.2519684 Z "/>
                <path class="typst-shape" fill="#999999" fill-rule="nonzero" transform="matrix(1 0 0 1 22.677165354330715 49.60629921259842)" d="M 0 0m 4.2519684 0 c -2.346168 0 -4.2519684 1.9058003 -4.2519684 4.2519684 c 0 2.3461685 1.9058003 4.2519684 4.2519684 4.2519684 c 2.3461685 0 4.2519684 -1.9057999 4.2519684 -4.2519684 c 0 -2.346168 -1.9057999 -4.2519684 -4.2519684 -4.2519684 Z "/>
                <path class="typst-shape" fill="#999999" fill-rule="nonzero" transform="matrix(1 0 0 1 19.842519685039374 39.68503937007874)" d="M 0 0m 4.2519684 0 c -2.346168 0 -4.2519684 1.9058003 -4.2519684 4.2519684 c 0 2.3461685 1.9058003 4.2519684 4.2519684 4.2519684 c 2.3461685 0 4.2519684 -1.9057999 4.2519684 -4.2519684 c 0 -2.346168 -1.9057999 -4.2519684 -4.2519684 -4.2519684 Z "/>
                <path class="typst-shape" fill="#999999" fill-rule="nonzero" transform="matrix(1 0 0 1 7.086614173228346 53.574803149606296)" d="M 0 0m 4.2519684 0 c -2.346168 0 -4.2519684 1.9058003 -4.2519684 4.2519684 c 0 2.3461685 1.9058003 4.2519684 4.2519684 4.2519684 c 2.3461685 0 4.2519684 -1.9057999 4.2519684 -4.2519684 c 0 -2.346168 -1.9057999 -4.2519684 -4.2519684 -4.2519684 Z "/>
                <path class="typst-shape" fill="#999999" fill-rule="nonzero" transform="matrix(1 0 0 1 5.669291338582682 66.61417322834646)" d="M 0 0m 4.2519684 0 c -2.346168 0 -4.2519684 1.9058003 -4.2519684 4.2519684 c 0 2.3461685 1.9058003 4.2519684 4.2519684 4.2519684 c 2.3461685 0 4.2519684 -1.9057999 4.2519684 -4.2519684 c 0 -2.346168 -1.9057999 -4.2519684 -4.2519684 -4.2519684 Z "/>
                <path class="typst-shape" fill="#ff4136" fill-rule="nonzero" transform="matrix(1 0 0 1 80.78740157480314 38.267716535433074)" d="M 0 0m 4.2519684 0 c -2.346168 0 -4.2519684 1.9058003 -4.2519684 4.2519684 c 0 2.3461685 1.9058003 4.2519684 4.2519684 4.2519684 c 2.3461685 0 4.2519684 -1.9057999 4.2519684 -4.2519684 c 0 -2.346168 -1.9057999 -4.2519684 -4.2519684 -4.2519684 Z "/>
                <path class="typst-shape" fill="#0074d9" fill-rule="nonzero" transform="matrix(1 0 0 1 137.48031496062993 38.267716535433074)" d="M 0 0m 4.2519684 0 c -2.346168 0 -4.2519684 1.9058003 -4.2519684 4.2519684 c 0 2.3461685 1.9058003 4.2519684 4.2519684 4.2519684 c 2.3461685 0 4.2519684 -1.9057999 4.2519684 -4.2519684 c 0 -2.346168 -1.9057999 -4.2519684 -4.2519684 -4.2519684 Z "/>
            </g>
        </g>
    </g>
</svg>
