<svg class="typst-doc" viewBox="0 0 628.2834645669292 139.03454330708658" width="628.2834645669292pt" height="139.03454330708658pt" xmlns="http://www.w3.org/2000/svg" xmlns:xlink="http://www.w3.org/1999/xlink" xmlns:h5="http://www.w3.org/1999/xhtml">
    <path class="typst-shape" fill="#ffffff" fill-rule="nonzero" d="M 0 0v 139.03455 h 628.28345 v -139.03455 Z "/>
    <g>
        <g class="typst-group" transform="matrix(1 0 0 1 8 8)">
            <g>
                <path class="typst-shape" fill="#0099001f" fill-rule="nonzero" stroke="#000000" stroke-width="0.8" stroke-linecap="butt" stroke-linejoin="miter" stroke-miterlimit="4" stroke-dashoffset="0" stroke-dasharray="3 3" d="M 0 0m 2.2677166 -0.0000000000000125883555 c -1.2512898 0 -2.2677166 1.0164268 -2.2677166 2.2677166 v 107.433075 c 0 1.2512894 1.0164268 2.2677155 2.2677166 2.2677155 h 416.40942 c 1.2513123 0 2.2677307 -1.0164261 2.2677307 -2.2677155 v -107.433075 c 0 -1.2512898 -1.0164185 -2.2677166 -2.2677307 -2.2677166 h -416.40942 Z "/>
                <path class="typst-shape" fill="#ff41361f" fill-rule="nonzero" stroke="#000000" stroke-width="0.8" stroke-linecap="butt" stroke-linejoin="miter" stroke-miterlimit="4" stroke-dashoffset="0" stroke-dasharray="3 3" transform="matrix(1 0 0 1 360 2.125984251968496)" d="M 0 0m 2.2677166 -0.0000000000000125883555 c -1.2512898 0 -2.2677166 1.0164268 -2.2677166 2.2677166 v 103.18111 c 0 1.2512894 1.0164268 2.2677155 2.2677166 2.2677155 h 247.74803 c 1.251297 0 2.2677155 -1.0164261 2.2677155 -2.2677155 v -103.18111 c 0 -1.2512898 -1.0164185 -2.2677166 -2.2677155 -2.2677166 h -247.74803 Z "/>
                <path class="typst-shape" fill="none" transform="matrix(1 0 0 1 192.58094094488186 115.65354330708661)" d="M 0 0m 0 -0.000000000000025176711 h 35.783 v 7.381 h -35.783 v -7.381 Z "/>
                <g class="typst-group">
                    <g>
                        <g class="typst-group" transform="matrix(1 0 0 1 192.58094083464565 115.65354327559051)">
                            <g>
                                <g class="typst-text" transform="matrix(1 0 0 -1 0 7.238)">
                                    <use xlink:href="#g612B0892924B200D7538FBC908B482E9" x="0" y="0" fill="#000000" fill-rule="nonzero"/>
                                    <use xlink:href="#g20549005986A5A3DF03F3AF5AFE8D3E0" x="4.917000000000001" y="0" fill="#000000" fill-rule="nonzero"/>
                                    <use xlink:href="#g443DBC7A74C26877D4A8EDF2120B8854" x="10.879000000000001" y="0" fill="#000000" fill-rule="nonzero"/>
                                    <use xlink:href="#g2E23477C84DF9F0EDA55DC4D5B2816CB" x="15.587" y="0" fill="#000000" fill-rule="nonzero"/>
                                    <use xlink:href="#gD90D353AD7EAC8DAEC4DFAD36576BCAB" x="21.208" y="0" fill="#000000" fill-rule="nonzero"/>
                                    <use xlink:href="#g612B0892924B200D7538FBC908B482E9" x="26.774" y="0" fill="#000000" fill-rule="nonzero"/>
                                    <use xlink:href="#g8E66DE2E25A6196787257AAFF09A0021" x="31.691000000000003" y="0" fill="#000000" fill-rule="nonzero"/>
                                </g>
                            </g>
                        </g>
                    </g>
                </g>
                <path class="typst-shape" fill="none" transform="matrix(1 0 0 1 468.40973228346456 113.5275590551181)" d="M 0 0m 0 -0.000000000000025176711 h 35.464 v 7.381 h -35.464 v -7.381 Z "/>
                <g class="typst-group">
                    <g>
                        <g class="typst-group" transform="matrix(1 0 0 1 468.4097321574803 113.52755902362202)">
                            <g>
                                <g class="typst-text" transform="matrix(1 0 0 -1 0 7.238)">
                                    <use xlink:href="#gD90D353AD7EAC8DAEC4DFAD36576BCAB" x="0" y="0" fill="#000000" fill-rule="nonzero"/>
                                    <use xlink:href="#g612B0892924B200D7538FBC908B482E9" x="5.566000000000001" y="0" fill="#000000" fill-rule="nonzero"/>
                                    <use xlink:href="#g443DBC7A74C26877D4A8EDF2120B8854" x="10.560000000000002" y="0" fill="#000000" fill-rule="nonzero"/>
                                    <use xlink:href="#g2E23477C84DF9F0EDA55DC4D5B2816CB" x="15.268" y="0" fill="#000000" fill-rule="nonzero"/>
                                    <use xlink:href="#gD90D353AD7EAC8DAEC4DFAD36576BCAB" x="20.889" y="0" fill="#000000" fill-rule="nonzero"/>
                                    <use xlink:href="#g612B0892924B200D7538FBC908B482E9" x="26.455" y="0" fill="#000000" fill-rule="nonzero"/>
                                    <use xlink:href="#g8E66DE2E25A6196787257AAFF09A0021" x="31.372" y="0" fill="#000000" fill-rule="nonzero"/>
                                </g>
                            </g>
                        </g>
                    </g>
                </g>
                <path class="typst-shape" fill="#80cc80" fill-rule="nonzero" stroke="#000000" stroke-width="1" stroke-linecap="butt" stroke-linejoin="miter" stroke-miterlimit="4" transform="matrix(1 0 0 1 28.346456692913385 25.511811023622045)" d="M 0 0m 0 53.85827 h 45.354332 v -53.85827 h -45.354332 v 53.85827 "/>
                <path class="typst-shape" fill="#b9e3b9" fill-rule="nonzero" stroke="#000000" stroke-width="1" stroke-linecap="butt" stroke-linejoin="miter" stroke-miterlimit="4" transform="matrix(1 0 0 1 22.11023622047244 22.705511811023623)" d="M 0 0m 6.2362204 2.8062992 l -6.2362204 -2.8062992 h 45.354332 l 6.2362175 2.8062992 h -45.35433 "/>
                <path class="typst-shape" fill="#a6dba6" fill-rule="nonzero" stroke="#000000" stroke-width="1" stroke-linecap="butt" stroke-linejoin="miter" stroke-miterlimit="4" transform="matrix(1 0 0 1 22.11023622047244 22.705511811023623)" d="M 0 0m 6.2362204 56.664566 l -6.2362204 -2.8062973 v -53.85827 l 6.2362204 2.8062992 v 53.85827 "/>
                <path class="typst-shape" fill="none" transform="matrix(1 0 0 1 45.62812204724409 48.68444488188976)" d="M 0 0m 0 -0.0000000000000125883555 h 10.791 v 7.513 h -10.791 v -7.513 Z "/>
                <g class="typst-group">
                    <g>
                        <g class="typst-group" transform="matrix(1 0 0 1 45.62812204724409 48.684444803149596)">
                            <g>
                                <g class="typst-text" transform="matrix(1 0 0 -1 0 7.513000000000001)">
                                    <use xlink:href="#gE5639577201E042B3ACC527270B64F56" x="0" y="0" fill="#000000" fill-rule="nonzero"/>
                                </g>
                            </g>
                        </g>
                    </g>
                </g>
                <path class="typst-shape" fill="#a0dcf2" fill-rule="nonzero" stroke="#000000" stroke-width="1" stroke-linecap="butt" stroke-linejoin="miter" stroke-miterlimit="4" transform="matrix(1 0 0 1 119.05511811023622 25.511811023622045)" d="M 0 0m 0 53.85827 h 51.02362 v -53.85827 h -51.02362 v 53.85827 "/>
                <path class="typst-shape" fill="#cbecf8" fill-rule="nonzero" stroke="#000000" stroke-width="1" stroke-linecap="butt" stroke-linejoin="miter" stroke-miterlimit="4" transform="matrix(1 0 0 1 99.21259842519684 16.58267716535433)" d="M 0 0m 19.84252 8.929133 l -19.84252 -8.929133 h 51.02362 l 19.842522 8.929133 h -51.02362 "/>
                <path class="typst-shape" fill="#bde6f6" fill-rule="nonzero" stroke="#000000" stroke-width="1" stroke-linecap="butt" stroke-linejoin="miter" stroke-miterlimit="4" transform="matrix(1 0 0 1 99.21259842519684 16.58267716535433)" d="M 0 0m 19.84252 62.787403 l -19.84252 -8.929134 v -53.85827 l 19.84252 8.929133 v 53.85827 "/>
                <path class="typst-shape" fill="#ffaaa5" fill-rule="nonzero" stroke="#000000" stroke-width="1" stroke-linecap="butt" stroke-linejoin="miter" stroke-miterlimit="4" transform="matrix(1 0 0 1 221.10236220472441 35.43307086614173)" d="M 0 0m 0 34.015747 h 28.346457 v -34.015747 h -28.346457 v 34.015747 "/>
                <path class="typst-shape" fill="#ffd0cd" fill-rule="nonzero" stroke="#000000" stroke-width="1" stroke-linecap="butt" stroke-linejoin="miter" stroke-miterlimit="4" transform="matrix(1 0 0 1 205.51181102362204 28.41732283464567)" d="M 0 0m 15.590551 7.015748 l -15.590551 -7.015748 h 28.346457 l 15.590551 7.015748 h -28.346457 "/>
                <path class="typst-shape" fill="#ffc3c0" fill-rule="nonzero" stroke="#000000" stroke-width="1" stroke-linecap="butt" stroke-linejoin="miter" stroke-miterlimit="4" transform="matrix(1 0 0 1 205.51181102362204 28.41732283464567)" d="M 0 0m 15.590551 41.031498 l -15.590551 -7.015751 v -34.015747 l 15.590551 7.015748 v 34.01575 "/>
                <path class="typst-shape" fill="#a0dcf2" fill-rule="nonzero" stroke="#000000" stroke-width="1" stroke-linecap="butt" stroke-linejoin="miter" stroke-miterlimit="4" transform="matrix(1 0 0 1 306.1417322834646 35.43307086614173)" d="M 0 0m 0 34.015747 h 29.763779 v -34.015747 h -29.763779 v 34.015747 "/>
                <path class="typst-shape" fill="#cbecf8" fill-rule="nonzero" stroke="#000000" stroke-width="1" stroke-linecap="butt" stroke-linejoin="miter" stroke-miterlimit="4" transform="matrix(1 0 0 1 276.37795275590554 22.039370078740156)" d="M 0 0m 29.763779 13.393701 l -29.763779 -13.393701 h 29.763779 l 29.763779 13.393701 h -29.763779 "/>
                <path class="typst-shape" fill="#bde6f6" fill-rule="nonzero" stroke="#000000" stroke-width="1" stroke-linecap="butt" stroke-linejoin="miter" stroke-miterlimit="4" transform="matrix(1 0 0 1 276.37795275590554 22.039370078740156)" d="M 0 0m 29.763779 47.40945 l -29.763779 -13.393703 v -34.015747 l 29.763779 13.393701 v 34.01575 "/>
                <path class="typst-shape" fill="#ffaaa5" fill-rule="nonzero" stroke="#000000" stroke-width="1" stroke-linecap="butt" stroke-linejoin="miter" stroke-miterlimit="4" transform="matrix(1 0 0 1 391.18110236220474 43.370078740157474)" d="M 0 0m 0 18.425198 h 15.590551 v -18.425198 h -15.590551 v 18.425198 "/>
                <path class="typst-shape" fill="#ffd0cd" fill-rule="nonzero" stroke="#000000" stroke-width="1" stroke-linecap="butt" stroke-linejoin="miter" stroke-miterlimit="4" transform="matrix(1 0 0 1 372.755905511811 35.07874015748031)" d="M 0 0m 18.425198 8.291339 l -18.425198 -8.291339 h 15.590551 l 18.425196 8.291339 h -15.590549 "/>
                <path class="typst-shape" fill="#ffc3c0" fill-rule="nonzero" stroke="#000000" stroke-width="1" stroke-linecap="butt" stroke-linejoin="miter" stroke-miterlimit="4" transform="matrix(1 0 0 1 372.755905511811 35.07874015748031)" d="M 0 0m 18.425198 26.716536 l -18.425198 -8.291338 v -18.425198 l 18.425198 8.291339 v 18.425198 "/>
                <path class="typst-shape" fill="none" transform="matrix(1 0 0 1 395.86337795275597 48.78217716535433)" d="M 0 0m 0 -0.0000000000000125883555 h 6.226 v 7.601 h -6.226 v -7.601 Z "/>
                <g class="typst-group">
                    <g>
                        <g class="typst-group" transform="matrix(1 0 0 1 395.86337787401584 48.78217714960628)">
                            <g>
                                <g class="typst-text" transform="matrix(1 0 0 -1 0 7.513000000000001)">
                                    <use xlink:href="#g69AE93FA221B6D0AC9EF8EF4E5F4A313" x="0" y="0" fill="#000000" fill-rule="nonzero"/>
                                </g>
                            </g>
                        </g>
                    </g>
                </g>
                <path class="typst-shape" fill="#cf8ceb" fill-rule="nonzero" stroke="#000000" stroke-width="1" stroke-linecap="butt" stroke-linejoin="miter" stroke-miterlimit="4" transform="matrix(1 0 0 1 453.54330708661416 35.43307086614173)" d="M 0 0m 0 34.015747 h 28.346457 v -34.015747 h -28.346457 v 34.015747 "/>
                <path class="typst-shape" fill="#e5c0f4" fill-rule="nonzero" stroke="#000000" stroke-width="1" stroke-linecap="butt" stroke-linejoin="miter" stroke-miterlimit="4" transform="matrix(1 0 0 1 437.9527559055118 28.41732283464567)" d="M 0 0m 15.590551 7.015748 l -15.590551 -7.015748 h 28.346457 l 15.590551 7.015748 h -28.346457 "/>
                <path class="typst-shape" fill="#ddaff1" fill-rule="nonzero" stroke="#000000" stroke-width="1" stroke-linecap="butt" stroke-linejoin="miter" stroke-miterlimit="4" transform="matrix(1 0 0 1 437.9527559055118 28.41732283464567)" d="M 0 0m 15.590551 41.031498 l -15.590551 -7.015751 v -34.015747 l 15.590551 7.015748 v 34.01575 "/>
                <path class="typst-shape" fill="#cf8ceb" fill-rule="nonzero" stroke="#000000" stroke-width="1" stroke-linecap="butt" stroke-linejoin="miter" stroke-miterlimit="4" transform="matrix(1 0 0 1 555.5905511811023 25.511811023622045)" d="M 0 0m 0 53.85827 h 45.354332 v -53.85827 h -45.354332 v 53.85827 "/>
                <path class="typst-shape" fill="#e5c0f4" fill-rule="nonzero" stroke="#000000" stroke-width="1" stroke-linecap="butt" stroke-linejoin="miter" stroke-miterlimit="4" transform="matrix(1 0 0 1 549.3543307086616 22.705511811023623)" d="M 0 0m 6.2362204 2.8062992 l -6.2362204 -2.8062992 h 45.354332 l 6.2362175 2.8062992 h -45.35433 "/>
                <path class="typst-shape" fill="#ddaff1" fill-rule="nonzero" stroke="#000000" stroke-width="1" stroke-linecap="butt" stroke-linejoin="miter" stroke-miterlimit="4" transform="matrix(1 0 0 1 549.3543307086616 22.705511811023623)" d="M 0 0m 6.2362204 56.664566 l -6.2362204 -2.8062973 v -53.85827 l 6.2362204 2.8062992 v 53.85827 "/>
                <path class="typst-shape" fill="none" transform="matrix(1 0 0 1 570.9972665354331 48.68444488188976)" d="M 0 0m 0 -0.0000000000000125883555 h 14.5409 v 7.513 h -14.5409 v -7.513 Z "/>
                <g class="typst-group">
                    <g>
                        <g class="typst-group" transform="matrix(1 0 0 1 570.9972665196851 48.684444803149596)">
                            <g>
                                <g class="typst-text" transform="matrix(1 0 0 -1 0 7.513000000000001)">
                                    <use xlink:href="#gE5639577201E042B3ACC527270B64F56" x="0" y="0" fill="#000000" fill-rule="nonzero"/>
                                </g>
                                <g class="typst-text" transform="matrix(1 0 0 -1 10.790999999999999 3.5200000000000005)">
                                    <use xlink:href="#gF1A622CA6DA14B274C6A138D0E5A3BE6" x="0" y="0" fill="#000000" fill-rule="nonzero"/>
                                </g>
                            </g>
                        </g>
                    </g>
                </g>
                <path class="typst-shape" fill="none" stroke="#000000" stroke-width="1" stroke-linecap="butt" stroke-linejoin="miter" stroke-miterlimit="4" transform="matrix(1 0 0 1 73.7007874015748 48.755905511811015)" d="M 0 0m 0 -0.0000000000000125883555 h 21.536629 "/>
                <path class="typst-shape" fill="#000000" fill-rule="nonzero" stroke="#000000" stroke-width="1" stroke-linecap="butt" stroke-linejoin="miter" stroke-miterlimit="4" stroke-dashoffset="0" stroke-dasharray="" transform="matrix(1 0 0 1 94.38702299716535 47.48031496062991)" d="M 0 0m 3.4015749 1.2755905 l -3.4015749 -1.2755905 l 0.8503937 1.2755905 l -0.8503937 1.2755905 l 3.4015749 -1.2755905 Z "/>
                <path class="typst-shape" fill="none" transform="matrix(1 0 0 1 77.73169291338583 39.674685039370075)" d="M 0 0m 0 -0.0000000000000125883555 h 17.45 v 5.69 h -17.45 v -5.69 Z "/>
                <g class="typst-group">
                    <g>
                        <g class="typst-group" transform="matrix(1 0 0 1 77.73169280314961 39.67468497637793)">
                            <g>
                                <g class="typst-text" transform="matrix(1 0 0 -1 0.5 5.106)">
                                    <use xlink:href="#gC2ECDC9EF090874DAAF84E8A29223EAF" x="0" y="0" fill="#000000" fill-rule="nonzero"/>
                                    <use xlink:href="#g7548143309A032DFF2B43787286CEA7B" x="4.522" y="0" fill="#000000" fill-rule="nonzero"/>
                                    <use xlink:href="#g8523026ED409FDF2966375C6B35E876C" x="8.05" y="0" fill="#000000" fill-rule="nonzero"/>
                                    <use xlink:href="#g27D3D0B7DD9D375B0AF4EBBACD10B52E" x="11.844000000000001" y="0" fill="#000000" fill-rule="nonzero"/>
                                    <use xlink:href="#g46B7AB6CA9937B9E26ADB21F3EB4C079" x="14.91" y="0" fill="#000000" fill-rule="nonzero"/>
                                </g>
                            </g>
                        </g>
                    </g>
                </g>
                <path class="typst-shape" fill="none" transform="matrix(1 0 0 1 78.17619291338583 52.154125984251955)" d="M 0 0m 0 -0.0000000000000125883555 h 16.561 v 5.676 h -16.561 v -5.676 Z "/>
                <g class="typst-group">
                    <g>
                        <g class="typst-group" transform="matrix(1 0 0 1 78.17619288188978 52.154125937007855)">
                            <g>
                                <g class="typst-text" transform="matrix(1 0 0 -1 0.5 5.106)">
                                    <use xlink:href="#g24BCFF69F3312419CC09EB3052940659" x="0" y="0" fill="#000000" fill-rule="nonzero"/>
                                    <use xlink:href="#gB98B2E1621B238614D4D4A85FFC9E6ED" x="4.109" y="0" fill="#000000" fill-rule="nonzero"/>
                                    <use xlink:href="#gDDA3F65CBFF8515957FA225D1131D59B" x="7.2379999999999995" y="0" fill="#000000" fill-rule="nonzero"/>
                                    <use xlink:href="#g99AB49E97B206A185B6B76AB58B030C9" x="10.934" y="0" fill="#000000" fill-rule="nonzero"/>
                                </g>
                            </g>
                        </g>
                    </g>
                </g>
                <path class="typst-shape" fill="none" stroke="#000000" stroke-width="1" stroke-linecap="butt" stroke-linejoin="miter" stroke-miterlimit="4" transform="matrix(1 0 0 1 170.07874015748033 48.755905511811015)" d="M 0 0m 0 -0.0000000000000125883555 h 31.45789 "/>
                <path class="typst-shape" fill="#000000" fill-rule="nonzero" stroke="#000000" stroke-width="1" stroke-linecap="butt" stroke-linejoin="miter" stroke-miterlimit="4" stroke-dashoffset="0" stroke-dasharray="" transform="matrix(1 0 0 1 200.68623559559055 47.48031496062991)" d="M 0 0m 3.4015749 1.2755905 l -3.4015749 -1.2755905 l 0.8503937 1.2755905 l -0.8503937 1.2755905 l 3.4015749 -1.2755905 Z "/>
                <path class="typst-shape" fill="none" transform="matrix(1 0 0 1 180.92527559055117 39.68168503937007)" d="M 0 0m 0 -0.0000000000000125883555 h 13.74 v 5.676 h -13.74 v -5.676 Z "/>
                <g class="typst-group">
                    <g>
                        <g class="typst-group" transform="matrix(1 0 0 1 180.9252755433071 39.681684992125966)">
                            <g>
                                <g class="typst-text" transform="matrix(1 0 0 -1 0.5 5.106)">
                                    <use xlink:href="#gE4CE94EB872378D700E5D89A4D9072AE" x="0" y="0" fill="#000000" fill-rule="nonzero"/>
                                    <use xlink:href="#g7548143309A032DFF2B43787286CEA7B" x="3.787" y="0" fill="#000000" fill-rule="nonzero"/>
                                    <use xlink:href="#g7548143309A032DFF2B43787286CEA7B" x="7.364" y="0" fill="#000000" fill-rule="nonzero"/>
                                    <use xlink:href="#g1DEF6B9A4F1ECEFE891E0D55D31D6F6D" x="10.892" y="0" fill="#000000" fill-rule="nonzero"/>
                                </g>
                            </g>
                        </g>
                    </g>
                </g>
                <path class="typst-shape" fill="none" stroke="#000000" stroke-width="1" stroke-linecap="butt" stroke-linejoin="miter" stroke-miterlimit="4" transform="matrix(1 0 0 1 249.44881889763784 48.755905511811015)" d="M 0 0m 0 -0.0000000000000125883555 h 22.953953 "/>
                <path class="typst-shape" fill="#000000" fill-rule="nonzero" stroke="#000000" stroke-width="1" stroke-linecap="butt" stroke-linejoin="miter" stroke-miterlimit="4" stroke-dashoffset="0" stroke-dasharray="" transform="matrix(1 0 0 1 271.55237732787407 47.48031496062991)" d="M 0 0m 3.4015749 1.2755905 l -3.4015749 -1.2755905 l 0.8503937 1.2755905 l -0.8503937 1.2755905 l 3.4015749 -1.2755905 Z "/>
                <path class="typst-shape" fill="none" transform="matrix(1 0 0 1 254.18838582677165 39.674685039370075)" d="M 0 0m 0 -0.0000000000000125883555 h 17.45 v 5.69 h -17.45 v -5.69 Z "/>
                <g class="typst-group">
                    <g>
                        <g class="typst-group" transform="matrix(1 0 0 1 254.1883857165354 39.67468497637793)">
                            <g>
                                <g class="typst-text" transform="matrix(1 0 0 -1 0.5 5.106)">
                                    <use xlink:href="#gC2ECDC9EF090874DAAF84E8A29223EAF" x="0" y="0" fill="#000000" fill-rule="nonzero"/>
                                    <use xlink:href="#g7548143309A032DFF2B43787286CEA7B" x="4.522" y="0" fill="#000000" fill-rule="nonzero"/>
                                    <use xlink:href="#g8523026ED409FDF2966375C6B35E876C" x="8.05" y="0" fill="#000000" fill-rule="nonzero"/>
                                    <use xlink:href="#g27D3D0B7DD9D375B0AF4EBBACD10B52E" x="11.844000000000001" y="0" fill="#000000" fill-rule="nonzero"/>
                                    <use xlink:href="#g46B7AB6CA9937B9E26ADB21F3EB4C079" x="14.91" y="0" fill="#000000" fill-rule="nonzero"/>
                                </g>
                            </g>
                        </g>
                    </g>
                </g>
                <path class="typst-shape" fill="none" transform="matrix(1 0 0 1 254.6328858267717 52.154125984251955)" d="M 0 0m 0 -0.0000000000000125883555 h 16.561 v 5.676 h -16.561 v -5.676 Z "/>
                <g class="typst-group">
                    <g>
                        <g class="typst-group" transform="matrix(1 0 0 1 254.6328857952756 52.154125937007855)">
                            <g>
                                <g class="typst-text" transform="matrix(1 0 0 -1 0.5 5.106)">
                                    <use xlink:href="#g24BCFF69F3312419CC09EB3052940659" x="0" y="0" fill="#000000" fill-rule="nonzero"/>
                                    <use xlink:href="#gB98B2E1621B238614D4D4A85FFC9E6ED" x="4.109" y="0" fill="#000000" fill-rule="nonzero"/>
                                    <use xlink:href="#gDDA3F65CBFF8515957FA225D1131D59B" x="7.2379999999999995" y="0" fill="#000000" fill-rule="nonzero"/>
                                    <use xlink:href="#g99AB49E97B206A185B6B76AB58B030C9" x="10.934" y="0" fill="#000000" fill-rule="nonzero"/>
                                </g>
                            </g>
                        </g>
                    </g>
                </g>
                <path class="typst-shape" fill="none" stroke="#000000" stroke-width="1" stroke-linecap="butt" stroke-linejoin="miter" stroke-miterlimit="4" transform="matrix(1 0 0 1 335.9055118110237 48.755905511811015)" d="M 0 0m 0 -0.0000000000000125883555 h 32.875214 "/>
                <path class="typst-shape" fill="#000000" fill-rule="nonzero" stroke="#000000" stroke-width="1" stroke-linecap="butt" stroke-linejoin="miter" stroke-miterlimit="4" stroke-dashoffset="0" stroke-dasharray="" transform="matrix(1 0 0 1 367.93033008377955 47.48031496062991)" d="M 0 0m 3.4015749 1.2755905 l -3.4015749 -1.2755905 l 0.8503937 1.2755905 l -0.8503937 1.2755905 l 3.4015749 -1.2755905 Z "/>
                <path class="typst-shape" fill="none" transform="matrix(1 0 0 1 347.46070866141736 39.68168503937007)" d="M 0 0m 0 -0.0000000000000125883555 h 13.74 v 5.676 h -13.74 v -5.676 Z "/>
                <g class="typst-group">
                    <g>
                        <g class="typst-group" transform="matrix(1 0 0 1 347.46070861417326 39.681684992125966)">
                            <g>
                                <g class="typst-text" transform="matrix(1 0 0 -1 0.5 5.106)">
                                    <use xlink:href="#gE4CE94EB872378D700E5D89A4D9072AE" x="0" y="0" fill="#000000" fill-rule="nonzero"/>
                                    <use xlink:href="#g7548143309A032DFF2B43787286CEA7B" x="3.787" y="0" fill="#000000" fill-rule="nonzero"/>
                                    <use xlink:href="#g7548143309A032DFF2B43787286CEA7B" x="7.364" y="0" fill="#000000" fill-rule="nonzero"/>
                                    <use xlink:href="#g1DEF6B9A4F1ECEFE891E0D55D31D6F6D" x="10.892" y="0" fill="#000000" fill-rule="nonzero"/>
                                </g>
                            </g>
                        </g>
                    </g>
                </g>
                <path class="typst-shape" fill="none" stroke="#000000" stroke-width="1" stroke-linecap="butt" stroke-linejoin="miter" stroke-miterlimit="4" transform="matrix(1 0 0 1 406.77165354330714 48.755905511811015)" d="M 0 0m 0 -0.0000000000000125883555 h 27.205921 "/>
                <path class="typst-shape" fill="#000000" fill-rule="nonzero" stroke="#000000" stroke-width="1" stroke-linecap="butt" stroke-linejoin="miter" stroke-miterlimit="4" stroke-dashoffset="0" stroke-dasharray="" transform="matrix(1 0 0 1 433.12718047748035 47.48031496062991)" d="M 0 0m 3.4015749 1.2755905 l -3.4015749 -1.2755905 l 0.8503937 1.2755905 l -0.8503937 1.2755905 l 3.4015749 -1.2755905 Z "/>
                <path class="typst-shape" fill="none" transform="matrix(1 0 0 1 410.3577047244095 39.674685039370075)" d="M 0 0m 0 -0.0000000000000125883555 h 24.009 v 5.69 h -24.009 v -5.69 Z "/>
                <g class="typst-group">
                    <g>
                        <g class="typst-group" transform="matrix(1 0 0 1 410.3577046771654 39.67468497637793)">
                            <g>
                                <g class="typst-text" transform="matrix(1 0 0 -1 0.5 5.106)">
                                    <use xlink:href="#g36E07DCC91796328CECD6592B039C7D3" x="0" y="0" fill="#000000" fill-rule="nonzero"/>
                                    <use xlink:href="#gB98B2E1621B238614D4D4A85FFC9E6ED" x="4.907" y="0" fill="#000000" fill-rule="nonzero"/>
                                    <use xlink:href="#gB33EB123B5A959A38352132A42EA623C" x="8.085" y="0" fill="#000000" fill-rule="nonzero"/>
                                    <use xlink:href="#g7548143309A032DFF2B43787286CEA7B" x="11.081000000000001" y="0" fill="#000000" fill-rule="nonzero"/>
                                    <use xlink:href="#g8523026ED409FDF2966375C6B35E876C" x="14.609000000000002" y="0" fill="#000000" fill-rule="nonzero"/>
                                    <use xlink:href="#g27D3D0B7DD9D375B0AF4EBBACD10B52E" x="18.403000000000002" y="0" fill="#000000" fill-rule="nonzero"/>
                                    <use xlink:href="#g46B7AB6CA9937B9E26ADB21F3EB4C079" x="21.469" y="0" fill="#000000" fill-rule="nonzero"/>
                                </g>
                            </g>
                        </g>
                    </g>
                </g>
                <path class="typst-shape" fill="none" transform="matrix(1 0 0 1 414.08170472440946 52.154125984251955)" d="M 0 0m 0 -0.0000000000000125883555 h 16.561 v 5.676 h -16.561 v -5.676 Z "/>
                <g class="typst-group">
                    <g>
                        <g class="typst-group" transform="matrix(1 0 0 1 414.0817046929134 52.154125937007855)">
                            <g>
                                <g class="typst-text" transform="matrix(1 0 0 -1 0.5 5.106)">
                                    <use xlink:href="#g24BCFF69F3312419CC09EB3052940659" x="0" y="0" fill="#000000" fill-rule="nonzero"/>
                                    <use xlink:href="#gB98B2E1621B238614D4D4A85FFC9E6ED" x="4.109" y="0" fill="#000000" fill-rule="nonzero"/>
                                    <use xlink:href="#gDDA3F65CBFF8515957FA225D1131D59B" x="7.2379999999999995" y="0" fill="#000000" fill-rule="nonzero"/>
                                    <use xlink:href="#g99AB49E97B206A185B6B76AB58B030C9" x="10.934" y="0" fill="#000000" fill-rule="nonzero"/>
                                </g>
                            </g>
                        </g>
                    </g>
                </g>
                <path class="typst-shape" fill="none" stroke="#000000" stroke-width="1" stroke-linecap="butt" stroke-linejoin="miter" stroke-miterlimit="4" transform="matrix(1 0 0 1 481.8897637795276 48.755905511811015)" d="M 0 0m 0 -0.0000000000000125883555 h 63.489384 "/>
                <path class="typst-shape" fill="#000000" fill-rule="nonzero" stroke="#000000" stroke-width="1" stroke-linecap="butt" stroke-linejoin="miter" stroke-miterlimit="4" stroke-dashoffset="0" stroke-dasharray="" transform="matrix(1 0 0 1 544.5287552806299 47.48031496062991)" d="M 0 0m 3.4015749 1.2755905 l -3.4015749 -1.2755905 l 0.8503937 1.2755905 l -0.8503937 1.2755905 l 3.4015749 -1.2755905 Z "/>
                <path class="typst-shape" fill="none" transform="matrix(1 0 0 1 503.61754724409457 39.674685039370075)" d="M 0 0m 0 -0.0000000000000125883555 h 24.009 v 5.69 h -24.009 v -5.69 Z "/>
                <g class="typst-group">
                    <g>
                        <g class="typst-group" transform="matrix(1 0 0 1 503.61754719685047 39.67468497637793)">
                            <g>
                                <g class="typst-text" transform="matrix(1 0 0 -1 0.5 5.106)">
                                    <use xlink:href="#g36E07DCC91796328CECD6592B039C7D3" x="0" y="0" fill="#000000" fill-rule="nonzero"/>
                                    <use xlink:href="#gB98B2E1621B238614D4D4A85FFC9E6ED" x="4.907" y="0" fill="#000000" fill-rule="nonzero"/>
                                    <use xlink:href="#gB33EB123B5A959A38352132A42EA623C" x="8.085" y="0" fill="#000000" fill-rule="nonzero"/>
                                    <use xlink:href="#g7548143309A032DFF2B43787286CEA7B" x="11.081000000000001" y="0" fill="#000000" fill-rule="nonzero"/>
                                    <use xlink:href="#g8523026ED409FDF2966375C6B35E876C" x="14.609000000000002" y="0" fill="#000000" fill-rule="nonzero"/>
                                    <use xlink:href="#g27D3D0B7DD9D375B0AF4EBBACD10B52E" x="18.403000000000002" y="0" fill="#000000" fill-rule="nonzero"/>
                                    <use xlink:href="#g46B7AB6CA9937B9E26ADB21F3EB4C079" x="21.469" y="0" fill="#000000" fill-rule="nonzero"/>
                                </g>
                            </g>
                        </g>
                    </g>
                </g>
                <path class="typst-shape" fill="none" transform="matrix(1 0 0 1 504.8180472440945 51.35612598425196)" d="M 0 0m 0 -0.0000000000000125883555 h 21.608 v 7.272 h -21.608 v -7.272 Z "/>
                <g class="typst-group">
                    <g>
                        <g class="typst-group" transform="matrix(1 0 0 1 504.81804713385833 51.356125984251946)">
                            <g>
                                <g class="typst-text" transform="matrix(1 0 0 -1 0.5 5.106)">
                                    <use xlink:href="#g1DEF6B9A4F1ECEFE891E0D55D31D6F6D" x="0" y="0" fill="#000000" fill-rule="nonzero"/>
                                    <use xlink:href="#g7548143309A032DFF2B43787286CEA7B" x="1.848" y="0" fill="#000000" fill-rule="nonzero"/>
                                    <use xlink:href="#g2383102DA88AB0998F706FA90E16D426" x="5.376" y="0" fill="#000000" fill-rule="nonzero"/>
                                    <use xlink:href="#g255CCFEF092867A437185BE69B43167C" x="8.876000000000001" y="0" fill="#000000" fill-rule="nonzero"/>
                                    <use xlink:href="#g243791A795881C4FD189721C60356CC9" x="10.773000000000001" y="0" fill="#000000" fill-rule="nonzero"/>
                                    <use xlink:href="#g4F7080976C6F32BACE600ABEA90E42CF" x="13.503000000000002" y="0" fill="#000000" fill-rule="nonzero"/>
                                    <use xlink:href="#g255CCFEF092867A437185BE69B43167C" x="15.715000000000002" y="0" fill="#000000" fill-rule="nonzero"/>
                                    <use xlink:href="#gB33EB123B5A959A38352132A42EA623C" x="17.612000000000002" y="0" fill="#000000" fill-rule="nonzero"/>
                                </g>
                            </g>
                        </g>
                    </g>
                </g>
            </g>
        </g>
    </g>
    <defs id="glyph">
        <symbol id="g612B0892924B200D7538FBC908B482E9" overflow="visible">
            <path d="M 0 0m 4.246 1.023 c -0.40699983 -0.41799998 -0.72599983 -0.594 -1.3639998 -0.594 c -0.3959999 0 -0.85800004 0.23099998 -1.199 0.79199994 c -0.22000003 0.36300004 -0.352 0.86899996 -0.352 1.507 l 2.926 -0.021999836 c 0.13199997 0 0.20900011 0.065999985 0.20900011 0.1869998 c 0 0.924 -0.32999992 1.9140003 -1.8590002 1.9140003 c -0.9569999 0 -2.1999998 -0.9130001 -2.1999998 -2.5850003 c 0 -0.61599994 0.15399998 -1.2099999 0.517 -1.6279999 c 0.37399995 -0.44 0.8909999 -0.704 1.6829998 -0.704 c 0.8360002 0 1.4300003 0.385 1.8699999 0.957 c -0.032999992 0.110000014 -0.09899998 0.16499996 -0.23099995 0.176 Z m -2.882 2.079 c 0.20899999 1.2429998 0.979 1.3419998 1.2429999 1.3419998 c 0.41800022 0 0.9130001 -0.23099995 0.9130001 -1.1549997 c 0 -0.09899998 -0.04399991 -0.15400004 -0.16499996 -0.15400004 Z "/>
        </symbol>
        <symbol id="g20549005986A5A3DF03F3AF5AFE8D3E0" overflow="visible">
            <path d="M 0 0m 2.024 3.938 c -0.065999985 -0.0769999 -0.13199997 -0.09899998 -0.13199997 0 c -0.010999918 0.29700017 -0.032999992 0.7260001 -0.08799994 0.8360002 c -0.022000074 0.05499983 -0.04400003 0.08799982 -0.13200009 0.08799982 c -0.30799997 -0.12099981 -0.594 -0.21999979 -1.3529999 -0.31900024 c -0.022000015 -0.065999985 0 -0.24199963 0.021999985 -0.3079996 c 0.594 -0.055000305 0.71500003 -0.11000013 0.71500003 -0.74800014 v -2.145 c 0 -0.902 -0.110000014 -0.946 -0.77 -1.001 c -0.066000015 -0.065999985 -0.066000015 -0.297 0 -0.36299998 c 0.32999998 0.011 0.77 0.022 1.21 0.022 c 0.43999994 0 0.77 -0.011 1.0999999 -0.022 c 0.065999985 0.066 0.065999985 0.297 0 0.36299998 c -0.5609999 0.055000007 -0.671 0.09900001 -0.671 1.001 v 1.8039999 c 0 0.23100019 0.09899998 0.36300015 0.18700004 0.46200013 c 0.41799998 0.40699983 0.9130001 0.6489999 1.342 0.6489999 c 0.22000003 0 0.45099998 -0.14300013 0.5830002 -0.3959999 c 0.10999966 -0.22000003 0.13199997 -0.5170002 0.13199997 -0.8470001 v -1.6719999 c 0 -0.902 -0.11000013 -0.946 -0.68200016 -1.001 c -0.055000067 -0.065999985 -0.055000067 -0.297 0 -0.36299998 c 0.32999992 0.011 0.68200016 0.022 1.1220002 0.022 c 0.43999958 0 0.83599997 -0.011 1.1659999 -0.022 c 0.05499983 0.066 0.05499983 0.297 0 0.36299998 c -0.6160002 0.055000007 -0.737 0.09900001 -0.737 1.001 v 1.6389999 c 0 0.605 -0.04400015 1.1329999 -0.29699993 1.474 c -0.18700027 0.2420001 -0.52800035 0.37400007 -0.9130001 0.37400007 c -0.53900003 0 -1.155 -0.14300013 -1.8040001 -0.89100003 Z "/>
        </symbol>
        <symbol id="g443DBC7A74C26877D4A8EDF2120B8854" overflow="visible">
            <path d="M 0 0m 4.378 1.001 c -0.043999672 0.09899998 -0.13199997 0.143 -0.23099995 0.15399992 c -0.37399983 -0.48399997 -0.8469999 -0.72599995 -1.3199999 -0.72599995 c -0.803 0 -1.4739999 0.814 -1.4739999 2.101 c 0 1.21 0.528 1.9360001 1.2539998 1.9360001 c 0.64900017 0 0.737 -0.38500023 0.78100014 -0.77 c 0.032999992 -0.29700017 0.18700004 -0.39600015 0.41799998 -0.39600015 c 0.23100019 0 0.5389998 0.14300013 0.5389998 0.48399997 c 0 0.605 -0.62699986 1.0450001 -1.6829998 1.0450001 c -1.089 0 -2.2549999 -0.9790001 -2.2549999 -2.541 c 0 -1.4190001 0.792 -2.398 2.178 -2.398 c 0.65999985 0 1.243 0.20899999 1.7929997 1.1110001 Z "/>
        </symbol>
        <symbol id="g2E23477C84DF9F0EDA55DC4D5B2816CB" overflow="visible">
            <path d="M 0 0m 0.451 2.2549999 c 0 -1.1219999 0.748 -2.3649998 2.31 -2.3649998 c 0.704 0 1.2430003 0.25300002 1.6169999 0.616 c 0.49500036 0.48400003 0.71500015 1.177 0.71500015 1.848 c 0 1.1439998 -0.62699986 2.475 -2.31 2.475 c -0.7260001 0 -1.32 -0.29699993 -1.727 -0.77 c -0.39600003 -0.47300005 -0.605 -1.1110001 -0.605 -1.8040001 Z m 2.167 2.189 c 0.94599986 0 1.5289998 -0.8579998 1.5289998 -2.4419997 c 0 -1.3860002 -0.7149999 -1.7270001 -1.2319999 -1.7270001 c -1.1439999 0 -1.518 1.386 -1.518 2.2329998 c 0 0.957 0.23100007 1.9359999 1.2210001 1.9359999 Z "/>
        </symbol>
        <symbol id="gD90D353AD7EAC8DAEC4DFAD36576BCAB" overflow="visible">
            <path d="M 0 0m 3.674 0.55 c 0.055000067 0.04399997 0.15400004 0.065999985 0.16499996 -0.011000037 c 0.032999992 -0.26399997 0.12100005 -0.649 0.12100005 -0.649 c 0.08799982 -0.033000007 0.14300013 -0.022 0.20900011 0 c 0.24199963 0.198 0.62699986 0.36299998 1.2979999 0.44 c 0.065999985 0.066000015 0.065999985 0.231 0 0.297 c -0.704 0.055000007 -0.803 0.264 -0.803 0.803 v 4.9830003 c 0 0.7149997 0.04400015 1.1549997 0.04400015 1.1549997 c 0 0.07700014 -0.04400015 0.11000013 -0.14300013 0.11000013 c -0.2750001 -0.11000013 -1.1000001 -0.26399994 -1.54 -0.29699993 c -0.022000074 -0.0880003 0 -0.26399994 0.065999985 -0.32999992 c 0.032999992 0 0.065999985 0 0.09899998 0 c 0.48399997 -0.032999992 0.605 -0.032999992 0.605 -0.90199995 v -1.408 c 0 -0.07700014 -0.022000074 -0.09899998 -0.09899998 -0.09899998 c -0.04400015 0 -0.49500012 0.1869998 -0.85800004 0.1869998 c -0.7260001 0 -1.21 -0.2420001 -1.6500001 -0.65999985 c -0.473 -0.47300005 -0.75899994 -1.1220002 -0.75899994 -1.9360001 c 0 -1.353 0.6819999 -2.343 1.87 -2.343 c 0.4289999 0 0.83599997 0.22 1.375 0.66 Z m 0.12100005 0.81399995 c 0 -0.20899999 -0.022000074 -0.29699993 -0.17600012 -0.42899996 c -0.40700006 -0.352 -0.75900006 -0.528 -1.0339999 -0.528 c -0.5940001 0 -1.21 0.649 -1.21 2.024 c 0 0.79200006 0.15400004 1.2319999 0.319 1.463 c 0.34100008 0.5169997 0.803 0.5499997 1.023 0.5499997 c 0.3959999 0 0.671 -0.14299965 0.89100003 -0.3959999 c 0.15400004 -0.17599988 0.18700004 -0.25299978 0.18700004 -0.59399986 Z "/>
        </symbol>
        <symbol id="g8E66DE2E25A6196787257AAFF09A0021" overflow="visible">
            <path d="M 0 0m 1.936 3.938 c -0.021999955 0.43999982 -0.032999992 0.7260001 -0.08799994 0.8360002 c -0.022000074 0.05499983 -0.04400003 0.08799982 -0.13200009 0.08799982 c -0.30799997 -0.12099981 -0.594 -0.21999979 -1.3529999 -0.31900024 c -0.022000015 -0.065999985 0 -0.24199963 0.021999985 -0.3079996 c 0.594 -0.055000305 0.71500003 -0.11000013 0.71500003 -0.74800014 v -2.145 c 0 -0.913 -0.13200003 -0.957 -0.814 -1.001 c -0.066000015 -0.065999985 -0.066000015 -0.297 0 -0.36299998 c 0.385 0.011 0.814 0.022 1.254 0.022 c 0.44000006 0 0.9460001 -0.011 1.3310001 -0.022 c 0.065999985 0.066 0.065999985 0.297 0 0.36299998 c -0.77 0.055000007 -0.90200007 0.088 -0.90200007 1.001 v 1.529 c 0 0.286 0.13200009 0.53900003 0.26400006 0.737 c 0.12100005 0.17599988 0.37399983 0.5389998 0.50600004 0.5389998 c 0.09899998 0 0.19799995 -0.021999836 0.286 -0.14299965 c 0.0769999 -0.11000013 0.20899987 -0.25300026 0.3959999 -0.25300026 c 0.26399994 0 0.51699996 0.2750001 0.51699996 0.5500002 c 0 0.20899963 -0.19799995 0.5279999 -0.6600001 0.5279999 c -0.51699996 0 -0.96799994 -0.4840002 -1.221 -0.9130001 c -0.065999985 -0.12099981 -0.12099993 -0.032999992 -0.12099993 0.022000074 Z "/>
        </symbol>
        <symbol id="gE5639577201E042B3ACC527270B64F56" overflow="visible">
            <path d="M 0 0m 10.483 7.348 c 0 0.065999985 -0.043999672 0.19799995 -0.22000027 0.19799995 c -0.38499928 0 -0.8029995 -0.032999992 -1.1989994 -0.032999992 l -1.4300003 0.032999992 c -0.08799982 0 -0.3080001 0 -0.3080001 -0.3080001 c 0 -0.19799995 0.17600012 -0.20900011 0.2750001 -0.20900011 c 0.32999992 -0.01099968 0.6160002 -0.09899998 0.65999985 -0.10999966 l -2.1009998 -2.079 l -1.0120001 2.1229997 c 0.11000013 0.022000313 0.4510002 0.065999985 0.638 0.065999985 c 0.12100029 0 0.31900024 0 0.31900024 0.3080001 c 0 0.15400028 -0.09899998 0.20900011 -0.2420001 0.20900011 l -1.6719999 -0.032999992 l -0.75900006 0.011000156 c -0.25300002 0 -0.51699996 0.021999836 -0.77 0.021999836 c -0.09899998 0 -0.30799985 0 -0.30799985 -0.3080001 c 0 -0.20900011 0.14299989 -0.20900011 0.45099998 -0.20900011 c 0.1539998 0 0.27499986 0 0.4289999 -0.01099968 c 0.15400004 -0.022000313 0.16499996 -0.032999992 0.23099995 -0.16499996 l 1.5179999 -3.1790001 l -2.761 -2.7280002 c -0.19799995 -0.18699998 -0.4289999 -0.41799998 -1.4079999 -0.42899996 c -0.19800001 0 -0.38500002 0 -0.38500002 -0.319 c 0 -0.077 0.055000007 -0.198 0.22 -0.198 c 0.264 0 0.935 0.033 1.1990001 0.033 l 1.4299998 -0.033 c 0.08800006 0 0.3080001 0 0.3080001 0.319 c 0 0.19800001 -0.19799995 0.19800001 -0.286 0.19800001 c -0.22000003 0 -0.44000006 0.032999992 -0.6489999 0.109999955 l 2.5629997 2.552 l 1.243 -2.596 c 0 0 -0.3739996 -0.065999985 -0.638 -0.065999985 c -0.10999966 0 -0.31899977 0 -0.31899977 -0.319 c 0 -0.033000007 0.011000156 -0.198 0.2420001 -0.198 l 1.6830001 0.033 l 0.7589998 -0.011 c 0.25300026 0 0.5170002 -0.022 0.7699995 -0.022 c 0.0880003 0 0.30800056 0 0.30800056 0.319 c 0 0.19800001 -0.1760006 0.19800001 -0.44000053 0.19800001 c -0.15399933 0 -0.26399994 0 -0.4289999 0.010999978 c -0.16499996 0.022000015 -0.17599964 0.032999992 -0.2529993 0.176 l -1.7380004 3.6409998 c 0.71500015 0.704 1.4299998 1.408 2.1340003 2.1230001 c 0.43999958 0.41800022 0.57199955 0.5500002 1.7159996 0.5609999 c 0.20899963 0 0.23099995 0.28600025 0.23099995 0.31900024 Z "/>
        </symbol>
        <symbol id="g69AE93FA221B6D0AC9EF8EF4E5F4A313" overflow="visible">
            <path d="M 0 0m 5.9179997 4.818 c 0 0.15400028 -0.1539998 0.15400028 -0.25299978 0.15400028 c -0.16499996 0 -0.1869998 0 -0.25299978 -0.11000013 c -0.26400042 -0.38500023 -0.47300005 -0.638 -0.737 -0.638 c -0.28600025 0 -0.52800035 0.17600012 -0.78100014 0.35200024 c -0.26400018 0.19799995 -0.53900003 0.3959999 -0.9460001 0.3959999 c -0.96799994 0 -1.5949999 -0.9790001 -1.5949999 -1.3200002 c 0 -0.15400004 0.176 -0.15400004 0.26399994 -0.15400004 c 0.09899998 0 0.22000003 0 0.25300002 0.14300013 c 0.15399992 0.0769999 0.23100007 0.08800006 0.561 0.109999895 h 0.22000003 c 0.15400004 0.011000156 0.29699993 0 0.45099998 0.011000156 l 1.4189999 0.065999985 c -0.3080001 -0.29700017 -0.48399973 -0.47300005 -1.595 -1.309 c -2.222 -1.694 -2.4639997 -2.4090002 -2.4639997 -2.453 c 0 -0.154 0.15399998 -0.154 0.25299996 -0.154 c 0.176 0 0.18700004 0.011 0.264 0.121 c 0.39600003 0.55 0.803 0.627 0.979 0.627 c 0.29699993 0 0.54999995 -0.18699998 0.71500015 -0.30799997 c 0.34099984 -0.242 0.61599994 -0.44 1.0339999 -0.44 c 1.2320001 0 2.035 1.342 2.035 1.76 c 0 0.15400004 -0.18700027 0.15400004 -0.26399994 0.15400004 c -0.07700014 0 -0.19800043 0 -0.23100042 -0.09899998 c -0.09899998 -0.20899999 -0.20899963 -0.48399997 -0.9459996 -0.572 l -2.453 -0.110000014 c 0.30799985 0.29700005 0.48399997 0.47300005 1.606 1.32 c 2.2220001 1.694 2.4639997 2.4090002 2.4639997 2.4529998 Z "/>
        </symbol>
        <symbol id="gF1A622CA6DA14B274C6A138D0E5A3BE6" overflow="visible">
            <path d="M 0 0m 2.1868 4.2273 c -0.1925 0 -0.32340002 -0.07700014 -0.39269996 -0.23870015 l -1.2936001 -3.2494001 h 0.34649998 l 1.7094 2.8259 c 0.038499832 0.06929994 0.06159997 0.14630008 0.06159997 0.23099995 c 0 0.23100019 -0.20020008 0.43120027 -0.43120003 0.43120027 Z "/>
        </symbol>
        <symbol id="gC2ECDC9EF090874DAAF84E8A29223EAF" overflow="visible">
            <path d="M 0 0m 2.499 -0.07 c 0.67900014 0 1.302 0.322 1.7779999 0.945 c -0.034999847 0.06300002 -0.083999634 0.10500002 -0.16099977 0.10500002 c -0.49699998 -0.546 -0.97300005 -0.763 -1.6240001 -0.763 c -0.94500005 0 -1.5960001 1.064 -1.5960001 2.086 c 0 0.602 0.16100001 1.1060002 0.413 1.4210002 c 0.35000002 0.4269998 0.75600004 0.6229999 1.1200001 0.6229999 c 0.9660001 0 1.3510001 -0.5740001 1.533 -1.1760001 c 0.08399987 -0.027999878 0.15400004 -0.0069999695 0.23100019 0.035000086 c -0.035000324 0.36400008 -0.08400011 0.70000005 -0.15400028 1.0850003 c -0.35699987 0.034999847 -0.67199993 0.31499958 -1.533 0.31499958 c -0.595 0 -1.092 -0.21700001 -1.505 -0.5949998 c -0.462 -0.42700005 -0.74200004 -1.1130002 -0.74200004 -1.8410001 c 0 -1.218 0.735 -2.24 2.24 -2.24 Z "/>
        </symbol>
        <symbol id="g7548143309A032DFF2B43787286CEA7B" overflow="visible">
            <path d="M 0 0m 0.287 1.4350001 c 0 -0.71400005 0.476 -1.5050001 1.47 -1.5050001 c 0.44800007 0 0.791 0.16100001 1.0289999 0.392 c 0.31500006 0.308 0.45500016 0.74899995 0.45500016 1.176 c 0 0.72800004 -0.39900017 1.5750002 -1.4700001 1.5750002 c -0.462 0 -0.84 -0.18900013 -1.099 -0.49 c -0.25200003 -0.30100012 -0.38500005 -0.70700014 -0.38500005 -1.1480001 Z m 1.379 1.393 c 0.6020001 0 0.97300017 -0.546 0.97300017 -1.554 c 0 -0.882 -0.45500016 -1.099 -0.78400016 -1.099 c -0.7279999 0 -0.966 0.882 -0.966 1.421 c 0 0.6090001 0.14700001 1.232 0.777 1.232 Z "/>
        </symbol>
        <symbol id="g8523026ED409FDF2966375C6B35E876C" overflow="visible">
            <path d="M 0 0m 1.288 2.506 c -0.041999936 -0.049000025 -0.08399999 -0.062999964 -0.08399999 0 c -0.0069999695 0.18900013 -0.020999908 0.46200013 -0.055999994 0.53200006 c -0.013999939 0.035000086 -0.027999997 0.055999994 -0.08399999 0.055999994 c -0.19599998 -0.0769999 -0.37799996 -0.1400001 -0.861 -0.20300007 c -0.013999999 -0.042000055 0 -0.15400004 0.013999999 -0.19599986 c 0.37800002 -0.035000086 0.45500004 -0.07000017 0.45500004 -0.47600007 v -1.365 c 0 -0.574 -0.07000005 -0.602 -0.49000004 -0.637 c -0.04200001 -0.041999996 -0.04200001 -0.18900001 0 -0.231 c 0.21000001 0.007 0.49000004 0.014 0.77 0.014 c 0.27999997 0 0.49 -0.007 0.70000005 -0.014 c 0.041999936 0.042000003 0.041999936 0.18900001 0 0.231 c -0.357 0.034999996 -0.42700005 0.06299999 -0.42700005 0.637 v 1.148 c 0 0.14700007 0.062999964 0.23099995 0.11900008 0.2939999 c 0.2659999 0.25900006 0.581 0.4130001 0.85399985 0.4130001 c 0.1400001 0 0.28700018 -0.09100008 0.37100005 -0.2520001 c 0.07000017 -0.13999987 0.08400011 -0.329 0.08400011 -0.5389999 v -1.0640001 c 0 -0.574 -0.06999993 -0.602 -0.43400002 -0.637 c -0.035000086 -0.041999996 -0.035000086 -0.18900001 0 -0.231 c 0.21000004 0.007 0.43400002 0.014 0.714 0.014 c 0.27999997 0 0.53200006 -0.007 0.7420001 -0.014 c 0.034999847 0.042000003 0.034999847 0.18900001 0 0.231 c -0.3920002 0.034999996 -0.4690001 0.06299999 -0.4690001 0.637 v 1.043 c 0 0.385 -0.027999878 0.72099996 -0.18899989 0.93799996 c -0.1190002 0.15400004 -0.3360002 0.23800015 -0.5810001 0.23800015 c -0.34299994 0 -0.735 -0.09100008 -1.1480001 -0.56700015 Z "/>
        </symbol>
        <symbol id="g27D3D0B7DD9D375B0AF4EBBACD10B52E" overflow="visible">
            <path d="M 0 0m 2.275 2.786 c 0.37800002 -0.027999878 0.42000008 -0.11199999 0.273 -0.46899986 l -0.56700003 -1.3720001 c -0.11199999 -0.273 -0.14699996 -0.273 -0.25900006 0.020999968 l -0.50399995 1.3510001 c -0.12600005 0.33599997 -0.15400004 0.41999984 0.21700001 0.46899986 c 0.041999936 0.042000055 0.041999936 0.18900013 0 0.23100019 c -0.23100007 -0.007000208 -0.476 -0.014000177 -0.707 -0.014000177 c -0.23100004 0 -0.44100004 0.0069999695 -0.651 0.014000177 c -0.042 -0.042000055 -0.042 -0.18900013 0 -0.23100019 c 0.37100002 -0.041999817 0.42000002 -0.15400004 0.56 -0.5109999 l 0.89599997 -2.2120001 c 0.042000055 -0.105000004 0.08400011 -0.14700001 0.17500007 -0.14700001 c 0.06999993 0 0.11899996 0.042000003 0.16799998 0.16100001 l 0.9310001 2.1910002 c 0.1329999 0.30799985 0.21000004 0.48300004 0.602 0.5179999 c 0.042000055 0.042000055 0.042000055 0.18900013 0 0.23100019 c -0.1400001 -0.007000208 -0.3080001 -0.014000177 -0.49 -0.014000177 c -0.23099995 0 -0.4690001 0.0069999695 -0.64400005 0.014000177 c -0.042000055 -0.042000055 -0.042000055 -0.18900013 0 -0.23100019 Z "/>
        </symbol>
        <symbol id="g46B7AB6CA9937B9E26ADB21F3EB4C079" overflow="visible">
            <path d="M 0 0m 0.39900002 0.301 c 0 -0.203 0.16800001 -0.371 0.37100002 -0.371 c 0.20300001 0 0.371 0.16800001 0.371 0.371 c 0 0.20300001 -0.16799998 0.37100005 -0.371 0.37100005 c -0.20300001 0 -0.37100002 -0.16800004 -0.37100002 -0.37100005 Z "/>
        </symbol>
        <symbol id="g24BCFF69F3312419CC09EB3052940659" overflow="visible">
            <path d="M 0 0m 1.3230001 0.85400003 v 1.1830001 c 0.58799994 0 0.7210001 -0.10500014 0.8189999 -0.26600015 l 0.7490001 -1.2179999 c 0.20300007 -0.32900003 0.5040002 -0.623 0.924 -0.623 c 0.10500002 0 0.22399998 0.013999999 0.29400015 0.049 c 0.027999878 0.049000002 0.020999908 0.112 -0.0069999695 0.168 c -0.31500006 0 -0.49 0.23800002 -0.67200017 0.53900003 l -0.88199997 1.47 c 0.30099988 0.09800005 0.931 0.4619999 0.931 1.197 c 0 0.3499999 -0.11899996 0.63699985 -0.37100005 0.875 c -0.33599997 0.31500006 -0.77 0.33599997 -1.211 0.33599997 c -0.329 0 -0.623 -0.048999786 -0.875 -0.048999786 c -0.24500006 0 -0.57400006 0.0069999695 -0.90300006 0.013999939 c -0.042000003 -0.042000294 -0.042000003 -0.18900013 0 -0.23099995 c 0.49 -0.021000385 0.609 -0.056000233 0.609 -0.6370003 v -2.807 c 0 -0.58100003 -0.11900002 -0.61600006 -0.609 -0.637 c -0.042000003 -0.041999996 -0.042000003 -0.18900001 0 -0.231 c 0.315 0.007 0.644 0.014 0.91 0.014 c 0.26600003 0 0.595 -0.007 0.903 -0.014 c 0.042000055 0.042000003 0.042000055 0.18900001 0 0.231 c -0.49 0.020999998 -0.60899997 0.055999994 -0.60899997 0.637 Z m 0.581 3.4720001 c 0.42700005 0 0.931 -0.15400028 0.931 -0.98 c 0 -0.875 -0.49699998 -1.0710001 -1.176 -1.0710001 h -0.33599997 v 1.6029999 c 0 0.2030003 0.08399999 0.4480002 0.581 0.4480002 Z "/>
        </symbol>
        <symbol id="gB98B2E1621B238614D4D4A85FFC9E6ED" overflow="visible">
            <path d="M 0 0m 2.7020001 0.651 c -0.25900006 -0.266 -0.46200013 -0.37800002 -0.86800003 -0.37800002 c -0.2520001 0 -0.5460001 0.14700001 -0.76300013 0.504 c -0.13999993 0.231 -0.22399998 0.55300003 -0.22399998 0.95900005 l 1.8620001 -0.014000058 c 0.08399987 0 0.1329999 0.042000055 0.1329999 0.11900008 c 0 0.58800006 -0.21000004 1.2179999 -1.183 1.2179999 c -0.60899997 0 -1.4000001 -0.58099985 -1.4000001 -1.645 c 0 -0.39199996 0.09800002 -0.77000004 0.329 -1.036 c 0.23800004 -0.28000003 0.5670001 -0.448 1.0710001 -0.448 c 0.53199995 0 0.90999997 0.245 1.1899999 0.609 c -0.020999908 0.06999999 -0.062999964 0.10499996 -0.14699984 0.11199999 Z m -1.8340001 1.3230001 c 0.13300002 0.791 0.623 0.854 0.791 0.854 c 0.26600003 0 0.581 -0.14700007 0.581 -0.7349999 c 0 -0.0630002 -0.027999878 -0.09800017 -0.10500002 -0.09800017 Z "/>
        </symbol>
        <symbol id="gDDA3F65CBFF8515957FA225D1131D59B" overflow="visible">
            <path d="M 0 0m 1.043 0 h 1.4910002 c 0.18899989 0 0.83299994 -0.014 0.83299994 -0.014 c 0.06999993 0.35000002 0.1400001 0.805 0.18199992 1.1690001 c -0.06999993 0.034999967 -0.14699984 0.048999906 -0.23099995 0.034999967 c -0.13999987 -0.504 -0.39899993 -0.91700006 -1.141 -0.91700006 h -0.44099998 c -0.273 0 -0.39900005 0.13300002 -0.39900005 0.49 v 2.898 c 0 0.5810001 0.11900008 0.61599994 0.6090001 0.6370003 c 0.041999936 0.041999817 0.041999936 0.18899965 0 0.23099995 c -0.31500006 -0.0069999695 -0.64400005 -0.013999939 -0.9100001 -0.013999939 c -0.25199997 0 -0.581 0.0069999695 -0.903 0.013999939 c -0.041999996 -0.042000294 -0.041999996 -0.18900013 0 -0.23099995 c 0.49 -0.021000385 0.609 -0.056000233 0.609 -0.6370003 v -2.807 c 0 -0.58100003 -0.11900002 -0.61600006 -0.609 -0.637 c -0.041999996 -0.041999996 -0.041999996 -0.18900001 0 -0.231 c 0.273 0.007 0.672 0.014 0.90999997 0.014 Z "/>
        </symbol>
        <symbol id="g99AB49E97B206A185B6B76AB58B030C9" overflow="visible">
            <path d="M 0 0m 1.204 3.661 c 0 0.5810001 0.10500002 0.61599994 0.64400005 0.6370003 c 0.042000055 0.041999817 0.042000055 0.18899965 0 0.23099995 c -0.329 -0.0069999695 -0.67200005 -0.013999939 -0.945 -0.013999939 c -0.27300006 0 -0.56000006 0.0069999695 -0.83300006 0.013999939 c -0.042 -0.042000294 -0.042 -0.18900013 0 -0.23099995 c 0.42000002 -0.021000385 0.53900003 -0.056000233 0.53900003 -0.6370003 v -2.03 c 0 -1.428 0.92399997 -1.7010001 1.638 -1.7010001 c 1.4350002 0 1.7780001 0.889 1.7780001 2.135 v 1.596 c 0 0.5600002 0.11899996 0.58800006 0.53900003 0.6370003 c 0.041999817 0.041999817 0.041999817 0.18899965 0 0.23099995 c -0.2659998 -0.0069999695 -0.553 -0.013999939 -0.714 -0.013999939 c -0.14700007 0 -0.49 0.0069999695 -0.81200004 0.013999939 c -0.042000055 -0.042000294 -0.042000055 -0.18900013 0 -0.23099995 c 0.5250001 -0.049000263 0.64400005 -0.07000017 0.64400005 -0.6370003 v -1.722 c 0 -0.7839999 -0.10500002 -1.722 -1.2880001 -1.722 c -0.33599997 0 -0.623 0.12600002 -0.83300006 0.329 c -0.34299994 0.329 -0.357 0.86100006 -0.357 1.3160001 Z "/>
        </symbol>
        <symbol id="gE4CE94EB872378D700E5D89A4D9072AE" overflow="visible">
            <path d="M 0 0m 0.72800004 3.661 v -2.807 c 0 -0.58100003 -0.11900002 -0.61600006 -0.609 -0.637 c -0.042000003 -0.041999996 -0.042000003 -0.18900001 0 -0.231 c 0.315 0.007 0.658 0.014 0.91 0.014 c 0.245 0 0.658 -0.007 1.0080001 -0.014 c 0.041999817 0.042000003 0.041999817 0.18900001 0 0.231 c -0.5460001 0.027999997 -0.7140001 0.055999994 -0.7140001 0.637 v 1.19 c 0.15399992 -0.049000144 0.32200003 -0.07000005 0.56700003 -0.07000005 c 1.2739999 0 1.6589999 0.83300006 1.6589999 1.4280001 c 0 0.41299987 -0.273 1.162 -1.568 1.162 c -0.26600003 0 -0.679 -0.048999786 -0.959 -0.048999786 c -0.25900006 0 -0.623 0.0069999695 -0.90300006 0.013999939 c -0.042000003 -0.042000294 -0.042000003 -0.18900013 0 -0.23099995 c 0.49 -0.021000385 0.609 -0.056000233 0.609 -0.6370003 Z m 0.595 0.21700001 c 0 0.2030003 0.10500002 0.4480002 0.60899997 0.4480002 c 0.48299992 0 0.96599996 -0.16100025 0.96599996 -1.0500002 c 0 -0.75600004 -0.36399984 -1.0639999 -1.043 -1.0639999 c -0.17499995 0 -0.45499992 0.013999939 -0.53199995 0.034999847 Z "/>
        </symbol>
        <symbol id="g1DEF6B9A4F1ECEFE891E0D55D31D6F6D" overflow="visible">
            <path d="M 0 0m 0.665 0.85400003 c 0 -0.58100003 -0.07700002 -0.61600006 -0.504 -0.637 c -0.041999996 -0.041999996 -0.041999996 -0.18900001 0 -0.231 c 0.24500002 0.007 0.504 0.014 0.78400004 0.014 c 0.27999997 0 0.546 -0.007 0.77699995 -0.014 c 0.042000055 0.042000003 0.042000055 0.18900001 0 0.231 c -0.42699993 0.020999998 -0.50399995 0.055999994 -0.50399995 0.637 v 3.2270002 c 0 0.45499992 0.027999997 0.73499966 0.027999997 0.73499966 c 0 0.049000263 -0.027999997 0.07000017 -0.09099996 0.07000017 c -0.17500007 -0.07000017 -0.70000005 -0.16800022 -0.9800001 -0.18900013 c -0.0140000135 -0.055999756 0 -0.16799974 0.041999996 -0.21000004 c 0.40600002 -0.027999878 0.448 -0.048999786 0.448 -0.5739999 Z "/>
        </symbol>
        <symbol id="g36E07DCC91796328CECD6592B039C7D3" overflow="visible">
            <path d="M 0 0m 1.036 4.5150003 c -0.25199997 0 -0.623 0.0069999695 -0.903 0.013999939 c -0.041999996 -0.042000294 -0.041999996 -0.18900013 0 -0.23099995 c 0.49 -0.021000385 0.609 -0.056000233 0.609 -0.6370003 v -2.807 c 0 -0.58100003 -0.11900002 -0.61600006 -0.609 -0.637 c -0.041999996 -0.041999996 -0.041999996 -0.18900001 0 -0.231 c 0.273 0.007 0.644 0.014 0.90999997 0.014 c 0.25900006 0 0.5530001 -0.014 1.2740002 -0.014 c 0.987 0 2.2889998 0.448 2.2889998 2.17 c 0 1.302 -1.0709999 2.3730001 -2.415 2.3730001 c -0.49699998 0 -0.88199997 -0.013999939 -1.155 -0.013999939 Z m 0.301 -3.9270003 v 3.3600001 c 0 0.24500012 0.245 0.34300017 0.58800006 0.34300017 c 1.512 0 2.0089998 -1.2250004 2.0089998 -2.3030005 c 0 -1.414 -0.8469999 -1.764 -1.8339999 -1.764 c -0.6860001 0 -0.76300013 0.14000002 -0.76300013 0.364 Z "/>
        </symbol>
        <symbol id="gB33EB123B5A959A38352132A42EA623C" overflow="visible">
            <path d="M 0 0m 2.786 0.637 c -0.027999878 0.06300002 -0.08399987 0.09100002 -0.14699984 0.09799999 c -0.23800015 -0.308 -0.53900003 -0.462 -0.84000015 -0.462 c -0.51100004 0 -0.938 0.518 -0.938 1.337 c 0 0.7700001 0.33600003 1.232 0.79800004 1.232 c 0.413 0 0.46899998 -0.24499989 0.4970001 -0.49 c 0.020999908 -0.18899989 0.11899996 -0.25199986 0.26600003 -0.25199986 c 0.14699984 0 0.34299994 0.09099984 0.34299994 0.30799985 c 0 0.385 -0.39899993 0.6650002 -1.0710001 0.6650002 c -0.69299996 0 -1.435 -0.62300014 -1.435 -1.6170001 c 0 -0.90300006 0.504 -1.5260001 1.3860002 -1.5260001 c 0.41999996 0 0.791 0.133 1.1409999 0.707 Z "/>
        </symbol>
        <symbol id="g2383102DA88AB0998F706FA90E16D426" overflow="visible">
            <path d="M 0 0m 3.108 2.709 c 0.13300014 0 0.25900006 0.12599993 0.25900006 0.26600003 c 0 0.14699984 -0.1329999 0.25900006 -0.32200003 0.25900006 c -0.18199992 0 -0.5179999 -0.1190002 -0.70000005 -0.3570001 c -0.08399987 0.055999994 -0.31500006 0.1960001 -0.7279999 0.1960001 c -0.6230001 0 -1.197 -0.42000008 -1.197 -1.0640001 c 0 -0.37800002 0.16799998 -0.595 0.36400002 -0.78400004 c -0.19600004 -0.16799998 -0.30800003 -0.46899998 -0.30800003 -0.707 c 0 -0.252 0.13999999 -0.448 0.32200003 -0.53900003 c -0.37800002 -0.224 -0.574 -0.546 -0.574 -0.847 c 0 -0.60899997 0.574 -0.798 1.113 -0.798 c 0.94500005 0 1.9670001 0.45499992 1.9670001 1.211 c 0 0.224 -0.10500002 0.39900002 -0.3080001 0.56700003 c -0.273 0.22400002 -0.763 0.23100002 -1.022 0.23100002 c -0.12600005 0 -0.301 -0.014000028 -0.4690001 -0.035000026 c -0.1049999 -0.0069999993 -0.17499995 -0.013999999 -0.20999992 -0.013999999 c -0.20300007 0 -0.44800007 0.09800002 -0.44800007 0.39900002 c 0 0.13999999 0.041999996 0.287 0.12600005 0.40599996 c 0.16799998 -0.09799993 0.36399996 -0.14699996 0.63699996 -0.14699996 c 0.61600006 0 1.183 0.385 1.183 1.071 c 0 0.329 -0.09799981 0.5180001 -0.30099988 0.72800016 c 0.049000025 0.06999993 0.18899989 0.16799998 0.27999997 0.16799998 c 0.049000025 0 0.09800005 -0.021000147 0.1400001 -0.08400011 c 0.027999878 -0.055999994 0.11899996 -0.12599993 0.19599986 -0.12599993 Z m -2.184 -2.779 c 0.07700002 -0.021000005 0.18900001 -0.035000004 0.27999997 -0.035000004 c 0.21700001 0 0.4130001 0.020999998 0.51100004 0.020999998 c 0.35000002 0 0.64399993 -0.0069999993 0.847 -0.119 c 0.273 -0.15400001 0.3570001 -0.252 0.3570001 -0.43400002 c 0 -0.504 -0.7420001 -0.77000004 -1.3720001 -0.77000004 c -0.25199997 0 -0.84000003 0.20300007 -0.84000003 0.679 c 0 0.23800004 0.013999999 0.41300005 0.21700001 0.65800005 Z m 1.309 2.023 c 0 -0.651 -0.329 -0.78400004 -0.58799994 -0.78400004 c -0.58800006 0 -0.6510001 0.49699998 -0.6510001 0.94500005 c 0 0.49 0.17500001 0.7420001 0.56 0.7420001 c 0.44099998 0 0.679 -0.32200003 0.679 -0.9030001 Z "/>
        </symbol>
        <symbol id="g255CCFEF092867A437185BE69B43167C" overflow="visible">
            <path d="M 0 0m 1.2670001 0.85400003 v 1.3929999 c 0 0.35000014 0.027999997 0.7980001 0.027999997 0.7980001 c 0 0.028000116 -0.035000086 0.049000025 -0.09100008 0.049000025 c -0.19599998 -0.0769999 -0.47599995 -0.1400001 -0.959 -0.20300007 c -0.013999999 -0.042000055 0 -0.15400004 0.013999999 -0.19599986 c 0.385 -0.035000086 0.45500004 -0.07700014 0.45500004 -0.47600007 v -1.365 c 0 -0.58100003 -0.07700002 -0.602 -0.50400007 -0.637 c -0.041999996 -0.041999996 -0.041999996 -0.18900001 0 -0.231 c 0.231 0.007 0.50400007 0.014 0.78400004 0.014 c 0.28000003 0 0.54600006 -0.007 0.777 -0.014 c 0.042000055 0.042000003 0.042000055 0.18900001 0 0.231 c -0.42699993 0.027999997 -0.50399995 0.055999994 -0.50399995 0.637 Z m -0.6370001 3.3390002 c 0 -0.18200016 0.16800004 -0.36400008 0.33600003 -0.36400008 c 0.19600004 0 0.36400002 0.18899989 0.36400002 0.33599973 c 0 0.16800022 -0.14699996 0.36400032 -0.33600003 0.36400032 c -0.16799998 0 -0.36400002 -0.16800022 -0.36400002 -0.33599997 Z "/>
        </symbol>
        <symbol id="g243791A795881C4FD189721C60356CC9" overflow="visible">
            <path d="M 0 0m 0.33600003 0.966 c 0.027999997 -0.343 0.048999995 -0.67200005 0.048999995 -0.966 c 0.06999999 0.014 0.14000002 0.021000002 0.17499998 0.021000002 c 0.049000025 0 0.09100002 0 0.14000005 -0.014000001 c 0.18899995 -0.049000002 0.37800002 -0.077 0.63699996 -0.077 c 0.39200008 0 1.113 0.18900001 1.113 0.882 c 0 0.47599995 -0.34299994 0.75600004 -0.819 0.931 c -0.41999996 0.16100001 -0.7 0.26600003 -0.7 0.651 c 0 0.28699994 0.25200003 0.44799995 0.48999995 0.44799995 c 0.15400004 0 0.56000006 -0.055999994 0.651 -0.651 c 0.042000055 -0.041999817 0.18200016 -0.034999847 0.22399998 0.0069999695 c 0.021000147 0.2520001 0.035000086 0.51100016 0.042000055 0.7420001 c -0.21700001 0.035000086 -0.553 0.13300014 -0.91700006 0.13300014 c -0.51799995 0 -0.987 -0.3360002 -0.987 -0.78400016 c 0 -0.51100004 0.231 -0.72800004 0.77 -0.952 c 0.5810001 -0.23800004 0.7140001 -0.385 0.7140001 -0.686 c 0 -0.34300002 -0.33600008 -0.49 -0.595 -0.49 c -0.273 0 -0.42700005 0.091000006 -0.49700004 0.168 c -0.15399998 0.16100001 -0.231 0.46900004 -0.273 0.64400005 c -0.041999996 0.041999936 -0.17500001 0.034999967 -0.21700001 -0.007000029 Z "/>
        </symbol>
        <symbol id="g4F7080976C6F32BACE600ABEA90E42CF" overflow="visible">
            <path d="M 0 0m 0.301 3.003 c -0.09799999 0 -0.12599999 -0.08399987 -0.12599999 -0.13999987 v -0.09100008 c 0 -0.035000086 0.0069999993 -0.042000055 0.034999996 -0.042000055 h 0.41300002 v -2.1069999 c 0 -0.49700004 0.21700001 -0.693 0.53900003 -0.693 c 0.32200003 0 0.67200005 0.15400001 0.94500005 0.462 c -0.013999939 0.06999999 -0.055999994 0.11199999 -0.12600005 0.11900002 c -0.18200004 -0.14000002 -0.39199996 -0.19600004 -0.574 -0.19600004 c -0.18900001 0 -0.23100007 0.21000004 -0.23100007 0.64400005 v 1.7709999 h 0.72800004 c 0.07000005 0 0.16799998 0.028000116 0.16799998 0.09100008 v 0.1400001 c 0 0.027999878 -0.020999908 0.041999817 -0.055999994 0.041999817 h -0.84000003 v 0.273 c 0 0.45500016 0.027999997 0.73500013 0.027999997 0.73500013 c 0 0.041999817 -0.020999908 0.0630002 -0.055999994 0.0630002 c -0.027999997 0 -0.09099996 -0.028000355 -0.15399998 -0.0630002 c -0.07699996 -0.042000055 -0.14700001 -0.07700014 -0.23799998 -0.09800005 c -0.08399999 -0.027999878 -0.15400004 -0.049000025 -0.15400004 -0.09800005 c 0 -0.08399987 0.021000028 -0.034999847 0.021000028 -0.81200004 Z "/>
        </symbol>
    </defs>
</svg>
