<svg class="typst-doc" viewBox="0 0 412.44922836183565 102.05029296875" width="412.44922836183565pt" height="102.05029296875pt" xmlns="http://www.w3.org/2000/svg" xmlns:xlink="http://www.w3.org/1999/xlink" xmlns:h5="http://www.w3.org/1999/xhtml">
    <path class="typst-shape" fill="#ffffff" fill-rule="nonzero" d="M 0 0v 102.05029 h 412.44922 v -102.05029 Z "/>
    <g>
        <g class="typst-group" transform="matrix(1 0 0 1 8 8)">
            <g>
                <path class="typst-shape" fill="none" transform="matrix(1 0 0 1 0 38.7685546875)" d="M 0 0h 39.73535 v 8.513184 h -39.73535 v -8.513184 Z "/>
                <g class="typst-group">
                    <g>
                        <g class="typst-group" transform="matrix(1 0 0 1 -0.0000001085137822468193 38.768554673351375)">
                            <g>
                                <g class="typst-text" transform="matrix(1 0 0 -1 0 8.357421875)">
                                    <use xlink:href="#g4262454FA01C01558042450DCCA9A8AA" x="0" y="0" fill="#000000" fill-rule="nonzero"/>
                                    <use xlink:href="#g5200F7383C1A3D04BAB750515DE0AD98" x="6.62255859375" y="0" fill="#000000" fill-rule="nonzero"/>
                                    <use xlink:href="#g4262454FA01C01558042450DCCA9A8AA" x="13.2451171875" y="0" fill="#000000" fill-rule="nonzero"/>
                                    <use xlink:href="#g4262454FA01C01558042450DCCA9A8AA" x="19.86767578125" y="0" fill="#000000" fill-rule="nonzero"/>
                                    <use xlink:href="#g5200F7383C1A3D04BAB750515DE0AD98" x="26.490234375" y="0" fill="#000000" fill-rule="nonzero"/>
                                    <use xlink:href="#g694309F21BDB32DE67EAAC2AD2E3CFDC" x="33.11279296875" y="0" fill="#000000" fill-rule="nonzero"/>
                                </g>
                            </g>
                        </g>
                    </g>
                </g>
                <path class="typst-shape" fill="none" transform="matrix(1 0 0 1 15.929675781250001 52.02455199618603)" d="M 0 0h 7.876 v 7.513 h -7.876 v -7.513 Z "/>
                <g class="typst-group">
                    <g>
                        <g class="typst-group" transform="matrix(1 0 0 1 15.929675749753937 52.02455191744587)">
                            <g>
                                <g class="typst-text" transform="matrix(1 0 0 -1 0 7.513000000000001)">
                                    <use xlink:href="#g9B2579AD8646CFD7F39631319A198A7D" x="0" y="0" fill="#000000" fill-rule="nonzero"/>
                                </g>
                            </g>
                        </g>
                    </g>
                </g>
                <path class="typst-shape" fill="none" transform="matrix(1 0 0 1 113.38582677165354 0)" d="M 0 0h 39.73535 v 86.05029 h -39.73535 v -86.05029 Z "/>
                <g class="typst-group">
                    <g>
                        <g class="typst-group" transform="matrix(1 0 0 1 113.38582666313977 -0.0000000983021690924542)">
                            <g>
                                <g class="typst-text" transform="matrix(1 0 0 -1 0 8.357421875)">
                                    <use xlink:href="#g4262454FA01C01558042450DCCA9A8AA" x="0" y="0" fill="#ff0000" fill-rule="nonzero"/>
                                    <use xlink:href="#g4262454FA01C01558042450DCCA9A8AA" x="6.62255859375" y="0" fill="#ff0000" fill-rule="nonzero"/>
                                    <use xlink:href="#g5200F7383C1A3D04BAB750515DE0AD98" x="13.2451171875" y="0" fill="#ff0000" fill-rule="nonzero"/>
                                    <use xlink:href="#g694309F21BDB32DE67EAAC2AD2E3CFDC" x="19.86767578125" y="0" fill="#ff0000" fill-rule="nonzero"/>
                                </g>
                                <g class="typst-text" transform="matrix(1 0 0 -1 26.490234375 8.357421875)">
                                    <use xlink:href="#g4262454FA01C01558042450DCCA9A8AA" x="0" y="0" fill="#000000" fill-rule="nonzero"/>
                                    <use xlink:href="#g5200F7383C1A3D04BAB750515DE0AD98" x="6.62255859375" y="0" fill="#000000" fill-rule="nonzero"/>
                                </g>
                                <g class="typst-text" transform="matrix(1 0 0 -1 0 23.864843750000002)">
                                    <use xlink:href="#g4262454FA01C01558042450DCCA9A8AA" x="0" y="0" fill="#ff0000" fill-rule="nonzero"/>
                                    <use xlink:href="#g5200F7383C1A3D04BAB750515DE0AD98" x="6.62255859375" y="0" fill="#ff0000" fill-rule="nonzero"/>
                                    <use xlink:href="#g4262454FA01C01558042450DCCA9A8AA" x="13.2451171875" y="0" fill="#ff0000" fill-rule="nonzero"/>
                                    <use xlink:href="#g4262454FA01C01558042450DCCA9A8AA" x="19.86767578125" y="0" fill="#ff0000" fill-rule="nonzero"/>
                                    <use xlink:href="#g5200F7383C1A3D04BAB750515DE0AD98" x="26.490234375" y="0" fill="#ff0000" fill-rule="nonzero"/>
                                    <use xlink:href="#g694309F21BDB32DE67EAAC2AD2E3CFDC" x="33.11279296875" y="0" fill="#ff0000" fill-rule="nonzero"/>
                                </g>
                                <g class="typst-text" transform="matrix(1 0 0 -1 0 39.372265625000004)">
                                    <use xlink:href="#g4262454FA01C01558042450DCCA9A8AA" x="0" y="0" fill="#ff0000" fill-rule="nonzero"/>
                                    <use xlink:href="#g5200F7383C1A3D04BAB750515DE0AD98" x="6.62255859375" y="0" fill="#ff0000" fill-rule="nonzero"/>
                                    <use xlink:href="#g694309F21BDB32DE67EAAC2AD2E3CFDC" x="13.2451171875" y="0" fill="#ff0000" fill-rule="nonzero"/>
                                </g>
                                <g class="typst-text" transform="matrix(1 0 0 -1 19.86767578125 39.372265625000004)">
                                    <use xlink:href="#g4262454FA01C01558042450DCCA9A8AA" x="0" y="0" fill="#000000" fill-rule="nonzero"/>
                                    <use xlink:href="#g5200F7383C1A3D04BAB750515DE0AD98" x="6.62255859375" y="0" fill="#000000" fill-rule="nonzero"/>
                                    <use xlink:href="#g4262454FA01C01558042450DCCA9A8AA" x="13.2451171875" y="0" fill="#000000" fill-rule="nonzero"/>
                                </g>
                                <g class="typst-text" transform="matrix(1 0 0 -1 0 54.8796875)">
                                    <use xlink:href="#g5200F7383C1A3D04BAB750515DE0AD98" x="0" y="0" fill="#ff0000" fill-rule="nonzero"/>
                                    <use xlink:href="#g4262454FA01C01558042450DCCA9A8AA" x="6.62255859375" y="0" fill="#ff0000" fill-rule="nonzero"/>
                                    <use xlink:href="#g4262454FA01C01558042450DCCA9A8AA" x="13.2451171875" y="0" fill="#ff0000" fill-rule="nonzero"/>
                                    <use xlink:href="#g5200F7383C1A3D04BAB750515DE0AD98" x="19.86767578125" y="0" fill="#ff0000" fill-rule="nonzero"/>
                                    <use xlink:href="#g694309F21BDB32DE67EAAC2AD2E3CFDC" x="26.490234375" y="0" fill="#ff0000" fill-rule="nonzero"/>
                                </g>
                                <g class="typst-text" transform="matrix(1 0 0 -1 33.11279296875 54.8796875)">
                                    <use xlink:href="#g4262454FA01C01558042450DCCA9A8AA" x="0" y="0" fill="#000000" fill-rule="nonzero"/>
                                </g>
                                <g class="typst-text" transform="matrix(1 0 0 -1 0 70.38710937500001)">
                                    <use xlink:href="#g5200F7383C1A3D04BAB750515DE0AD98" x="0" y="0" fill="#ff0000" fill-rule="nonzero"/>
                                    <use xlink:href="#g694309F21BDB32DE67EAAC2AD2E3CFDC" x="6.62255859375" y="0" fill="#ff0000" fill-rule="nonzero"/>
                                </g>
                                <g class="typst-text" transform="matrix(1 0 0 -1 13.2451171875 70.38710937500001)">
                                    <use xlink:href="#g4262454FA01C01558042450DCCA9A8AA" x="0" y="0" fill="#000000" fill-rule="nonzero"/>
                                    <use xlink:href="#g5200F7383C1A3D04BAB750515DE0AD98" x="6.62255859375" y="0" fill="#000000" fill-rule="nonzero"/>
                                    <use xlink:href="#g4262454FA01C01558042450DCCA9A8AA" x="13.2451171875" y="0" fill="#000000" fill-rule="nonzero"/>
                                    <use xlink:href="#g4262454FA01C01558042450DCCA9A8AA" x="19.86767578125" y="0" fill="#000000" fill-rule="nonzero"/>
                                </g>
                                <g class="typst-text" transform="matrix(1 0 0 -1 0 85.89453125)">
                                    <use xlink:href="#g694309F21BDB32DE67EAAC2AD2E3CFDC" x="0" y="0" fill="#ff0000" fill-rule="nonzero"/>
                                </g>
                                <g class="typst-text" transform="matrix(1 0 0 -1 6.62255859375 85.89453125)">
                                    <use xlink:href="#g4262454FA01C01558042450DCCA9A8AA" x="0" y="0" fill="#000000" fill-rule="nonzero"/>
                                    <use xlink:href="#g5200F7383C1A3D04BAB750515DE0AD98" x="6.62255859375" y="0" fill="#000000" fill-rule="nonzero"/>
                                    <use xlink:href="#g4262454FA01C01558042450DCCA9A8AA" x="13.2451171875" y="0" fill="#000000" fill-rule="nonzero"/>
                                    <use xlink:href="#g4262454FA01C01558042450DCCA9A8AA" x="19.86767578125" y="0" fill="#000000" fill-rule="nonzero"/>
                                    <use xlink:href="#g5200F7383C1A3D04BAB750515DE0AD98" x="26.490234375" y="0" fill="#000000" fill-rule="nonzero"/>
                                </g>
                            </g>
                        </g>
                    </g>
                </g>
                <path class="typst-shape" fill="none" transform="matrix(1 0 0 1 226.77165354330708 0)" d="M 0 0h 39.73535 v 86.05029 h -39.73535 v -86.05029 Z "/>
                <g class="typst-group">
                    <g>
                        <g class="typst-group" transform="matrix(1 0 0 1 226.7716534347933 -0.0000000983021690924542)">
                            <g>
                                <g class="typst-text" transform="matrix(1 0 0 -1 0 8.357421875)">
                                    <use xlink:href="#g4262454FA01C01558042450DCCA9A8AA" x="0" y="0" fill="#000000" fill-rule="nonzero"/>
                                    <use xlink:href="#g4262454FA01C01558042450DCCA9A8AA" x="6.62255859375" y="0" fill="#000000" fill-rule="nonzero"/>
                                    <use xlink:href="#g5200F7383C1A3D04BAB750515DE0AD98" x="13.2451171875" y="0" fill="#000000" fill-rule="nonzero"/>
                                    <use xlink:href="#g694309F21BDB32DE67EAAC2AD2E3CFDC" x="19.86767578125" y="0" fill="#000000" fill-rule="nonzero"/>
                                    <use xlink:href="#g4262454FA01C01558042450DCCA9A8AA" x="26.490234375" y="0" fill="#000000" fill-rule="nonzero"/>
                                </g>
                                <g class="typst-text" transform="matrix(1 0 0 -1 33.11279296875 8.357421875)">
                                    <use xlink:href="#g5200F7383C1A3D04BAB750515DE0AD98" x="0" y="0" fill="#ff0000" fill-rule="nonzero"/>
                                </g>
                                <g class="typst-text" transform="matrix(1 0 0 -1 0 23.864843750000002)">
                                    <use xlink:href="#g4262454FA01C01558042450DCCA9A8AA" x="0" y="0" fill="#ff0000" fill-rule="nonzero"/>
                                    <use xlink:href="#g5200F7383C1A3D04BAB750515DE0AD98" x="6.62255859375" y="0" fill="#ff0000" fill-rule="nonzero"/>
                                    <use xlink:href="#g4262454FA01C01558042450DCCA9A8AA" x="13.2451171875" y="0" fill="#ff0000" fill-rule="nonzero"/>
                                    <use xlink:href="#g4262454FA01C01558042450DCCA9A8AA" x="19.86767578125" y="0" fill="#ff0000" fill-rule="nonzero"/>
                                    <use xlink:href="#g5200F7383C1A3D04BAB750515DE0AD98" x="26.490234375" y="0" fill="#ff0000" fill-rule="nonzero"/>
                                    <use xlink:href="#g694309F21BDB32DE67EAAC2AD2E3CFDC" x="33.11279296875" y="0" fill="#ff0000" fill-rule="nonzero"/>
                                </g>
                                <g class="typst-text" transform="matrix(1 0 0 -1 0 39.372265625000004)">
                                    <use xlink:href="#g4262454FA01C01558042450DCCA9A8AA" x="0" y="0" fill="#000000" fill-rule="nonzero"/>
                                    <use xlink:href="#g5200F7383C1A3D04BAB750515DE0AD98" x="6.62255859375" y="0" fill="#000000" fill-rule="nonzero"/>
                                    <use xlink:href="#g694309F21BDB32DE67EAAC2AD2E3CFDC" x="13.2451171875" y="0" fill="#000000" fill-rule="nonzero"/>
                                    <use xlink:href="#g4262454FA01C01558042450DCCA9A8AA" x="19.86767578125" y="0" fill="#000000" fill-rule="nonzero"/>
                                    <use xlink:href="#g5200F7383C1A3D04BAB750515DE0AD98" x="26.490234375" y="0" fill="#000000" fill-rule="nonzero"/>
                                </g>
                                <g class="typst-text" transform="matrix(1 0 0 -1 33.11279296875 39.372265625000004)">
                                    <use xlink:href="#g4262454FA01C01558042450DCCA9A8AA" x="0" y="0" fill="#ff0000" fill-rule="nonzero"/>
                                </g>
                                <g class="typst-text" transform="matrix(1 0 0 -1 0 54.8796875)">
                                    <use xlink:href="#g5200F7383C1A3D04BAB750515DE0AD98" x="0" y="0" fill="#000000" fill-rule="nonzero"/>
                                    <use xlink:href="#g4262454FA01C01558042450DCCA9A8AA" x="6.62255859375" y="0" fill="#000000" fill-rule="nonzero"/>
                                    <use xlink:href="#g4262454FA01C01558042450DCCA9A8AA" x="13.2451171875" y="0" fill="#000000" fill-rule="nonzero"/>
                                    <use xlink:href="#g5200F7383C1A3D04BAB750515DE0AD98" x="19.86767578125" y="0" fill="#000000" fill-rule="nonzero"/>
                                    <use xlink:href="#g694309F21BDB32DE67EAAC2AD2E3CFDC" x="26.490234375" y="0" fill="#000000" fill-rule="nonzero"/>
                                </g>
                                <g class="typst-text" transform="matrix(1 0 0 -1 33.11279296875 54.8796875)">
                                    <use xlink:href="#g4262454FA01C01558042450DCCA9A8AA" x="0" y="0" fill="#ff0000" fill-rule="nonzero"/>
                                </g>
                                <g class="typst-text" transform="matrix(1 0 0 -1 0 70.38710937500001)">
                                    <use xlink:href="#g5200F7383C1A3D04BAB750515DE0AD98" x="0" y="0" fill="#000000" fill-rule="nonzero"/>
                                    <use xlink:href="#g694309F21BDB32DE67EAAC2AD2E3CFDC" x="6.62255859375" y="0" fill="#000000" fill-rule="nonzero"/>
                                    <use xlink:href="#g4262454FA01C01558042450DCCA9A8AA" x="13.2451171875" y="0" fill="#000000" fill-rule="nonzero"/>
                                    <use xlink:href="#g5200F7383C1A3D04BAB750515DE0AD98" x="19.86767578125" y="0" fill="#000000" fill-rule="nonzero"/>
                                    <use xlink:href="#g4262454FA01C01558042450DCCA9A8AA" x="26.490234375" y="0" fill="#000000" fill-rule="nonzero"/>
                                </g>
                                <g class="typst-text" transform="matrix(1 0 0 -1 33.11279296875 70.38710937500001)">
                                    <use xlink:href="#g4262454FA01C01558042450DCCA9A8AA" x="0" y="0" fill="#ff0000" fill-rule="nonzero"/>
                                </g>
                                <g class="typst-text" transform="matrix(1 0 0 -1 0 85.89453125)">
                                    <use xlink:href="#g694309F21BDB32DE67EAAC2AD2E3CFDC" x="0" y="0" fill="#000000" fill-rule="nonzero"/>
                                    <use xlink:href="#g4262454FA01C01558042450DCCA9A8AA" x="6.62255859375" y="0" fill="#000000" fill-rule="nonzero"/>
                                    <use xlink:href="#g5200F7383C1A3D04BAB750515DE0AD98" x="13.2451171875" y="0" fill="#000000" fill-rule="nonzero"/>
                                    <use xlink:href="#g4262454FA01C01558042450DCCA9A8AA" x="19.86767578125" y="0" fill="#000000" fill-rule="nonzero"/>
                                    <use xlink:href="#g4262454FA01C01558042450DCCA9A8AA" x="26.490234375" y="0" fill="#000000" fill-rule="nonzero"/>
                                </g>
                                <g class="typst-text" transform="matrix(1 0 0 -1 33.11279296875 85.89453125)">
                                    <use xlink:href="#g5200F7383C1A3D04BAB750515DE0AD98" x="0" y="0" fill="#ff0000" fill-rule="nonzero"/>
                                </g>
                            </g>
                        </g>
                    </g>
                </g>
                <path class="typst-shape" fill="none" transform="matrix(1 0 0 1 323.60108383058565 38.07568359375)" d="M 0 0h 72.848145 v 9.898926 h -72.848145 v -9.898926 Z "/>
                <g class="typst-group">
                    <g>
                        <g class="typst-group" transform="matrix(1 0 0 1 323.6010837497539 38.07568350799705)">
                            <g>
                                <g class="typst-text" transform="matrix(1 0 0 -1 0 8.357421875)">
                                    <use xlink:href="#gA6A02C281BE6E2ADB14F28614E08F2FC" x="0" y="0" fill="#000000" fill-rule="nonzero"/>
                                    <use xlink:href="#g5200F7383C1A3D04BAB750515DE0AD98" x="6.62255859375" y="0" fill="#000000" fill-rule="nonzero"/>
                                    <use xlink:href="#g694309F21BDB32DE67EAAC2AD2E3CFDC" x="13.2451171875" y="0" fill="#000000" fill-rule="nonzero"/>
                                    <use xlink:href="#g4262454FA01C01558042450DCCA9A8AA" x="19.86767578125" y="0" fill="#000000" fill-rule="nonzero"/>
                                    <use xlink:href="#g4262454FA01C01558042450DCCA9A8AA" x="26.490234375" y="0" fill="#000000" fill-rule="nonzero"/>
                                    <use xlink:href="#g4262454FA01C01558042450DCCA9A8AA" x="33.11279296875" y="0" fill="#000000" fill-rule="nonzero"/>
                                    <use xlink:href="#g5200F7383C1A3D04BAB750515DE0AD98" x="39.7353515625" y="0" fill="#000000" fill-rule="nonzero"/>
                                    <use xlink:href="#g7CE115E721957E4AD6AD7662723D97B0" x="46.35791015625" y="0" fill="#000000" fill-rule="nonzero"/>
                                    <use xlink:href="#g1E29D5D465E22BB013F2D4146A939778" x="59.60302734375" y="0" fill="#000000" fill-rule="nonzero"/>
                                    <use xlink:href="#gB39123711715EFDA7584720B124C9C53" x="66.2255859375" y="0" fill="#000000" fill-rule="nonzero"/>
                                </g>
                            </g>
                        </g>
                    </g>
                </g>
                <path class="typst-shape" fill="none" transform="matrix(1 0 0 1 338.2836560962106 54.901520500123034)" d="M 0 0h 43.483 v 10.263 h -43.483 v -10.263 Z "/>
                <g class="typst-group">
                    <g>
                        <g class="typst-group" transform="matrix(1 0 0 1 338.2836559702264 54.90152040563484)">
                            <g>
                                <g class="typst-text" transform="matrix(1 0 0 -1 0 7.513000000000001)">
                                    <use xlink:href="#g5A77EC36C9488E7D8BAD9D63C428A5A6" x="0" y="0" fill="#000000" fill-rule="nonzero"/>
                                    <use xlink:href="#gE2ED46707A1B84E57C950983EC614C0C" x="7.744" y="0" fill="#000000" fill-rule="nonzero"/>
                                    <use xlink:href="#g9B2579AD8646CFD7F39631319A198A7D" x="18.733" y="0" fill="#000000" fill-rule="nonzero"/>
                                    <use xlink:href="#g3318E13872974282474533654598A517" x="26.609" y="0" fill="#000000" fill-rule="nonzero"/>
                                    <use xlink:href="#g9B2579AD8646CFD7F39631319A198A7D" x="31.108" y="0" fill="#000000" fill-rule="nonzero"/>
                                    <use xlink:href="#g289A167EA104F4867C9D963AB28117C6" x="38.984" y="0" fill="#000000" fill-rule="nonzero"/>
                                </g>
                            </g>
                        </g>
                    </g>
                </g>
                <path class="typst-shape" fill="none" stroke="#000000" stroke-width="1.6" stroke-linecap="butt" stroke-linejoin="miter" stroke-miterlimit="4" transform="matrix(1 0 0 1 39.7353515625 43.025146484375)" d="M 0 0h 67.757904 "/>
                <path class="typst-shape" fill="#000000" fill-rule="nonzero" stroke="#000000" stroke-width="1.6" stroke-linecap="butt" stroke-linejoin="miter" stroke-miterlimit="4" stroke-dashoffset="0" stroke-dasharray="" transform="matrix(1 0 0 1 106.28852813495077 41.21805987020177)" d="M 0 0m 4.8188977 1.8070866 l -4.8188977 -1.8070866 l 1.2047244 1.8070866 l -1.2047244 1.8070866 l 4.8188977 -1.8070866 Z "/>
                <path class="typst-shape" fill="none" stroke="#000000" stroke-width="1.6" stroke-linecap="butt" stroke-linejoin="miter" stroke-miterlimit="4" transform="matrix(1 0 0 1 153.12117833415354 43.025146484375)" d="M 0 0h 67.757904 "/>
                <path class="typst-shape" fill="#000000" fill-rule="nonzero" stroke="#000000" stroke-width="1.6" stroke-linecap="butt" stroke-linejoin="miter" stroke-miterlimit="4" stroke-dashoffset="0" stroke-dasharray="" transform="matrix(1 0 0 1 219.67435490660432 41.21805987020177)" d="M 0 0m 4.8188977 1.8070866 l -4.8188977 -1.8070866 l 1.2047244 1.8070866 l -1.2047244 1.8070866 l 4.8188977 -1.8070866 Z "/>
                <path class="typst-shape" fill="none" stroke="#000000" stroke-width="1.6" stroke-linecap="butt" stroke-linejoin="miter" stroke-miterlimit="4" transform="matrix(1 0 0 1 266.5070051058071 43.025146484375)" d="M 0 0h 51.201504 "/>
                <path class="typst-shape" fill="#000000" fill-rule="nonzero" stroke="#000000" stroke-width="1.6" stroke-linecap="butt" stroke-linejoin="miter" stroke-miterlimit="4" stroke-dashoffset="0" stroke-dasharray="" transform="matrix(1 0 0 1 316.5037851960531 41.21805987020177)" d="M 0 0m 4.8188977 1.8070866 l -4.8188977 -1.8070866 l 1.2047244 1.8070866 l -1.2047244 1.8070866 l 4.8188977 -1.8070866 Z "/>
            </g>
        </g>
    </g>
    <defs id="glyph">
        <symbol id="g4262454FA01C01558042450DCCA9A8AA" overflow="visible">
            <path d="M 0 0m 3.3085938 7.0629883 l -1.144043 -4.1035156 h 2.288086 l -1.144043 4.1035156 Z m -0.65527344 0.9560547 h 1.315918 l 2.4545898 -8.019043 h -1.1225586 l -0.5908203 2.0893555 h -2.809082 l -0.5800781 -2.0893555 h -1.1225586 l 2.4545898 8.019043 Z "/>
        </symbol>
        <symbol id="g5200F7383C1A3D04BAB750515DE0AD98" overflow="visible">
            <path d="M 0 0m 5.7631836 0.28466797 q -0.41357422 -0.22021484 -0.8486328 -0.33032227 q -0.4350586 -0.11010742 -0.9238281 -0.11010742 q -1.5415039 0 -2.3928223 1.090332 q -0.85131836 1.090332 -0.85131836 3.0668945 q 0 1.9658203 0.85668945 3.064209 q 0.85668945 1.0983887 2.3874512 1.0983887 q 0.48876953 0 0.9238281 -0.11010742 q 0.4350586 -0.11010742 0.8486328 -0.33032227 v -1.1118164 q -0.39746094 0.32763672 -0.8540039 0.49951172 q -0.45654297 0.171875 -0.91845703 0.171875 q -1.0581055 0 -1.5844727 -0.81640625 q -0.5263672 -0.81640625 -0.5263672 -2.465332 q 0 -1.6435547 0.5263672 -2.459961 q 0.5263672 -0.81640625 1.5844727 -0.81640625 q 0.47265625 0 0.9265137 0.171875 q 0.45385742 0.171875 0.84594727 0.49951172 v -1.1118164 Z "/>
        </symbol>
        <symbol id="g694309F21BDB32DE67EAAC2AD2E3CFDC" overflow="visible">
            <path d="M 0 0m 5.9296875 0.66064453 q -0.4350586 -0.40283203 -0.9802246 -0.60961914 q -0.545166 -0.20678711 -1.1789551 -0.20678711 q -1.5253906 0 -2.3740234 1.0930176 q -0.8486328 1.0930176 -0.8486328 3.064209 q 0 1.9658203 0.859375 3.064209 q 0.859375 1.0983887 2.3901367 1.0983887 q 0.5048828 0 0.9667969 -0.14233398 q 0.46191406 -0.14233398 0.89160156 -0.43237305 v -1.1118164 q -0.4350586 0.41357422 -0.89160156 0.60961914 q -0.45654297 0.19604492 -0.9667969 0.19604492 q -1.0581055 0 -1.5871582 -0.8190918 q -0.52905273 -0.8190918 -0.52905273 -2.4626465 q 0 -1.6704102 0.51293945 -2.4733887 q 0.51293945 -0.8029785 1.576416 -0.8029785 q 0.35986328 0 0.6311035 0.08325195 q 0.27124023 0.08325195 0.49145508 0.26049805 v 2.1538086 h -1.1655273 v 0.89160156 h 2.2021484 v -3.4536133 Z "/>
        </symbol>
        <symbol id="g9B2579AD8646CFD7F39631319A198A7D" overflow="visible">
            <path d="M 0 0m 8.525 5.203 l 0.32999992 1.9689999 c 0.011000633 0.04400015 0.011000633 0.09899998 0.011000633 0.14300013 c 0 0.13199997 -0.09899998 0.13199997 -0.27500057 0.13199997 h -5.6429996 c -0.22000003 0 -0.25300002 0 -0.319 -0.19799995 l -0.6489999 -1.9690003 c -0.055000067 -0.14299965 -0.055000067 -0.1869998 -0.055000067 -0.1869998 c 0 -0.12099981 0.13199997 -0.12099981 0.16499996 -0.12099981 c 0.04400015 0 0.08800006 0 0.12100005 0.032999992 c 0.022000074 0.021999836 0.032999992 0.032999992 0.14300013 0.31899977 c 0.51699996 1.5510001 0.8249998 1.7820001 2.244 1.7820001 h 0.37400007 c 0.25299978 0 0.25299978 -0.04400015 0.25299978 -0.12099981 c 0 -0.07700014 -0.021999836 -0.17600012 -0.04400015 -0.2420001 l -1.4739997 -5.907 c -0.09899998 -0.38499996 -0.19799995 -0.49499997 -1.1660001 -0.49499997 h -0.17599988 c -0.18700004 0 -0.3080001 0 -0.3080001 -0.20899999 c 0 -0.132 0.13199997 -0.132 0.18700004 -0.132 c 0.5610001 0 1.144 0.033 1.7049999 0.033 c 0.572 0 1.1659999 -0.033 1.7270002 -0.033 c 0.09899998 0 0.23099995 0 0.23099995 0.22 c 0 0.12099999 -0.11000013 0.12099999 -0.2750001 0.12099999 h -0.16499996 c -0.17600012 0 -0.5170002 0.022000015 -0.5500002 0.022000015 c -0.3079996 0.032999992 -0.36299992 0.07699999 -0.36299992 0.23099998 c 0 0.032999992 0 0.055000007 0.04400015 0.20899999 l 1.474 5.918 c 0.07700014 0.32999992 0.16499996 0.35199976 0.25299978 0.36299992 c 0.0880003 0.021999836 0.38500023 0.021999836 0.572 0.021999836 c 1.1440005 0 1.3969998 -0.1539998 1.3969998 -0.83599997 c 0 -0.13199997 0 -0.34100008 -0.10999966 -0.99000025 c -0.022000313 -0.12099981 -0.022000313 -0.16499996 -0.022000313 -0.16499996 c 0 -0.14299965 0.11000061 -0.14299965 0.16499996 -0.14299965 c 0.1430006 0 0.16499996 0.032999992 0.19799995 0.23099995 Z "/>
        </symbol>
        <symbol id="gA6A02C281BE6E2ADB14F28614E08F2FC" overflow="visible">
            <path d="M 0 0m 4.753418 8.34668 q -0.71435547 -1.2246094 -1.0661621 -2.441162 q -0.35180664 -1.2165527 -0.35180664 -2.4519043 q 0 -1.2299805 0.35180664 -2.4492188 q 0.35180664 -1.2192383 1.0661621 -2.4545898 h -0.859375 q -0.81103516 1.2783203 -1.2084961 2.489502 q -0.39746094 1.2111816 -0.39746094 2.4143066 q 0 1.1977539 0.39746094 2.411621 q 0.39746094 1.2138672 1.2084961 2.4814453 h 0.859375 Z "/>
        </symbol>
        <symbol id="g7CE115E721957E4AD6AD7662723D97B0" overflow="visible">
            <path d="M 0 0m 2.696289 1.6274414 h 1.3535156 v -1.1118164 l -1.0581055 -2.057129 h -0.82714844 l 0.5317383 2.057129 v 1.1118164 Z "/>
        </symbol>
        <symbol id="g1E29D5D465E22BB013F2D4146A939778" overflow="visible">
            <path d="M 0 0m 2.003418 0.91308594 h 3.6845703 v -0.91308594 h -4.871582 v 0.91308594 q 1.0043945 1.0581055 1.7563477 1.8691406 q 0.7519531 0.81103516 1.0366211 1.144043 q 0.5371094 0.65527344 0.72509766 1.060791 q 0.18798828 0.40551758 0.18798828 0.829834 q 0 0.6713867 -0.3947754 1.0527344 q -0.3947754 0.38134766 -1.0822754 0.38134766 q -0.48876953 0 -1.0258789 -0.1772461 q -0.5371094 -0.1772461 -1.1386719 -0.5371094 v 1.0957031 q 0.55322266 0.2631836 1.0876465 0.39746094 q 0.5344238 0.13427734 1.0554199 0.13427734 q 1.1762695 0 1.8933105 -0.6257324 q 0.717041 -0.6257324 0.717041 -1.6408691 q 0 -0.515625 -0.23901367 -1.03125 q -0.23901367 -0.515625 -0.77612305 -1.1386719 q -0.30078125 -0.3491211 -0.87280273 -0.9667969 q -0.5720215 -0.6176758 -1.7429199 -1.8476563 Z "/>
        </symbol>
        <symbol id="gB39123711715EFDA7584720B124C9C53" overflow="visible">
            <path d="M 0 0m 1.8691406 8.34668 h 0.859375 q 0.81103516 -1.2675781 1.2084961 -2.4814453 q 0.39746094 -1.2138672 0.39746094 -2.411621 q 0 -1.2084961 -0.39746094 -2.4223633 q -0.39746094 -1.2138672 -1.2084961 -2.4814453 h -0.859375 q 0.71435547 1.2460938 1.0661621 2.465332 q 0.35180664 1.2192383 0.35180664 2.4384766 q 0 1.2246094 -0.35180664 2.4438477 q -0.35180664 1.2192383 -1.0661621 2.4492188 Z "/>
        </symbol>
        <symbol id="g5A77EC36C9488E7D8BAD9D63C428A5A6" overflow="visible">
            <path d="M 0 0m 7.447 2.409 c 0 0.9130001 -0.737 1.4190001 -1.5290003 1.5180001 c 1.342 0.29699993 2.1560006 1.243 2.1560006 2.0900002 c 0 0.7919998 -0.64900017 1.4959998 -1.8480005 1.4959998 h -3.4209998 c -0.17600012 0 -0.29700017 0 -0.29700017 -0.20900011 c 0 -0.13199997 0.08800006 -0.13199997 0.29700017 -0.13199997 c 0.34099984 0 0.638 0 0.638 -0.1869998 c 0 -0.032999992 0 -0.055000305 -0.04400015 -0.20900011 l -1.4849999 -5.973 c -0.08800006 -0.37399998 -0.15400004 -0.46199998 -0.90200007 -0.46199998 c -0.176 0 -0.297 0 -0.297 -0.20899999 c 0 -0.132 0.09900004 -0.132 0.27500004 -0.132 h 3.6299999 c 1.5620003 0 2.8270001 1.265 2.8270001 2.409 Z m -0.34100008 3.6740003 c 0 -0.9350004 -0.8470001 -2.0570002 -2.1009998 -2.0570002 h -1.4520001 l 0.68200016 2.75 c 0.09899998 0.3959999 0.17599964 0.3959999 0.53900003 0.3959999 h 1.2979999 c 0.9239998 0 1.0339999 -0.74800014 1.0339999 -1.0889997 Z m -0.638 -3.5310001 c 0 -1.067 -0.8800001 -2.211 -2.0900002 -2.211 h -1.3639998 c -0.34099984 0 -0.34099984 0.033000022 -0.34099984 0.110000014 c 0 0.066000015 0.032999992 0.17599997 0.04399991 0.24200001 l 0.77 3.0909998 h 1.8920002 c 1.0229998 0 1.0889997 -0.94599986 1.0889997 -1.2319999 Z "/>
        </symbol>
        <symbol id="gE2ED46707A1B84E57C950983EC614C0C" overflow="visible">
            <path d="M 0 0m 12.364 7.392 c 0 0 0 0.12099981 -0.13199997 0.12099981 c -0.25300026 0 -0.5390005 -0.032999992 -0.80300045 -0.032999992 c -0.35200024 0 -0.7369995 0.032999992 -1.0889997 0.032999992 c -0.065999985 0 -0.20900059 0 -0.20900059 -0.20900011 c 0 -0.12099981 0.09899998 -0.13199997 0.1760006 -0.13199997 c 0.18699932 -0.011000156 0.5609999 -0.07700014 0.5609999 -0.41799974 c 0 -0.13200045 -0.055000305 -0.23100042 -0.12100029 -0.35200024 l -2.783 -5.126 l -0.24199963 5.4119997 c 0 0 -0.011000156 0.03300047 -0.011000156 0.07700014 c 0 0.18700027 0.065999985 0.3959999 0.78099966 0.40700006 c 0.0880003 0 0.22000027 0 0.22000027 0.22000027 c 0 0.09899998 -0.0880003 0.12099981 -0.15400028 0.12099981 c -0.4069996 0 -0.8359995 -0.032999992 -1.2429996 -0.032999992 c -0.35200024 0 -0.737 0.032999992 -1.0780001 0.032999992 c -0.04400015 0 -0.19799995 0 -0.19799995 -0.20900011 c 0 -0.13199997 0.12099981 -0.13199997 0.23099995 -0.13199997 c 0.4619999 0 0.50600004 -0.065999985 0.5279999 -0.23099995 c 0.011000156 -0.04400015 0.04400015 -0.737 0.04400015 -0.737 c 0 -0.08799982 0 -0.11000013 -0.065999985 -0.21999979 l -2.5630002 -4.708 l -0.24199986 5.3789997 c -0.010999918 0.23100042 -0.022000074 0.50600004 0.7149999 0.5170002 c 0.15400028 0 0.2750001 0 0.2750001 0.20900011 c 0 0.13199997 -0.12099981 0.13199997 -0.1539998 0.13199997 c -0.40700006 0 -0.8360002 -0.032999992 -1.2430003 -0.032999992 c -0.352 0 -0.737 0.032999992 -1.0779998 0.032999992 c -0.04400015 0 -0.19799995 0 -0.19799995 -0.20900011 c 0 -0.13199997 0.109999895 -0.13199997 0.26399994 -0.13199997 c 0.4949999 0 0.4949999 -0.08799982 0.50600004 -0.35199976 l 0.30799985 -6.787 c 0.011000156 -0.231 0.032999992 -0.275 0.19799995 -0.275 c 0.1650002 0 0.1980002 0.054999992 0.286 0.22 l 3.025 5.533 l 0.2420001 -5.478 c 0.01099968 -0.20899999 0.01099968 -0.275 0.19799995 -0.275 c 0.08799982 0 0.17600012 0 0.28599977 0.198 l 3.4429998 6.314 c 0.37400055 0.68200016 0.6380005 0.8579998 1.1660004 0.90199995 c 0.10999966 0.011000156 0.15400028 0.11000013 0.15400028 0.22000027 Z "/>
        </symbol>
        <symbol id="g3318E13872974282474533654598A517" overflow="visible">
            <path d="M 0 0m 2.981 -2.6399999 c 0 0 0 0.04399991 -0.0769999 0.1539998 c -0.5940001 0.90200007 -0.68200016 1.8370001 -0.68200016 2.607 c 0 1.4959999 0.64900017 5.577 3.2890003 7.821 c 0.1539998 0.1539998 0.16499996 0.16500044 0.16499996 0.19800043 c 0 0.076999664 -0.04400015 0.10999966 -0.11000013 0.10999966 c -0.12099981 0 -1.3860002 -0.8910003 -2.343 -2.453 c -1.21 -1.9909999 -1.5510001 -4.1029997 -1.5510001 -5.2799997 c 0 -0.64900005 0.0990001 -1.342 0.29700005 -1.892 c 0.27499998 -0.737 0.748 -1.375 0.90200007 -1.375 c 0.065999985 0 0.109999895 0.04399991 0.109999895 0.11000013 Z "/>
        </symbol>
        <symbol id="g289A167EA104F4867C9D963AB28117C6" overflow="visible">
            <path d="M 0 0m 4.202 4.983 c 0 0.64900017 -0.09899998 1.342 -0.29700017 1.8920002 c -0.2750001 0.737 -0.7479999 1.375 -0.90199995 1.375 c -0.065999985 0 -0.11000013 -0.043999672 -0.11000013 -0.10999966 c 0 0 0 -0.044000626 0.07700014 -0.15400028 c 0.59399986 -0.90199995 0.6819999 -1.8369999 0.6819999 -2.6069999 c 0 -1.4960003 -0.6489999 -5.577 -3.289 -7.821 c -0.15400001 -0.15400004 -0.165 -0.16499996 -0.165 -0.19799995 c 0 -0.07700014 0.044 -0.11000013 0.11 -0.11000013 c 0.12099999 0 1.386 0.89100003 2.343 2.453 c 1.21 1.9909999 1.5510001 4.103 1.5510001 5.2799997 Z "/>
        </symbol>
    </defs>
</svg>
