<svg viewBox="0 0 269.83675853 228.409259843" width="269.83675853pt" height="228.409259843pt" xmlns="http://www.w3.org/2000/svg" xmlns:xlink="http://www.w3.org/1999/xlink" xmlns:h5="http://www.w3.org/1999/xhtml"><g transform="translate(8 8)"><path fill="none" stroke="#000000" stroke-width="1" stroke-linecap="butt" stroke-linejoin="miter" stroke-miterlimit="4" transform="translate(83.313741732 14.709984876)" d="M 0 0m 0 91.410645045v -91.410645045"/><path fill="#000000" fill-rule="nonzero" stroke="#000000" stroke-width="1" stroke-linecap="butt" stroke-linejoin="miter" stroke-miterlimit="4" stroke-dashoffset="0" stroke-dasharray="" transform="translate(82.250749606 12.584000625)" d="M 0 0m 1.062992126 0l -1.062992126 2.834645669l 1.062992126 -0.708661417l 1.062992126 0.708661417l -1.062992126 -2.834645669Z "/><path fill="none" transform="translate(77.089941732)" d="M 0 0h 12.4476v 11.16h -12.4476v -11.16Z "/><g transform="translate(77.089941685 0)"><g transform="matrix(1 0 0 -1 0 8.196)"><use xlink:href="#gB283EFCA6546FF06A551A882267AE54F" x="0" y="0" fill="#000000" fill-rule="nonzero"/></g><g transform="matrix(1 0 0 -1 6.996 11.16)"><use xlink:href="#g3EE1CFC71E550A7A34B42DD2B913151" x="0" y="0" fill="#000000" fill-rule="nonzero"/></g></g><path fill="none" stroke="#000000" stroke-width="1" stroke-linecap="butt" stroke-linejoin="miter" stroke-miterlimit="4" transform="translate(14.957818379 106.120629921)" d="M 0 0m 68.355923353 0l -68.355923353 68.355923353"/><path fill="#000000" fill-rule="nonzero" stroke="#000000" stroke-width="1" stroke-linecap="butt" stroke-linejoin="miter" stroke-miterlimit="4" stroke-dashoffset="0" stroke-dasharray="" transform="translate(13.454520499 173.223805039)" d="M 0 0m 0 2.756046116l 2.756046116 -1.252748234l -1.252748234 -0.250549647l -0.250549647 -1.252748234l -1.252748234 2.756046116Z "/><path fill="none" transform="translate(0 176.986771654)" d="M 0 0h 12.4476v 11.16h -12.4476v -11.16Z "/><g transform="translate(-4.7e-8 176.986771654)"><g transform="matrix(1 0 0 -1 0 8.196)"><use xlink:href="#gB283EFCA6546FF06A551A882267AE54F" x="0" y="0" fill="#000000" fill-rule="nonzero"/></g><g transform="matrix(1 0 0 -1 6.996 11.16)"><use xlink:href="#gE36E487DB8F621557DF3849AFE74ED94" x="0" y="0" fill="#000000" fill-rule="nonzero"/></g></g><path fill="none" stroke="#000000" stroke-width="1" stroke-linecap="butt" stroke-linejoin="miter" stroke-miterlimit="4" transform="translate(83.313741732 106.120629921)" d="M 0 0l 19.116414161 91.485696341"/><path fill="#000000" fill-rule="nonzero" stroke="#000000" stroke-width="1" stroke-linecap="butt" stroke-linejoin="miter" stroke-miterlimit="4" stroke-dashoffset="0" stroke-dasharray="" transform="translate(101.24468887 196.695224968)" d="M 0 0m 1.620310822 2.992139474l 0.460727358 -2.992139474l -0.895571157 0.911101293l -1.185467023 -0.476257494l 1.620310822 2.557295675Z "/><path fill="none" transform="translate(96.932461417 201.081259843)" d="M 0 0h 12.4476v 11.328h -12.4476v -11.328Z "/><g transform="translate(96.93246137 201.081259795)"><g transform="matrix(1 0 0 -1 0 8.196)"><use xlink:href="#gB283EFCA6546FF06A551A882267AE54F" x="0" y="0" fill="#000000" fill-rule="nonzero"/></g><g transform="matrix(1 0 0 -1 6.996 11.16)"><use xlink:href="#g665F13CD440F31E58836E442B6CA7EC9" x="0" y="0" fill="#000000" fill-rule="nonzero"/></g></g><path fill="none" stroke="#000000" stroke-width="1" stroke-linecap="butt" stroke-linejoin="miter" stroke-miterlimit="4" transform="translate(83.313741732 106.120629921)" d="M 0 0l 114.596945779 69.034304686"/><path fill="#000000" fill-rule="nonzero" stroke="#000000" stroke-width="1" stroke-linecap="butt" stroke-linejoin="miter" stroke-miterlimit="4" stroke-dashoffset="0" stroke-dasharray="" transform="translate(196.755144259 173.878717534)" d="M 0 0m 2.97662091 2.373251806l -1.879586176 -2.373251806l 0.058508519 1.276217073l -1.155543252 0.544860584l 2.97662091 0.552174149Z "/><path fill="none" transform="translate(200.951537008 176.986771654)" d="M 0 0h 12.4476v 11.16h -12.4476v -11.16Z "/><g transform="translate(200.951536961 176.986771654)"><g transform="matrix(1 0 0 -1 0 8.196)"><use xlink:href="#gB283EFCA6546FF06A551A882267AE54F" x="0" y="0" fill="#000000" fill-rule="nonzero"/></g><g transform="matrix(1 0 0 -1 6.996 11.16)"><use xlink:href="#g2C1446B78EEA52B9FC906EA9FADBD35B" x="0" y="0" fill="#000000" fill-rule="nonzero"/></g></g><path fill="none" stroke="#000000" stroke-width="1" stroke-linecap="butt" stroke-linejoin="miter" stroke-miterlimit="4" transform="translate(83.313741732 106.120629921)" d="M 0 0h 138.182298588"/><path fill="#000000" fill-rule="nonzero" stroke="#000000" stroke-width="1" stroke-linecap="butt" stroke-linejoin="miter" stroke-miterlimit="4" stroke-dashoffset="0" stroke-dasharray="" transform="translate(220.787378903 105.057637795)" d="M 0 0m 2.834645669 1.062992126l -2.834645669 -1.062992126l 0.708661417 1.062992126l -0.708661417 1.062992126l 2.834645669 -1.062992126Z "/><path fill="none" stroke="#000000" stroke-width="1.5" stroke-linecap="butt" stroke-linejoin="miter" stroke-miterlimit="4" stroke-dashoffset="0" stroke-dasharray="1.5 4" transform="translate(189.612954331 120.293858268)" d="M 0 0m 0 28.346456693c 3.978975994 -4.263686219 8.025013683 -8.645012699 9.921259843 -14.173228346c 1.554733754 -4.532588464 1.492493199 -9.390310312 1.417322835 -14.173228346"/><path fill="none" stroke="#000000" stroke-width="1" stroke-linecap="butt" stroke-linejoin="miter" stroke-miterlimit="4" stroke-dashoffset="0" stroke-dasharray="3 3" transform="translate(51.423977953 35.254488189)" d="M 0 0m 88.582677165 0c -12.110900407 10.67890805 -24.354236597 21.521345587 -32.598425197 35.433070866c -10.740108618 18.123486471 -13.658760151 39.817632492 -24.094488189 58.11023622c -8.047150871 14.105708915 -20.028708632 25.319547241 -31.88976378 36.377952756"/><path fill="none" transform="translate(107.408229921 70.687559055)" d="M 0 0h 14.5596v 11.16h -14.5596v -11.16Z "/><g transform="translate(107.408229827 70.687558913)"><g transform="matrix(1 0 0 -1 0 8.196)"><use xlink:href="#g9CED881E4A2D6799C4000FBB2A9C7D89" x="0" y="0" fill="#000000" fill-rule="nonzero"/></g><g transform="matrix(1 0 0 -1 9.108 11.16)"><use xlink:href="#g3EE1CFC71E550A7A34B42DD2B913151" x="0" y="0" fill="#000000" fill-rule="nonzero"/></g></g><path fill="none" stroke="#000000" stroke-width="1" stroke-linecap="butt" stroke-linejoin="miter" stroke-miterlimit="4" stroke-dashoffset="0" stroke-dasharray="3 3" transform="translate(51.423977953 59.348976378)" d="M 0 0m 116.929133858 0c -9.77946146 10.579297121 -19.569302633 21.170932861 -28.346456693 32.598425197c -17.338110784 22.573504662 -31.444997744 48.913685158 -56.692913386 62.362204724c -9.956883126 5.303619492 -20.964217036 8.100962582 -31.88976378 10.866141732"/><path fill="none" transform="translate(140.006655118 91.947401575)" d="M 0 0h 14.5596v 11.16h -14.5596v -11.16Z "/><g transform="translate(140.006655024 91.947401433)"><g transform="matrix(1 0 0 -1 0 8.196)"><use xlink:href="#g9CED881E4A2D6799C4000FBB2A9C7D89" x="0" y="0" fill="#000000" fill-rule="nonzero"/></g><g transform="matrix(1 0 0 -1 9.108 11.16)"><use xlink:href="#gE36E487DB8F621557DF3849AFE74ED94" x="0" y="0" fill="#000000" fill-rule="nonzero"/></g></g><path fill="none" stroke="#000000" stroke-width="1" stroke-linecap="butt" stroke-linejoin="miter" stroke-miterlimit="4" stroke-dashoffset="0" stroke-dasharray="3 3" transform="translate(51.423977953 35.254488189)" d="M 0 0m 173.622047244 0c -17.80209234 37.362742092 -36.617180933 75.81498714 -70.866141732 99.212598425c -29.995825197 20.492027838 -66.844821301 25.796802071 -102.755905512 30.708661417"/><path fill="none" transform="translate(154.179883465 134.467086614)" d="M 0 0h 14.5596v 11.328h -14.5596v -11.328Z "/><g transform="translate(154.17988337 134.467086567)"><g transform="matrix(1 0 0 -1 0 8.196)"><use xlink:href="#g9CED881E4A2D6799C4000FBB2A9C7D89" x="0" y="0" fill="#000000" fill-rule="nonzero"/></g><g transform="matrix(1 0 0 -1 9.108 11.16)"><use xlink:href="#g665F13CD440F31E58836E442B6CA7EC9" x="0" y="0" fill="#000000" fill-rule="nonzero"/></g></g><path fill="#8b0000" fill-rule="nonzero" transform="translate(48.589332283 162.341102362)" d="M 0 0m 2.834645669 0c -1.564112126 0 -2.834645669 1.270533543 -2.834645669 2.834645669c 0 1.564112126 1.270533543 2.834645669 2.834645669 2.834645669c 1.564112126 0 2.834645669 -1.270533543 2.834645669 -2.834645669c 0 -1.564112126 -1.270533543 -2.834645669 -2.834645669 -2.834645669Z "/><path fill="none" transform="translate(28.459844619 170.84503937)" d="M 0 0h 45.928266667v 11.328h -45.928266667v -11.328Z "/><g transform="translate(28.459844551 170.845039323)"><g transform="matrix(1 0 0 -1 0 8.196)"><use xlink:href="#g4327BBE67AFF97C631C6434282B3DD38" x="0" y="0" fill="#8b0000" fill-rule="nonzero"/></g><g transform="matrix(1 0 0 -1 5.34 11.16)"><use xlink:href="#g30AE13EB7DDA4F866394494F505414E7" x="0" y="0" fill="#8b0000" fill-rule="nonzero"/></g><g transform="matrix(1 0 0 -1 10.4388 11.16)"><use xlink:href="#gF97E2BCBD2DC806ADDED35EFE1E918AE" x="0" y="0" fill="#8b0000" fill-rule="nonzero"/></g><g transform="matrix(1 0 0 -1 16.974 11.16)"><use xlink:href="#g20ED7EFE0C9D86B6113C183B5E3A4F77" x="0" y="0" fill="#8b0000" fill-rule="nonzero"/></g><g transform="matrix(1 0 0 -1 25.758933333 8.196)"><use xlink:href="#gD052017303D5CCF04DC337F3DE288151" x="0" y="0" fill="#8b0000" fill-rule="nonzero"/></g><g transform="matrix(1 0 0 -1 38.428266667 8.196)"><use xlink:href="#g4327BBE67AFF97C631C6434282B3DD38" x="0" y="0" fill="#8b0000" fill-rule="nonzero"/></g></g><path fill="#00008b" fill-rule="nonzero" transform="translate(137.172009449 32.41984252)" d="M 0 0m 2.834645669 0c -1.564112126 0 -2.834645669 1.270533543 -2.834645669 2.834645669c 0 1.564112126 1.270533543 2.834645669 2.834645669 2.834645669c 1.564112126 0 2.834645669 -1.270533543 2.834645669 -2.834645669c 0 -1.564112126 -1.270533543 -2.834645669 -2.834645669 -2.834645669Z "/><path fill="none" transform="translate(111.215921785 16.35039685)" d="M 0 0h 57.581466667v 13.2348h -57.581466667v -13.2348Z "/><g transform="translate(111.215921717 16.350396756)"><g transform="matrix(1 0 0 -1 0 8.196)"><use xlink:href="#g4327BBE67AFF97C631C6434282B3DD38" x="0" y="0" fill="#00008b" fill-rule="nonzero"/></g><g transform="matrix(1 0 0 -1 5.34 11.16)"><use xlink:href="#g30AE13EB7DDA4F866394494F505414E7" x="0" y="0" fill="#00008b" fill-rule="nonzero"/></g><g transform="matrix(1 0 0 -1 10.4388 11.16)"><use xlink:href="#gF97E2BCBD2DC806ADDED35EFE1E918AE" x="0" y="0" fill="#00008b" fill-rule="nonzero"/></g><g transform="matrix(1 0 0 -1 16.974 11.16)"><use xlink:href="#g3339055F3CCC152A11D1E2E30772B6FF" x="0" y="0" fill="#00008b" fill-rule="nonzero"/></g><g transform="matrix(1 0 0 -1 23.5428 13.2348)"><use xlink:href="#g2DB2DCAE111F4746020188DA32EF7A14" x="0" y="0" fill="#00008b" fill-rule="nonzero"/></g><g transform="matrix(1 0 0 -1 32.104533333 8.196)"><use xlink:href="#gD052017303D5CCF04DC337F3DE288151" x="0" y="0" fill="#00008b" fill-rule="nonzero"/></g><g transform="matrix(1 0 0 -1 44.773866667 8.196)"><use xlink:href="#g158BCAE98310E77DDAD95043030D6987" x="0" y="0" fill="#00008b" fill-rule="nonzero"/></g><g transform="matrix(1 0 0 -1 52.129866667 11.16)"><use xlink:href="#g3EE1CFC71E550A7A34B42DD2B913151" x="0" y="0" fill="#00008b" fill-rule="nonzero"/></g></g><path fill="#00008b" fill-rule="nonzero" transform="translate(165.518466142 56.514330709)" d="M 0 0m 2.834645669 0c -1.564112126 0 -2.834645669 1.270533543 -2.834645669 2.834645669c 0 1.564112126 1.270533543 2.834645669 2.834645669 2.834645669c 1.564112126 0 2.834645669 -1.270533543 2.834645669 -2.834645669c 0 -1.564112126 -1.270533543 -2.834645669 -2.834645669 -2.834645669Z "/><path fill="none" transform="translate(139.562378478 40.444885039)" d="M 0 0h 57.581466667v 13.2348h -57.581466667v -13.2348Z "/><g transform="translate(139.562378409 40.444884945)"><g transform="matrix(1 0 0 -1 0 8.196)"><use xlink:href="#g4327BBE67AFF97C631C6434282B3DD38" x="0" y="0" fill="#00008b" fill-rule="nonzero"/></g><g transform="matrix(1 0 0 -1 5.34 11.16)"><use xlink:href="#g30AE13EB7DDA4F866394494F505414E7" x="0" y="0" fill="#00008b" fill-rule="nonzero"/></g><g transform="matrix(1 0 0 -1 10.4388 11.16)"><use xlink:href="#gF97E2BCBD2DC806ADDED35EFE1E918AE" x="0" y="0" fill="#00008b" fill-rule="nonzero"/></g><g transform="matrix(1 0 0 -1 16.974 11.16)"><use xlink:href="#g3339055F3CCC152A11D1E2E30772B6FF" x="0" y="0" fill="#00008b" fill-rule="nonzero"/></g><g transform="matrix(1 0 0 -1 23.5428 13.2348)"><use xlink:href="#gFEACB0D48D3452943B88014276AD9F79" x="0" y="0" fill="#00008b" fill-rule="nonzero"/></g><g transform="matrix(1 0 0 -1 32.104533333 8.196)"><use xlink:href="#gD052017303D5CCF04DC337F3DE288151" x="0" y="0" fill="#00008b" fill-rule="nonzero"/></g><g transform="matrix(1 0 0 -1 44.773866667 8.196)"><use xlink:href="#g158BCAE98310E77DDAD95043030D6987" x="0" y="0" fill="#00008b" fill-rule="nonzero"/></g><g transform="matrix(1 0 0 -1 52.129866667 11.16)"><use xlink:href="#gE36E487DB8F621557DF3849AFE74ED94" x="0" y="0" fill="#00008b" fill-rule="nonzero"/></g></g><path fill="#00008b" fill-rule="nonzero" transform="translate(222.211379528 32.41984252)" d="M 0 0m 2.834645669 0c -1.564112126 0 -2.834645669 1.270533543 -2.834645669 2.834645669c 0 1.564112126 1.270533543 2.834645669 2.834645669 2.834645669c 1.564112126 0 2.834645669 -1.270533543 2.834645669 -2.834645669c 0 -1.564112126 -1.270533543 -2.834645669 -2.834645669 -2.834645669Z "/><path fill="none" transform="translate(196.255291864 16.21839685)" d="M 0 0h 57.581466667v 13.3668h -57.581466667v -13.3668Z "/><g transform="translate(196.255291795 16.21839685)"><g transform="matrix(1 0 0 -1 0 8.196)"><use xlink:href="#g4327BBE67AFF97C631C6434282B3DD38" x="0" y="0" fill="#00008b" fill-rule="nonzero"/></g><g transform="matrix(1 0 0 -1 5.34 11.16)"><use xlink:href="#g30AE13EB7DDA4F866394494F505414E7" x="0" y="0" fill="#00008b" fill-rule="nonzero"/></g><g transform="matrix(1 0 0 -1 10.4388 11.16)"><use xlink:href="#gF97E2BCBD2DC806ADDED35EFE1E918AE" x="0" y="0" fill="#00008b" fill-rule="nonzero"/></g><g transform="matrix(1 0 0 -1 16.974 11.16)"><use xlink:href="#g3339055F3CCC152A11D1E2E30772B6FF" x="0" y="0" fill="#00008b" fill-rule="nonzero"/></g><g transform="matrix(1 0 0 -1 23.5428 13.2348)"><use xlink:href="#g4233AB793CFB38C8157C8A0E041AFF4A" x="0" y="0" fill="#00008b" fill-rule="nonzero"/></g><g transform="matrix(1 0 0 -1 32.104533333 8.196)"><use xlink:href="#gD052017303D5CCF04DC337F3DE288151" x="0" y="0" fill="#00008b" fill-rule="nonzero"/></g><g transform="matrix(1 0 0 -1 44.773866667 8.196)"><use xlink:href="#g158BCAE98310E77DDAD95043030D6987" x="0" y="0" fill="#00008b" fill-rule="nonzero"/></g><g transform="matrix(1 0 0 -1 52.129866667 11.16)"><use xlink:href="#g665F13CD440F31E58836E442B6CA7EC9" x="0" y="0" fill="#00008b" fill-rule="nonzero"/></g></g></g><defs><symbol id="gB283EFCA6546FF06A551A882267AE54F" overflow="visible"><path d="M 0 0m 1.032 -0.156c 0.132 0 0.276 0.084 0.432 0.264l 2.796 3.312c 0.42 -1.152 0.732 -2.016 0.936 -2.604c 0.132 -0.372 0.216 -0.588 0.276 -0.672c 0.132 -0.18 0.36 -0.276 0.672 -0.276h 0.252c 0.12 0.012 0.18 0.06 0.18 0.168c 0 0.024 -0.024 0.072 -0.072 0.132c -0.084 0.084 -0.168 0.264 -0.264 0.54l -2.412 6.744c -0.204 0.588 -0.696 0.876 -1.476 0.876c -0.18 0 -0.264 -0.06 -0.264 -0.18c 0 -0.084 0.072 -0.144 0.204 -0.18c 0.168 -0.048 0.276 -0.108 0.336 -0.18c 0.084 -0.096 0.204 -0.336 0.336 -0.72l 1.14 -3.204l -3.24 -3.228c -0.156 -0.156 -0.228 -0.288 -0.228 -0.396c 0 -0.216 0.18 -0.396 0.396 -0.396Z "/></symbol><symbol id="g3EE1CFC71E550A7A34B42DD2B913151" overflow="visible"><path d="M 0 0m 2.5452 5.5776c -0.3612 -0.3528 -0.8988 -0.5292 -1.6296 -0.5292v -0.3696c 0.4956 0 0.8904 0.0756 1.1928 0.2184v -4.1832c 0 -0.1092 -0.0084 -0.1764 -0.0336 -0.21c -0.042 -0.0924 -0.294 -0.1428 -0.756 -0.1428h -0.3444v -0.3612l 1.4952 0.0336l 1.5036 -0.0336v 0.3612h -0.3444c -0.462 0 -0.714 0.0504 -0.7644 0.1428c -0.0168 0.0336 -0.0252 0.1008 -0.0252 0.21v 4.5948c 0 0.2268 -0.0336 0.2688 -0.294 0.2688Z "/></symbol><symbol id="gE36E487DB8F621557DF3849AFE74ED94" overflow="visible"><path d="M 0 0m 0.9996 3.5616c 0.2688 0 0.4704 0.2016 0.4704 0.4704c 0 0.3024 -0.1596 0.462 -0.4704 0.4704c 0.1848 0.3948 0.6048 0.714 1.1508 0.714c 0.7392 0 1.2264 -0.5544 1.2264 -1.2936c 0 -0.4032 -0.1428 -0.7896 -0.4368 -1.1676c -0.1428 -0.1932 -0.252 -0.3276 -0.3276 -0.4032l -1.9908 -1.974c -0.1092 -0.1008 -0.0924 -0.126 -0.0924 -0.378h 3.4608l 0.2604 1.5792h -0.3528c -0.0588 -0.4452 -0.126 -0.7056 -0.2016 -0.7644c -0.042 -0.0252 -0.3024 -0.042 -0.798 -0.042h -1.428c 0.5628 0.4956 1.0836 0.9408 1.5792 1.3356c 0.378 0.294 0.6468 0.5544 0.8148 0.7812c 0.252 0.3276 0.378 0.672 0.378 1.0332c 0 0.5208 -0.2016 0.9324 -0.6132 1.2348c -0.3612 0.2772 -0.8148 0.42 -1.3524 0.42c -0.462 0 -0.8568 -0.1344 -1.2012 -0.4032c -0.3612 -0.294 -0.546 -0.6636 -0.546 -1.1172c 0 -0.2856 0.21 -0.4956 0.4704 -0.4956Z "/></symbol><symbol id="g665F13CD440F31E58836E442B6CA7EC9" overflow="visible"><path d="M 0 0m 2.9652 2.9652c 0.5628 0.2268 1.1004 0.7224 1.1004 1.4364c 0 0.378 -0.2016 0.6804 -0.5964 0.8988c -0.3276 0.1848 -0.6972 0.2772 -1.1088 0.2772c -0.4116 0 -0.7728 -0.084 -1.0836 -0.2604c -0.378 -0.21 -0.5712 -0.504 -0.5712 -0.882c 0 -0.3192 0.1596 -0.4788 0.4704 -0.4788c 0.2604 0 0.4536 0.2016 0.4536 0.462c 0 0.2604 -0.1344 0.4116 -0.3948 0.4536c 0.2436 0.2604 0.6048 0.3948 1.1004 0.3948c 0.546 0 0.8568 -0.3276 0.8568 -0.8652c 0 -0.3948 -0.1092 -0.714 -0.3192 -0.966c -0.2352 -0.2772 -0.4032 -0.3192 -0.8904 -0.3528c -0.2268 -0.0168 -0.378 0.0084 -0.378 -0.1596c 0 -0.1008 0.084 -0.1512 0.2436 -0.1512h 0.4452c 0.7224 0 1.0752 -0.546 1.0752 -1.302c 0 -0.7392 -0.336 -1.302 -1.0416 -1.302c -0.6132 0 -1.0584 0.168 -1.3356 0.5124c 0.294 0.0336 0.4452 0.2016 0.4452 0.4956c 0 0.2772 -0.21 0.4872 -0.4872 0.4872c -0.3276 0 -0.4956 -0.168 -0.4956 -0.5124c 0 -0.4284 0.2184 -0.7728 0.6468 -1.0164c 0.3612 -0.2016 0.7728 -0.3024 1.2432 -0.3024c 0.5124 0 0.9576 0.1428 1.344 0.4284c 0.42 0.3108 0.63 0.714 0.63 1.2096c 0 0.7812 -0.6804 1.3188 -1.3524 1.4952Z "/></symbol><symbol id="g2C1446B78EEA52B9FC906EA9FADBD35B" overflow="visible"><path d="M 0 0m 3.3096 5.6616c -0.0924 0 -0.1764 -0.042 -0.2436 -0.126l -2.7384 -3.8304v -0.3444h 2.4276v -0.6468c 0 -0.1428 -0.0252 -0.2436 -0.084 -0.2856c -0.0588 -0.042 -0.2436 -0.0672 -0.546 -0.0672h -0.2604v -0.3612l 1.2684 0.0336l 1.2852 -0.0336v 0.3612h -0.252c -0.3108 0 -0.4956 0.0252 -0.5544 0.0672c -0.0588 0.042 -0.084 0.1428 -0.084 0.2856v 0.6468h 0.9156v 0.3696h -0.9156v 3.6624c 0 0.2016 -0.0252 0.2688 -0.2184 0.2688Z m -0.4956 -1.0332v -2.898h -2.0832Z "/></symbol><symbol id="g9CED881E4A2D6799C4000FBB2A9C7D89" overflow="visible"><path d="M 0 0m 8.868 6.372c 0 0.612 -0.312 1.08 -0.924 1.416c -0.492 0.276 -1.08 0.408 -1.74 0.408h -3.384c -0.276 0 -0.396 -0.012 -0.396 -0.288c 0 -0.084 0.036 -0.144 0.108 -0.156c 0.12 -0.012 0.216 -0.024 0.276 -0.024c 0.36 -0.012 0.564 -0.036 0.624 -0.048c 0.06 -0.012 0.096 -0.048 0.096 -0.108c 0 -0.024 -0.012 -0.096 -0.048 -0.216l -1.584 -6.372c -0.06 -0.264 -0.18 -0.432 -0.36 -0.492c -0.084 -0.024 -0.3 -0.036 -0.672 -0.036c -0.264 0 -0.372 -0.012 -0.372 -0.276c 0 -0.132 0.072 -0.192 0.216 -0.18l 1.488 0.036l 1.512 -0.036c 0.192 -0.012 0.288 0.096 0.288 0.276c 0 0.12 -0.132 0.18 -0.384 0.18c -0.48 0 -0.72 0.06 -0.72 0.168c 0 0 0.012 0.024 0.036 0.192l 0.768 3.108h 1.38c 0.828 0 1.248 -0.348 1.248 -1.032c 0 -0.108 -0.06 -0.372 -0.168 -0.804c -0.132 -0.504 -0.192 -0.84 -0.192 -1.02c 0 -0.912 0.708 -1.332 1.62 -1.332c 0.336 0 0.66 0.156 0.984 0.456c 0.324 0.3 0.492 0.624 0.492 0.96c 0 0.12 -0.06 0.18 -0.192 0.18c -0.084 0 -0.156 -0.06 -0.192 -0.192c -0.132 -0.372 -0.3 -0.648 -0.492 -0.804c -0.192 -0.156 -0.372 -0.24 -0.552 -0.24c -0.276 0 -0.42 0.228 -0.42 0.672c 0 0.288 0.036 0.732 0.12 1.344c 0.036 0.252 0.048 0.432 0.048 0.564c 0 0.636 -0.336 1.104 -1.008 1.392c 1.128 0.276 2.496 1.08 2.496 2.304Z m -1.56 1.02c 0.24 -0.156 0.36 -0.42 0.36 -0.792c 0 -0.24 -0.048 -0.516 -0.156 -0.84c -0.324 -0.984 -1.14 -1.476 -2.448 -1.476h -1.272l 0.756 3.036c 0.06 0.252 0.156 0.384 0.288 0.396c 0.06 0.012 0.3 0.012 0.72 0.012c 0.78 0 1.236 -0.024 1.752 -0.336Z "/></symbol><symbol id="g4327BBE67AFF97C631C6434282B3DD38" overflow="visible"><path d="M 0 0m 3.288 7.692h 1.224c 0.804 0 1.332 -0.18 1.596 -0.54c 0.348 -0.492 0.384 -0.912 0.492 -1.752h 0.396l -0.348 2.76h -6.252v -0.468h 0.336c 0.42 0 0.672 -0.024 0.756 -0.084c 0.084 -0.06 0.132 -0.204 0.132 -0.42v -6.216c 0 -0.216 -0.048 -0.36 -0.132 -0.42c -0.084 -0.06 -0.336 -0.084 -0.756 -0.084h -0.336v -0.468c 0.312 0.024 0.924 0.036 1.848 0.036c 1.044 0 1.716 -0.012 2.028 -0.036v 0.468h -0.432c -0.636 0 -0.984 0.06 -1.044 0.192c -0.024 0.06 -0.036 0.168 -0.036 0.324v 6.288c 0 0.42 0.072 0.42 0.528 0.42Z "/></symbol><symbol id="g30AE13EB7DDA4F866394494F505414E7" overflow="visible"><path d="M 0 0m 4.7628 3.1164c 0 0.3696 -0.3024 0.6132 -0.672 0.6132c -0.378 0 -0.8232 -0.2436 -1.344 -0.7392c -0.378 -0.3612 -0.6804 -0.5964 -0.8904 -0.6972l 0.8064 3.2424c 0.0084 0.0168 0.0168 0.0672 0.0336 0.1428c 0 0.1008 -0.0588 0.1512 -0.168 0.1512l -1.0584 -0.084c -0.1428 -0.0084 -0.21 -0.084 -0.21 -0.2268c 0 -0.0924 0.084 -0.1428 0.2436 -0.1428c 0.1428 0 0.3696 0 0.3696 -0.0924c 0 -0.0336 -0.0084 -0.0924 -0.0336 -0.1764c -0.4032 -1.6044 -0.7896 -3.2256 -1.2012 -4.8216c -0.0084 -0.0336 -0.0084 -0.0588 -0.0084 -0.0672c 0 -0.2016 0.1008 -0.3024 0.3108 -0.3024c 0.21 0 0.3444 0.126 0.4116 0.3696c 0.1344 0.5124 0.3276 1.2768 0.4032 1.5876c 0.6636 -0.0756 0.9996 -0.2856 0.9996 -0.6468c 0 -0.0756 -0.0504 -0.3444 -0.0504 -0.42c 0 -0.5208 0.3948 -0.8904 0.9072 -0.8904c 0.3024 0 0.5544 0.1512 0.7476 0.4536c 0.1764 0.2772 0.2856 0.5544 0.336 0.8484c 0 0.0924 -0.0588 0.1428 -0.168 0.1428c -0.0504 0 -0.084 -0.0084 -0.1092 -0.0252c -0.042 -0.0756 -0.0756 -0.1428 -0.084 -0.2016c -0.168 -0.6132 -0.4032 -0.9156 -0.6972 -0.9156c -0.168 0 -0.252 0.1344 -0.252 0.3948c 0 0.1008 0.0168 0.2184 0.042 0.3612c 0.0252 0.0924 0.042 0.1764 0.042 0.2688c 0 0.3612 -0.1848 0.6132 -0.5628 0.7392c -0.2352 0.084 -0.4704 0.1428 -0.7056 0.168c 0.1596 0.1092 0.3612 0.2772 0.6048 0.4956c 0.3948 0.3528 0.7644 0.7812 1.2768 0.7812c 0.0924 0 0.1596 -0.0168 0.21 -0.0504c -0.2604 -0.0672 -0.3948 -0.2268 -0.3948 -0.4872c 0 -0.2016 0.1596 -0.3444 0.3612 -0.3444c 0.3024 0 0.504 0.2688 0.504 0.5712Z "/></symbol><symbol id="gF97E2BCBD2DC806ADDED35EFE1E918AE" overflow="visible"><path d="M 0 0m 5.8632 3.0828h -5.1912c -0.1344 0 -0.2016 -0.0672 -0.2016 -0.1932c 0 -0.126 0.0672 -0.1932 0.2016 -0.1932h 5.1912c 0.1344 0 0.2016 0.0672 0.2016 0.1932c 0 0.1008 -0.0924 0.1932 -0.2016 0.1932Z m 0 -1.5792h -5.1912c -0.1344 0 -0.2016 -0.0672 -0.2016 -0.1932c 0 -0.126 0.0672 -0.1932 0.2016 -0.1932h 5.1912c 0.1344 0 0.2016 0.0672 0.2016 0.1932c 0 0.1092 -0.0924 0.1932 -0.2016 0.1932Z "/></symbol><symbol id="g20ED7EFE0C9D86B6113C183B5E3A4F77" overflow="visible"><path d="M 0 0m 4.3344 2.6796c 0 0.9492 -0.168 1.6716 -0.4956 2.1672c -0.2688 0.42 -0.8064 0.7308 -1.4532 0.7308c -0.2688 0 -0.5124 -0.042 -0.7224 -0.1344c -0.924 -0.3864 -1.2264 -1.4616 -1.2264 -2.7636c 0 -0.2856 0.0168 -0.5544 0.042 -0.8148c 0.1428 -1.1004 0.6552 -2.0328 1.9068 -2.0328c 0.2688 0 0.5124 0.042 0.7224 0.1344c 0.924 0.378 1.2264 1.428 1.2264 2.7132Z m -0.9576 1.8648c 0.0924 -0.3108 0.1428 -0.8904 0.1428 -1.7556c 0 -0.8232 -0.0336 -1.4028 -0.1092 -1.7472c -0.1008 -0.4956 -0.4536 -0.9072 -1.0248 -0.9072c -0.21 0 -0.42 0.0672 -0.6132 0.21c -0.2604 0.1932 -0.42 0.5712 -0.4872 1.1508c -0.0252 0.1932 -0.0336 0.6216 -0.0336 1.2936c 0 0.8148 0.042 1.3776 0.126 1.68c 0.1428 0.5376 0.4788 0.8064 1.008 0.8064c 0.504 0 0.8736 -0.3276 0.9912 -0.7308Z "/></symbol><symbol id="gD052017303D5CCF04DC337F3DE288151" overflow="visible"><path d="M 0 0m 8.376 4.404h -7.416c -0.192 0 -0.288 -0.096 -0.288 -0.276c 0 -0.18 0.096 -0.276 0.288 -0.276h 7.416c 0.192 0 0.288 0.096 0.288 0.276c 0 0.144 -0.132 0.276 -0.288 0.276Z m 0 -2.256h -7.416c -0.192 0 -0.288 -0.096 -0.288 -0.276c 0 -0.18 0.096 -0.276 0.288 -0.276h 7.416c 0.192 0 0.288 0.096 0.288 0.276c 0 0.156 -0.132 0.276 -0.288 0.276Z "/></symbol><symbol id="g3339055F3CCC152A11D1E2E30772B6FF" overflow="visible"><path d="M 0 0m 5.124 0.0336c 0.336 0.0084 0.6888 0 1.0584 -0.0336v 0.3696c -0.3108 0 -0.504 0.0168 -0.588 0.0504c -0.084 0.0336 -0.1428 0.1092 -0.1932 0.252l -1.8648 5.124c -0.042 0.126 -0.126 0.1932 -0.252 0.1932c -0.126 0 -0.21 -0.0672 -0.2604 -0.21l -1.7892 -4.8972c -0.126 -0.336 -0.4116 -0.5124 -0.8568 -0.5208v -0.3612c 0.3276 0.0252 0.5964 0.042 0.8064 0.0336l 1.0164 -0.0336v 0.3612c -0.4116 0.0084 -0.6132 0.1344 -0.6132 0.378c 0 0.0336 0.0168 0.084 0.042 0.1512l 1.386 3.822l 1.47 -4.0068c 0.0252 -0.0756 0.0336 -0.1176 0.0336 -0.1428c 0 -0.126 -0.2268 -0.1932 -0.6804 -0.1932v -0.3696Z "/></symbol><symbol id="g2DB2DCAE111F4746020188DA32EF7A14" overflow="visible"><path d="M 0 0m 2.16 3.996c -0.276 -0.252 -0.666 -0.378 -1.176 -0.378h -0.126v -0.312h 0.126c 0.306 0 0.582 0.054 0.834 0.156v -2.928c 0 -0.066 -0.006 -0.114 -0.024 -0.138c -0.03 -0.06 -0.222 -0.09 -0.576 -0.09h -0.318v -0.306c 0.234 0.018 0.636 0.024 1.212 0.024c 0.576 0 0.978 -0.006 1.212 -0.024v 0.306h -0.318c -0.354 0 -0.546 0.03 -0.582 0.09c -0.012 0.024 -0.018 0.072 -0.018 0.138v 3.258c 0 0.204 -0.024 0.204 -0.246 0.204Z "/></symbol><symbol id="g158BCAE98310E77DDAD95043030D6987" overflow="visible"><path d="M 0 0m 1.596 1.884c 0 0.288 0.036 0.528 0.096 0.72c 0 0.12 -0.06 0.18 -0.192 0.18c -0.06 0 -0.108 -0.024 -0.132 -0.048c -0.06 -0.06 -0.744 -2.64 -0.744 -2.832c 0 -0.108 0.06 -0.168 0.18 -0.168c 0.06 0 0.144 0.06 0.252 0.192l 0.54 0.636c 0.42 -0.552 1.092 -0.828 2.004 -0.828c 0.792 0 1.488 0.324 2.112 0.96c 0.624 0.636 0.936 1.344 0.936 2.136c 0 0.564 -0.192 1.044 -0.588 1.428c -0.18 0.156 -0.42 0.288 -0.72 0.396c -0.276 0.06 -0.54 0.132 -0.804 0.204l -0.792 0.216c -0.396 0.108 -0.696 0.552 -0.696 1.032c 0 0.516 0.204 0.96 0.624 1.344c 0.42 0.384 0.888 0.576 1.404 0.576c 1.104 0 1.656 -0.6 1.656 -1.788c 0 -0.216 -0.048 -0.456 -0.048 -0.66v -0.036c 0.036 -0.084 0.096 -0.132 0.192 -0.132c 0.108 0 0.18 0.096 0.228 0.276l 0.636 2.604c 0 0.108 -0.06 0.168 -0.18 0.168c -0.06 0 -0.144 -0.06 -0.252 -0.192l -0.516 -0.624c -0.336 0.54 -0.9 0.816 -1.704 0.816c -0.756 0 -1.44 -0.288 -2.04 -0.852c -0.624 -0.576 -0.936 -1.236 -0.936 -1.992c 0 -0.864 0.564 -1.548 1.272 -1.74l 1.26 -0.324c 0.648 -0.18 1.056 -0.408 1.056 -1.212c 0 -0.552 -0.216 -1.044 -0.636 -1.476c -0.42 -0.432 -0.9 -0.66 -1.44 -0.66c -1.176 0 -2.028 0.516 -2.028 1.68Z "/></symbol><symbol id="gFEACB0D48D3452943B88014276AD9F79" overflow="visible"><path d="M 0 0m 0.912 2.544c 0.216 0 0.372 0.156 0.372 0.372c 0 0.21 -0.108 0.336 -0.318 0.372c 0.186 0.27 0.474 0.402 0.864 0.402c 0.57 0 1.026 -0.354 1.026 -0.906c 0 -0.378 -0.264 -0.792 -0.792 -1.242l -1.44 -1.23c -0.048 -0.042 -0.072 -0.078 -0.078 -0.108v -0.204h 2.79l 0.204 1.194h -0.3c -0.054 -0.324 -0.108 -0.504 -0.162 -0.546c -0.03 -0.018 -0.24 -0.03 -0.618 -0.03h -1.086c 0.774 0.57 0.942 0.684 1.44 1.038c 0.24 0.174 0.408 0.336 0.51 0.486c 0.138 0.21 0.21 0.426 0.21 0.648c 0 0.402 -0.174 0.708 -0.516 0.924c -0.294 0.186 -0.648 0.282 -1.068 0.282c -0.354 0 -0.666 -0.09 -0.936 -0.264c -0.312 -0.198 -0.468 -0.468 -0.468 -0.804c 0 -0.228 0.18 -0.384 0.366 -0.384Z "/></symbol><symbol id="g4233AB793CFB38C8157C8A0E041AFF4A" overflow="visible"><path d="M 0 0m 2.556 2.112c 0.558 0.21 0.84 0.546 0.84 1.014c 0 0.288 -0.168 0.516 -0.498 0.678c -0.264 0.126 -0.558 0.192 -0.876 0.192c -0.33 0 -0.618 -0.06 -0.864 -0.18c -0.318 -0.156 -0.474 -0.384 -0.474 -0.684c 0 -0.216 0.15 -0.378 0.366 -0.378c 0.204 0 0.36 0.162 0.36 0.366c 0 0.186 -0.09 0.306 -0.264 0.348c 0.18 0.174 0.468 0.258 0.858 0.258c 0.408 0 0.714 -0.21 0.714 -0.6c 0 -0.492 -0.354 -0.87 -0.822 -0.9c -0.204 -0.012 -0.318 -0.018 -0.342 -0.018c -0.102 -0.006 -0.15 -0.048 -0.15 -0.12c 0 -0.126 0.06 -0.126 0.186 -0.126h 0.39c 0.552 0 0.882 -0.348 0.882 -0.9c 0 -0.558 -0.324 -0.906 -0.876 -0.906c -0.474 0 -0.816 0.09 -1.02 0.27c 0.192 0.048 0.288 0.174 0.288 0.378c 0 0.222 -0.168 0.384 -0.384 0.384c -0.234 0 -0.39 -0.162 -0.39 -0.396c 0 -0.33 0.18 -0.582 0.546 -0.744c 0.27 -0.12 0.594 -0.18 0.978 -0.18c 0.39 0 0.744 0.096 1.056 0.288c 0.36 0.228 0.54 0.528 0.54 0.9c 0 0.564 -0.534 0.93 -1.044 1.056Z "/></symbol></defs></svg>