<svg viewBox="0 0 397.165354331 147.88511811" width="397.165354331pt" height="147.88511811pt" xmlns="http://www.w3.org/2000/svg" xmlns:xlink="http://www.w3.org/1999/xlink" xmlns:h5="http://www.w3.org/1999/xhtml"><g transform="translate(8 8)"><g><g transform="translate(5.952755906 5.952755906)"><path fill="#4097e2" fill-rule="nonzero" transform="translate(0 95.244094488)" d="M 0 0v 11.905511811h 11.905511811v -11.905511811h -11.905511811Z "/><path fill="#4097e2" fill-rule="nonzero" transform="translate(0 71.433070866)" d="M 0 0v 11.905511811h 11.905511811v -11.905511811h -11.905511811Z "/><path fill="#4097e2" fill-rule="nonzero" transform="translate(23.811023622 95.244094488)" d="M 0 0v 11.905511811h 11.905511811v -11.905511811h -11.905511811Z "/><path fill="#4097e2" fill-rule="nonzero" transform="translate(23.811023622 71.433070866)" d="M 0 0v 11.905511811h 11.905511811v -11.905511811h -11.905511811Z "/><path fill="#4097e2" fill-rule="nonzero" transform="translate(0 23.811023622)" d="M 0 0v 11.905511811h 11.905511811v -11.905511811h -11.905511811Z "/><path fill="#4097e2" fill-rule="nonzero" d="M 0 0v 11.905511811h 11.905511811v -11.905511811h -11.905511811Z "/><path fill="#4097e2" fill-rule="nonzero" transform="translate(23.811023622 23.811023622)" d="M 0 0v 11.905511811h 11.905511811v -11.905511811h -11.905511811Z "/><path fill="#4097e2" fill-rule="nonzero" transform="translate(23.811023622)" d="M 0 0v 11.905511811h 11.905511811v -11.905511811h -11.905511811Z "/><path fill="#4097e2" fill-rule="nonzero" transform="translate(71.433070866 95.244094488)" d="M 0 0v 11.905511811h 11.905511811v -11.905511811h -11.905511811Z "/><path fill="#4097e2" fill-rule="nonzero" transform="translate(71.433070866 71.433070866)" d="M 0 0v 11.905511811h 11.905511811v -11.905511811h -11.905511811Z "/><path fill="#4097e2" fill-rule="nonzero" transform="translate(95.244094488 95.244094488)" d="M 0 0v 11.905511811h 11.905511811v -11.905511811h -11.905511811Z "/><path fill="#4097e2" fill-rule="nonzero" transform="translate(95.244094488 71.433070866)" d="M 0 0v 11.905511811h 11.905511811v -11.905511811h -11.905511811Z "/><path fill="#4097e2" fill-rule="nonzero" transform="translate(71.433070866 23.811023622)" d="M 0 0v 11.905511811h 11.905511811v -11.905511811h -11.905511811Z "/><path fill="#4097e2" fill-rule="nonzero" transform="translate(71.433070866)" d="M 0 0v 11.905511811h 11.905511811v -11.905511811h -11.905511811Z "/><path fill="#4097e2" fill-rule="nonzero" transform="translate(95.244094488 23.811023622)" d="M 0 0v 11.905511811h 11.905511811v -11.905511811h -11.905511811Z "/><path fill="#4097e2" fill-rule="nonzero" transform="translate(95.244094488)" d="M 0 0v 11.905511811h 11.905511811v -11.905511811h -11.905511811Z "/></g></g><g transform="translate(131.05511811)"><g transform="translate(2.125984252 2.125984252)"><path fill="#4097e2" fill-rule="nonzero" transform="translate(0 110.551181102)" d="M 0 0v 4.251968504h 4.251968504v -4.251968504h -4.251968504Z "/><path fill="#4097e2" fill-rule="nonzero" transform="translate(0 102.047244094)" d="M 0 0v 4.251968504h 4.251968504v -4.251968504h -4.251968504Z "/><path fill="#4097e2" fill-rule="nonzero" transform="translate(8.503937008 110.551181102)" d="M 0 0v 4.251968504h 4.251968504v -4.251968504h -4.251968504Z "/><path fill="#4097e2" fill-rule="nonzero" transform="translate(8.503937008 102.047244094)" d="M 0 0v 4.251968504h 4.251968504v -4.251968504h -4.251968504Z "/><path fill="#4097e2" fill-rule="nonzero" transform="translate(0 85.039370079)" d="M 0 0v 4.251968504h 4.251968504v -4.251968504h -4.251968504Z "/><path fill="#4097e2" fill-rule="nonzero" transform="translate(0 76.535433071)" d="M 0 0v 4.251968504h 4.251968504v -4.251968504h -4.251968504Z "/><path fill="#4097e2" fill-rule="nonzero" transform="translate(8.503937008 85.039370079)" d="M 0 0v 4.251968504h 4.251968504v -4.251968504h -4.251968504Z "/><path fill="#4097e2" fill-rule="nonzero" transform="translate(8.503937008 76.535433071)" d="M 0 0v 4.251968504h 4.251968504v -4.251968504h -4.251968504Z "/><path fill="#4097e2" fill-rule="nonzero" transform="translate(25.511811024 110.551181102)" d="M 0 0v 4.251968504h 4.251968504v -4.251968504h -4.251968504Z "/><path fill="#4097e2" fill-rule="nonzero" transform="translate(25.511811024 102.047244094)" d="M 0 0v 4.251968504h 4.251968504v -4.251968504h -4.251968504Z "/><path fill="#4097e2" fill-rule="nonzero" transform="translate(34.015748031 110.551181102)" d="M 0 0v 4.251968504h 4.251968504v -4.251968504h -4.251968504Z "/><path fill="#4097e2" fill-rule="nonzero" transform="translate(34.015748031 102.047244094)" d="M 0 0v 4.251968504h 4.251968504v -4.251968504h -4.251968504Z "/><path fill="#4097e2" fill-rule="nonzero" transform="translate(25.511811024 85.039370079)" d="M 0 0v 4.251968504h 4.251968504v -4.251968504h -4.251968504Z "/><path fill="#4097e2" fill-rule="nonzero" transform="translate(25.511811024 76.535433071)" d="M 0 0v 4.251968504h 4.251968504v -4.251968504h -4.251968504Z "/><path fill="#4097e2" fill-rule="nonzero" transform="translate(34.015748031 85.039370079)" d="M 0 0v 4.251968504h 4.251968504v -4.251968504h -4.251968504Z "/><path fill="#4097e2" fill-rule="nonzero" transform="translate(34.015748031 76.535433071)" d="M 0 0v 4.251968504h 4.251968504v -4.251968504h -4.251968504Z "/><path fill="#4097e2" fill-rule="nonzero" transform="translate(0 34.015748031)" d="M 0 0v 4.251968504h 4.251968504v -4.251968504h -4.251968504Z "/><path fill="#4097e2" fill-rule="nonzero" transform="translate(0 25.511811024)" d="M 0 0v 4.251968504h 4.251968504v -4.251968504h -4.251968504Z "/><path fill="#4097e2" fill-rule="nonzero" transform="translate(8.503937008 34.015748031)" d="M 0 0v 4.251968504h 4.251968504v -4.251968504h -4.251968504Z "/><path fill="#4097e2" fill-rule="nonzero" transform="translate(8.503937008 25.511811024)" d="M 0 0v 4.251968504h 4.251968504v -4.251968504h -4.251968504Z "/><path fill="#4097e2" fill-rule="nonzero" transform="translate(0 8.503937008)" d="M 0 0v 4.251968504h 4.251968504v -4.251968504h -4.251968504Z "/><path fill="#4097e2" fill-rule="nonzero" d="M 0 0v 4.251968504h 4.251968504v -4.251968504h -4.251968504Z "/><path fill="#4097e2" fill-rule="nonzero" transform="translate(8.503937008 8.503937008)" d="M 0 0v 4.251968504h 4.251968504v -4.251968504h -4.251968504Z "/><path fill="#4097e2" fill-rule="nonzero" transform="translate(8.503937008)" d="M 0 0v 4.251968504h 4.251968504v -4.251968504h -4.251968504Z "/><path fill="#4097e2" fill-rule="nonzero" transform="translate(25.511811024 34.015748031)" d="M 0 0v 4.251968504h 4.251968504v -4.251968504h -4.251968504Z "/><path fill="#4097e2" fill-rule="nonzero" transform="translate(25.511811024 25.511811024)" d="M 0 0v 4.251968504h 4.251968504v -4.251968504h -4.251968504Z "/><path fill="#4097e2" fill-rule="nonzero" transform="translate(34.015748031 34.015748031)" d="M 0 0v 4.251968504h 4.251968504v -4.251968504h -4.251968504Z "/><path fill="#4097e2" fill-rule="nonzero" transform="translate(34.015748031 25.511811024)" d="M 0 0v 4.251968504h 4.251968504v -4.251968504h -4.251968504Z "/><path fill="#4097e2" fill-rule="nonzero" transform="translate(25.511811024 8.503937008)" d="M 0 0v 4.251968504h 4.251968504v -4.251968504h -4.251968504Z "/><path fill="#4097e2" fill-rule="nonzero" transform="translate(25.511811024)" d="M 0 0v 4.251968504h 4.251968504v -4.251968504h -4.251968504Z "/><path fill="#4097e2" fill-rule="nonzero" transform="translate(34.015748031 8.503937008)" d="M 0 0v 4.251968504h 4.251968504v -4.251968504h -4.251968504Z "/><path fill="#4097e2" fill-rule="nonzero" transform="translate(34.015748031)" d="M 0 0v 4.251968504h 4.251968504v -4.251968504h -4.251968504Z "/><path fill="#4097e2" fill-rule="nonzero" transform="translate(76.535433071 110.551181102)" d="M 0 0v 4.251968504h 4.251968504v -4.251968504h -4.251968504Z "/><path fill="#4097e2" fill-rule="nonzero" transform="translate(76.535433071 102.047244094)" d="M 0 0v 4.251968504h 4.251968504v -4.251968504h -4.251968504Z "/><path fill="#4097e2" fill-rule="nonzero" transform="translate(85.039370079 110.551181102)" d="M 0 0v 4.251968504h 4.251968504v -4.251968504h -4.251968504Z "/><path fill="#4097e2" fill-rule="nonzero" transform="translate(85.039370079 102.047244094)" d="M 0 0v 4.251968504h 4.251968504v -4.251968504h -4.251968504Z "/><path fill="#4097e2" fill-rule="nonzero" transform="translate(76.535433071 85.039370079)" d="M 0 0v 4.251968504h 4.251968504v -4.251968504h -4.251968504Z "/><path fill="#4097e2" fill-rule="nonzero" transform="translate(76.535433071 76.535433071)" d="M 0 0v 4.251968504h 4.251968504v -4.251968504h -4.251968504Z "/><path fill="#4097e2" fill-rule="nonzero" transform="translate(85.039370079 85.039370079)" d="M 0 0v 4.251968504h 4.251968504v -4.251968504h -4.251968504Z "/><path fill="#4097e2" fill-rule="nonzero" transform="translate(85.039370079 76.535433071)" d="M 0 0v 4.251968504h 4.251968504v -4.251968504h -4.251968504Z "/><path fill="#4097e2" fill-rule="nonzero" transform="translate(102.047244094 110.551181102)" d="M 0 0v 4.251968504h 4.251968504v -4.251968504h -4.251968504Z "/><path fill="#4097e2" fill-rule="nonzero" transform="translate(102.047244094 102.047244094)" d="M 0 0v 4.251968504h 4.251968504v -4.251968504h -4.251968504Z "/><path fill="#4097e2" fill-rule="nonzero" transform="translate(110.551181102 110.551181102)" d="M 0 0v 4.251968504h 4.251968504v -4.251968504h -4.251968504Z "/><path fill="#4097e2" fill-rule="nonzero" transform="translate(110.551181102 102.047244094)" d="M 0 0v 4.251968504h 4.251968504v -4.251968504h -4.251968504Z "/><path fill="#4097e2" fill-rule="nonzero" transform="translate(102.047244094 85.039370079)" d="M 0 0v 4.251968504h 4.251968504v -4.251968504h -4.251968504Z "/><path fill="#4097e2" fill-rule="nonzero" transform="translate(102.047244094 76.535433071)" d="M 0 0v 4.251968504h 4.251968504v -4.251968504h -4.251968504Z "/><path fill="#4097e2" fill-rule="nonzero" transform="translate(110.551181102 85.039370079)" d="M 0 0v 4.251968504h 4.251968504v -4.251968504h -4.251968504Z "/><path fill="#4097e2" fill-rule="nonzero" transform="translate(110.551181102 76.535433071)" d="M 0 0v 4.251968504h 4.251968504v -4.251968504h -4.251968504Z "/><path fill="#4097e2" fill-rule="nonzero" transform="translate(76.535433071 34.015748031)" d="M 0 0v 4.251968504h 4.251968504v -4.251968504h -4.251968504Z "/><path fill="#4097e2" fill-rule="nonzero" transform="translate(76.535433071 25.511811024)" d="M 0 0v 4.251968504h 4.251968504v -4.251968504h -4.251968504Z "/><path fill="#4097e2" fill-rule="nonzero" transform="translate(85.039370079 34.015748031)" d="M 0 0v 4.251968504h 4.251968504v -4.251968504h -4.251968504Z "/><path fill="#4097e2" fill-rule="nonzero" transform="translate(85.039370079 25.511811024)" d="M 0 0v 4.251968504h 4.251968504v -4.251968504h -4.251968504Z "/><path fill="#4097e2" fill-rule="nonzero" transform="translate(76.535433071 8.503937008)" d="M 0 0v 4.251968504h 4.251968504v -4.251968504h -4.251968504Z "/><path fill="#4097e2" fill-rule="nonzero" transform="translate(76.535433071)" d="M 0 0v 4.251968504h 4.251968504v -4.251968504h -4.251968504Z "/><path fill="#4097e2" fill-rule="nonzero" transform="translate(85.039370079 8.503937008)" d="M 0 0v 4.251968504h 4.251968504v -4.251968504h -4.251968504Z "/><path fill="#4097e2" fill-rule="nonzero" transform="translate(85.039370079)" d="M 0 0v 4.251968504h 4.251968504v -4.251968504h -4.251968504Z "/><path fill="#4097e2" fill-rule="nonzero" transform="translate(102.047244094 34.015748031)" d="M 0 0v 4.251968504h 4.251968504v -4.251968504h -4.251968504Z "/><path fill="#4097e2" fill-rule="nonzero" transform="translate(102.047244094 25.511811024)" d="M 0 0v 4.251968504h 4.251968504v -4.251968504h -4.251968504Z "/><path fill="#4097e2" fill-rule="nonzero" transform="translate(110.551181102 34.015748031)" d="M 0 0v 4.251968504h 4.251968504v -4.251968504h -4.251968504Z "/><path fill="#4097e2" fill-rule="nonzero" transform="translate(110.551181102 25.511811024)" d="M 0 0v 4.251968504h 4.251968504v -4.251968504h -4.251968504Z "/><path fill="#4097e2" fill-rule="nonzero" transform="translate(102.047244094 8.503937008)" d="M 0 0v 4.251968504h 4.251968504v -4.251968504h -4.251968504Z "/><path fill="#4097e2" fill-rule="nonzero" transform="translate(102.047244094)" d="M 0 0v 4.251968504h 4.251968504v -4.251968504h -4.251968504Z "/><path fill="#4097e2" fill-rule="nonzero" transform="translate(110.551181102 8.503937008)" d="M 0 0v 4.251968504h 4.251968504v -4.251968504h -4.251968504Z "/><path fill="#4097e2" fill-rule="nonzero" transform="translate(110.551181102)" d="M 0 0v 4.251968504h 4.251968504v -4.251968504h -4.251968504Z "/></g></g><g transform="translate(262.11023622)"><g transform="translate(0.725945842 0.725945842)"><path fill="#4097e2" fill-rule="nonzero" transform="translate(0 116.151334742)" d="M 0 0v 1.451891684h 1.451891684v -1.451891684h -1.451891684Z "/><path fill="#4097e2" fill-rule="nonzero" transform="translate(0 113.247551373)" d="M 0 0v 1.451891684h 1.451891684v -1.451891684h -1.451891684Z "/><path fill="#4097e2" fill-rule="nonzero" transform="translate(2.903783369 116.151334742)" d="M 0 0v 1.451891684h 1.451891684v -1.451891684h -1.451891684Z "/><path fill="#4097e2" fill-rule="nonzero" transform="translate(2.903783369 113.247551373)" d="M 0 0v 1.451891684h 1.451891684v -1.451891684h -1.451891684Z "/><path fill="#4097e2" fill-rule="nonzero" transform="translate(0 107.439984636)" d="M 0 0v 1.451891684h 1.451891684v -1.451891684h -1.451891684Z "/><path fill="#4097e2" fill-rule="nonzero" transform="translate(0 104.536201268)" d="M 0 0v 1.451891684h 1.451891684v -1.451891684h -1.451891684Z "/><path fill="#4097e2" fill-rule="nonzero" transform="translate(2.903783369 107.439984636)" d="M 0 0v 1.451891684h 1.451891684v -1.451891684h -1.451891684Z "/><path fill="#4097e2" fill-rule="nonzero" transform="translate(2.903783369 104.536201268)" d="M 0 0v 1.451891684h 1.451891684v -1.451891684h -1.451891684Z "/><path fill="#4097e2" fill-rule="nonzero" transform="translate(8.711350106 116.151334742)" d="M 0 0v 1.451891684h 1.451891684v -1.451891684h -1.451891684Z "/><path fill="#4097e2" fill-rule="nonzero" transform="translate(8.711350106 113.247551373)" d="M 0 0v 1.451891684h 1.451891684v -1.451891684h -1.451891684Z "/><path fill="#4097e2" fill-rule="nonzero" transform="translate(11.615133474 116.151334742)" d="M 0 0v 1.451891684h 1.451891684v -1.451891684h -1.451891684Z "/><path fill="#4097e2" fill-rule="nonzero" transform="translate(11.615133474 113.247551373)" d="M 0 0v 1.451891684h 1.451891684v -1.451891684h -1.451891684Z "/><path fill="#4097e2" fill-rule="nonzero" transform="translate(8.711350106 107.439984636)" d="M 0 0v 1.451891684h 1.451891684v -1.451891684h -1.451891684Z "/><path fill="#4097e2" fill-rule="nonzero" transform="translate(8.711350106 104.536201268)" d="M 0 0v 1.451891684h 1.451891684v -1.451891684h -1.451891684Z "/><path fill="#4097e2" fill-rule="nonzero" transform="translate(11.615133474 107.439984636)" d="M 0 0v 1.451891684h 1.451891684v -1.451891684h -1.451891684Z "/><path fill="#4097e2" fill-rule="nonzero" transform="translate(11.615133474 104.536201268)" d="M 0 0v 1.451891684h 1.451891684v -1.451891684h -1.451891684Z "/><path fill="#4097e2" fill-rule="nonzero" transform="translate(0 90.017284425)" d="M 0 0v 1.451891684h 1.451891684v -1.451891684h -1.451891684Z "/><path fill="#4097e2" fill-rule="nonzero" transform="translate(0 87.113501056)" d="M 0 0v 1.451891684h 1.451891684v -1.451891684h -1.451891684Z "/><path fill="#4097e2" fill-rule="nonzero" transform="translate(2.903783369 90.017284425)" d="M 0 0v 1.451891684h 1.451891684v -1.451891684h -1.451891684Z "/><path fill="#4097e2" fill-rule="nonzero" transform="translate(2.903783369 87.113501056)" d="M 0 0v 1.451891684h 1.451891684v -1.451891684h -1.451891684Z "/><path fill="#4097e2" fill-rule="nonzero" transform="translate(0 81.305934319)" d="M 0 0v 1.451891684h 1.451891684v -1.451891684h -1.451891684Z "/><path fill="#4097e2" fill-rule="nonzero" transform="translate(0 78.402150951)" d="M 0 0v 1.451891684h 1.451891684v -1.451891684h -1.451891684Z "/><path fill="#4097e2" fill-rule="nonzero" transform="translate(2.903783369 81.305934319)" d="M 0 0v 1.451891684h 1.451891684v -1.451891684h -1.451891684Z "/><path fill="#4097e2" fill-rule="nonzero" transform="translate(2.903783369 78.402150951)" d="M 0 0v 1.451891684h 1.451891684v -1.451891684h -1.451891684Z "/><path fill="#4097e2" fill-rule="nonzero" transform="translate(8.711350106 90.017284425)" d="M 0 0v 1.451891684h 1.451891684v -1.451891684h -1.451891684Z "/><path fill="#4097e2" fill-rule="nonzero" transform="translate(8.711350106 87.113501056)" d="M 0 0v 1.451891684h 1.451891684v -1.451891684h -1.451891684Z "/><path fill="#4097e2" fill-rule="nonzero" transform="translate(11.615133474 90.017284425)" d="M 0 0v 1.451891684h 1.451891684v -1.451891684h -1.451891684Z "/><path fill="#4097e2" fill-rule="nonzero" transform="translate(11.615133474 87.113501056)" d="M 0 0v 1.451891684h 1.451891684v -1.451891684h -1.451891684Z "/><path fill="#4097e2" fill-rule="nonzero" transform="translate(8.711350106 81.305934319)" d="M 0 0v 1.451891684h 1.451891684v -1.451891684h -1.451891684Z "/><path fill="#4097e2" fill-rule="nonzero" transform="translate(8.711350106 78.402150951)" d="M 0 0v 1.451891684h 1.451891684v -1.451891684h -1.451891684Z "/><path fill="#4097e2" fill-rule="nonzero" transform="translate(11.615133474 81.305934319)" d="M 0 0v 1.451891684h 1.451891684v -1.451891684h -1.451891684Z "/><path fill="#4097e2" fill-rule="nonzero" transform="translate(11.615133474 78.402150951)" d="M 0 0v 1.451891684h 1.451891684v -1.451891684h -1.451891684Z "/><path fill="#4097e2" fill-rule="nonzero" transform="translate(26.134050317 116.151334742)" d="M 0 0v 1.451891684h 1.451891684v -1.451891684h -1.451891684Z "/><path fill="#4097e2" fill-rule="nonzero" transform="translate(26.134050317 113.247551373)" d="M 0 0v 1.451891684h 1.451891684v -1.451891684h -1.451891684Z "/><path fill="#4097e2" fill-rule="nonzero" transform="translate(29.037833685 116.151334742)" d="M 0 0v 1.451891684h 1.451891684v -1.451891684h -1.451891684Z "/><path fill="#4097e2" fill-rule="nonzero" transform="translate(29.037833685 113.247551373)" d="M 0 0v 1.451891684h 1.451891684v -1.451891684h -1.451891684Z "/><path fill="#4097e2" fill-rule="nonzero" transform="translate(26.134050317 107.439984636)" d="M 0 0v 1.451891684h 1.451891684v -1.451891684h -1.451891684Z "/><path fill="#4097e2" fill-rule="nonzero" transform="translate(26.134050317 104.536201268)" d="M 0 0v 1.451891684h 1.451891684v -1.451891684h -1.451891684Z "/><path fill="#4097e2" fill-rule="nonzero" transform="translate(29.037833685 107.439984636)" d="M 0 0v 1.451891684h 1.451891684v -1.451891684h -1.451891684Z "/><path fill="#4097e2" fill-rule="nonzero" transform="translate(29.037833685 104.536201268)" d="M 0 0v 1.451891684h 1.451891684v -1.451891684h -1.451891684Z "/><path fill="#4097e2" fill-rule="nonzero" transform="translate(34.845400423 116.151334742)" d="M 0 0v 1.451891684h 1.451891684v -1.451891684h -1.451891684Z "/><path fill="#4097e2" fill-rule="nonzero" transform="translate(34.845400423 113.247551373)" d="M 0 0v 1.451891684h 1.451891684v -1.451891684h -1.451891684Z "/><path fill="#4097e2" fill-rule="nonzero" transform="translate(37.749183791 116.151334742)" d="M 0 0v 1.451891684h 1.451891684v -1.451891684h -1.451891684Z "/><path fill="#4097e2" fill-rule="nonzero" transform="translate(37.749183791 113.247551373)" d="M 0 0v 1.451891684h 1.451891684v -1.451891684h -1.451891684Z "/><path fill="#4097e2" fill-rule="nonzero" transform="translate(34.845400423 107.439984636)" d="M 0 0v 1.451891684h 1.451891684v -1.451891684h -1.451891684Z "/><path fill="#4097e2" fill-rule="nonzero" transform="translate(34.845400423 104.536201268)" d="M 0 0v 1.451891684h 1.451891684v -1.451891684h -1.451891684Z "/><path fill="#4097e2" fill-rule="nonzero" transform="translate(37.749183791 107.439984636)" d="M 0 0v 1.451891684h 1.451891684v -1.451891684h -1.451891684Z "/><path fill="#4097e2" fill-rule="nonzero" transform="translate(37.749183791 104.536201268)" d="M 0 0v 1.451891684h 1.451891684v -1.451891684h -1.451891684Z "/><path fill="#4097e2" fill-rule="nonzero" transform="translate(26.134050317 90.017284425)" d="M 0 0v 1.451891684h 1.451891684v -1.451891684h -1.451891684Z "/><path fill="#4097e2" fill-rule="nonzero" transform="translate(26.134050317 87.113501056)" d="M 0 0v 1.451891684h 1.451891684v -1.451891684h -1.451891684Z "/><path fill="#4097e2" fill-rule="nonzero" transform="translate(29.037833685 90.017284425)" d="M 0 0v 1.451891684h 1.451891684v -1.451891684h -1.451891684Z "/><path fill="#4097e2" fill-rule="nonzero" transform="translate(29.037833685 87.113501056)" d="M 0 0v 1.451891684h 1.451891684v -1.451891684h -1.451891684Z "/><path fill="#4097e2" fill-rule="nonzero" transform="translate(26.134050317 81.305934319)" d="M 0 0v 1.451891684h 1.451891684v -1.451891684h -1.451891684Z "/><path fill="#4097e2" fill-rule="nonzero" transform="translate(26.134050317 78.402150951)" d="M 0 0v 1.451891684h 1.451891684v -1.451891684h -1.451891684Z "/><path fill="#4097e2" fill-rule="nonzero" transform="translate(29.037833685 81.305934319)" d="M 0 0v 1.451891684h 1.451891684v -1.451891684h -1.451891684Z "/><path fill="#4097e2" fill-rule="nonzero" transform="translate(29.037833685 78.402150951)" d="M 0 0v 1.451891684h 1.451891684v -1.451891684h -1.451891684Z "/><path fill="#4097e2" fill-rule="nonzero" transform="translate(34.845400423 90.017284425)" d="M 0 0v 1.451891684h 1.451891684v -1.451891684h -1.451891684Z "/><path fill="#4097e2" fill-rule="nonzero" transform="translate(34.845400423 87.113501056)" d="M 0 0v 1.451891684h 1.451891684v -1.451891684h -1.451891684Z "/><path fill="#4097e2" fill-rule="nonzero" transform="translate(37.749183791 90.017284425)" d="M 0 0v 1.451891684h 1.451891684v -1.451891684h -1.451891684Z "/><path fill="#4097e2" fill-rule="nonzero" transform="translate(37.749183791 87.113501056)" d="M 0 0v 1.451891684h 1.451891684v -1.451891684h -1.451891684Z "/><path fill="#4097e2" fill-rule="nonzero" transform="translate(34.845400423 81.305934319)" d="M 0 0v 1.451891684h 1.451891684v -1.451891684h -1.451891684Z "/><path fill="#4097e2" fill-rule="nonzero" transform="translate(34.845400423 78.402150951)" d="M 0 0v 1.451891684h 1.451891684v -1.451891684h -1.451891684Z "/><path fill="#4097e2" fill-rule="nonzero" transform="translate(37.749183791 81.305934319)" d="M 0 0v 1.451891684h 1.451891684v -1.451891684h -1.451891684Z "/><path fill="#4097e2" fill-rule="nonzero" transform="translate(37.749183791 78.402150951)" d="M 0 0v 1.451891684h 1.451891684v -1.451891684h -1.451891684Z "/><path fill="#4097e2" fill-rule="nonzero" transform="translate(0 37.749183791)" d="M 0 0v 1.451891684h 1.451891684v -1.451891684h -1.451891684Z "/><path fill="#4097e2" fill-rule="nonzero" transform="translate(0 34.845400423)" d="M 0 0v 1.451891684h 1.451891684v -1.451891684h -1.451891684Z "/><path fill="#4097e2" fill-rule="nonzero" transform="translate(2.903783369 37.749183791)" d="M 0 0v 1.451891684h 1.451891684v -1.451891684h -1.451891684Z "/><path fill="#4097e2" fill-rule="nonzero" transform="translate(2.903783369 34.845400423)" d="M 0 0v 1.451891684h 1.451891684v -1.451891684h -1.451891684Z "/><path fill="#4097e2" fill-rule="nonzero" transform="translate(0 29.037833685)" d="M 0 0v 1.451891684h 1.451891684v -1.451891684h -1.451891684Z "/><path fill="#4097e2" fill-rule="nonzero" transform="translate(0 26.134050317)" d="M 0 0v 1.451891684h 1.451891684v -1.451891684h -1.451891684Z "/><path fill="#4097e2" fill-rule="nonzero" transform="translate(2.903783369 29.037833685)" d="M 0 0v 1.451891684h 1.451891684v -1.451891684h -1.451891684Z "/><path fill="#4097e2" fill-rule="nonzero" transform="translate(2.903783369 26.134050317)" d="M 0 0v 1.451891684h 1.451891684v -1.451891684h -1.451891684Z "/><path fill="#4097e2" fill-rule="nonzero" transform="translate(8.711350106 37.749183791)" d="M 0 0v 1.451891684h 1.451891684v -1.451891684h -1.451891684Z "/><path fill="#4097e2" fill-rule="nonzero" transform="translate(8.711350106 34.845400423)" d="M 0 0v 1.451891684h 1.451891684v -1.451891684h -1.451891684Z "/><path fill="#4097e2" fill-rule="nonzero" transform="translate(11.615133474 37.749183791)" d="M 0 0v 1.451891684h 1.451891684v -1.451891684h -1.451891684Z "/><path fill="#4097e2" fill-rule="nonzero" transform="translate(11.615133474 34.845400423)" d="M 0 0v 1.451891684h 1.451891684v -1.451891684h -1.451891684Z "/><path fill="#4097e2" fill-rule="nonzero" transform="translate(8.711350106 29.037833685)" d="M 0 0v 1.451891684h 1.451891684v -1.451891684h -1.451891684Z "/><path fill="#4097e2" fill-rule="nonzero" transform="translate(8.711350106 26.134050317)" d="M 0 0v 1.451891684h 1.451891684v -1.451891684h -1.451891684Z "/><path fill="#4097e2" fill-rule="nonzero" transform="translate(11.615133474 29.037833685)" d="M 0 0v 1.451891684h 1.451891684v -1.451891684h -1.451891684Z "/><path fill="#4097e2" fill-rule="nonzero" transform="translate(11.615133474 26.134050317)" d="M 0 0v 1.451891684h 1.451891684v -1.451891684h -1.451891684Z "/><path fill="#4097e2" fill-rule="nonzero" transform="translate(0 11.615133474)" d="M 0 0v 1.451891684h 1.451891684v -1.451891684h -1.451891684Z "/><path fill="#4097e2" fill-rule="nonzero" transform="translate(0 8.711350106)" d="M 0 0v 1.451891684h 1.451891684v -1.451891684h -1.451891684Z "/><path fill="#4097e2" fill-rule="nonzero" transform="translate(2.903783369 11.615133474)" d="M 0 0v 1.451891684h 1.451891684v -1.451891684h -1.451891684Z "/><path fill="#4097e2" fill-rule="nonzero" transform="translate(2.903783369 8.711350106)" d="M 0 0v 1.451891684h 1.451891684v -1.451891684h -1.451891684Z "/><path fill="#4097e2" fill-rule="nonzero" transform="translate(0 2.903783369)" d="M 0 0v 1.451891684h 1.451891684v -1.451891684h -1.451891684Z "/><path fill="#4097e2" fill-rule="nonzero" d="M 0 0v 1.451891684h 1.451891684v -1.451891684h -1.451891684Z "/><path fill="#4097e2" fill-rule="nonzero" transform="translate(2.903783369 2.903783369)" d="M 0 0v 1.451891684h 1.451891684v -1.451891684h -1.451891684Z "/><path fill="#4097e2" fill-rule="nonzero" transform="translate(2.903783369)" d="M 0 0v 1.451891684h 1.451891684v -1.451891684h -1.451891684Z "/><path fill="#4097e2" fill-rule="nonzero" transform="translate(8.711350106 11.615133474)" d="M 0 0v 1.451891684h 1.451891684v -1.451891684h -1.451891684Z "/><path fill="#4097e2" fill-rule="nonzero" transform="translate(8.711350106 8.711350106)" d="M 0 0v 1.451891684h 1.451891684v -1.451891684h -1.451891684Z "/><path fill="#4097e2" fill-rule="nonzero" transform="translate(11.615133474 11.615133474)" d="M 0 0v 1.451891684h 1.451891684v -1.451891684h -1.451891684Z "/><path fill="#4097e2" fill-rule="nonzero" transform="translate(11.615133474 8.711350106)" d="M 0 0v 1.451891684h 1.451891684v -1.451891684h -1.451891684Z "/><path fill="#4097e2" fill-rule="nonzero" transform="translate(8.711350106 2.903783369)" d="M 0 0v 1.451891684h 1.451891684v -1.451891684h -1.451891684Z "/><path fill="#4097e2" fill-rule="nonzero" transform="translate(8.711350106)" d="M 0 0v 1.451891684h 1.451891684v -1.451891684h -1.451891684Z "/><path fill="#4097e2" fill-rule="nonzero" transform="translate(11.615133474 2.903783369)" d="M 0 0v 1.451891684h 1.451891684v -1.451891684h -1.451891684Z "/><path fill="#4097e2" fill-rule="nonzero" transform="translate(11.615133474)" d="M 0 0v 1.451891684h 1.451891684v -1.451891684h -1.451891684Z "/><path fill="#4097e2" fill-rule="nonzero" transform="translate(26.134050317 37.749183791)" d="M 0 0v 1.451891684h 1.451891684v -1.451891684h -1.451891684Z "/><path fill="#4097e2" fill-rule="nonzero" transform="translate(26.134050317 34.845400423)" d="M 0 0v 1.451891684h 1.451891684v -1.451891684h -1.451891684Z "/><path fill="#4097e2" fill-rule="nonzero" transform="translate(29.037833685 37.749183791)" d="M 0 0v 1.451891684h 1.451891684v -1.451891684h -1.451891684Z "/><path fill="#4097e2" fill-rule="nonzero" transform="translate(29.037833685 34.845400423)" d="M 0 0v 1.451891684h 1.451891684v -1.451891684h -1.451891684Z "/><path fill="#4097e2" fill-rule="nonzero" transform="translate(26.134050317 29.037833685)" d="M 0 0v 1.451891684h 1.451891684v -1.451891684h -1.451891684Z "/><path fill="#4097e2" fill-rule="nonzero" transform="translate(26.134050317 26.134050317)" d="M 0 0v 1.451891684h 1.451891684v -1.451891684h -1.451891684Z "/><path fill="#4097e2" fill-rule="nonzero" transform="translate(29.037833685 29.037833685)" d="M 0 0v 1.451891684h 1.451891684v -1.451891684h -1.451891684Z "/><path fill="#4097e2" fill-rule="nonzero" transform="translate(29.037833685 26.134050317)" d="M 0 0v 1.451891684h 1.451891684v -1.451891684h -1.451891684Z "/><path fill="#4097e2" fill-rule="nonzero" transform="translate(34.845400423 37.749183791)" d="M 0 0v 1.451891684h 1.451891684v -1.451891684h -1.451891684Z "/><path fill="#4097e2" fill-rule="nonzero" transform="translate(34.845400423 34.845400423)" d="M 0 0v 1.451891684h 1.451891684v -1.451891684h -1.451891684Z "/><path fill="#4097e2" fill-rule="nonzero" transform="translate(37.749183791 37.749183791)" d="M 0 0v 1.451891684h 1.451891684v -1.451891684h -1.451891684Z "/><path fill="#4097e2" fill-rule="nonzero" transform="translate(37.749183791 34.845400423)" d="M 0 0v 1.451891684h 1.451891684v -1.451891684h -1.451891684Z "/><path fill="#4097e2" fill-rule="nonzero" transform="translate(34.845400423 29.037833685)" d="M 0 0v 1.451891684h 1.451891684v -1.451891684h -1.451891684Z "/><path fill="#4097e2" fill-rule="nonzero" transform="translate(34.845400423 26.134050317)" d="M 0 0v 1.451891684h 1.451891684v -1.451891684h -1.451891684Z "/><path fill="#4097e2" fill-rule="nonzero" transform="translate(37.749183791 29.037833685)" d="M 0 0v 1.451891684h 1.451891684v -1.451891684h -1.451891684Z "/><path fill="#4097e2" fill-rule="nonzero" transform="translate(37.749183791 26.134050317)" d="M 0 0v 1.451891684h 1.451891684v -1.451891684h -1.451891684Z "/><path fill="#4097e2" fill-rule="nonzero" transform="translate(26.134050317 11.615133474)" d="M 0 0v 1.451891684h 1.451891684v -1.451891684h -1.451891684Z "/><path fill="#4097e2" fill-rule="nonzero" transform="translate(26.134050317 8.711350106)" d="M 0 0v 1.451891684h 1.451891684v -1.451891684h -1.451891684Z "/><path fill="#4097e2" fill-rule="nonzero" transform="translate(29.037833685 11.615133474)" d="M 0 0v 1.451891684h 1.451891684v -1.451891684h -1.451891684Z "/><path fill="#4097e2" fill-rule="nonzero" transform="translate(29.037833685 8.711350106)" d="M 0 0v 1.451891684h 1.451891684v -1.451891684h -1.451891684Z "/><path fill="#4097e2" fill-rule="nonzero" transform="translate(26.134050317 2.903783369)" d="M 0 0v 1.451891684h 1.451891684v -1.451891684h -1.451891684Z "/><path fill="#4097e2" fill-rule="nonzero" transform="translate(26.134050317)" d="M 0 0v 1.451891684h 1.451891684v -1.451891684h -1.451891684Z "/><path fill="#4097e2" fill-rule="nonzero" transform="translate(29.037833685 2.903783369)" d="M 0 0v 1.451891684h 1.451891684v -1.451891684h -1.451891684Z "/><path fill="#4097e2" fill-rule="nonzero" transform="translate(29.037833685)" d="M 0 0v 1.451891684h 1.451891684v -1.451891684h -1.451891684Z "/><path fill="#4097e2" fill-rule="nonzero" transform="translate(34.845400423 11.615133474)" d="M 0 0v 1.451891684h 1.451891684v -1.451891684h -1.451891684Z "/><path fill="#4097e2" fill-rule="nonzero" transform="translate(34.845400423 8.711350106)" d="M 0 0v 1.451891684h 1.451891684v -1.451891684h -1.451891684Z "/><path fill="#4097e2" fill-rule="nonzero" transform="translate(37.749183791 11.615133474)" d="M 0 0v 1.451891684h 1.451891684v -1.451891684h -1.451891684Z "/><path fill="#4097e2" fill-rule="nonzero" transform="translate(37.749183791 8.711350106)" d="M 0 0v 1.451891684h 1.451891684v -1.451891684h -1.451891684Z "/><path fill="#4097e2" fill-rule="nonzero" transform="translate(34.845400423 2.903783369)" d="M 0 0v 1.451891684h 1.451891684v -1.451891684h -1.451891684Z "/><path fill="#4097e2" fill-rule="nonzero" transform="translate(34.845400423)" d="M 0 0v 1.451891684h 1.451891684v -1.451891684h -1.451891684Z "/><path fill="#4097e2" fill-rule="nonzero" transform="translate(37.749183791 2.903783369)" d="M 0 0v 1.451891684h 1.451891684v -1.451891684h -1.451891684Z "/><path fill="#4097e2" fill-rule="nonzero" transform="translate(37.749183791)" d="M 0 0v 1.451891684h 1.451891684v -1.451891684h -1.451891684Z "/><path fill="#4097e2" fill-rule="nonzero" transform="translate(78.402150951 116.151334742)" d="M 0 0v 1.451891684h 1.451891684v -1.451891684h -1.451891684Z "/><path fill="#4097e2" fill-rule="nonzero" transform="translate(78.402150951 113.247551373)" d="M 0 0v 1.451891684h 1.451891684v -1.451891684h -1.451891684Z "/><path fill="#4097e2" fill-rule="nonzero" transform="translate(81.305934319 116.151334742)" d="M 0 0v 1.451891684h 1.451891684v -1.451891684h -1.451891684Z "/><path fill="#4097e2" fill-rule="nonzero" transform="translate(81.305934319 113.247551373)" d="M 0 0v 1.451891684h 1.451891684v -1.451891684h -1.451891684Z "/><path fill="#4097e2" fill-rule="nonzero" transform="translate(78.402150951 107.439984636)" d="M 0 0v 1.451891684h 1.451891684v -1.451891684h -1.451891684Z "/><path fill="#4097e2" fill-rule="nonzero" transform="translate(78.402150951 104.536201268)" d="M 0 0v 1.451891684h 1.451891684v -1.451891684h -1.451891684Z "/><path fill="#4097e2" fill-rule="nonzero" transform="translate(81.305934319 107.439984636)" d="M 0 0v 1.451891684h 1.451891684v -1.451891684h -1.451891684Z "/><path fill="#4097e2" fill-rule="nonzero" transform="translate(81.305934319 104.536201268)" d="M 0 0v 1.451891684h 1.451891684v -1.451891684h -1.451891684Z "/><path fill="#4097e2" fill-rule="nonzero" transform="translate(87.113501056 116.151334742)" d="M 0 0v 1.451891684h 1.451891684v -1.451891684h -1.451891684Z "/><path fill="#4097e2" fill-rule="nonzero" transform="translate(87.113501056 113.247551373)" d="M 0 0v 1.451891684h 1.451891684v -1.451891684h -1.451891684Z "/><path fill="#4097e2" fill-rule="nonzero" transform="translate(90.017284425 116.151334742)" d="M 0 0v 1.451891684h 1.451891684v -1.451891684h -1.451891684Z "/><path fill="#4097e2" fill-rule="nonzero" transform="translate(90.017284425 113.247551373)" d="M 0 0v 1.451891684h 1.451891684v -1.451891684h -1.451891684Z "/><path fill="#4097e2" fill-rule="nonzero" transform="translate(87.113501056 107.439984636)" d="M 0 0v 1.451891684h 1.451891684v -1.451891684h -1.451891684Z "/><path fill="#4097e2" fill-rule="nonzero" transform="translate(87.113501056 104.536201268)" d="M 0 0v 1.451891684h 1.451891684v -1.451891684h -1.451891684Z "/><path fill="#4097e2" fill-rule="nonzero" transform="translate(90.017284425 107.439984636)" d="M 0 0v 1.451891684h 1.451891684v -1.451891684h -1.451891684Z "/><path fill="#4097e2" fill-rule="nonzero" transform="translate(90.017284425 104.536201268)" d="M 0 0v 1.451891684h 1.451891684v -1.451891684h -1.451891684Z "/><path fill="#4097e2" fill-rule="nonzero" transform="translate(78.402150951 90.017284425)" d="M 0 0v 1.451891684h 1.451891684v -1.451891684h -1.451891684Z "/><path fill="#4097e2" fill-rule="nonzero" transform="translate(78.402150951 87.113501056)" d="M 0 0v 1.451891684h 1.451891684v -1.451891684h -1.451891684Z "/><path fill="#4097e2" fill-rule="nonzero" transform="translate(81.305934319 90.017284425)" d="M 0 0v 1.451891684h 1.451891684v -1.451891684h -1.451891684Z "/><path fill="#4097e2" fill-rule="nonzero" transform="translate(81.305934319 87.113501056)" d="M 0 0v 1.451891684h 1.451891684v -1.451891684h -1.451891684Z "/><path fill="#4097e2" fill-rule="nonzero" transform="translate(78.402150951 81.305934319)" d="M 0 0v 1.451891684h 1.451891684v -1.451891684h -1.451891684Z "/><path fill="#4097e2" fill-rule="nonzero" transform="translate(78.402150951 78.402150951)" d="M 0 0v 1.451891684h 1.451891684v -1.451891684h -1.451891684Z "/><path fill="#4097e2" fill-rule="nonzero" transform="translate(81.305934319 81.305934319)" d="M 0 0v 1.451891684h 1.451891684v -1.451891684h -1.451891684Z "/><path fill="#4097e2" fill-rule="nonzero" transform="translate(81.305934319 78.402150951)" d="M 0 0v 1.451891684h 1.451891684v -1.451891684h -1.451891684Z "/><path fill="#4097e2" fill-rule="nonzero" transform="translate(87.113501056 90.017284425)" d="M 0 0v 1.451891684h 1.451891684v -1.451891684h -1.451891684Z "/><path fill="#4097e2" fill-rule="nonzero" transform="translate(87.113501056 87.113501056)" d="M 0 0v 1.451891684h 1.451891684v -1.451891684h -1.451891684Z "/><path fill="#4097e2" fill-rule="nonzero" transform="translate(90.017284425 90.017284425)" d="M 0 0v 1.451891684h 1.451891684v -1.451891684h -1.451891684Z "/><path fill="#4097e2" fill-rule="nonzero" transform="translate(90.017284425 87.113501056)" d="M 0 0v 1.451891684h 1.451891684v -1.451891684h -1.451891684Z "/><path fill="#4097e2" fill-rule="nonzero" transform="translate(87.113501056 81.305934319)" d="M 0 0v 1.451891684h 1.451891684v -1.451891684h -1.451891684Z "/><path fill="#4097e2" fill-rule="nonzero" transform="translate(87.113501056 78.402150951)" d="M 0 0v 1.451891684h 1.451891684v -1.451891684h -1.451891684Z "/><path fill="#4097e2" fill-rule="nonzero" transform="translate(90.017284425 81.305934319)" d="M 0 0v 1.451891684h 1.451891684v -1.451891684h -1.451891684Z "/><path fill="#4097e2" fill-rule="nonzero" transform="translate(90.017284425 78.402150951)" d="M 0 0v 1.451891684h 1.451891684v -1.451891684h -1.451891684Z "/><path fill="#4097e2" fill-rule="nonzero" transform="translate(104.536201268 116.151334742)" d="M 0 0v 1.451891684h 1.451891684v -1.451891684h -1.451891684Z "/><path fill="#4097e2" fill-rule="nonzero" transform="translate(104.536201268 113.247551373)" d="M 0 0v 1.451891684h 1.451891684v -1.451891684h -1.451891684Z "/><path fill="#4097e2" fill-rule="nonzero" transform="translate(107.439984636 116.151334742)" d="M 0 0v 1.451891684h 1.451891684v -1.451891684h -1.451891684Z "/><path fill="#4097e2" fill-rule="nonzero" transform="translate(107.439984636 113.247551373)" d="M 0 0v 1.451891684h 1.451891684v -1.451891684h -1.451891684Z "/><path fill="#4097e2" fill-rule="nonzero" transform="translate(104.536201268 107.439984636)" d="M 0 0v 1.451891684h 1.451891684v -1.451891684h -1.451891684Z "/><path fill="#4097e2" fill-rule="nonzero" transform="translate(104.536201268 104.536201268)" d="M 0 0v 1.451891684h 1.451891684v -1.451891684h -1.451891684Z "/><path fill="#4097e2" fill-rule="nonzero" transform="translate(107.439984636 107.439984636)" d="M 0 0v 1.451891684h 1.451891684v -1.451891684h -1.451891684Z "/><path fill="#4097e2" fill-rule="nonzero" transform="translate(107.439984636 104.536201268)" d="M 0 0v 1.451891684h 1.451891684v -1.451891684h -1.451891684Z "/><path fill="#4097e2" fill-rule="nonzero" transform="translate(113.247551373 116.151334742)" d="M 0 0v 1.451891684h 1.451891684v -1.451891684h -1.451891684Z "/><path fill="#4097e2" fill-rule="nonzero" transform="translate(113.247551373 113.247551373)" d="M 0 0v 1.451891684h 1.451891684v -1.451891684h -1.451891684Z "/><path fill="#4097e2" fill-rule="nonzero" transform="translate(116.151334742 116.151334742)" d="M 0 0v 1.451891684h 1.451891684v -1.451891684h -1.451891684Z "/><path fill="#4097e2" fill-rule="nonzero" transform="translate(116.151334742 113.247551373)" d="M 0 0v 1.451891684h 1.451891684v -1.451891684h -1.451891684Z "/><path fill="#4097e2" fill-rule="nonzero" transform="translate(113.247551373 107.439984636)" d="M 0 0v 1.451891684h 1.451891684v -1.451891684h -1.451891684Z "/><path fill="#4097e2" fill-rule="nonzero" transform="translate(113.247551373 104.536201268)" d="M 0 0v 1.451891684h 1.451891684v -1.451891684h -1.451891684Z "/><path fill="#4097e2" fill-rule="nonzero" transform="translate(116.151334742 107.439984636)" d="M 0 0v 1.451891684h 1.451891684v -1.451891684h -1.451891684Z "/><path fill="#4097e2" fill-rule="nonzero" transform="translate(116.151334742 104.536201268)" d="M 0 0v 1.451891684h 1.451891684v -1.451891684h -1.451891684Z "/><path fill="#4097e2" fill-rule="nonzero" transform="translate(104.536201268 90.017284425)" d="M 0 0v 1.451891684h 1.451891684v -1.451891684h -1.451891684Z "/><path fill="#4097e2" fill-rule="nonzero" transform="translate(104.536201268 87.113501056)" d="M 0 0v 1.451891684h 1.451891684v -1.451891684h -1.451891684Z "/><path fill="#4097e2" fill-rule="nonzero" transform="translate(107.439984636 90.017284425)" d="M 0 0v 1.451891684h 1.451891684v -1.451891684h -1.451891684Z "/><path fill="#4097e2" fill-rule="nonzero" transform="translate(107.439984636 87.113501056)" d="M 0 0v 1.451891684h 1.451891684v -1.451891684h -1.451891684Z "/><path fill="#4097e2" fill-rule="nonzero" transform="translate(104.536201268 81.305934319)" d="M 0 0v 1.451891684h 1.451891684v -1.451891684h -1.451891684Z "/><path fill="#4097e2" fill-rule="nonzero" transform="translate(104.536201268 78.402150951)" d="M 0 0v 1.451891684h 1.451891684v -1.451891684h -1.451891684Z "/><path fill="#4097e2" fill-rule="nonzero" transform="translate(107.439984636 81.305934319)" d="M 0 0v 1.451891684h 1.451891684v -1.451891684h -1.451891684Z "/><path fill="#4097e2" fill-rule="nonzero" transform="translate(107.439984636 78.402150951)" d="M 0 0v 1.451891684h 1.451891684v -1.451891684h -1.451891684Z "/><path fill="#4097e2" fill-rule="nonzero" transform="translate(113.247551373 90.017284425)" d="M 0 0v 1.451891684h 1.451891684v -1.451891684h -1.451891684Z "/><path fill="#4097e2" fill-rule="nonzero" transform="translate(113.247551373 87.113501056)" d="M 0 0v 1.451891684h 1.451891684v -1.451891684h -1.451891684Z "/><path fill="#4097e2" fill-rule="nonzero" transform="translate(116.151334742 90.017284425)" d="M 0 0v 1.451891684h 1.451891684v -1.451891684h -1.451891684Z "/><path fill="#4097e2" fill-rule="nonzero" transform="translate(116.151334742 87.113501056)" d="M 0 0v 1.451891684h 1.451891684v -1.451891684h -1.451891684Z "/><path fill="#4097e2" fill-rule="nonzero" transform="translate(113.247551373 81.305934319)" d="M 0 0v 1.451891684h 1.451891684v -1.451891684h -1.451891684Z "/><path fill="#4097e2" fill-rule="nonzero" transform="translate(113.247551373 78.402150951)" d="M 0 0v 1.451891684h 1.451891684v -1.451891684h -1.451891684Z "/><path fill="#4097e2" fill-rule="nonzero" transform="translate(116.151334742 81.305934319)" d="M 0 0v 1.451891684h 1.451891684v -1.451891684h -1.451891684Z "/><path fill="#4097e2" fill-rule="nonzero" transform="translate(116.151334742 78.402150951)" d="M 0 0v 1.451891684h 1.451891684v -1.451891684h -1.451891684Z "/><path fill="#4097e2" fill-rule="nonzero" transform="translate(78.402150951 37.749183791)" d="M 0 0v 1.451891684h 1.451891684v -1.451891684h -1.451891684Z "/><path fill="#4097e2" fill-rule="nonzero" transform="translate(78.402150951 34.845400423)" d="M 0 0v 1.451891684h 1.451891684v -1.451891684h -1.451891684Z "/><path fill="#4097e2" fill-rule="nonzero" transform="translate(81.305934319 37.749183791)" d="M 0 0v 1.451891684h 1.451891684v -1.451891684h -1.451891684Z "/><path fill="#4097e2" fill-rule="nonzero" transform="translate(81.305934319 34.845400423)" d="M 0 0v 1.451891684h 1.451891684v -1.451891684h -1.451891684Z "/><path fill="#4097e2" fill-rule="nonzero" transform="translate(78.402150951 29.037833685)" d="M 0 0v 1.451891684h 1.451891684v -1.451891684h -1.451891684Z "/><path fill="#4097e2" fill-rule="nonzero" transform="translate(78.402150951 26.134050317)" d="M 0 0v 1.451891684h 1.451891684v -1.451891684h -1.451891684Z "/><path fill="#4097e2" fill-rule="nonzero" transform="translate(81.305934319 29.037833685)" d="M 0 0v 1.451891684h 1.451891684v -1.451891684h -1.451891684Z "/><path fill="#4097e2" fill-rule="nonzero" transform="translate(81.305934319 26.134050317)" d="M 0 0v 1.451891684h 1.451891684v -1.451891684h -1.451891684Z "/><path fill="#4097e2" fill-rule="nonzero" transform="translate(87.113501056 37.749183791)" d="M 0 0v 1.451891684h 1.451891684v -1.451891684h -1.451891684Z "/><path fill="#4097e2" fill-rule="nonzero" transform="translate(87.113501056 34.845400423)" d="M 0 0v 1.451891684h 1.451891684v -1.451891684h -1.451891684Z "/><path fill="#4097e2" fill-rule="nonzero" transform="translate(90.017284425 37.749183791)" d="M 0 0v 1.451891684h 1.451891684v -1.451891684h -1.451891684Z "/><path fill="#4097e2" fill-rule="nonzero" transform="translate(90.017284425 34.845400423)" d="M 0 0v 1.451891684h 1.451891684v -1.451891684h -1.451891684Z "/><path fill="#4097e2" fill-rule="nonzero" transform="translate(87.113501056 29.037833685)" d="M 0 0v 1.451891684h 1.451891684v -1.451891684h -1.451891684Z "/><path fill="#4097e2" fill-rule="nonzero" transform="translate(87.113501056 26.134050317)" d="M 0 0v 1.451891684h 1.451891684v -1.451891684h -1.451891684Z "/><path fill="#4097e2" fill-rule="nonzero" transform="translate(90.017284425 29.037833685)" d="M 0 0v 1.451891684h 1.451891684v -1.451891684h -1.451891684Z "/><path fill="#4097e2" fill-rule="nonzero" transform="translate(90.017284425 26.134050317)" d="M 0 0v 1.451891684h 1.451891684v -1.451891684h -1.451891684Z "/><path fill="#4097e2" fill-rule="nonzero" transform="translate(78.402150951 11.615133474)" d="M 0 0v 1.451891684h 1.451891684v -1.451891684h -1.451891684Z "/><path fill="#4097e2" fill-rule="nonzero" transform="translate(78.402150951 8.711350106)" d="M 0 0v 1.451891684h 1.451891684v -1.451891684h -1.451891684Z "/><path fill="#4097e2" fill-rule="nonzero" transform="translate(81.305934319 11.615133474)" d="M 0 0v 1.451891684h 1.451891684v -1.451891684h -1.451891684Z "/><path fill="#4097e2" fill-rule="nonzero" transform="translate(81.305934319 8.711350106)" d="M 0 0v 1.451891684h 1.451891684v -1.451891684h -1.451891684Z "/><path fill="#4097e2" fill-rule="nonzero" transform="translate(78.402150951 2.903783369)" d="M 0 0v 1.451891684h 1.451891684v -1.451891684h -1.451891684Z "/><path fill="#4097e2" fill-rule="nonzero" transform="translate(78.402150951)" d="M 0 0v 1.451891684h 1.451891684v -1.451891684h -1.451891684Z "/><path fill="#4097e2" fill-rule="nonzero" transform="translate(81.305934319 2.903783369)" d="M 0 0v 1.451891684h 1.451891684v -1.451891684h -1.451891684Z "/><path fill="#4097e2" fill-rule="nonzero" transform="translate(81.305934319)" d="M 0 0v 1.451891684h 1.451891684v -1.451891684h -1.451891684Z "/><path fill="#4097e2" fill-rule="nonzero" transform="translate(87.113501056 11.615133474)" d="M 0 0v 1.451891684h 1.451891684v -1.451891684h -1.451891684Z "/><path fill="#4097e2" fill-rule="nonzero" transform="translate(87.113501056 8.711350106)" d="M 0 0v 1.451891684h 1.451891684v -1.451891684h -1.451891684Z "/><path fill="#4097e2" fill-rule="nonzero" transform="translate(90.017284425 11.615133474)" d="M 0 0v 1.451891684h 1.451891684v -1.451891684h -1.451891684Z "/><path fill="#4097e2" fill-rule="nonzero" transform="translate(90.017284425 8.711350106)" d="M 0 0v 1.451891684h 1.451891684v -1.451891684h -1.451891684Z "/><path fill="#4097e2" fill-rule="nonzero" transform="translate(87.113501056 2.903783369)" d="M 0 0v 1.451891684h 1.451891684v -1.451891684h -1.451891684Z "/><path fill="#4097e2" fill-rule="nonzero" transform="translate(87.113501056)" d="M 0 0v 1.451891684h 1.451891684v -1.451891684h -1.451891684Z "/><path fill="#4097e2" fill-rule="nonzero" transform="translate(90.017284425 2.903783369)" d="M 0 0v 1.451891684h 1.451891684v -1.451891684h -1.451891684Z "/><path fill="#4097e2" fill-rule="nonzero" transform="translate(90.017284425)" d="M 0 0v 1.451891684h 1.451891684v -1.451891684h -1.451891684Z "/><path fill="#4097e2" fill-rule="nonzero" transform="translate(104.536201268 37.749183791)" d="M 0 0v 1.451891684h 1.451891684v -1.451891684h -1.451891684Z "/><path fill="#4097e2" fill-rule="nonzero" transform="translate(104.536201268 34.845400423)" d="M 0 0v 1.451891684h 1.451891684v -1.451891684h -1.451891684Z "/><path fill="#4097e2" fill-rule="nonzero" transform="translate(107.439984636 37.749183791)" d="M 0 0v 1.451891684h 1.451891684v -1.451891684h -1.451891684Z "/><path fill="#4097e2" fill-rule="nonzero" transform="translate(107.439984636 34.845400423)" d="M 0 0v 1.451891684h 1.451891684v -1.451891684h -1.451891684Z "/><path fill="#4097e2" fill-rule="nonzero" transform="translate(104.536201268 29.037833685)" d="M 0 0v 1.451891684h 1.451891684v -1.451891684h -1.451891684Z "/><path fill="#4097e2" fill-rule="nonzero" transform="translate(104.536201268 26.134050317)" d="M 0 0v 1.451891684h 1.451891684v -1.451891684h -1.451891684Z "/><path fill="#4097e2" fill-rule="nonzero" transform="translate(107.439984636 29.037833685)" d="M 0 0v 1.451891684h 1.451891684v -1.451891684h -1.451891684Z "/><path fill="#4097e2" fill-rule="nonzero" transform="translate(107.439984636 26.134050317)" d="M 0 0v 1.451891684h 1.451891684v -1.451891684h -1.451891684Z "/><path fill="#4097e2" fill-rule="nonzero" transform="translate(113.247551373 37.749183791)" d="M 0 0v 1.451891684h 1.451891684v -1.451891684h -1.451891684Z "/><path fill="#4097e2" fill-rule="nonzero" transform="translate(113.247551373 34.845400423)" d="M 0 0v 1.451891684h 1.451891684v -1.451891684h -1.451891684Z "/><path fill="#4097e2" fill-rule="nonzero" transform="translate(116.151334742 37.749183791)" d="M 0 0v 1.451891684h 1.451891684v -1.451891684h -1.451891684Z "/><path fill="#4097e2" fill-rule="nonzero" transform="translate(116.151334742 34.845400423)" d="M 0 0v 1.451891684h 1.451891684v -1.451891684h -1.451891684Z "/><path fill="#4097e2" fill-rule="nonzero" transform="translate(113.247551373 29.037833685)" d="M 0 0v 1.451891684h 1.451891684v -1.451891684h -1.451891684Z "/><path fill="#4097e2" fill-rule="nonzero" transform="translate(113.247551373 26.134050317)" d="M 0 0v 1.451891684h 1.451891684v -1.451891684h -1.451891684Z "/><path fill="#4097e2" fill-rule="nonzero" transform="translate(116.151334742 29.037833685)" d="M 0 0v 1.451891684h 1.451891684v -1.451891684h -1.451891684Z "/><path fill="#4097e2" fill-rule="nonzero" transform="translate(116.151334742 26.134050317)" d="M 0 0v 1.451891684h 1.451891684v -1.451891684h -1.451891684Z "/><path fill="#4097e2" fill-rule="nonzero" transform="translate(104.536201268 11.615133474)" d="M 0 0v 1.451891684h 1.451891684v -1.451891684h -1.451891684Z "/><path fill="#4097e2" fill-rule="nonzero" transform="translate(104.536201268 8.711350106)" d="M 0 0v 1.451891684h 1.451891684v -1.451891684h -1.451891684Z "/><path fill="#4097e2" fill-rule="nonzero" transform="translate(107.439984636 11.615133474)" d="M 0 0v 1.451891684h 1.451891684v -1.451891684h -1.451891684Z "/><path fill="#4097e2" fill-rule="nonzero" transform="translate(107.439984636 8.711350106)" d="M 0 0v 1.451891684h 1.451891684v -1.451891684h -1.451891684Z "/><path fill="#4097e2" fill-rule="nonzero" transform="translate(104.536201268 2.903783369)" d="M 0 0v 1.451891684h 1.451891684v -1.451891684h -1.451891684Z "/><path fill="#4097e2" fill-rule="nonzero" transform="translate(104.536201268)" d="M 0 0v 1.451891684h 1.451891684v -1.451891684h -1.451891684Z "/><path fill="#4097e2" fill-rule="nonzero" transform="translate(107.439984636 2.903783369)" d="M 0 0v 1.451891684h 1.451891684v -1.451891684h -1.451891684Z "/><path fill="#4097e2" fill-rule="nonzero" transform="translate(107.439984636)" d="M 0 0v 1.451891684h 1.451891684v -1.451891684h -1.451891684Z "/><path fill="#4097e2" fill-rule="nonzero" transform="translate(113.247551373 11.615133474)" d="M 0 0v 1.451891684h 1.451891684v -1.451891684h -1.451891684Z "/><path fill="#4097e2" fill-rule="nonzero" transform="translate(113.247551373 8.711350106)" d="M 0 0v 1.451891684h 1.451891684v -1.451891684h -1.451891684Z "/><path fill="#4097e2" fill-rule="nonzero" transform="translate(116.151334742 11.615133474)" d="M 0 0v 1.451891684h 1.451891684v -1.451891684h -1.451891684Z "/><path fill="#4097e2" fill-rule="nonzero" transform="translate(116.151334742 8.711350106)" d="M 0 0v 1.451891684h 1.451891684v -1.451891684h -1.451891684Z "/><path fill="#4097e2" fill-rule="nonzero" transform="translate(113.247551373 2.903783369)" d="M 0 0v 1.451891684h 1.451891684v -1.451891684h -1.451891684Z "/><path fill="#4097e2" fill-rule="nonzero" transform="translate(113.247551373)" d="M 0 0v 1.451891684h 1.451891684v -1.451891684h -1.451891684Z "/><path fill="#4097e2" fill-rule="nonzero" transform="translate(116.151334742 2.903783369)" d="M 0 0v 1.451891684h 1.451891684v -1.451891684h -1.451891684Z "/><path fill="#4097e2" fill-rule="nonzero" transform="translate(116.151334742)" d="M 0 0v 1.451891684h 1.451891684v -1.451891684h -1.451891684Z "/></g></g><g transform="matrix(1 0 0 -1 47.359781277 131.88511811)"><use xlink:href="#g2EFE33C5504D867B813D7940C7587DC4" x="0" y="0" fill="#000000" fill-rule="nonzero"/></g><g transform="matrix(1 0 0 -1 56.137559055 131.88511811)"><use xlink:href="#g7679559C61795D4B2FBCEF1D6942AEE" x="0" y="0" fill="#000000" fill-rule="nonzero"/></g><g transform="matrix(1 0 0 -1 66.695336833 131.88511811)"><use xlink:href="#g187F960CD8D343F130EAFAB63E4BE0DE" x="0" y="0" fill="#000000" fill-rule="nonzero"/></g><g transform="matrix(1 0 0 -1 178.414899388 131.88511811)"><use xlink:href="#g2EFE33C5504D867B813D7940C7587DC4" x="0" y="0" fill="#000000" fill-rule="nonzero"/></g><g transform="matrix(1 0 0 -1 187.192677165 131.88511811)"><use xlink:href="#g7679559C61795D4B2FBCEF1D6942AEE" x="0" y="0" fill="#000000" fill-rule="nonzero"/></g><g transform="matrix(1 0 0 -1 197.750454943 131.88511811)"><use xlink:href="#g2944E08BBD755E2996904E6E0A970414" x="0" y="0" fill="#000000" fill-rule="nonzero"/></g><g transform="matrix(1 0 0 -1 309.470017498 131.88511811)"><use xlink:href="#g2EFE33C5504D867B813D7940C7587DC4" x="0" y="0" fill="#000000" fill-rule="nonzero"/></g><g transform="matrix(1 0 0 -1 318.247795276 131.88511811)"><use xlink:href="#g7679559C61795D4B2FBCEF1D6942AEE" x="0" y="0" fill="#000000" fill-rule="nonzero"/></g><g transform="matrix(1 0 0 -1 328.805573053 131.88511811)"><use xlink:href="#g25AA077DE012500399ECCD32292552DD" x="0" y="0" fill="#000000" fill-rule="nonzero"/></g></g><defs><symbol id="g2EFE33C5504D867B813D7940C7587DC4" overflow="visible"><path d="M 0 0m 5.37 1.37c -0.23 -0.79 -0.56 -1.19 -0.97 -1.19c -0.13 0 -0.2 0.1 -0.2 0.29c 0 0.14 0.06 0.37 0.18 0.68c 0.4 1.09 0.6 1.81 0.6 2.18c 0 0.7 -0.47 1.09 -1.17 1.09c -0.59 0 -1.1 -0.26 -1.51 -0.79c -0.08 0.44 -0.43 0.79 -0.94 0.79c -0.56 0 -0.78 -0.52 -0.92 -0.97c -0.1 -0.32 -0.15 -0.51 -0.15 -0.58c 0 -0.09 0.05 -0.14 0.16 -0.14c 0.05 0 0.08 0.01 0.11 0.03c 0.05 0.09 0.08 0.16 0.09 0.23c 0.18 0.76 0.41 1.14 0.68 1.14c 0.18 0 0.27 -0.14 0.27 -0.42c 0 -0.13 -0.05 -0.4 -0.16 -0.81l -0.57 -2.27c -0.03 -0.13 -0.09 -0.39 -0.09 -0.44c 0 -0.2 0.11 -0.3 0.33 -0.3c 0.19 0 0.33 0.1 0.4 0.3c 0.02 0.05 0.08 0.3 0.19 0.73l 0.21 0.89l 0.3 1.14c 0.11 0.23 0.28 0.46 0.49 0.7c 0.29 0.32 0.65 0.48 1.08 0.48c 0.33 0 0.49 -0.22 0.49 -0.65c 0 -0.38 -0.21 -1.14 -0.64 -2.28c -0.07 -0.18 -0.1 -0.33 -0.1 -0.46c 0 -0.49 0.37 -0.85 0.85 -0.85c 0.44 0 0.79 0.25 1.04 0.75c 0.19 0.4 0.29 0.67 0.29 0.8c 0 0.09 -0.05 0.14 -0.16 0.14c -0.03 0 -0.18 -0.09 -0.18 -0.21Z "/></symbol><symbol id="g7679559C61795D4B2FBCEF1D6942AEE" overflow="visible"><path d="M 0 0m 6.98 3.67h -6.18c -0.16 0 -0.24 -0.08 -0.24 -0.23c 0 -0.15 0.08 -0.23 0.24 -0.23h 6.18c 0.16 0 0.24 0.08 0.24 0.23c 0 0.12 -0.11 0.23 -0.24 0.23Z m 0 -1.88h -6.18c -0.16 0 -0.24 -0.08 -0.24 -0.23c 0 -0.15 0.08 -0.23 0.24 -0.23h 6.18c 0.16 0 0.24 0.08 0.24 0.23c 0 0.13 -0.11 0.23 -0.24 0.23Z "/></symbol><symbol id="g187F960CD8D343F130EAFAB63E4BE0DE" overflow="visible"><path d="M 0 0m 2.37 6.66c -0.51 0 -0.94 -0.18 -1.31 -0.54c -0.37 -0.36 -0.56 -0.78 -0.56 -1.29c 0 -0.34 0.25 -0.59 0.56 -0.59c 0.3 0 0.55 0.26 0.55 0.56c 0 0.33 -0.24 0.56 -0.56 0.56c -0.03 0 -0.05 0 -0.07 -0.01c 0.19 0.49 0.63 0.92 1.26 0.92c 0.82 0 1.28 -0.71 1.28 -1.57c 0 -0.67 -0.34 -1.39 -1.02 -2.15l -1.88 -2.12c -0.13 -0.15 -0.12 -0.14 -0.12 -0.43h 3.71l 0.29 1.8h -0.33c -0.08 -0.51 -0.15 -0.8 -0.21 -0.89c -0.05 -0.05 -0.35 -0.07 -0.9 -0.07h -1.67l 0.97 0.95c 0.68 0.64 1.54 1.33 1.83 1.86c 0.2 0.35 0.3 0.7 0.3 1.05c 0 1.18 -0.92 1.96 -2.12 1.96Z "/></symbol><symbol id="g2944E08BBD755E2996904E6E0A970414" overflow="visible"><path d="M 0 0m 3.03 3.53c 0.66 0.25 1.28 0.88 1.28 1.73c 0 0.43 -0.21 0.78 -0.62 1.05c -0.36 0.23 -0.77 0.35 -1.23 0.35c -0.45 0 -0.84 -0.12 -1.19 -0.35c -0.39 -0.26 -0.59 -0.6 -0.59 -1.03c 0 -0.33 0.22 -0.56 0.54 -0.56c 0.32 0 0.54 0.23 0.54 0.55c 0 0.33 -0.19 0.51 -0.57 0.53c 0.26 0.35 0.67 0.53 1.23 0.53c 0.6 0 0.9 -0.35 0.9 -1.06c 0 -0.42 -0.08 -0.77 -0.23 -1.06c -0.27 -0.48 -0.64 -0.57 -1.26 -0.57c -0.12 -0.02 -0.18 -0.07 -0.18 -0.16c 0 -0.15 0.07 -0.15 0.27 -0.15h 0.43c 0.75 0 1.13 -0.53 1.13 -1.6c 0 -0.85 -0.31 -1.59 -1.07 -1.59c -0.65 0 -1.13 0.22 -1.42 0.66c 0.35 -0.01 0.61 0.25 0.61 0.59c 0 0.34 -0.25 0.59 -0.59 0.59c -0.39 0 -0.59 -0.2 -0.59 -0.61c 0 -0.49 0.22 -0.88 0.66 -1.19c 0.39 -0.27 0.85 -0.4 1.36 -0.4c 0.57 0 1.06 0.19 1.49 0.56c 0.43 0.37 0.64 0.83 0.64 1.39c 0 0.94 -0.74 1.59 -1.54 1.8Z "/></symbol><symbol id="g25AA077DE012500399ECCD32292552DD" overflow="visible"><path d="M 0 0m 3.53 6.77c -0.09 0 -0.17 -0.05 -0.23 -0.14l -3.02 -4.64v -0.36h 2.61v -0.82c 0 -0.18 -0.04 -0.3 -0.11 -0.35c -0.07 -0.05 -0.26 -0.07 -0.59 -0.07h -0.25v -0.39c 0.29 0.02 0.75 0.03 1.37 0.03c 0.62 0 1.08 -0.01 1.37 -0.03v 0.39h -0.25c -0.33 0 -0.52 0.02 -0.59 0.07c -0.07 0.05 -0.11 0.17 -0.11 0.35v 0.82h 0.98v 0.39h -0.98v 4.58c 0 0.1 -0.07 0.17 -0.2 0.17Z m -0.58 -1.24v -3.51h -2.28Z "/></symbol></defs></svg>