<svg viewBox="0 0 397.165354331 147.88511811" width="397.165354331pt" height="147.88511811pt" xmlns="http://www.w3.org/2000/svg" xmlns:xlink="http://www.w3.org/1999/xlink" xmlns:h5="http://www.w3.org/1999/xhtml"><g transform="translate(8 8)"><g><path fill="#4097e2" fill-rule="nonzero" transform="translate(0 105.826771654)" d="M 0 0v 13.228346457h 13.228346457v -13.228346457h -13.228346457Z "/><path fill="#4097e2" fill-rule="nonzero" transform="translate(0 79.37007874)" d="M 0 0v 13.228346457h 13.228346457v -13.228346457h -13.228346457Z "/><path fill="#4097e2" fill-rule="nonzero" transform="translate(26.456692913 105.826771654)" d="M 0 0v 13.228346457h 13.228346457v -13.228346457h -13.228346457Z "/><path fill="#4097e2" fill-rule="nonzero" transform="translate(26.456692913 79.37007874)" d="M 0 0v 13.228346457h 13.228346457v -13.228346457h -13.228346457Z "/><path fill="#4097e2" fill-rule="nonzero" transform="translate(0 26.456692913)" d="M 0 0v 13.228346457h 13.228346457v -13.228346457h -13.228346457Z "/><path fill="#4097e2" fill-rule="nonzero" d="M 0 0v 13.228346457h 13.228346457v -13.228346457h -13.228346457Z "/><path fill="#4097e2" fill-rule="nonzero" transform="translate(26.456692913 26.456692913)" d="M 0 0v 13.228346457h 13.228346457v -13.228346457h -13.228346457Z "/><path fill="#4097e2" fill-rule="nonzero" transform="translate(26.456692913)" d="M 0 0v 13.228346457h 13.228346457v -13.228346457h -13.228346457Z "/><path fill="#4097e2" fill-rule="nonzero" transform="translate(79.37007874 105.826771654)" d="M 0 0v 13.228346457h 13.228346457v -13.228346457h -13.228346457Z "/><path fill="#4097e2" fill-rule="nonzero" transform="translate(79.37007874 79.37007874)" d="M 0 0v 13.228346457h 13.228346457v -13.228346457h -13.228346457Z "/><path fill="#4097e2" fill-rule="nonzero" transform="translate(105.826771654 105.826771654)" d="M 0 0v 13.228346457h 13.228346457v -13.228346457h -13.228346457Z "/><path fill="#4097e2" fill-rule="nonzero" transform="translate(105.826771654 79.37007874)" d="M 0 0v 13.228346457h 13.228346457v -13.228346457h -13.228346457Z "/><path fill="#4097e2" fill-rule="nonzero" transform="translate(79.37007874 26.456692913)" d="M 0 0v 13.228346457h 13.228346457v -13.228346457h -13.228346457Z "/><path fill="#4097e2" fill-rule="nonzero" transform="translate(79.37007874)" d="M 0 0v 13.228346457h 13.228346457v -13.228346457h -13.228346457Z "/><path fill="#4097e2" fill-rule="nonzero" transform="translate(105.826771654 26.456692913)" d="M 0 0v 13.228346457h 13.228346457v -13.228346457h -13.228346457Z "/><path fill="#4097e2" fill-rule="nonzero" transform="translate(105.826771654)" d="M 0 0v 13.228346457h 13.228346457v -13.228346457h -13.228346457Z "/></g></g><g transform="translate(139.05511811 8)"><g><path fill="#4097e2" fill-rule="nonzero" transform="translate(0 114.645669291)" d="M 0 0v 4.409448819h 4.409448819v -4.409448819h -4.409448819Z "/><path fill="#4097e2" fill-rule="nonzero" transform="translate(0 105.826771654)" d="M 0 0v 4.409448819h 4.409448819v -4.409448819h -4.409448819Z "/><path fill="#4097e2" fill-rule="nonzero" transform="translate(8.818897638 114.645669291)" d="M 0 0v 4.409448819h 4.409448819v -4.409448819h -4.409448819Z "/><path fill="#4097e2" fill-rule="nonzero" transform="translate(8.818897638 105.826771654)" d="M 0 0v 4.409448819h 4.409448819v -4.409448819h -4.409448819Z "/><path fill="#4097e2" fill-rule="nonzero" transform="translate(0 88.188976378)" d="M 0 0v 4.409448819h 4.409448819v -4.409448819h -4.409448819Z "/><path fill="#4097e2" fill-rule="nonzero" transform="translate(0 79.37007874)" d="M 0 0v 4.409448819h 4.409448819v -4.409448819h -4.409448819Z "/><path fill="#4097e2" fill-rule="nonzero" transform="translate(8.818897638 88.188976378)" d="M 0 0v 4.409448819h 4.409448819v -4.409448819h -4.409448819Z "/><path fill="#4097e2" fill-rule="nonzero" transform="translate(8.818897638 79.37007874)" d="M 0 0v 4.409448819h 4.409448819v -4.409448819h -4.409448819Z "/><path fill="#4097e2" fill-rule="nonzero" transform="translate(26.456692913 114.645669291)" d="M 0 0v 4.409448819h 4.409448819v -4.409448819h -4.409448819Z "/><path fill="#4097e2" fill-rule="nonzero" transform="translate(26.456692913 105.826771654)" d="M 0 0v 4.409448819h 4.409448819v -4.409448819h -4.409448819Z "/><path fill="#4097e2" fill-rule="nonzero" transform="translate(35.275590551 114.645669291)" d="M 0 0v 4.409448819h 4.409448819v -4.409448819h -4.409448819Z "/><path fill="#4097e2" fill-rule="nonzero" transform="translate(35.275590551 105.826771654)" d="M 0 0v 4.409448819h 4.409448819v -4.409448819h -4.409448819Z "/><path fill="#4097e2" fill-rule="nonzero" transform="translate(26.456692913 88.188976378)" d="M 0 0v 4.409448819h 4.409448819v -4.409448819h -4.409448819Z "/><path fill="#4097e2" fill-rule="nonzero" transform="translate(26.456692913 79.37007874)" d="M 0 0v 4.409448819h 4.409448819v -4.409448819h -4.409448819Z "/><path fill="#4097e2" fill-rule="nonzero" transform="translate(35.275590551 88.188976378)" d="M 0 0v 4.409448819h 4.409448819v -4.409448819h -4.409448819Z "/><path fill="#4097e2" fill-rule="nonzero" transform="translate(35.275590551 79.37007874)" d="M 0 0v 4.409448819h 4.409448819v -4.409448819h -4.409448819Z "/><path fill="#4097e2" fill-rule="nonzero" transform="translate(0 35.275590551)" d="M 0 0v 4.409448819h 4.409448819v -4.409448819h -4.409448819Z "/><path fill="#4097e2" fill-rule="nonzero" transform="translate(0 26.456692913)" d="M 0 0v 4.409448819h 4.409448819v -4.409448819h -4.409448819Z "/><path fill="#4097e2" fill-rule="nonzero" transform="translate(8.818897638 35.275590551)" d="M 0 0v 4.409448819h 4.409448819v -4.409448819h -4.409448819Z "/><path fill="#4097e2" fill-rule="nonzero" transform="translate(8.818897638 26.456692913)" d="M 0 0v 4.409448819h 4.409448819v -4.409448819h -4.409448819Z "/><path fill="#4097e2" fill-rule="nonzero" transform="translate(0 8.818897638)" d="M 0 0v 4.409448819h 4.409448819v -4.409448819h -4.409448819Z "/><path fill="#4097e2" fill-rule="nonzero" d="M 0 0v 4.409448819h 4.409448819v -4.409448819h -4.409448819Z "/><path fill="#4097e2" fill-rule="nonzero" transform="translate(8.818897638 8.818897638)" d="M 0 0v 4.409448819h 4.409448819v -4.409448819h -4.409448819Z "/><path fill="#4097e2" fill-rule="nonzero" transform="translate(8.818897638)" d="M 0 0v 4.409448819h 4.409448819v -4.409448819h -4.409448819Z "/><path fill="#4097e2" fill-rule="nonzero" transform="translate(26.456692913 35.275590551)" d="M 0 0v 4.409448819h 4.409448819v -4.409448819h -4.409448819Z "/><path fill="#4097e2" fill-rule="nonzero" transform="translate(26.456692913 26.456692913)" d="M 0 0v 4.409448819h 4.409448819v -4.409448819h -4.409448819Z "/><path fill="#4097e2" fill-rule="nonzero" transform="translate(35.275590551 35.275590551)" d="M 0 0v 4.409448819h 4.409448819v -4.409448819h -4.409448819Z "/><path fill="#4097e2" fill-rule="nonzero" transform="translate(35.275590551 26.456692913)" d="M 0 0v 4.409448819h 4.409448819v -4.409448819h -4.409448819Z "/><path fill="#4097e2" fill-rule="nonzero" transform="translate(26.456692913 8.818897638)" d="M 0 0v 4.409448819h 4.409448819v -4.409448819h -4.409448819Z "/><path fill="#4097e2" fill-rule="nonzero" transform="translate(26.456692913)" d="M 0 0v 4.409448819h 4.409448819v -4.409448819h -4.409448819Z "/><path fill="#4097e2" fill-rule="nonzero" transform="translate(35.275590551 8.818897638)" d="M 0 0v 4.409448819h 4.409448819v -4.409448819h -4.409448819Z "/><path fill="#4097e2" fill-rule="nonzero" transform="translate(35.275590551)" d="M 0 0v 4.409448819h 4.409448819v -4.409448819h -4.409448819Z "/><path fill="#4097e2" fill-rule="nonzero" transform="translate(79.37007874 114.645669291)" d="M 0 0v 4.409448819h 4.409448819v -4.409448819h -4.409448819Z "/><path fill="#4097e2" fill-rule="nonzero" transform="translate(79.37007874 105.826771654)" d="M 0 0v 4.409448819h 4.409448819v -4.409448819h -4.409448819Z "/><path fill="#4097e2" fill-rule="nonzero" transform="translate(88.188976378 114.645669291)" d="M 0 0v 4.409448819h 4.409448819v -4.409448819h -4.409448819Z "/><path fill="#4097e2" fill-rule="nonzero" transform="translate(88.188976378 105.826771654)" d="M 0 0v 4.409448819h 4.409448819v -4.409448819h -4.409448819Z "/><path fill="#4097e2" fill-rule="nonzero" transform="translate(79.37007874 88.188976378)" d="M 0 0v 4.409448819h 4.409448819v -4.409448819h -4.409448819Z "/><path fill="#4097e2" fill-rule="nonzero" transform="translate(79.37007874 79.37007874)" d="M 0 0v 4.409448819h 4.409448819v -4.409448819h -4.409448819Z "/><path fill="#4097e2" fill-rule="nonzero" transform="translate(88.188976378 88.188976378)" d="M 0 0v 4.409448819h 4.409448819v -4.409448819h -4.409448819Z "/><path fill="#4097e2" fill-rule="nonzero" transform="translate(88.188976378 79.37007874)" d="M 0 0v 4.409448819h 4.409448819v -4.409448819h -4.409448819Z "/><path fill="#4097e2" fill-rule="nonzero" transform="translate(105.826771654 114.645669291)" d="M 0 0v 4.409448819h 4.409448819v -4.409448819h -4.409448819Z "/><path fill="#4097e2" fill-rule="nonzero" transform="translate(105.826771654 105.826771654)" d="M 0 0v 4.409448819h 4.409448819v -4.409448819h -4.409448819Z "/><path fill="#4097e2" fill-rule="nonzero" transform="translate(114.645669291 114.645669291)" d="M 0 0v 4.409448819h 4.409448819v -4.409448819h -4.409448819Z "/><path fill="#4097e2" fill-rule="nonzero" transform="translate(114.645669291 105.826771654)" d="M 0 0v 4.409448819h 4.409448819v -4.409448819h -4.409448819Z "/><path fill="#4097e2" fill-rule="nonzero" transform="translate(105.826771654 88.188976378)" d="M 0 0v 4.409448819h 4.409448819v -4.409448819h -4.409448819Z "/><path fill="#4097e2" fill-rule="nonzero" transform="translate(105.826771654 79.37007874)" d="M 0 0v 4.409448819h 4.409448819v -4.409448819h -4.409448819Z "/><path fill="#4097e2" fill-rule="nonzero" transform="translate(114.645669291 88.188976378)" d="M 0 0v 4.409448819h 4.409448819v -4.409448819h -4.409448819Z "/><path fill="#4097e2" fill-rule="nonzero" transform="translate(114.645669291 79.37007874)" d="M 0 0v 4.409448819h 4.409448819v -4.409448819h -4.409448819Z "/><path fill="#4097e2" fill-rule="nonzero" transform="translate(79.37007874 35.275590551)" d="M 0 0v 4.409448819h 4.409448819v -4.409448819h -4.409448819Z "/><path fill="#4097e2" fill-rule="nonzero" transform="translate(79.37007874 26.456692913)" d="M 0 0v 4.409448819h 4.409448819v -4.409448819h -4.409448819Z "/><path fill="#4097e2" fill-rule="nonzero" transform="translate(88.188976378 35.275590551)" d="M 0 0v 4.409448819h 4.409448819v -4.409448819h -4.409448819Z "/><path fill="#4097e2" fill-rule="nonzero" transform="translate(88.188976378 26.456692913)" d="M 0 0v 4.409448819h 4.409448819v -4.409448819h -4.409448819Z "/><path fill="#4097e2" fill-rule="nonzero" transform="translate(79.37007874 8.818897638)" d="M 0 0v 4.409448819h 4.409448819v -4.409448819h -4.409448819Z "/><path fill="#4097e2" fill-rule="nonzero" transform="translate(79.37007874)" d="M 0 0v 4.409448819h 4.409448819v -4.409448819h -4.409448819Z "/><path fill="#4097e2" fill-rule="nonzero" transform="translate(88.188976378 8.818897638)" d="M 0 0v 4.409448819h 4.409448819v -4.409448819h -4.409448819Z "/><path fill="#4097e2" fill-rule="nonzero" transform="translate(88.188976378)" d="M 0 0v 4.409448819h 4.409448819v -4.409448819h -4.409448819Z "/><path fill="#4097e2" fill-rule="nonzero" transform="translate(105.826771654 35.275590551)" d="M 0 0v 4.409448819h 4.409448819v -4.409448819h -4.409448819Z "/><path fill="#4097e2" fill-rule="nonzero" transform="translate(105.826771654 26.456692913)" d="M 0 0v 4.409448819h 4.409448819v -4.409448819h -4.409448819Z "/><path fill="#4097e2" fill-rule="nonzero" transform="translate(114.645669291 35.275590551)" d="M 0 0v 4.409448819h 4.409448819v -4.409448819h -4.409448819Z "/><path fill="#4097e2" fill-rule="nonzero" transform="translate(114.645669291 26.456692913)" d="M 0 0v 4.409448819h 4.409448819v -4.409448819h -4.409448819Z "/><path fill="#4097e2" fill-rule="nonzero" transform="translate(105.826771654 8.818897638)" d="M 0 0v 4.409448819h 4.409448819v -4.409448819h -4.409448819Z "/><path fill="#4097e2" fill-rule="nonzero" transform="translate(105.826771654)" d="M 0 0v 4.409448819h 4.409448819v -4.409448819h -4.409448819Z "/><path fill="#4097e2" fill-rule="nonzero" transform="translate(114.645669291 8.818897638)" d="M 0 0v 4.409448819h 4.409448819v -4.409448819h -4.409448819Z "/><path fill="#4097e2" fill-rule="nonzero" transform="translate(114.645669291)" d="M 0 0v 4.409448819h 4.409448819v -4.409448819h -4.409448819Z "/></g></g><g transform="translate(270.11023622 8)"><g><path fill="#4097e2" fill-rule="nonzero" transform="translate(0 117.585301837)" d="M 0 0v 1.469816273h 1.469816273v -1.469816273h -1.469816273Z "/><path fill="#4097e2" fill-rule="nonzero" transform="translate(0 114.645669291)" d="M 0 0v 1.469816273h 1.469816273v -1.469816273h -1.469816273Z "/><path fill="#4097e2" fill-rule="nonzero" transform="translate(2.939632546 117.585301837)" d="M 0 0v 1.469816273h 1.469816273v -1.469816273h -1.469816273Z "/><path fill="#4097e2" fill-rule="nonzero" transform="translate(2.939632546 114.645669291)" d="M 0 0v 1.469816273h 1.469816273v -1.469816273h -1.469816273Z "/><path fill="#4097e2" fill-rule="nonzero" transform="translate(0 108.766404199)" d="M 0 0v 1.469816273h 1.469816273v -1.469816273h -1.469816273Z "/><path fill="#4097e2" fill-rule="nonzero" transform="translate(0 105.826771654)" d="M 0 0v 1.469816273h 1.469816273v -1.469816273h -1.469816273Z "/><path fill="#4097e2" fill-rule="nonzero" transform="translate(2.939632546 108.766404199)" d="M 0 0v 1.469816273h 1.469816273v -1.469816273h -1.469816273Z "/><path fill="#4097e2" fill-rule="nonzero" transform="translate(2.939632546 105.826771654)" d="M 0 0v 1.469816273h 1.469816273v -1.469816273h -1.469816273Z "/><path fill="#4097e2" fill-rule="nonzero" transform="translate(8.818897638 117.585301837)" d="M 0 0v 1.469816273h 1.469816273v -1.469816273h -1.469816273Z "/><path fill="#4097e2" fill-rule="nonzero" transform="translate(8.818897638 114.645669291)" d="M 0 0v 1.469816273h 1.469816273v -1.469816273h -1.469816273Z "/><path fill="#4097e2" fill-rule="nonzero" transform="translate(11.758530184 117.585301837)" d="M 0 0v 1.469816273h 1.469816273v -1.469816273h -1.469816273Z "/><path fill="#4097e2" fill-rule="nonzero" transform="translate(11.758530184 114.645669291)" d="M 0 0v 1.469816273h 1.469816273v -1.469816273h -1.469816273Z "/><path fill="#4097e2" fill-rule="nonzero" transform="translate(8.818897638 108.766404199)" d="M 0 0v 1.469816273h 1.469816273v -1.469816273h -1.469816273Z "/><path fill="#4097e2" fill-rule="nonzero" transform="translate(8.818897638 105.826771654)" d="M 0 0v 1.469816273h 1.469816273v -1.469816273h -1.469816273Z "/><path fill="#4097e2" fill-rule="nonzero" transform="translate(11.758530184 108.766404199)" d="M 0 0v 1.469816273h 1.469816273v -1.469816273h -1.469816273Z "/><path fill="#4097e2" fill-rule="nonzero" transform="translate(11.758530184 105.826771654)" d="M 0 0v 1.469816273h 1.469816273v -1.469816273h -1.469816273Z "/><path fill="#4097e2" fill-rule="nonzero" transform="translate(0 91.128608924)" d="M 0 0v 1.469816273h 1.469816273v -1.469816273h -1.469816273Z "/><path fill="#4097e2" fill-rule="nonzero" transform="translate(0 88.188976378)" d="M 0 0v 1.469816273h 1.469816273v -1.469816273h -1.469816273Z "/><path fill="#4097e2" fill-rule="nonzero" transform="translate(2.939632546 91.128608924)" d="M 0 0v 1.469816273h 1.469816273v -1.469816273h -1.469816273Z "/><path fill="#4097e2" fill-rule="nonzero" transform="translate(2.939632546 88.188976378)" d="M 0 0v 1.469816273h 1.469816273v -1.469816273h -1.469816273Z "/><path fill="#4097e2" fill-rule="nonzero" transform="translate(0 82.309711286)" d="M 0 0v 1.469816273h 1.469816273v -1.469816273h -1.469816273Z "/><path fill="#4097e2" fill-rule="nonzero" transform="translate(0 79.37007874)" d="M 0 0v 1.469816273h 1.469816273v -1.469816273h -1.469816273Z "/><path fill="#4097e2" fill-rule="nonzero" transform="translate(2.939632546 82.309711286)" d="M 0 0v 1.469816273h 1.469816273v -1.469816273h -1.469816273Z "/><path fill="#4097e2" fill-rule="nonzero" transform="translate(2.939632546 79.37007874)" d="M 0 0v 1.469816273h 1.469816273v -1.469816273h -1.469816273Z "/><path fill="#4097e2" fill-rule="nonzero" transform="translate(8.818897638 91.128608924)" d="M 0 0v 1.469816273h 1.469816273v -1.469816273h -1.469816273Z "/><path fill="#4097e2" fill-rule="nonzero" transform="translate(8.818897638 88.188976378)" d="M 0 0v 1.469816273h 1.469816273v -1.469816273h -1.469816273Z "/><path fill="#4097e2" fill-rule="nonzero" transform="translate(11.758530184 91.128608924)" d="M 0 0v 1.469816273h 1.469816273v -1.469816273h -1.469816273Z "/><path fill="#4097e2" fill-rule="nonzero" transform="translate(11.758530184 88.188976378)" d="M 0 0v 1.469816273h 1.469816273v -1.469816273h -1.469816273Z "/><path fill="#4097e2" fill-rule="nonzero" transform="translate(8.818897638 82.309711286)" d="M 0 0v 1.469816273h 1.469816273v -1.469816273h -1.469816273Z "/><path fill="#4097e2" fill-rule="nonzero" transform="translate(8.818897638 79.37007874)" d="M 0 0v 1.469816273h 1.469816273v -1.469816273h -1.469816273Z "/><path fill="#4097e2" fill-rule="nonzero" transform="translate(11.758530184 82.309711286)" d="M 0 0v 1.469816273h 1.469816273v -1.469816273h -1.469816273Z "/><path fill="#4097e2" fill-rule="nonzero" transform="translate(11.758530184 79.37007874)" d="M 0 0v 1.469816273h 1.469816273v -1.469816273h -1.469816273Z "/><path fill="#4097e2" fill-rule="nonzero" transform="translate(26.456692913 117.585301837)" d="M 0 0v 1.469816273h 1.469816273v -1.469816273h -1.469816273Z "/><path fill="#4097e2" fill-rule="nonzero" transform="translate(26.456692913 114.645669291)" d="M 0 0v 1.469816273h 1.469816273v -1.469816273h -1.469816273Z "/><path fill="#4097e2" fill-rule="nonzero" transform="translate(29.396325459 117.585301837)" d="M 0 0v 1.469816273h 1.469816273v -1.469816273h -1.469816273Z "/><path fill="#4097e2" fill-rule="nonzero" transform="translate(29.396325459 114.645669291)" d="M 0 0v 1.469816273h 1.469816273v -1.469816273h -1.469816273Z "/><path fill="#4097e2" fill-rule="nonzero" transform="translate(26.456692913 108.766404199)" d="M 0 0v 1.469816273h 1.469816273v -1.469816273h -1.469816273Z "/><path fill="#4097e2" fill-rule="nonzero" transform="translate(26.456692913 105.826771654)" d="M 0 0v 1.469816273h 1.469816273v -1.469816273h -1.469816273Z "/><path fill="#4097e2" fill-rule="nonzero" transform="translate(29.396325459 108.766404199)" d="M 0 0v 1.469816273h 1.469816273v -1.469816273h -1.469816273Z "/><path fill="#4097e2" fill-rule="nonzero" transform="translate(29.396325459 105.826771654)" d="M 0 0v 1.469816273h 1.469816273v -1.469816273h -1.469816273Z "/><path fill="#4097e2" fill-rule="nonzero" transform="translate(35.275590551 117.585301837)" d="M 0 0v 1.469816273h 1.469816273v -1.469816273h -1.469816273Z "/><path fill="#4097e2" fill-rule="nonzero" transform="translate(35.275590551 114.645669291)" d="M 0 0v 1.469816273h 1.469816273v -1.469816273h -1.469816273Z "/><path fill="#4097e2" fill-rule="nonzero" transform="translate(38.215223097 117.585301837)" d="M 0 0v 1.469816273h 1.469816273v -1.469816273h -1.469816273Z "/><path fill="#4097e2" fill-rule="nonzero" transform="translate(38.215223097 114.645669291)" d="M 0 0v 1.469816273h 1.469816273v -1.469816273h -1.469816273Z "/><path fill="#4097e2" fill-rule="nonzero" transform="translate(35.275590551 108.766404199)" d="M 0 0v 1.469816273h 1.469816273v -1.469816273h -1.469816273Z "/><path fill="#4097e2" fill-rule="nonzero" transform="translate(35.275590551 105.826771654)" d="M 0 0v 1.469816273h 1.469816273v -1.469816273h -1.469816273Z "/><path fill="#4097e2" fill-rule="nonzero" transform="translate(38.215223097 108.766404199)" d="M 0 0v 1.469816273h 1.469816273v -1.469816273h -1.469816273Z "/><path fill="#4097e2" fill-rule="nonzero" transform="translate(38.215223097 105.826771654)" d="M 0 0v 1.469816273h 1.469816273v -1.469816273h -1.469816273Z "/><path fill="#4097e2" fill-rule="nonzero" transform="translate(26.456692913 91.128608924)" d="M 0 0v 1.469816273h 1.469816273v -1.469816273h -1.469816273Z "/><path fill="#4097e2" fill-rule="nonzero" transform="translate(26.456692913 88.188976378)" d="M 0 0v 1.469816273h 1.469816273v -1.469816273h -1.469816273Z "/><path fill="#4097e2" fill-rule="nonzero" transform="translate(29.396325459 91.128608924)" d="M 0 0v 1.469816273h 1.469816273v -1.469816273h -1.469816273Z "/><path fill="#4097e2" fill-rule="nonzero" transform="translate(29.396325459 88.188976378)" d="M 0 0v 1.469816273h 1.469816273v -1.469816273h -1.469816273Z "/><path fill="#4097e2" fill-rule="nonzero" transform="translate(26.456692913 82.309711286)" d="M 0 0v 1.469816273h 1.469816273v -1.469816273h -1.469816273Z "/><path fill="#4097e2" fill-rule="nonzero" transform="translate(26.456692913 79.37007874)" d="M 0 0v 1.469816273h 1.469816273v -1.469816273h -1.469816273Z "/><path fill="#4097e2" fill-rule="nonzero" transform="translate(29.396325459 82.309711286)" d="M 0 0v 1.469816273h 1.469816273v -1.469816273h -1.469816273Z "/><path fill="#4097e2" fill-rule="nonzero" transform="translate(29.396325459 79.37007874)" d="M 0 0v 1.469816273h 1.469816273v -1.469816273h -1.469816273Z "/><path fill="#4097e2" fill-rule="nonzero" transform="translate(35.275590551 91.128608924)" d="M 0 0v 1.469816273h 1.469816273v -1.469816273h -1.469816273Z "/><path fill="#4097e2" fill-rule="nonzero" transform="translate(35.275590551 88.188976378)" d="M 0 0v 1.469816273h 1.469816273v -1.469816273h -1.469816273Z "/><path fill="#4097e2" fill-rule="nonzero" transform="translate(38.215223097 91.128608924)" d="M 0 0v 1.469816273h 1.469816273v -1.469816273h -1.469816273Z "/><path fill="#4097e2" fill-rule="nonzero" transform="translate(38.215223097 88.188976378)" d="M 0 0v 1.469816273h 1.469816273v -1.469816273h -1.469816273Z "/><path fill="#4097e2" fill-rule="nonzero" transform="translate(35.275590551 82.309711286)" d="M 0 0v 1.469816273h 1.469816273v -1.469816273h -1.469816273Z "/><path fill="#4097e2" fill-rule="nonzero" transform="translate(35.275590551 79.37007874)" d="M 0 0v 1.469816273h 1.469816273v -1.469816273h -1.469816273Z "/><path fill="#4097e2" fill-rule="nonzero" transform="translate(38.215223097 82.309711286)" d="M 0 0v 1.469816273h 1.469816273v -1.469816273h -1.469816273Z "/><path fill="#4097e2" fill-rule="nonzero" transform="translate(38.215223097 79.37007874)" d="M 0 0v 1.469816273h 1.469816273v -1.469816273h -1.469816273Z "/><path fill="#4097e2" fill-rule="nonzero" transform="translate(0 38.215223097)" d="M 0 0v 1.469816273h 1.469816273v -1.469816273h -1.469816273Z "/><path fill="#4097e2" fill-rule="nonzero" transform="translate(0 35.275590551)" d="M 0 0v 1.469816273h 1.469816273v -1.469816273h -1.469816273Z "/><path fill="#4097e2" fill-rule="nonzero" transform="translate(2.939632546 38.215223097)" d="M 0 0v 1.469816273h 1.469816273v -1.469816273h -1.469816273Z "/><path fill="#4097e2" fill-rule="nonzero" transform="translate(2.939632546 35.275590551)" d="M 0 0v 1.469816273h 1.469816273v -1.469816273h -1.469816273Z "/><path fill="#4097e2" fill-rule="nonzero" transform="translate(0 29.396325459)" d="M 0 0v 1.469816273h 1.469816273v -1.469816273h -1.469816273Z "/><path fill="#4097e2" fill-rule="nonzero" transform="translate(0 26.456692913)" d="M 0 0v 1.469816273h 1.469816273v -1.469816273h -1.469816273Z "/><path fill="#4097e2" fill-rule="nonzero" transform="translate(2.939632546 29.396325459)" d="M 0 0v 1.469816273h 1.469816273v -1.469816273h -1.469816273Z "/><path fill="#4097e2" fill-rule="nonzero" transform="translate(2.939632546 26.456692913)" d="M 0 0v 1.469816273h 1.469816273v -1.469816273h -1.469816273Z "/><path fill="#4097e2" fill-rule="nonzero" transform="translate(8.818897638 38.215223097)" d="M 0 0v 1.469816273h 1.469816273v -1.469816273h -1.469816273Z "/><path fill="#4097e2" fill-rule="nonzero" transform="translate(8.818897638 35.275590551)" d="M 0 0v 1.469816273h 1.469816273v -1.469816273h -1.469816273Z "/><path fill="#4097e2" fill-rule="nonzero" transform="translate(11.758530184 38.215223097)" d="M 0 0v 1.469816273h 1.469816273v -1.469816273h -1.469816273Z "/><path fill="#4097e2" fill-rule="nonzero" transform="translate(11.758530184 35.275590551)" d="M 0 0v 1.469816273h 1.469816273v -1.469816273h -1.469816273Z "/><path fill="#4097e2" fill-rule="nonzero" transform="translate(8.818897638 29.396325459)" d="M 0 0v 1.469816273h 1.469816273v -1.469816273h -1.469816273Z "/><path fill="#4097e2" fill-rule="nonzero" transform="translate(8.818897638 26.456692913)" d="M 0 0v 1.469816273h 1.469816273v -1.469816273h -1.469816273Z "/><path fill="#4097e2" fill-rule="nonzero" transform="translate(11.758530184 29.396325459)" d="M 0 0v 1.469816273h 1.469816273v -1.469816273h -1.469816273Z "/><path fill="#4097e2" fill-rule="nonzero" transform="translate(11.758530184 26.456692913)" d="M 0 0v 1.469816273h 1.469816273v -1.469816273h -1.469816273Z "/><path fill="#4097e2" fill-rule="nonzero" transform="translate(0 11.758530184)" d="M 0 0v 1.469816273h 1.469816273v -1.469816273h -1.469816273Z "/><path fill="#4097e2" fill-rule="nonzero" transform="translate(0 8.818897638)" d="M 0 0v 1.469816273h 1.469816273v -1.469816273h -1.469816273Z "/><path fill="#4097e2" fill-rule="nonzero" transform="translate(2.939632546 11.758530184)" d="M 0 0v 1.469816273h 1.469816273v -1.469816273h -1.469816273Z "/><path fill="#4097e2" fill-rule="nonzero" transform="translate(2.939632546 8.818897638)" d="M 0 0v 1.469816273h 1.469816273v -1.469816273h -1.469816273Z "/><path fill="#4097e2" fill-rule="nonzero" transform="translate(0 2.939632546)" d="M 0 0v 1.469816273h 1.469816273v -1.469816273h -1.469816273Z "/><path fill="#4097e2" fill-rule="nonzero" d="M 0 0v 1.469816273h 1.469816273v -1.469816273h -1.469816273Z "/><path fill="#4097e2" fill-rule="nonzero" transform="translate(2.939632546 2.939632546)" d="M 0 0v 1.469816273h 1.469816273v -1.469816273h -1.469816273Z "/><path fill="#4097e2" fill-rule="nonzero" transform="translate(2.939632546)" d="M 0 0v 1.469816273h 1.469816273v -1.469816273h -1.469816273Z "/><path fill="#4097e2" fill-rule="nonzero" transform="translate(8.818897638 11.758530184)" d="M 0 0v 1.469816273h 1.469816273v -1.469816273h -1.469816273Z "/><path fill="#4097e2" fill-rule="nonzero" transform="translate(8.818897638 8.818897638)" d="M 0 0v 1.469816273h 1.469816273v -1.469816273h -1.469816273Z "/><path fill="#4097e2" fill-rule="nonzero" transform="translate(11.758530184 11.758530184)" d="M 0 0v 1.469816273h 1.469816273v -1.469816273h -1.469816273Z "/><path fill="#4097e2" fill-rule="nonzero" transform="translate(11.758530184 8.818897638)" d="M 0 0v 1.469816273h 1.469816273v -1.469816273h -1.469816273Z "/><path fill="#4097e2" fill-rule="nonzero" transform="translate(8.818897638 2.939632546)" d="M 0 0v 1.469816273h 1.469816273v -1.469816273h -1.469816273Z "/><path fill="#4097e2" fill-rule="nonzero" transform="translate(8.818897638)" d="M 0 0v 1.469816273h 1.469816273v -1.469816273h -1.469816273Z "/><path fill="#4097e2" fill-rule="nonzero" transform="translate(11.758530184 2.939632546)" d="M 0 0v 1.469816273h 1.469816273v -1.469816273h -1.469816273Z "/><path fill="#4097e2" fill-rule="nonzero" transform="translate(11.758530184)" d="M 0 0v 1.469816273h 1.469816273v -1.469816273h -1.469816273Z "/><path fill="#4097e2" fill-rule="nonzero" transform="translate(26.456692913 38.215223097)" d="M 0 0v 1.469816273h 1.469816273v -1.469816273h -1.469816273Z "/><path fill="#4097e2" fill-rule="nonzero" transform="translate(26.456692913 35.275590551)" d="M 0 0v 1.469816273h 1.469816273v -1.469816273h -1.469816273Z "/><path fill="#4097e2" fill-rule="nonzero" transform="translate(29.396325459 38.215223097)" d="M 0 0v 1.469816273h 1.469816273v -1.469816273h -1.469816273Z "/><path fill="#4097e2" fill-rule="nonzero" transform="translate(29.396325459 35.275590551)" d="M 0 0v 1.469816273h 1.469816273v -1.469816273h -1.469816273Z "/><path fill="#4097e2" fill-rule="nonzero" transform="translate(26.456692913 29.396325459)" d="M 0 0v 1.469816273h 1.469816273v -1.469816273h -1.469816273Z "/><path fill="#4097e2" fill-rule="nonzero" transform="translate(26.456692913 26.456692913)" d="M 0 0v 1.469816273h 1.469816273v -1.469816273h -1.469816273Z "/><path fill="#4097e2" fill-rule="nonzero" transform="translate(29.396325459 29.396325459)" d="M 0 0v 1.469816273h 1.469816273v -1.469816273h -1.469816273Z "/><path fill="#4097e2" fill-rule="nonzero" transform="translate(29.396325459 26.456692913)" d="M 0 0v 1.469816273h 1.469816273v -1.469816273h -1.469816273Z "/><path fill="#4097e2" fill-rule="nonzero" transform="translate(35.275590551 38.215223097)" d="M 0 0v 1.469816273h 1.469816273v -1.469816273h -1.469816273Z "/><path fill="#4097e2" fill-rule="nonzero" transform="translate(35.275590551 35.275590551)" d="M 0 0v 1.469816273h 1.469816273v -1.469816273h -1.469816273Z "/><path fill="#4097e2" fill-rule="nonzero" transform="translate(38.215223097 38.215223097)" d="M 0 0v 1.469816273h 1.469816273v -1.469816273h -1.469816273Z "/><path fill="#4097e2" fill-rule="nonzero" transform="translate(38.215223097 35.275590551)" d="M 0 0v 1.469816273h 1.469816273v -1.469816273h -1.469816273Z "/><path fill="#4097e2" fill-rule="nonzero" transform="translate(35.275590551 29.396325459)" d="M 0 0v 1.469816273h 1.469816273v -1.469816273h -1.469816273Z "/><path fill="#4097e2" fill-rule="nonzero" transform="translate(35.275590551 26.456692913)" d="M 0 0v 1.469816273h 1.469816273v -1.469816273h -1.469816273Z "/><path fill="#4097e2" fill-rule="nonzero" transform="translate(38.215223097 29.396325459)" d="M 0 0v 1.469816273h 1.469816273v -1.469816273h -1.469816273Z "/><path fill="#4097e2" fill-rule="nonzero" transform="translate(38.215223097 26.456692913)" d="M 0 0v 1.469816273h 1.469816273v -1.469816273h -1.469816273Z "/><path fill="#4097e2" fill-rule="nonzero" transform="translate(26.456692913 11.758530184)" d="M 0 0v 1.469816273h 1.469816273v -1.469816273h -1.469816273Z "/><path fill="#4097e2" fill-rule="nonzero" transform="translate(26.456692913 8.818897638)" d="M 0 0v 1.469816273h 1.469816273v -1.469816273h -1.469816273Z "/><path fill="#4097e2" fill-rule="nonzero" transform="translate(29.396325459 11.758530184)" d="M 0 0v 1.469816273h 1.469816273v -1.469816273h -1.469816273Z "/><path fill="#4097e2" fill-rule="nonzero" transform="translate(29.396325459 8.818897638)" d="M 0 0v 1.469816273h 1.469816273v -1.469816273h -1.469816273Z "/><path fill="#4097e2" fill-rule="nonzero" transform="translate(26.456692913 2.939632546)" d="M 0 0v 1.469816273h 1.469816273v -1.469816273h -1.469816273Z "/><path fill="#4097e2" fill-rule="nonzero" transform="translate(26.456692913)" d="M 0 0v 1.469816273h 1.469816273v -1.469816273h -1.469816273Z "/><path fill="#4097e2" fill-rule="nonzero" transform="translate(29.396325459 2.939632546)" d="M 0 0v 1.469816273h 1.469816273v -1.469816273h -1.469816273Z "/><path fill="#4097e2" fill-rule="nonzero" transform="translate(29.396325459)" d="M 0 0v 1.469816273h 1.469816273v -1.469816273h -1.469816273Z "/><path fill="#4097e2" fill-rule="nonzero" transform="translate(35.275590551 11.758530184)" d="M 0 0v 1.469816273h 1.469816273v -1.469816273h -1.469816273Z "/><path fill="#4097e2" fill-rule="nonzero" transform="translate(35.275590551 8.818897638)" d="M 0 0v 1.469816273h 1.469816273v -1.469816273h -1.469816273Z "/><path fill="#4097e2" fill-rule="nonzero" transform="translate(38.215223097 11.758530184)" d="M 0 0v 1.469816273h 1.469816273v -1.469816273h -1.469816273Z "/><path fill="#4097e2" fill-rule="nonzero" transform="translate(38.215223097 8.818897638)" d="M 0 0v 1.469816273h 1.469816273v -1.469816273h -1.469816273Z "/><path fill="#4097e2" fill-rule="nonzero" transform="translate(35.275590551 2.939632546)" d="M 0 0v 1.469816273h 1.469816273v -1.469816273h -1.469816273Z "/><path fill="#4097e2" fill-rule="nonzero" transform="translate(35.275590551)" d="M 0 0v 1.469816273h 1.469816273v -1.469816273h -1.469816273Z "/><path fill="#4097e2" fill-rule="nonzero" transform="translate(38.215223097 2.939632546)" d="M 0 0v 1.469816273h 1.469816273v -1.469816273h -1.469816273Z "/><path fill="#4097e2" fill-rule="nonzero" transform="translate(38.215223097)" d="M 0 0v 1.469816273h 1.469816273v -1.469816273h -1.469816273Z "/><path fill="#4097e2" fill-rule="nonzero" transform="translate(79.37007874 117.585301837)" d="M 0 0v 1.469816273h 1.469816273v -1.469816273h -1.469816273Z "/><path fill="#4097e2" fill-rule="nonzero" transform="translate(79.37007874 114.645669291)" d="M 0 0v 1.469816273h 1.469816273v -1.469816273h -1.469816273Z "/><path fill="#4097e2" fill-rule="nonzero" transform="translate(82.309711286 117.585301837)" d="M 0 0v 1.469816273h 1.469816273v -1.469816273h -1.469816273Z "/><path fill="#4097e2" fill-rule="nonzero" transform="translate(82.309711286 114.645669291)" d="M 0 0v 1.469816273h 1.469816273v -1.469816273h -1.469816273Z "/><path fill="#4097e2" fill-rule="nonzero" transform="translate(79.37007874 108.766404199)" d="M 0 0v 1.469816273h 1.469816273v -1.469816273h -1.469816273Z "/><path fill="#4097e2" fill-rule="nonzero" transform="translate(79.37007874 105.826771654)" d="M 0 0v 1.469816273h 1.469816273v -1.469816273h -1.469816273Z "/><path fill="#4097e2" fill-rule="nonzero" transform="translate(82.309711286 108.766404199)" d="M 0 0v 1.469816273h 1.469816273v -1.469816273h -1.469816273Z "/><path fill="#4097e2" fill-rule="nonzero" transform="translate(82.309711286 105.826771654)" d="M 0 0v 1.469816273h 1.469816273v -1.469816273h -1.469816273Z "/><path fill="#4097e2" fill-rule="nonzero" transform="translate(88.188976378 117.585301837)" d="M 0 0v 1.469816273h 1.469816273v -1.469816273h -1.469816273Z "/><path fill="#4097e2" fill-rule="nonzero" transform="translate(88.188976378 114.645669291)" d="M 0 0v 1.469816273h 1.469816273v -1.469816273h -1.469816273Z "/><path fill="#4097e2" fill-rule="nonzero" transform="translate(91.128608924 117.585301837)" d="M 0 0v 1.469816273h 1.469816273v -1.469816273h -1.469816273Z "/><path fill="#4097e2" fill-rule="nonzero" transform="translate(91.128608924 114.645669291)" d="M 0 0v 1.469816273h 1.469816273v -1.469816273h -1.469816273Z "/><path fill="#4097e2" fill-rule="nonzero" transform="translate(88.188976378 108.766404199)" d="M 0 0v 1.469816273h 1.469816273v -1.469816273h -1.469816273Z "/><path fill="#4097e2" fill-rule="nonzero" transform="translate(88.188976378 105.826771654)" d="M 0 0v 1.469816273h 1.469816273v -1.469816273h -1.469816273Z "/><path fill="#4097e2" fill-rule="nonzero" transform="translate(91.128608924 108.766404199)" d="M 0 0v 1.469816273h 1.469816273v -1.469816273h -1.469816273Z "/><path fill="#4097e2" fill-rule="nonzero" transform="translate(91.128608924 105.826771654)" d="M 0 0v 1.469816273h 1.469816273v -1.469816273h -1.469816273Z "/><path fill="#4097e2" fill-rule="nonzero" transform="translate(79.37007874 91.128608924)" d="M 0 0v 1.469816273h 1.469816273v -1.469816273h -1.469816273Z "/><path fill="#4097e2" fill-rule="nonzero" transform="translate(79.37007874 88.188976378)" d="M 0 0v 1.469816273h 1.469816273v -1.469816273h -1.469816273Z "/><path fill="#4097e2" fill-rule="nonzero" transform="translate(82.309711286 91.128608924)" d="M 0 0v 1.469816273h 1.469816273v -1.469816273h -1.469816273Z "/><path fill="#4097e2" fill-rule="nonzero" transform="translate(82.309711286 88.188976378)" d="M 0 0v 1.469816273h 1.469816273v -1.469816273h -1.469816273Z "/><path fill="#4097e2" fill-rule="nonzero" transform="translate(79.37007874 82.309711286)" d="M 0 0v 1.469816273h 1.469816273v -1.469816273h -1.469816273Z "/><path fill="#4097e2" fill-rule="nonzero" transform="translate(79.37007874 79.37007874)" d="M 0 0v 1.469816273h 1.469816273v -1.469816273h -1.469816273Z "/><path fill="#4097e2" fill-rule="nonzero" transform="translate(82.309711286 82.309711286)" d="M 0 0v 1.469816273h 1.469816273v -1.469816273h -1.469816273Z "/><path fill="#4097e2" fill-rule="nonzero" transform="translate(82.309711286 79.37007874)" d="M 0 0v 1.469816273h 1.469816273v -1.469816273h -1.469816273Z "/><path fill="#4097e2" fill-rule="nonzero" transform="translate(88.188976378 91.128608924)" d="M 0 0v 1.469816273h 1.469816273v -1.469816273h -1.469816273Z "/><path fill="#4097e2" fill-rule="nonzero" transform="translate(88.188976378 88.188976378)" d="M 0 0v 1.469816273h 1.469816273v -1.469816273h -1.469816273Z "/><path fill="#4097e2" fill-rule="nonzero" transform="translate(91.128608924 91.128608924)" d="M 0 0v 1.469816273h 1.469816273v -1.469816273h -1.469816273Z "/><path fill="#4097e2" fill-rule="nonzero" transform="translate(91.128608924 88.188976378)" d="M 0 0v 1.469816273h 1.469816273v -1.469816273h -1.469816273Z "/><path fill="#4097e2" fill-rule="nonzero" transform="translate(88.188976378 82.309711286)" d="M 0 0v 1.469816273h 1.469816273v -1.469816273h -1.469816273Z "/><path fill="#4097e2" fill-rule="nonzero" transform="translate(88.188976378 79.37007874)" d="M 0 0v 1.469816273h 1.469816273v -1.469816273h -1.469816273Z "/><path fill="#4097e2" fill-rule="nonzero" transform="translate(91.128608924 82.309711286)" d="M 0 0v 1.469816273h 1.469816273v -1.469816273h -1.469816273Z "/><path fill="#4097e2" fill-rule="nonzero" transform="translate(91.128608924 79.37007874)" d="M 0 0v 1.469816273h 1.469816273v -1.469816273h -1.469816273Z "/><path fill="#4097e2" fill-rule="nonzero" transform="translate(105.826771654 117.585301837)" d="M 0 0v 1.469816273h 1.469816273v -1.469816273h -1.469816273Z "/><path fill="#4097e2" fill-rule="nonzero" transform="translate(105.826771654 114.645669291)" d="M 0 0v 1.469816273h 1.469816273v -1.469816273h -1.469816273Z "/><path fill="#4097e2" fill-rule="nonzero" transform="translate(108.766404199 117.585301837)" d="M 0 0v 1.469816273h 1.469816273v -1.469816273h -1.469816273Z "/><path fill="#4097e2" fill-rule="nonzero" transform="translate(108.766404199 114.645669291)" d="M 0 0v 1.469816273h 1.469816273v -1.469816273h -1.469816273Z "/><path fill="#4097e2" fill-rule="nonzero" transform="translate(105.826771654 108.766404199)" d="M 0 0v 1.469816273h 1.469816273v -1.469816273h -1.469816273Z "/><path fill="#4097e2" fill-rule="nonzero" transform="translate(105.826771654 105.826771654)" d="M 0 0v 1.469816273h 1.469816273v -1.469816273h -1.469816273Z "/><path fill="#4097e2" fill-rule="nonzero" transform="translate(108.766404199 108.766404199)" d="M 0 0v 1.469816273h 1.469816273v -1.469816273h -1.469816273Z "/><path fill="#4097e2" fill-rule="nonzero" transform="translate(108.766404199 105.826771654)" d="M 0 0v 1.469816273h 1.469816273v -1.469816273h -1.469816273Z "/><path fill="#4097e2" fill-rule="nonzero" transform="translate(114.645669291 117.585301837)" d="M 0 0v 1.469816273h 1.469816273v -1.469816273h -1.469816273Z "/><path fill="#4097e2" fill-rule="nonzero" transform="translate(114.645669291 114.645669291)" d="M 0 0v 1.469816273h 1.469816273v -1.469816273h -1.469816273Z "/><path fill="#4097e2" fill-rule="nonzero" transform="translate(117.585301837 117.585301837)" d="M 0 0v 1.469816273h 1.469816273v -1.469816273h -1.469816273Z "/><path fill="#4097e2" fill-rule="nonzero" transform="translate(117.585301837 114.645669291)" d="M 0 0v 1.469816273h 1.469816273v -1.469816273h -1.469816273Z "/><path fill="#4097e2" fill-rule="nonzero" transform="translate(114.645669291 108.766404199)" d="M 0 0v 1.469816273h 1.469816273v -1.469816273h -1.469816273Z "/><path fill="#4097e2" fill-rule="nonzero" transform="translate(114.645669291 105.826771654)" d="M 0 0v 1.469816273h 1.469816273v -1.469816273h -1.469816273Z "/><path fill="#4097e2" fill-rule="nonzero" transform="translate(117.585301837 108.766404199)" d="M 0 0v 1.469816273h 1.469816273v -1.469816273h -1.469816273Z "/><path fill="#4097e2" fill-rule="nonzero" transform="translate(117.585301837 105.826771654)" d="M 0 0v 1.469816273h 1.469816273v -1.469816273h -1.469816273Z "/><path fill="#4097e2" fill-rule="nonzero" transform="translate(105.826771654 91.128608924)" d="M 0 0v 1.469816273h 1.469816273v -1.469816273h -1.469816273Z "/><path fill="#4097e2" fill-rule="nonzero" transform="translate(105.826771654 88.188976378)" d="M 0 0v 1.469816273h 1.469816273v -1.469816273h -1.469816273Z "/><path fill="#4097e2" fill-rule="nonzero" transform="translate(108.766404199 91.128608924)" d="M 0 0v 1.469816273h 1.469816273v -1.469816273h -1.469816273Z "/><path fill="#4097e2" fill-rule="nonzero" transform="translate(108.766404199 88.188976378)" d="M 0 0v 1.469816273h 1.469816273v -1.469816273h -1.469816273Z "/><path fill="#4097e2" fill-rule="nonzero" transform="translate(105.826771654 82.309711286)" d="M 0 0v 1.469816273h 1.469816273v -1.469816273h -1.469816273Z "/><path fill="#4097e2" fill-rule="nonzero" transform="translate(105.826771654 79.37007874)" d="M 0 0v 1.469816273h 1.469816273v -1.469816273h -1.469816273Z "/><path fill="#4097e2" fill-rule="nonzero" transform="translate(108.766404199 82.309711286)" d="M 0 0v 1.469816273h 1.469816273v -1.469816273h -1.469816273Z "/><path fill="#4097e2" fill-rule="nonzero" transform="translate(108.766404199 79.37007874)" d="M 0 0v 1.469816273h 1.469816273v -1.469816273h -1.469816273Z "/><path fill="#4097e2" fill-rule="nonzero" transform="translate(114.645669291 91.128608924)" d="M 0 0v 1.469816273h 1.469816273v -1.469816273h -1.469816273Z "/><path fill="#4097e2" fill-rule="nonzero" transform="translate(114.645669291 88.188976378)" d="M 0 0v 1.469816273h 1.469816273v -1.469816273h -1.469816273Z "/><path fill="#4097e2" fill-rule="nonzero" transform="translate(117.585301837 91.128608924)" d="M 0 0v 1.469816273h 1.469816273v -1.469816273h -1.469816273Z "/><path fill="#4097e2" fill-rule="nonzero" transform="translate(117.585301837 88.188976378)" d="M 0 0v 1.469816273h 1.469816273v -1.469816273h -1.469816273Z "/><path fill="#4097e2" fill-rule="nonzero" transform="translate(114.645669291 82.309711286)" d="M 0 0v 1.469816273h 1.469816273v -1.469816273h -1.469816273Z "/><path fill="#4097e2" fill-rule="nonzero" transform="translate(114.645669291 79.37007874)" d="M 0 0v 1.469816273h 1.469816273v -1.469816273h -1.469816273Z "/><path fill="#4097e2" fill-rule="nonzero" transform="translate(117.585301837 82.309711286)" d="M 0 0v 1.469816273h 1.469816273v -1.469816273h -1.469816273Z "/><path fill="#4097e2" fill-rule="nonzero" transform="translate(117.585301837 79.37007874)" d="M 0 0v 1.469816273h 1.469816273v -1.469816273h -1.469816273Z "/><path fill="#4097e2" fill-rule="nonzero" transform="translate(79.37007874 38.215223097)" d="M 0 0v 1.469816273h 1.469816273v -1.469816273h -1.469816273Z "/><path fill="#4097e2" fill-rule="nonzero" transform="translate(79.37007874 35.275590551)" d="M 0 0v 1.469816273h 1.469816273v -1.469816273h -1.469816273Z "/><path fill="#4097e2" fill-rule="nonzero" transform="translate(82.309711286 38.215223097)" d="M 0 0v 1.469816273h 1.469816273v -1.469816273h -1.469816273Z "/><path fill="#4097e2" fill-rule="nonzero" transform="translate(82.309711286 35.275590551)" d="M 0 0v 1.469816273h 1.469816273v -1.469816273h -1.469816273Z "/><path fill="#4097e2" fill-rule="nonzero" transform="translate(79.37007874 29.396325459)" d="M 0 0v 1.469816273h 1.469816273v -1.469816273h -1.469816273Z "/><path fill="#4097e2" fill-rule="nonzero" transform="translate(79.37007874 26.456692913)" d="M 0 0v 1.469816273h 1.469816273v -1.469816273h -1.469816273Z "/><path fill="#4097e2" fill-rule="nonzero" transform="translate(82.309711286 29.396325459)" d="M 0 0v 1.469816273h 1.469816273v -1.469816273h -1.469816273Z "/><path fill="#4097e2" fill-rule="nonzero" transform="translate(82.309711286 26.456692913)" d="M 0 0v 1.469816273h 1.469816273v -1.469816273h -1.469816273Z "/><path fill="#4097e2" fill-rule="nonzero" transform="translate(88.188976378 38.215223097)" d="M 0 0v 1.469816273h 1.469816273v -1.469816273h -1.469816273Z "/><path fill="#4097e2" fill-rule="nonzero" transform="translate(88.188976378 35.275590551)" d="M 0 0v 1.469816273h 1.469816273v -1.469816273h -1.469816273Z "/><path fill="#4097e2" fill-rule="nonzero" transform="translate(91.128608924 38.215223097)" d="M 0 0v 1.469816273h 1.469816273v -1.469816273h -1.469816273Z "/><path fill="#4097e2" fill-rule="nonzero" transform="translate(91.128608924 35.275590551)" d="M 0 0v 1.469816273h 1.469816273v -1.469816273h -1.469816273Z "/><path fill="#4097e2" fill-rule="nonzero" transform="translate(88.188976378 29.396325459)" d="M 0 0v 1.469816273h 1.469816273v -1.469816273h -1.469816273Z "/><path fill="#4097e2" fill-rule="nonzero" transform="translate(88.188976378 26.456692913)" d="M 0 0v 1.469816273h 1.469816273v -1.469816273h -1.469816273Z "/><path fill="#4097e2" fill-rule="nonzero" transform="translate(91.128608924 29.396325459)" d="M 0 0v 1.469816273h 1.469816273v -1.469816273h -1.469816273Z "/><path fill="#4097e2" fill-rule="nonzero" transform="translate(91.128608924 26.456692913)" d="M 0 0v 1.469816273h 1.469816273v -1.469816273h -1.469816273Z "/><path fill="#4097e2" fill-rule="nonzero" transform="translate(79.37007874 11.758530184)" d="M 0 0v 1.469816273h 1.469816273v -1.469816273h -1.469816273Z "/><path fill="#4097e2" fill-rule="nonzero" transform="translate(79.37007874 8.818897638)" d="M 0 0v 1.469816273h 1.469816273v -1.469816273h -1.469816273Z "/><path fill="#4097e2" fill-rule="nonzero" transform="translate(82.309711286 11.758530184)" d="M 0 0v 1.469816273h 1.469816273v -1.469816273h -1.469816273Z "/><path fill="#4097e2" fill-rule="nonzero" transform="translate(82.309711286 8.818897638)" d="M 0 0v 1.469816273h 1.469816273v -1.469816273h -1.469816273Z "/><path fill="#4097e2" fill-rule="nonzero" transform="translate(79.37007874 2.939632546)" d="M 0 0v 1.469816273h 1.469816273v -1.469816273h -1.469816273Z "/><path fill="#4097e2" fill-rule="nonzero" transform="translate(79.37007874)" d="M 0 0v 1.469816273h 1.469816273v -1.469816273h -1.469816273Z "/><path fill="#4097e2" fill-rule="nonzero" transform="translate(82.309711286 2.939632546)" d="M 0 0v 1.469816273h 1.469816273v -1.469816273h -1.469816273Z "/><path fill="#4097e2" fill-rule="nonzero" transform="translate(82.309711286)" d="M 0 0v 1.469816273h 1.469816273v -1.469816273h -1.469816273Z "/><path fill="#4097e2" fill-rule="nonzero" transform="translate(88.188976378 11.758530184)" d="M 0 0v 1.469816273h 1.469816273v -1.469816273h -1.469816273Z "/><path fill="#4097e2" fill-rule="nonzero" transform="translate(88.188976378 8.818897638)" d="M 0 0v 1.469816273h 1.469816273v -1.469816273h -1.469816273Z "/><path fill="#4097e2" fill-rule="nonzero" transform="translate(91.128608924 11.758530184)" d="M 0 0v 1.469816273h 1.469816273v -1.469816273h -1.469816273Z "/><path fill="#4097e2" fill-rule="nonzero" transform="translate(91.128608924 8.818897638)" d="M 0 0v 1.469816273h 1.469816273v -1.469816273h -1.469816273Z "/><path fill="#4097e2" fill-rule="nonzero" transform="translate(88.188976378 2.939632546)" d="M 0 0v 1.469816273h 1.469816273v -1.469816273h -1.469816273Z "/><path fill="#4097e2" fill-rule="nonzero" transform="translate(88.188976378)" d="M 0 0v 1.469816273h 1.469816273v -1.469816273h -1.469816273Z "/><path fill="#4097e2" fill-rule="nonzero" transform="translate(91.128608924 2.939632546)" d="M 0 0v 1.469816273h 1.469816273v -1.469816273h -1.469816273Z "/><path fill="#4097e2" fill-rule="nonzero" transform="translate(91.128608924)" d="M 0 0v 1.469816273h 1.469816273v -1.469816273h -1.469816273Z "/><path fill="#4097e2" fill-rule="nonzero" transform="translate(105.826771654 38.215223097)" d="M 0 0v 1.469816273h 1.469816273v -1.469816273h -1.469816273Z "/><path fill="#4097e2" fill-rule="nonzero" transform="translate(105.826771654 35.275590551)" d="M 0 0v 1.469816273h 1.469816273v -1.469816273h -1.469816273Z "/><path fill="#4097e2" fill-rule="nonzero" transform="translate(108.766404199 38.215223097)" d="M 0 0v 1.469816273h 1.469816273v -1.469816273h -1.469816273Z "/><path fill="#4097e2" fill-rule="nonzero" transform="translate(108.766404199 35.275590551)" d="M 0 0v 1.469816273h 1.469816273v -1.469816273h -1.469816273Z "/><path fill="#4097e2" fill-rule="nonzero" transform="translate(105.826771654 29.396325459)" d="M 0 0v 1.469816273h 1.469816273v -1.469816273h -1.469816273Z "/><path fill="#4097e2" fill-rule="nonzero" transform="translate(105.826771654 26.456692913)" d="M 0 0v 1.469816273h 1.469816273v -1.469816273h -1.469816273Z "/><path fill="#4097e2" fill-rule="nonzero" transform="translate(108.766404199 29.396325459)" d="M 0 0v 1.469816273h 1.469816273v -1.469816273h -1.469816273Z "/><path fill="#4097e2" fill-rule="nonzero" transform="translate(108.766404199 26.456692913)" d="M 0 0v 1.469816273h 1.469816273v -1.469816273h -1.469816273Z "/><path fill="#4097e2" fill-rule="nonzero" transform="translate(114.645669291 38.215223097)" d="M 0 0v 1.469816273h 1.469816273v -1.469816273h -1.469816273Z "/><path fill="#4097e2" fill-rule="nonzero" transform="translate(114.645669291 35.275590551)" d="M 0 0v 1.469816273h 1.469816273v -1.469816273h -1.469816273Z "/><path fill="#4097e2" fill-rule="nonzero" transform="translate(117.585301837 38.215223097)" d="M 0 0v 1.469816273h 1.469816273v -1.469816273h -1.469816273Z "/><path fill="#4097e2" fill-rule="nonzero" transform="translate(117.585301837 35.275590551)" d="M 0 0v 1.469816273h 1.469816273v -1.469816273h -1.469816273Z "/><path fill="#4097e2" fill-rule="nonzero" transform="translate(114.645669291 29.396325459)" d="M 0 0v 1.469816273h 1.469816273v -1.469816273h -1.469816273Z "/><path fill="#4097e2" fill-rule="nonzero" transform="translate(114.645669291 26.456692913)" d="M 0 0v 1.469816273h 1.469816273v -1.469816273h -1.469816273Z "/><path fill="#4097e2" fill-rule="nonzero" transform="translate(117.585301837 29.396325459)" d="M 0 0v 1.469816273h 1.469816273v -1.469816273h -1.469816273Z "/><path fill="#4097e2" fill-rule="nonzero" transform="translate(117.585301837 26.456692913)" d="M 0 0v 1.469816273h 1.469816273v -1.469816273h -1.469816273Z "/><path fill="#4097e2" fill-rule="nonzero" transform="translate(105.826771654 11.758530184)" d="M 0 0v 1.469816273h 1.469816273v -1.469816273h -1.469816273Z "/><path fill="#4097e2" fill-rule="nonzero" transform="translate(105.826771654 8.818897638)" d="M 0 0v 1.469816273h 1.469816273v -1.469816273h -1.469816273Z "/><path fill="#4097e2" fill-rule="nonzero" transform="translate(108.766404199 11.758530184)" d="M 0 0v 1.469816273h 1.469816273v -1.469816273h -1.469816273Z "/><path fill="#4097e2" fill-rule="nonzero" transform="translate(108.766404199 8.818897638)" d="M 0 0v 1.469816273h 1.469816273v -1.469816273h -1.469816273Z "/><path fill="#4097e2" fill-rule="nonzero" transform="translate(105.826771654 2.939632546)" d="M 0 0v 1.469816273h 1.469816273v -1.469816273h -1.469816273Z "/><path fill="#4097e2" fill-rule="nonzero" transform="translate(105.826771654)" d="M 0 0v 1.469816273h 1.469816273v -1.469816273h -1.469816273Z "/><path fill="#4097e2" fill-rule="nonzero" transform="translate(108.766404199 2.939632546)" d="M 0 0v 1.469816273h 1.469816273v -1.469816273h -1.469816273Z "/><path fill="#4097e2" fill-rule="nonzero" transform="translate(108.766404199)" d="M 0 0v 1.469816273h 1.469816273v -1.469816273h -1.469816273Z "/><path fill="#4097e2" fill-rule="nonzero" transform="translate(114.645669291 11.758530184)" d="M 0 0v 1.469816273h 1.469816273v -1.469816273h -1.469816273Z "/><path fill="#4097e2" fill-rule="nonzero" transform="translate(114.645669291 8.818897638)" d="M 0 0v 1.469816273h 1.469816273v -1.469816273h -1.469816273Z "/><path fill="#4097e2" fill-rule="nonzero" transform="translate(117.585301837 11.758530184)" d="M 0 0v 1.469816273h 1.469816273v -1.469816273h -1.469816273Z "/><path fill="#4097e2" fill-rule="nonzero" transform="translate(117.585301837 8.818897638)" d="M 0 0v 1.469816273h 1.469816273v -1.469816273h -1.469816273Z "/><path fill="#4097e2" fill-rule="nonzero" transform="translate(114.645669291 2.939632546)" d="M 0 0v 1.469816273h 1.469816273v -1.469816273h -1.469816273Z "/><path fill="#4097e2" fill-rule="nonzero" transform="translate(114.645669291)" d="M 0 0v 1.469816273h 1.469816273v -1.469816273h -1.469816273Z "/><path fill="#4097e2" fill-rule="nonzero" transform="translate(117.585301837 2.939632546)" d="M 0 0v 1.469816273h 1.469816273v -1.469816273h -1.469816273Z "/><path fill="#4097e2" fill-rule="nonzero" transform="translate(117.585301837)" d="M 0 0v 1.469816273h 1.469816273v -1.469816273h -1.469816273Z "/></g></g><g transform="matrix(1 0 0 -1 55.359781277 139.88511811)"><use xlink:href="#g2EFE33C5504D867B813D7940C7587DC4" x="0" y="0" fill="#000000" fill-rule="nonzero"/></g><g transform="matrix(1 0 0 -1 64.137559055 139.88511811)"><use xlink:href="#g7679559C61795D4B2FBCEF1D6942AEE" x="0" y="0" fill="#000000" fill-rule="nonzero"/></g><g transform="matrix(1 0 0 -1 74.695336833 139.88511811)"><use xlink:href="#g187F960CD8D343F130EAFAB63E4BE0DE" x="0" y="0" fill="#000000" fill-rule="nonzero"/></g><g transform="matrix(1 0 0 -1 186.414899388 139.88511811)"><use xlink:href="#g2EFE33C5504D867B813D7940C7587DC4" x="0" y="0" fill="#000000" fill-rule="nonzero"/></g><g transform="matrix(1 0 0 -1 195.192677165 139.88511811)"><use xlink:href="#g7679559C61795D4B2FBCEF1D6942AEE" x="0" y="0" fill="#000000" fill-rule="nonzero"/></g><g transform="matrix(1 0 0 -1 205.750454943 139.88511811)"><use xlink:href="#g2944E08BBD755E2996904E6E0A970414" x="0" y="0" fill="#000000" fill-rule="nonzero"/></g><g transform="matrix(1 0 0 -1 317.470017498 139.88511811)"><use xlink:href="#g2EFE33C5504D867B813D7940C7587DC4" x="0" y="0" fill="#000000" fill-rule="nonzero"/></g><g transform="matrix(1 0 0 -1 326.247795276 139.88511811)"><use xlink:href="#g7679559C61795D4B2FBCEF1D6942AEE" x="0" y="0" fill="#000000" fill-rule="nonzero"/></g><g transform="matrix(1 0 0 -1 336.805573053 139.88511811)"><use xlink:href="#g25AA077DE012500399ECCD32292552DD" x="0" y="0" fill="#000000" fill-rule="nonzero"/></g><defs><symbol id="g2EFE33C5504D867B813D7940C7587DC4" overflow="visible"><path d="M 0 0m 5.37 1.37c -0.23 -0.79 -0.56 -1.19 -0.97 -1.19c -0.13 0 -0.2 0.1 -0.2 0.29c 0 0.14 0.06 0.37 0.18 0.68c 0.4 1.09 0.6 1.81 0.6 2.18c 0 0.7 -0.47 1.09 -1.17 1.09c -0.59 0 -1.1 -0.26 -1.51 -0.79c -0.08 0.44 -0.43 0.79 -0.94 0.79c -0.56 0 -0.78 -0.52 -0.92 -0.97c -0.1 -0.32 -0.15 -0.51 -0.15 -0.58c 0 -0.09 0.05 -0.14 0.16 -0.14c 0.05 0 0.08 0.01 0.11 0.03c 0.05 0.09 0.08 0.16 0.09 0.23c 0.18 0.76 0.41 1.14 0.68 1.14c 0.18 0 0.27 -0.14 0.27 -0.42c 0 -0.13 -0.05 -0.4 -0.16 -0.81l -0.57 -2.27c -0.03 -0.13 -0.09 -0.39 -0.09 -0.44c 0 -0.2 0.11 -0.3 0.33 -0.3c 0.19 0 0.33 0.1 0.4 0.3c 0.02 0.05 0.08 0.3 0.19 0.73l 0.21 0.89l 0.3 1.14c 0.11 0.23 0.28 0.46 0.49 0.7c 0.29 0.32 0.65 0.48 1.08 0.48c 0.33 0 0.49 -0.22 0.49 -0.65c 0 -0.38 -0.21 -1.14 -0.64 -2.28c -0.07 -0.18 -0.1 -0.33 -0.1 -0.46c 0 -0.49 0.37 -0.85 0.85 -0.85c 0.44 0 0.79 0.25 1.04 0.75c 0.19 0.4 0.29 0.67 0.29 0.8c 0 0.09 -0.05 0.14 -0.16 0.14c -0.03 0 -0.18 -0.09 -0.18 -0.21Z "/></symbol><symbol id="g7679559C61795D4B2FBCEF1D6942AEE" overflow="visible"><path d="M 0 0m 6.98 3.67h -6.18c -0.16 0 -0.24 -0.08 -0.24 -0.23c 0 -0.15 0.08 -0.23 0.24 -0.23h 6.18c 0.16 0 0.24 0.08 0.24 0.23c 0 0.12 -0.11 0.23 -0.24 0.23Z m 0 -1.88h -6.18c -0.16 0 -0.24 -0.08 -0.24 -0.23c 0 -0.15 0.08 -0.23 0.24 -0.23h 6.18c 0.16 0 0.24 0.08 0.24 0.23c 0 0.13 -0.11 0.23 -0.24 0.23Z "/></symbol><symbol id="g187F960CD8D343F130EAFAB63E4BE0DE" overflow="visible"><path d="M 0 0m 2.37 6.66c -0.51 0 -0.94 -0.18 -1.31 -0.54c -0.37 -0.36 -0.56 -0.78 -0.56 -1.29c 0 -0.34 0.25 -0.59 0.56 -0.59c 0.3 0 0.55 0.26 0.55 0.56c 0 0.33 -0.24 0.56 -0.56 0.56c -0.03 0 -0.05 0 -0.07 -0.01c 0.19 0.49 0.63 0.92 1.26 0.92c 0.82 0 1.28 -0.71 1.28 -1.57c 0 -0.67 -0.34 -1.39 -1.02 -2.15l -1.88 -2.12c -0.13 -0.15 -0.12 -0.14 -0.12 -0.43h 3.71l 0.29 1.8h -0.33c -0.08 -0.51 -0.15 -0.8 -0.21 -0.89c -0.05 -0.05 -0.35 -0.07 -0.9 -0.07h -1.67l 0.97 0.95c 0.68 0.64 1.54 1.33 1.83 1.86c 0.2 0.35 0.3 0.7 0.3 1.05c 0 1.18 -0.92 1.96 -2.12 1.96Z "/></symbol><symbol id="g2944E08BBD755E2996904E6E0A970414" overflow="visible"><path d="M 0 0m 3.03 3.53c 0.66 0.25 1.28 0.88 1.28 1.73c 0 0.43 -0.21 0.78 -0.62 1.05c -0.36 0.23 -0.77 0.35 -1.23 0.35c -0.45 0 -0.84 -0.12 -1.19 -0.35c -0.39 -0.26 -0.59 -0.6 -0.59 -1.03c 0 -0.33 0.22 -0.56 0.54 -0.56c 0.32 0 0.54 0.23 0.54 0.55c 0 0.33 -0.19 0.51 -0.57 0.53c 0.26 0.35 0.67 0.53 1.23 0.53c 0.6 0 0.9 -0.35 0.9 -1.06c 0 -0.42 -0.08 -0.77 -0.23 -1.06c -0.27 -0.48 -0.64 -0.57 -1.26 -0.57c -0.12 -0.02 -0.18 -0.07 -0.18 -0.16c 0 -0.15 0.07 -0.15 0.27 -0.15h 0.43c 0.75 0 1.13 -0.53 1.13 -1.6c 0 -0.85 -0.31 -1.59 -1.07 -1.59c -0.65 0 -1.13 0.22 -1.42 0.66c 0.35 -0.01 0.61 0.25 0.61 0.59c 0 0.34 -0.25 0.59 -0.59 0.59c -0.39 0 -0.59 -0.2 -0.59 -0.61c 0 -0.49 0.22 -0.88 0.66 -1.19c 0.39 -0.27 0.85 -0.4 1.36 -0.4c 0.57 0 1.06 0.19 1.49 0.56c 0.43 0.37 0.64 0.83 0.64 1.39c 0 0.94 -0.74 1.59 -1.54 1.8Z "/></symbol><symbol id="g25AA077DE012500399ECCD32292552DD" overflow="visible"><path d="M 0 0m 3.53 6.77c -0.09 0 -0.17 -0.05 -0.23 -0.14l -3.02 -4.64v -0.36h 2.61v -0.82c 0 -0.18 -0.04 -0.3 -0.11 -0.35c -0.07 -0.05 -0.26 -0.07 -0.59 -0.07h -0.25v -0.39c 0.29 0.02 0.75 0.03 1.37 0.03c 0.62 0 1.08 -0.01 1.37 -0.03v 0.39h -0.25c -0.33 0 -0.52 0.02 -0.59 0.07c -0.07 0.05 -0.11 0.17 -0.11 0.35v 0.82h 0.98v 0.39h -0.98v 4.58c 0 0.1 -0.07 0.17 -0.2 0.17Z m -0.58 -1.24v -3.51h -2.28Z "/></symbol></defs></svg>