<svg xmlns="http://www.w3.org/2000/svg" xmlns:xlink="http://www.w3.org/1999/xlink" width="3469.792" height="3135.587" viewBox="0 0 2602.344 2351.69"><path fill="none" stroke="#000" stroke-dasharray="0.88 0.88" stroke-width=".55" d="m1048.391 1340.11-509.185 509.186"/><path fill="none" d="M431.395 1952.5h5.583v3.63h-5.583z"/><g transform="matrix(1 0 0 -1 431.395 1956.119)"><use xlink:href="#a"/><use xlink:href="#b" x="3.025"/></g><path fill="none" stroke="#000" stroke-dasharray="0.88 0.88" stroke-width=".55" d="M1048.391 1340.11V92.866"/><path fill="none" d="M1548.477 1952.5h2.557v3.63h-2.557z"/><use xlink:href="#b" transform="matrix(1 0 0 -1 1548.477 1956.119)"/><path fill="none" stroke="#000" stroke-dasharray="0.88 0.88" stroke-width=".55" d="M1048.391 1340.11h1115.57"/><path fill="none" d="M2391.255 1338.295h5.583v3.63h-5.583z"/><g transform="matrix(1 0 0 -1 2391.255 1341.914)"><use xlink:href="#a"/><use xlink:href="#b" x="3.025"/></g><path fill="none" stroke="#000" stroke-dasharray="0.88 0.88" stroke-width=".55" d="M1048.391 1340.11V92.866"/><path fill="none" d="M1883.582 1847.48h2.558v3.63h-2.558z"/><use xlink:href="#b" transform="matrix(1 0 0 -1 1883.582 1851.1)"/><path fill="none" stroke="#000" stroke-dasharray="0.88 0.88" stroke-width=".55" d="m1048.391 1340.11-509.185 509.186"/><path fill="none" d="M306.329 1847.48h5.582v3.63h-5.582z"/><g transform="matrix(1 0 0 -1 306.329 1851.1)"><use xlink:href="#a"/><use xlink:href="#c" x="3.025"/></g><path fill="none" stroke="#000" stroke-dasharray="0.88 0.88" stroke-width=".55" d="M1048.391 1340.11h1115.57m-1115.57-779.527-509.185 509.185"/><path fill="none" d="M307.841 1067.953h2.558v3.63h-2.558z"/><use xlink:href="#d" transform="matrix(1 0 0 -1 307.841 1071.572)"/><path fill="none" stroke="#000" stroke-dasharray="0.88 0.88" stroke-width=".55" d="M1048.391 560.583h1115.57"/><path fill="none" d="M307.841 600.236h2.558v3.63h-2.558z"/><use xlink:href="#c" transform="matrix(1 0 0 -1 307.841 603.855)"/><path fill="none" stroke="#000" stroke-dasharray="0.88 0.88" stroke-width=".55" d="M2163.96 1340.11V92.866m-1115.569 0h1115.57"/><path fill="none" d="M2163.96 70.866h44v44h-44z"/><path fill="none" stroke="#000" stroke-dasharray="0.88 0.88" stroke-width=".55" d="M1048.391 92.866 539.206 602.051"/><path fill="#00008b80" stroke="#000" stroke-width=".22" d="m1048.391 716.488-15.912-59.605 34.862 75.517 15.912 59.605m-50.774-135.122-15.912-54.732 34.862 75.517 15.912 54.732m-50.774-130.25-15.912-49.86 34.862 75.517 15.912 49.86m-50.774-125.377-15.912-44.988 34.862 75.516 15.912 44.989"/><path fill="#00008b80" stroke="#000" stroke-width=".22" d="m984.743 507.302-15.912-40.117 34.861 75.517 15.913 40.116"/><path fill="#00008b80" stroke="#000" stroke-width=".22" d="m968.831 467.185-15.912-35.244 34.861 75.516 15.912 35.245"/><path fill="#00008b80" stroke="#000" stroke-width=".22" d="m952.919 431.941-15.912-30.373 34.861 75.517 15.912 30.372"/><path fill="#00008b80" stroke="#000" stroke-width=".22" d="m937.007 401.568-15.912-25.5 34.861 75.517 15.912 25.5m-50.773-101.017-15.912-20.628 34.861 75.516 15.912 20.629"/><path fill="#00008b80" stroke="#000" stroke-width=".22" d="m905.183 355.44-15.912-15.757 34.861 75.517 15.912 15.756m-50.773-91.273L873.359 328.8l34.861 75.517 15.912 10.884"/><path fill="#00008b80" stroke="#000" stroke-width=".22" d="m873.359 328.799-15.912-6.012 34.861 75.517 15.912 6.012"/><path fill="#00008b80" stroke="#000" stroke-width=".22" d="m857.447 322.787-15.912-1.14 34.861 75.517 15.912 1.14"/><path fill="#00008b80" stroke="#000" stroke-width=".22" d="m841.535 321.647-15.912 3.732 34.861 75.517 15.912-3.732"/><path fill="#00008b80" stroke="#000" stroke-width=".22" d="m825.623 325.379-15.912 8.604 34.861 75.516 15.912-8.603"/><path fill="#00008b80" stroke="#000" stroke-width=".22" d="m809.711 333.983-15.912 13.476 34.861 75.517 15.912-13.477"/><path fill="#00008b80" stroke="#000" stroke-width=".22" d="m793.799 347.459-15.913 18.348 34.862 75.517 15.912-18.348m-50.774-57.169-15.912 23.22 34.862 75.517 15.912-23.22"/><path fill="#00008b80" stroke="#000" stroke-width=".22" d="m761.974 389.027-15.912 28.092 34.862 75.517 15.912-28.092m-50.774-47.424-15.912 32.963 34.862 75.517 15.912-32.964"/><path fill="#00008b80" stroke="#000" stroke-width=".22" d="m730.15 450.083-15.912 37.837 34.862 75.516 15.912-37.836"/><path fill="#00008b80" stroke="#000" stroke-width=".22" d="m714.238 487.92-15.912 42.708 34.862 75.517 15.912-42.709m-50.774-32.808-15.912 47.58 34.862 75.517 15.912-47.58"/><path fill="#00008b80" stroke="#000" stroke-width=".22" d="m682.414 578.208-15.912 52.453 34.862 75.516 15.912-52.452"/><path fill="#00008b80" stroke="#000" stroke-width=".22" d="m666.502 630.66-15.912 57.325 34.862 75.517 15.912-57.325"/><path fill="#00008b80" stroke="#000" stroke-width=".22" d="m650.59 687.985-15.912 62.197 34.862 75.516 15.912-62.196m-50.774-13.32-15.912 67.068 34.862 75.517 15.912-67.069m-50.774-8.448-15.912 71.94 34.862 75.517 15.912-71.94"/><path fill="#00008b80" stroke="#000" stroke-width=".22" d="m602.854 889.19-15.912 76.813 34.862 75.517 15.912-76.813m-50.774 1.296-15.912 81.685 34.861 75.517 15.913-81.685"/><path fill="#00008b80" stroke="#000" stroke-width=".22" d="m571.03 1047.688-15.912 86.557 34.861 75.516 15.912-86.556"/><path fill="#00008b80" stroke="#000" stroke-width=".22" d="m555.118 1134.245-15.912 91.428 34.861 75.517 15.912-91.429m493.274-417.756L1067.34 732.4l34.861 70.645 15.912 59.605m-50.772-130.25-15.912-54.732 34.861 70.644 15.912 54.733m-50.773-125.378-15.912-49.86 34.861 70.645 15.912 49.86"/><path fill="#00008b80" stroke="#000" stroke-width=".22" d="m1035.517 627.807-15.912-44.989 34.861 70.645 15.912 44.989"/><path fill="#00008b80" stroke="#000" stroke-width=".22" d="m1019.605 582.818-15.913-40.116 34.862 70.645 15.912 40.116"/><path fill="#00008b80" stroke="#000" stroke-width=".22" d="m1003.692 542.702-15.912-35.245 34.862 70.645 15.912 35.245"/><path fill="#00008b80" stroke="#000" stroke-width=".22" d="m987.78 507.457-15.912-30.372 34.862 70.645 15.912 30.372"/><path fill="#00008b80" stroke="#000" stroke-width=".22" d="m971.868 477.085-15.912-25.5 34.862 70.644 15.912 25.5m-50.774-96.144-15.912-20.629 34.862 70.645 15.912 20.628"/><path fill="#00008b80" stroke="#000" stroke-width=".22" d="M940.044 430.956 924.132 415.2l34.862 70.645 15.912 15.756"/><path fill="#00008b80" stroke="#000" stroke-width=".22" d="m924.132 415.2-15.912-10.884 34.862 70.645 15.912 10.884"/><path fill="#00008b80" stroke="#000" stroke-width=".22" d="m908.22 404.316-15.912-6.012 34.862 70.644 15.912 6.013"/><path fill="#00008b80" stroke="#000" stroke-width=".22" d="m892.308 398.304-15.912-1.14 34.862 70.644 15.912 1.14"/><path fill="#00008b80" stroke="#000" stroke-width=".22" d="m876.396 397.164-15.912 3.732 34.862 70.644 15.912-3.732"/><path fill="#00008b80" stroke="#000" stroke-width=".22" d="m860.484 400.896-15.912 8.603 34.862 70.645 15.912-8.604m-50.774-62.04-15.912 13.476 34.862 70.644 15.912-13.476"/><path fill="#00008b80" stroke="#000" stroke-width=".22" d="m828.66 422.976-15.912 18.348 34.862 70.644 15.912-18.348"/><path fill="#00008b80" stroke="#000" stroke-width=".22" d="m812.748 441.324-15.912 23.22 34.861 70.644 15.913-23.22"/><path fill="#00008b80" stroke="#000" stroke-width=".22" d="m796.836 464.544-15.912 28.092 34.861 70.645 15.912-28.093m-50.773-42.552L765.012 525.6l34.861 70.645 15.912-32.964"/><path fill="#00008b80" stroke="#000" stroke-width=".22" d="M765.012 525.6 749.1 563.436l34.861 70.645 15.912-37.836"/><path fill="#00008b80" stroke="#000" stroke-width=".22" d="m749.1 563.436-15.912 42.709 34.861 70.644 15.912-42.708m-50.773-27.936-15.912 47.58 34.861 70.645 15.912-47.58"/><path fill="#00008b80" stroke="#000" stroke-width=".22" d="m717.276 653.725-15.912 52.452 34.861 70.645 15.912-52.452m-50.773-18.193-15.912 57.325 34.861 70.644 15.912-57.324"/><path fill="#00008b80" stroke="#000" stroke-width=".22" d="m685.452 763.502-15.912 62.196 34.861 70.645 15.912-62.197"/><path fill="#00008b80" stroke="#000" stroke-width=".22" d="m669.54 825.698-15.912 67.069 34.861 70.644 15.912-67.068m-50.773-3.576-15.912 71.94 34.861 70.645 15.912-71.94"/><path fill="#00008b80" stroke="#000" stroke-width=".22" d="m637.716 964.707-15.912 76.813 34.861 70.645 15.912-76.813"/><path fill="#00008b80" stroke="#000" stroke-width=".22" d="m621.804 1041.52-15.913 81.685 34.862 70.644 15.912-81.684"/><path fill="#00008b80" stroke="#000" stroke-width=".22" d="m605.891 1123.205-15.912 86.556 34.862 70.645 15.912-86.557"/><path fill="#00008b80" stroke="#000" stroke-width=".22" d="m589.979 1209.761-15.912 91.43 34.862 70.644 15.912-91.429m493.273-417.756-15.912-59.605 34.862 65.773 15.912 59.604"/><path fill="#00008b80" stroke="#000" stroke-width=".22" d="m1102.202 803.045-15.912-54.733 34.862 65.773 15.912 54.733m-50.774-120.506-15.912-49.86 34.862 65.772 15.912 49.86m-50.774-115.632-15.912-44.989 34.862 65.773 15.912 44.988m-50.774-110.761-15.912-40.116 34.862 65.772 15.912 40.117"/><path fill="#00008b80" stroke="#000" stroke-width=".22" d="m1038.554 613.347-15.912-35.245 34.861 65.773 15.913 35.244"/><path fill="#00008b80" stroke="#000" stroke-width=".22" d="m1022.642 578.102-15.912-30.372 34.861 65.772 15.912 30.373"/><path fill="#00008b80" stroke="#000" stroke-width=".22" d="m1006.73 547.73-15.912-25.5 34.861 65.772 15.912 25.5"/><path fill="#00008b80" stroke="#000" stroke-width=".22" d="m990.818 522.229-15.912-20.628 34.861 65.773 15.912 20.628"/><path fill="#00008b80" stroke="#000" stroke-width=".22" d="m974.906 501.601-15.912-15.756 34.861 65.772 15.912 15.757"/><path fill="#00008b80" stroke="#000" stroke-width=".22" d="m958.994 485.845-15.912-10.884 34.861 65.772 15.912 10.884"/><path fill="#00008b80" stroke="#000" stroke-width=".22" d="m943.082 474.961-15.912-6.013 34.861 65.773 15.912 6.012"/><path fill="#00008b80" stroke="#000" stroke-width=".22" d="m927.17 468.948-15.912-1.14 34.861 65.773 15.912 1.14"/><path fill="#00008b80" stroke="#000" stroke-width=".22" d="m911.258 467.808-15.912 3.732 34.861 65.773 15.912-3.732"/><path fill="#00008b80" stroke="#000" stroke-width=".22" d="m895.346 471.54-15.912 8.604 34.861 65.773 15.912-8.604"/><path fill="#00008b80" stroke="#000" stroke-width=".22" d="m879.434 480.144-15.912 13.476 34.861 65.773 15.912-13.476"/><path fill="#00008b80" stroke="#000" stroke-width=".22" d="m863.522 493.62-15.912 18.348 34.861 65.773 15.912-18.348"/><path fill="#00008b80" stroke="#000" stroke-width=".22" d="m847.61 511.968-15.913 23.22 34.862 65.773 15.912-23.22"/><path fill="#00008b80" stroke="#000" stroke-width=".22" d="m831.697 535.188-15.912 28.093 34.862 65.772 15.912-28.092"/><path fill="#00008b80" stroke="#000" stroke-width=".22" d="m815.785 563.28-15.912 32.965 34.862 65.772 15.912-32.964"/><path fill="#00008b80" stroke="#000" stroke-width=".22" d="m799.873 596.245-15.912 37.836 34.862 65.773 15.912-37.837m-50.774-27.936-15.912 42.708 34.862 65.773 15.912-42.708"/><path fill="#00008b80" stroke="#000" stroke-width=".22" d="m768.049 676.79-15.912 47.58L787 790.142l15.912-47.58m-50.775-18.192-15.912 52.452 34.862 65.773 15.912-52.453"/><path fill="#00008b80" stroke="#000" stroke-width=".22" d="m736.225 776.822-15.912 57.324 34.862 65.773 15.912-57.324"/><path fill="#00008b80" stroke="#000" stroke-width=".22" d="m720.313 834.146-15.912 62.197 34.862 65.773 15.912-62.197"/><path fill="#00008b80" stroke="#000" stroke-width=".22" d="m704.401 896.343-15.912 67.068 34.862 65.773 15.912-67.068"/><path fill="#00008b80" stroke="#000" stroke-width=".22" d="m688.489 963.411-15.912 71.941 34.862 65.773 15.912-71.94m-50.774 6.167-15.912 76.813 34.862 65.772 15.912-76.812m-50.774 11.04-15.912 81.684 34.862 65.773 15.912-81.685m-50.774 15.913-15.912 86.556 34.862 65.773 15.912-86.557"/><path fill="#00008b80" stroke="#000" stroke-width=".22" d="m624.841 1280.406-15.912 91.429 34.861 65.773 15.913-91.43m493.273-417.756-15.912-59.604 34.861 60.9 15.912 59.605"/><path fill="#00008b80" stroke="#000" stroke-width=".22" d="m1137.064 868.818-15.912-54.733 34.861 60.9 15.912 54.733m-50.773-115.634-15.912-49.86 34.861 60.9 15.912 49.861"/><path fill="#00008b80" stroke="#000" stroke-width=".22" d="m1105.24 764.224-15.912-44.988 34.861 60.9 15.912 44.989m-50.773-105.889-15.912-40.117 34.861 60.9 15.912 40.117"/><path fill="#00008b80" stroke="#000" stroke-width=".22" d="m1073.416 679.119-15.913-35.244 34.862 60.9 15.912 35.245m-50.774-96.145-15.912-30.373 34.862 60.901 15.912 30.372"/><path fill="#00008b80" stroke="#000" stroke-width=".22" d="m1041.591 613.502-15.912-25.5 34.862 60.9 15.912 25.501m-50.774-86.401-15.912-20.628 34.862 60.9 15.912 20.629m-50.774-81.529-15.912-15.757 34.862 60.901 15.912 15.756m-50.774-76.657-15.912-10.884 34.862 60.9 15.912 10.885m-50.774-71.785-15.912-6.012 34.862 60.9 15.912 6.013m-50.774-66.913-15.912-1.14 34.862 60.9 15.912 1.14"/><path fill="#00008b80" stroke="#000" stroke-width=".22" d="m946.119 533.58-15.912 3.733 34.862 60.9 15.912-3.731"/><path fill="#00008b80" stroke="#000" stroke-width=".22" d="m930.207 537.313-15.912 8.604 34.862 60.9 15.912-8.604"/><path fill="#00008b80" stroke="#000" stroke-width=".22" d="m914.295 545.917-15.912 13.476 34.862 60.9 15.912-13.476"/><path fill="#00008b80" stroke="#000" stroke-width=".22" d="m898.383 559.393-15.912 18.348 34.862 60.9 15.912-18.348"/><path fill="#00008b80" stroke="#000" stroke-width=".22" d="m882.471 577.74-15.912 23.221 34.862 60.9 15.912-23.22m-50.774-37.68-15.912 28.092 34.862 60.9 15.912-28.091m-50.774-32.809-15.912 32.964 34.861 60.901 15.913-32.964"/><path fill="#00008b80" stroke="#000" stroke-width=".22" d="m834.735 662.017-15.912 37.837 34.861 60.9 15.912-37.836"/><path fill="#00008b80" stroke="#000" stroke-width=".22" d="m818.823 699.854-15.912 42.708 34.861 60.9 15.912-42.708"/><path fill="#00008b80" stroke="#000" stroke-width=".22" d="m802.911 742.562-15.912 47.58 34.861 60.9 15.912-47.58m-50.773-13.32-15.912 52.453 34.861 60.9 15.912-52.452"/><path fill="#00008b80" stroke="#000" stroke-width=".22" d="m771.087 842.595-15.912 57.324 34.861 60.9 15.912-57.324m-50.773-3.575-15.912 62.196 34.861 60.9 15.912-62.196m-50.773 1.296-15.912 67.068 34.861 60.9 15.912-67.068m-50.773 6.168-15.912 71.94 34.861 60.901 15.912-71.94"/><path fill="#00008b80" stroke="#000" stroke-width=".22" d="m707.439 1101.125-15.912 76.812 34.861 60.9 15.912-76.812m-50.773 15.912-15.912 81.685 34.861 60.9 15.912-81.684m-50.773 20.784-15.912 86.557 34.861 60.9 15.912-86.556"/><path fill="#00008b80" stroke="#000" stroke-width=".22" d="m659.703 1346.179-15.913 91.429 34.862 60.9 15.912-91.429m493.273-417.756-15.912-59.605 34.862 56.029 15.912 59.604m-50.774-115.633-15.912-54.733 34.862 56.029 15.912 54.733m-50.774-110.762-15.912-49.86 34.862 56.028 15.912 49.861m-50.774-105.889-15.912-44.989 34.862 56.029 15.912 44.988"/><path fill="#00008b80" stroke="#000" stroke-width=".22" d="m1124.189 780.136-15.912-40.116 34.862 56.028 15.912 40.117"/><path fill="#00008b80" stroke="#000" stroke-width=".22" d="m1108.277 740.02-15.912-35.245 34.862 56.029 15.912 35.244"/><path fill="#00008b80" stroke="#000" stroke-width=".22" d="m1092.365 704.775-15.912-30.372 34.862 56.029 15.912 30.372"/><path fill="#00008b80" stroke="#000" stroke-width=".22" d="m1076.453 674.403-15.912-25.5 34.861 56.028 15.913 25.5"/><path fill="#00008b80" stroke="#000" stroke-width=".22" d="m1060.541 648.903-15.912-20.629 34.861 56.029 15.912 20.628"/><path fill="#00008b80" stroke="#000" stroke-width=".22" d="m1044.629 628.274-15.912-15.756 34.861 56.029 15.912 15.756m-50.773-71.785-15.912-10.884 34.861 56.028 15.912 10.885m-50.773-66.913-15.912-6.012 34.861 56.028 15.912 6.012m-50.773-62.04-15.912-1.14 34.861 56.028 15.912 1.14m-50.773-57.168-15.912 3.731 34.861 56.029 15.912-3.732m-50.773-52.297-15.912 8.604 34.861 56.029 15.912-8.604"/><path fill="#00008b80" stroke="#000" stroke-width=".22" d="m949.157 606.817-15.912 13.476 34.861 56.029 15.912-13.476"/><path fill="#00008b80" stroke="#000" stroke-width=".22" d="m933.245 620.293-15.912 18.348 34.861 56.029 15.912-18.348"/><path fill="#00008b80" stroke="#000" stroke-width=".22" d="m917.333 638.641-15.912 23.22 34.861 56.03 15.912-23.221"/><path fill="#00008b80" stroke="#000" stroke-width=".22" d="m901.421 661.862-15.912 28.092 34.861 56.028 15.912-28.092"/><path fill="#00008b80" stroke="#000" stroke-width=".22" d="m885.509 689.954-15.913 32.964 34.862 56.029 15.912-32.965m-50.774-23.064-15.912 37.836 34.862 56.029 15.912-37.836m-50.774-18.193-15.912 42.709 34.862 56.028 15.912-42.708"/><path fill="#00008b80" stroke="#000" stroke-width=".22" d="m837.772 803.463-15.912 47.58 34.862 56.028 15.912-47.58"/><path fill="#00008b80" stroke="#000" stroke-width=".22" d="m821.86 851.043-15.912 52.452 34.862 56.029 15.912-52.453m-50.774-3.576-15.912 57.325 34.862 56.028 15.912-57.324"/><path fill="#00008b80" stroke="#000" stroke-width=".22" d="m790.036 960.82-15.912 62.196 34.862 56.029 15.912-62.197"/><path fill="#00008b80" stroke="#000" stroke-width=".22" d="m774.124 1023.016-15.912 67.069 34.862 56.028 15.912-67.068m-50.774 11.04-15.912 71.94 34.862 56.029 15.912-71.94m-50.774 15.911-15.912 76.813 34.862 56.028 15.912-76.812"/><path fill="#00008b80" stroke="#000" stroke-width=".22" d="m726.388 1238.838-15.912 81.685 34.862 56.028 15.912-81.685"/><path fill="#00008b80" stroke="#000" stroke-width=".22" d="m710.476 1320.523-15.912 86.556 34.862 56.029 15.912-86.557"/><path fill="#00008b80" stroke="#000" stroke-width=".22" d="m694.564 1407.08-15.912 91.428 34.862 56.029 15.912-91.43m493.273-417.756-15.912-59.604 34.861 51.156 15.912 59.605"/><path fill="#00008b80" stroke="#000" stroke-width=".22" d="m1206.787 985.747-15.912-54.733 34.861 51.157 15.912 54.732m-50.773-105.889-15.912-49.86 34.861 51.156 15.912 49.86m-50.773-101.017-15.912-44.988 34.861 51.156 15.912 44.989"/><path fill="#00008b80" stroke="#000" stroke-width=".22" d="m1159.051 836.165-15.912-40.117L1178 847.205l15.912 40.116m-50.773-91.273-15.912-35.244 34.861 51.156L1178 847.205"/><path fill="#00008b80" stroke="#000" stroke-width=".22" d="m1127.227 760.804-15.912-30.372 34.861 51.156 15.912 30.372"/><path fill="#00008b80" stroke="#000" stroke-width=".22" d="m1111.315 730.431-15.913-25.5 34.862 51.157 15.912 25.5"/><path fill="#00008b80" stroke="#000" stroke-width=".22" d="m1095.402 704.931-15.912-20.628 34.862 51.156 15.912 20.629"/><path fill="#00008b80" stroke="#000" stroke-width=".22" d="m1079.49 684.303-15.912-15.756 34.862 51.156 15.912 15.756m-50.774-66.912-15.912-10.885 34.862 51.157 15.912 10.884m-50.774-62.041-15.912-6.012 34.862 51.157 15.912 6.012m-50.774-57.169-15.912-1.14 34.862 51.157 15.912 1.14m-50.774-52.297-15.912 3.732 34.862 51.156 15.912-3.731m-50.774-47.425-15.912 8.604 34.862 51.156 15.912-8.604m-50.774-42.552-15.912 13.476 34.862 51.156 15.912-13.476m-50.774-37.68-15.912 18.348 34.862 51.157 15.912-18.349m-50.774-32.808-15.912 23.22 34.862 51.157 15.912-23.22m-50.774-27.937-15.912 28.092 34.862 51.157 15.912-28.092M920.37 745.982l-15.912 32.965 34.862 51.156 15.912-32.964"/><path fill="#00008b80" stroke="#000" stroke-width=".22" d="m904.458 778.947-15.912 37.836 34.861 51.156 15.913-37.836m-50.774-13.32-15.912 42.708 34.861 51.157 15.912-42.709"/><path fill="#00008b80" stroke="#000" stroke-width=".22" d="m872.634 859.491-15.912 47.58 34.861 51.157 15.912-47.58"/><path fill="#00008b80" stroke="#000" stroke-width=".22" d="m856.722 907.071-15.912 52.453 34.861 51.156 15.912-52.452"/><path fill="#00008b80" stroke="#000" stroke-width=".22" d="m840.81 959.524-15.912 57.324 34.861 51.157 15.912-57.325m-50.773 6.168-15.912 62.197 34.861 51.156 15.912-62.196m-50.773 11.04-15.912 67.068 34.861 51.157 15.912-67.069m-50.773 15.912-15.912 71.94 34.861 51.157 15.912-71.94"/><path fill="#00008b80" stroke="#000" stroke-width=".22" d="m777.162 1218.054-15.912 76.812 34.861 51.157 15.912-76.813"/><path fill="#00008b80" stroke="#000" stroke-width=".22" d="m761.25 1294.866-15.912 81.685 34.861 51.157 15.912-81.685"/><path fill="#00008b80" stroke="#000" stroke-width=".22" d="m745.338 1376.551-15.912 86.557 34.861 51.156 15.912-86.556"/><path fill="#00008b80" stroke="#000" stroke-width=".22" d="m729.426 1463.108-15.912 91.429 34.861 51.156 15.912-91.429m493.273-417.756-15.912-59.605 34.862 46.285 15.912 59.604m-50.774-105.889-15.912-54.732 34.862 46.284 15.912 54.733m-50.774-101.018-15.912-49.86 34.862 46.284 15.912 49.861"/><path fill="#00008b80" stroke="#000" stroke-width=".22" d="m1209.824 932.31-15.912-44.989 34.862 46.285 15.912 44.988"/><path fill="#00008b80" stroke="#000" stroke-width=".22" d="M1193.912 887.321 1178 847.205l34.862 46.284 15.912 40.117"/><path fill="#00008b80" stroke="#000" stroke-width=".22" d="m1178 847.205-15.912-35.245 34.862 46.285 15.912 35.244m-50.774-81.529-15.912-30.372 34.862 46.284 15.912 30.373"/><path fill="#00008b80" stroke="#000" stroke-width=".22" d="m1146.176 781.588-15.912-25.5 34.862 46.284 15.912 25.5"/><path fill="#00008b80" stroke="#000" stroke-width=".22" d="m1130.264 756.088-15.912-20.629 34.862 46.285 15.912 20.628"/><path fill="#00008b80" stroke="#000" stroke-width=".22" d="m1114.352 735.459-15.912-15.756 34.861 46.285 15.913 15.756"/><path fill="#00008b80" stroke="#000" stroke-width=".22" d="m1098.44 719.703-15.912-10.884 34.861 46.284 15.912 10.885"/><path fill="#00008b80" stroke="#000" stroke-width=".22" d="m1082.528 708.819-15.912-6.012 34.861 46.284 15.912 6.012"/><path fill="#00008b80" stroke="#000" stroke-width=".22" d="m1066.616 702.807-15.912-1.14 34.861 46.284 15.912 1.14"/><path fill="#00008b80" stroke="#000" stroke-width=".22" d="m1050.704 701.667-15.912 3.731 34.861 46.285 15.912-3.732"/><path fill="#00008b80" stroke="#000" stroke-width=".22" d="m1034.792 705.398-15.912 8.604 34.861 46.285 15.912-8.604"/><path fill="#00008b80" stroke="#000" stroke-width=".22" d="m1018.88 714.002-15.912 13.476 34.861 46.285 15.912-13.476m-50.773-32.809-15.912 18.349 34.861 46.284 15.912-18.348"/><path fill="#00008b80" stroke="#000" stroke-width=".22" d="m987.056 745.827-15.912 23.22 34.861 46.284 15.912-23.22"/><path fill="#00008b80" stroke="#000" stroke-width=".22" d="m971.144 769.047-15.912 28.092 34.861 46.284 15.912-28.092"/><path fill="#00008b80" stroke="#000" stroke-width=".22" d="m955.232 797.139-15.912 32.964 34.861 46.284 15.912-32.964"/><path fill="#00008b80" stroke="#000" stroke-width=".22" d="m939.32 830.103-15.913 37.836 34.862 46.285 15.912-37.837m-50.774-8.447-15.912 42.708 34.862 46.284 15.912-42.708m-50.774-3.576-15.912 47.58 34.862 46.284 15.912-47.58"/><path fill="#00008b80" stroke="#000" stroke-width=".22" d="m891.583 958.228-15.912 52.452 34.862 46.285 15.912-52.453m-50.774 6.168-15.912 57.325 34.862 46.284 15.912-57.324m-50.774 11.04-15.912 62.196 34.862 46.285 15.912-62.197m-50.774 15.912-15.912 67.069 34.862 46.284 15.912-67.068m-50.774 20.784-15.912 71.94 34.862 46.285 15.912-71.94m-50.774 25.655-15.912 76.813 34.862 46.284 15.912-76.812"/><path fill="#00008b80" stroke="#000" stroke-width=".22" d="m796.111 1346.023-15.912 81.685 34.862 46.284 15.912-81.685m-50.774 35.401-15.912 86.556 34.862 46.285 15.912-86.557"/><path fill="#00008b80" stroke="#000" stroke-width=".22" d="m764.287 1514.264-15.912 91.43 34.862 46.284 15.912-91.43m493.273-417.756-15.912-59.604 34.861 41.412 15.912 59.605m-50.773-101.017-15.912-54.733 34.861 41.412 15.912 54.733"/><path fill="#00008b80" stroke="#000" stroke-width=".22" d="m1260.598 1028.455-15.912-49.86 34.861 41.412 15.912 49.86m-50.773-91.273-15.912-44.988 34.861 41.412 15.912 44.989m-50.773-86.401-15.912-40.117 34.861 41.413 15.912 40.116"/><path fill="#00008b80" stroke="#000" stroke-width=".22" d="m1212.862 893.489-15.912-35.244 34.861 41.412 15.912 35.245m-50.773-76.657-15.912-30.373 34.861 41.413 15.912 30.372"/><path fill="#00008b80" stroke="#000" stroke-width=".22" d="m1181.038 827.872-15.912-25.5 34.861 41.413 15.912 25.5"/><path fill="#00008b80" stroke="#000" stroke-width=".22" d="m1165.126 802.372-15.912-20.628 34.861 41.412 15.912 20.629"/><path fill="#00008b80" stroke="#000" stroke-width=".22" d="m1149.214 781.744-15.913-15.756 34.862 41.412 15.912 15.756"/><path fill="#00008b80" stroke="#000" stroke-width=".22" d="m1133.301 765.988-15.912-10.885 34.862 41.413 15.912 10.884"/><path fill="#00008b80" stroke="#000" stroke-width=".22" d="m1117.389 755.103-15.912-6.012 34.862 41.413 15.912 6.012"/><path fill="#00008b80" stroke="#000" stroke-width=".22" d="m1101.477 749.091-15.912-1.14 34.862 41.412 15.912 1.14"/><path fill="#00008b80" stroke="#000" stroke-width=".22" d="m1085.565 747.951-15.912 3.732 34.862 41.412 15.912-3.732"/><path fill="#00008b80" stroke="#000" stroke-width=".22" d="m1069.653 751.683-15.912 8.604 34.862 41.412 15.912-8.604"/><path fill="#00008b80" stroke="#000" stroke-width=".22" d="m1053.741 760.287-15.912 13.476 34.862 41.412 15.912-13.476"/><path fill="#00008b80" stroke="#000" stroke-width=".22" d="m1037.829 773.763-15.912 18.348 34.862 41.412 15.912-18.348"/><path fill="#00008b80" stroke="#000" stroke-width=".22" d="m1021.917 792.111-15.912 23.22 34.862 41.412 15.912-23.22"/><path fill="#00008b80" stroke="#000" stroke-width=".22" d="m1006.005 815.331-15.912 28.092 34.862 41.413 15.912-28.093"/><path fill="#00008b80" stroke="#000" stroke-width=".22" d="m990.093 843.423-15.912 32.964 34.862 41.413 15.912-32.964"/><path fill="#00008b80" stroke="#000" stroke-width=".22" d="m974.181 876.387-15.912 37.837 34.862 41.412 15.912-37.836m-50.774-3.576-15.912 42.708 34.862 41.412 15.912-42.708m-50.774 1.296-15.912 47.58 34.861 41.413 15.913-47.58"/><path fill="#00008b80" stroke="#000" stroke-width=".22" d="m926.445 1004.512-15.912 52.453 34.861 41.412 15.912-52.452"/><path fill="#00008b80" stroke="#000" stroke-width=".22" d="m910.533 1056.965-15.912 57.324 34.861 41.413 15.912-57.325m-50.773 15.913-15.912 62.196 34.861 41.412 15.912-62.196m-50.773 20.784-15.912 67.068 34.861 41.413 15.912-67.069"/><path fill="#00008b80" stroke="#000" stroke-width=".22" d="m862.797 1243.554-15.912 71.94 34.861 41.413 15.912-71.94"/><path fill="#00008b80" stroke="#000" stroke-width=".22" d="m846.885 1315.495-15.912 76.812 34.861 41.413 15.912-76.813m-50.773 35.4-15.912 81.685 34.861 41.412 15.912-81.684m-50.773 40.272-15.912 86.557 34.861 41.412 15.912-86.557m-50.773 45.145-15.912 91.429 34.861 41.412 15.912-91.429m493.273-417.756-15.912-59.605 34.862 36.54 15.912 59.605m-50.774-96.145-15.912-54.733 34.862 36.54 15.912 54.733"/><path fill="#00008b80" stroke="#000" stroke-width=".22" d="m1295.459 1069.867-15.912-49.86 34.862 36.54 15.912 49.86"/><path fill="#00008b80" stroke="#000" stroke-width=".22" d="m1279.547 1020.007-15.912-44.989 34.862 36.54 15.912 44.99"/><path fill="#00008b80" stroke="#000" stroke-width=".22" d="m1263.635 975.018-15.912-40.116 34.862 36.54 15.912 40.117"/><path fill="#00008b80" stroke="#000" stroke-width=".22" d="m1247.723 934.902-15.912-35.245 34.862 36.54 15.912 35.245"/><path fill="#00008b80" stroke="#000" stroke-width=".22" d="m1231.811 899.657-15.912-30.372 34.862 36.54 15.912 30.373m-50.774-66.913-15.912-25.5 34.862 36.54 15.912 25.5m-50.774-62.04-15.912-20.629 34.862 36.54 15.912 20.629"/><path fill="#00008b80" stroke="#000" stroke-width=".22" d="m1184.075 823.156-15.912-15.756 34.862 36.54 15.912 15.757"/><path fill="#00008b80" stroke="#000" stroke-width=".22" d="m1168.163 807.4-15.912-10.884 34.861 36.54 15.913 10.884"/><path fill="#00008b80" stroke="#000" stroke-width=".22" d="m1152.251 796.516-15.912-6.012 34.861 36.54 15.912 6.012"/><path fill="#00008b80" stroke="#000" stroke-width=".22" d="m1136.339 790.503-15.912-1.14 34.861 36.54 15.912 1.14m-50.773-37.68-15.912 3.732 34.861 36.54 15.912-3.731m-50.773-32.809-15.912 8.604 34.861 36.54 15.912-8.603m-50.773-27.936-15.912 13.475 34.861 36.54 15.912-13.475m-50.773-23.065-15.912 18.348 34.861 36.54 15.912-18.347m-50.773-18.193-15.912 23.22 34.861 36.54 15.912-23.22m-50.773-13.32-15.912 28.093 34.861 36.54 15.912-28.092m-50.773-8.448-15.912 32.964 34.861 36.54 15.912-32.964m-50.773-3.576-15.912 37.836 34.861 36.54 15.912-37.836m-50.773 1.296-15.912 42.708 34.861 36.54 15.912-42.708m-50.773 6.168-15.913 47.58 34.862 36.541 15.912-47.58m-50.774 11.04-15.912 52.452 34.862 36.54 15.912-52.452m-50.774 15.912-15.912 57.325 34.862 36.54 15.912-57.325m-50.774 20.785-15.912 62.196 34.862 36.54 15.912-62.196m-50.774 25.656-15.912 67.069 34.862 36.54 15.912-67.069m-50.774 30.529-15.912 71.94 34.862 36.54 15.912-71.94m-50.774 35.4-15.912 76.813 34.862 36.54 15.912-76.812m-50.774 40.272-15.912 81.684 34.862 36.54 15.912-81.684m-50.774 45.144-15.912 86.557 34.862 36.54 15.912-86.556m-50.774 50.016-15.912 91.429 34.862 36.54 15.912-91.428m493.273-417.757-15.912-59.605 34.861 31.669 15.912 59.604m-50.773-91.273-15.912-54.732 34.861 31.668 15.912 54.733"/><path fill="#00008b80" stroke="#000" stroke-width=".22" d="m1330.321 1106.407-15.912-49.86 34.861 31.668 15.912 49.861m-50.773-81.529-15.912-44.988 34.861 31.668 15.912 44.988"/><path fill="#00008b80" stroke="#000" stroke-width=".22" d="m1298.497 1011.559-15.912-40.117 34.861 31.668 15.912 40.117"/><path fill="#00008b80" stroke="#000" stroke-width=".22" d="m1282.585 971.442-15.912-35.244 34.861 31.668 15.912 35.244m-50.773-66.912-15.912-30.373 34.861 31.669 15.912 30.372m-50.773-62.041-15.912-25.5 34.861 31.668 15.912 25.5"/><path fill="#00008b80" stroke="#000" stroke-width=".22" d="m1234.849 880.325-15.912-20.628 34.861 31.668 15.912 20.628m-50.773-52.296-15.912-15.757 34.861 31.669 15.912 15.756"/><path fill="#00008b80" stroke="#000" stroke-width=".22" d="m1203.025 843.94-15.913-10.884 34.862 31.668 15.912 10.885"/><path fill="#00008b80" stroke="#000" stroke-width=".22" d="m1187.112 833.056-15.912-6.012 34.862 31.668 15.912 6.012"/><path fill="#00008b80" stroke="#000" stroke-width=".22" d="m1171.2 827.044-15.912-1.14 34.862 31.668 15.912 1.14"/><path fill="#00008b80" stroke="#000" stroke-width=".22" d="m1155.288 825.904-15.912 3.732 34.862 31.668 15.912-3.732"/><path fill="#00008b80" stroke="#000" stroke-width=".22" d="m1139.376 829.636-15.912 8.604 34.862 31.668 15.912-8.604"/><path fill="#00008b80" stroke="#000" stroke-width=".22" d="m1123.464 838.24-15.912 13.476 34.862 31.668 15.912-13.476"/><path fill="#00008b80" stroke="#000" stroke-width=".22" d="m1107.552 851.716-15.912 18.348 34.862 31.668 15.912-18.348"/><path fill="#00008b80" stroke="#000" stroke-width=".22" d="m1091.64 870.064-15.912 23.22 34.862 31.668 15.912-23.22"/><path fill="#00008b80" stroke="#000" stroke-width=".22" d="m1075.728 893.284-15.912 28.092 34.862 31.668 15.912-28.092"/><path fill="#00008b80" stroke="#000" stroke-width=".22" d="m1059.816 921.376-15.912 32.964 34.862 31.669 15.912-32.965m-50.774 1.296-15.912 37.836 34.862 31.669 15.912-37.836m-50.774 6.167-15.912 42.709 34.862 31.668 15.912-42.708m-50.774 11.04-15.912 47.58 34.862 31.668 15.912-47.58m-50.774 15.912-15.912 52.452 34.862 31.669 15.912-52.453"/><path fill="#00008b80" stroke="#000" stroke-width=".22" d="m980.256 1134.917-15.912 57.325 34.861 31.668 15.913-57.324"/><path fill="#00008b80" stroke="#000" stroke-width=".22" d="m964.344 1192.242-15.912 62.196 34.861 31.669 15.912-62.197m-50.773 30.528-15.912 67.069 34.861 31.668 15.912-67.068m-50.773 35.4-15.912 71.94 34.861 31.669 15.912-71.94m-50.773 40.272-15.912 76.812 34.861 31.668 15.912-76.812m-50.773 45.144-15.912 81.685 34.861 31.668 15.912-81.685m-50.773 50.017-15.912 86.557 34.861 31.668 15.912-86.557"/><path fill="#00008b80" stroke="#000" stroke-width=".22" d="m868.872 1638.502-15.912 91.428 34.861 31.669 15.912-91.43m493.273-417.756-15.912-59.604 34.862 26.796 15.912 59.605m-50.774-86.401-15.912-54.733 34.862 26.796 15.912 54.733"/><path fill="#00008b80" stroke="#000" stroke-width=".22" d="m1365.182 1138.076-15.912-49.86 34.862 26.796 15.912 49.86m-50.774-76.657-15.912-44.988 34.862 26.796 15.912 44.989"/><path fill="#00008b80" stroke="#000" stroke-width=".22" d="m1333.358 1043.227-15.912-40.117 34.862 26.797 15.912 40.116m-50.774-66.913-15.912-35.244 34.862 26.796 15.912 35.245m-50.774-62.041-15.912-30.372 34.862 26.796 15.912 30.372m-50.774-57.169-15.912-25.5 34.862 26.796 15.912 25.5m-50.774-52.296-15.912-20.628 34.862 26.796 15.912 20.628"/><path fill="#00008b80" stroke="#000" stroke-width=".22" d="m1253.798 891.365-15.912-15.756 34.862 26.796 15.912 15.756"/><path fill="#00008b80" stroke="#000" stroke-width=".22" d="m1237.886 875.609-15.912-10.885 34.862 26.797 15.912 10.884m-50.774-37.681-15.912-6.012 34.862 26.796 15.912 6.013m-50.774-32.809-15.912-1.14 34.861 26.796 15.913 1.14"/><path fill="#00008b80" stroke="#000" stroke-width=".22" d="m1190.15 857.572-15.912 3.732 34.861 26.796 15.912-3.732"/><path fill="#00008b80" stroke="#000" stroke-width=".22" d="m1174.238 861.304-15.912 8.604 34.861 26.796 15.912-8.604"/><path fill="#00008b80" stroke="#000" stroke-width=".22" d="m1158.326 869.908-15.912 13.476 34.861 26.796 15.912-13.476"/><path fill="#00008b80" stroke="#000" stroke-width=".22" d="m1142.414 883.384-15.912 18.348 34.861 26.796 15.912-18.348"/><path fill="#00008b80" stroke="#000" stroke-width=".22" d="m1126.502 901.732-15.912 23.22 34.861 26.796 15.912-23.22"/><path fill="#00008b80" stroke="#000" stroke-width=".22" d="m1110.59 924.952-15.912 28.092 34.861 26.797 15.912-28.093m-50.773 1.296-15.912 32.965 34.861 26.796 15.912-32.964"/><path fill="#00008b80" stroke="#000" stroke-width=".22" d="m1078.766 986.009-15.912 37.836 34.861 26.796 15.912-37.836"/><path fill="#00008b80" stroke="#000" stroke-width=".22" d="m1062.854 1023.845-15.912 42.708 34.861 26.796 15.912-42.708m-50.773 15.912-15.912 47.58 34.861 26.797 15.912-47.58m-50.773 20.783-15.912 52.453 34.861 26.796 15.912-52.452m-50.773 25.656-15.913 57.324 34.862 26.797 15.912-57.325m-50.774 30.528-15.912 62.197 34.862 26.796 15.912-62.196m-50.774 35.4-15.912 67.068 34.862 26.797 15.912-67.069m-50.774 40.272-15.912 71.94 34.862 26.797 15.912-71.94"/><path fill="#00008b80" stroke="#000" stroke-width=".22" d="m951.469 1425.116-15.912 76.812 34.862 26.797 15.912-76.813m-50.774 50.016-15.912 81.685 34.862 26.796 15.912-81.684m-50.774 54.888-15.912 86.557 34.862 26.796 15.912-86.557m-50.774 59.761-15.912 91.429 34.862 26.796 15.912-91.429m493.273-417.756-15.912-59.605 34.861 21.924 15.913 59.605m-50.774-81.529-15.912-54.733 34.861 21.925 15.912 54.732m-50.773-76.657-15.912-49.86 34.861 21.924 15.912 49.86m-50.773-71.784-15.912-44.989 34.861 21.924 15.912 44.989"/><path fill="#00008b80" stroke="#000" stroke-width=".22" d="m1368.22 1070.023-15.912-40.116 34.861 21.924 15.912 40.116"/><path fill="#00008b80" stroke="#000" stroke-width=".22" d="m1352.308 1029.907-15.912-35.245 34.861 21.924 15.912 35.245"/><path fill="#00008b80" stroke="#000" stroke-width=".22" d="m1336.396 994.662-15.912-30.372 34.861 21.924 15.912 30.372m-50.773-52.296-15.912-25.5 34.861 21.924 15.912 25.5m-50.773-47.425-15.912-20.628 34.861 21.924 15.912 20.629"/><path fill="#00008b80" stroke="#000" stroke-width=".22" d="m1288.66 918.161-15.912-15.756 34.861 21.924 15.912 15.756"/><path fill="#00008b80" stroke="#000" stroke-width=".22" d="m1272.748 902.405-15.912-10.884 34.861 21.924 15.912 10.884"/><path fill="#00008b80" stroke="#000" stroke-width=".22" d="m1256.836 891.521-15.912-6.013 34.861 21.925 15.912 6.012m-50.773-27.937-15.913-1.14 34.862 21.925 15.912 1.14"/><path fill="#00008b80" stroke="#000" stroke-width=".22" d="M1225.011 884.368 1209.1 888.1l34.862 21.924 15.912-3.731m-50.775-18.193-15.912 8.604 34.862 21.924 15.912-8.604"/><path fill="#00008b80" stroke="#000" stroke-width=".22" d="m1193.187 896.704-15.912 13.476 34.862 21.924 15.912-13.476"/><path fill="#00008b80" stroke="#000" stroke-width=".22" d="m1177.275 910.18-15.912 18.348 34.862 21.925 15.912-18.349m-50.774-3.576-15.912 23.22 34.862 21.925 15.912-23.22m-50.774 1.295-15.912 28.093 34.862 21.924 15.912-28.092"/><path fill="#00008b80" stroke="#000" stroke-width=".22" d="m1129.539 979.84-15.912 32.965 34.862 21.924 15.912-32.964"/><path fill="#00008b80" stroke="#000" stroke-width=".22" d="m1113.627 1012.805-15.912 37.836 34.862 21.924 15.912-37.836m-50.774 15.912-15.912 42.708 34.862 21.925 15.912-42.709m-50.774 20.785-15.912 47.58 34.862 21.924 15.912-47.58m-50.774 25.656-15.912 52.452 34.862 21.924 15.912-52.452m-50.774 30.528-15.912 57.325 34.862 21.924 15.912-57.325m-50.774 35.401-15.912 62.196 34.861 21.924 15.913-62.196m-50.774 40.272-15.912 67.069 34.861 21.924 15.912-67.069m-50.773 45.145-15.912 71.94 34.861 21.924 15.912-71.94m-50.773 50.016-15.912 76.813 34.861 21.924 15.912-76.813m-50.773 54.889-15.912 81.684 34.861 21.925 15.912-81.685m-50.773 59.761-15.912 86.556 34.861 21.924 15.912-86.556m-50.773 64.632-15.912 91.429 34.861 21.924 15.912-91.429m493.274-417.756-15.913-59.605 34.862 17.052 15.912 59.605"/><path fill="#00008b80" stroke="#000" stroke-width=".22" d="m1450.817 1241.529-15.912-54.732 34.862 17.052 15.912 54.732m-50.774-71.785-15.912-49.86 34.862 17.052 15.912 49.86"/><path fill="#00008b80" stroke="#000" stroke-width=".22" d="m1418.993 1136.936-15.912-44.989 34.862 17.053 15.912 44.988m-50.774-62.041-15.912-40.116 34.862 17.052 15.912 40.117m-50.774-57.169-15.912-35.245 34.862 17.053 15.912 35.244"/><path fill="#00008b80" stroke="#000" stroke-width=".22" d="m1371.257 1016.586-15.912-30.372 34.862 17.052 15.912 30.373"/><path fill="#00008b80" stroke="#000" stroke-width=".22" d="m1355.345 986.214-15.912-25.5 34.862 17.052 15.912 25.5"/><path fill="#00008b80" stroke="#000" stroke-width=".22" d="m1339.433 960.714-15.912-20.629 34.862 17.052 15.912 20.629"/><path fill="#00008b80" stroke="#000" stroke-width=".22" d="m1323.521 940.085-15.912-15.756 34.862 17.052 15.912 15.756m-50.774-32.808-15.912-10.884 34.862 17.052 15.912 10.884"/><path fill="#00008b80" stroke="#000" stroke-width=".22" d="m1291.697 913.445-15.912-6.012 34.862 17.052 15.912 6.012"/><path fill="#00008b80" stroke="#000" stroke-width=".22" d="m1275.785 907.433-15.912-1.14 34.862 17.052 15.912 1.14"/><path fill="#00008b80" stroke="#000" stroke-width=".22" d="m1259.873 906.293-15.912 3.731 34.861 17.053 15.913-3.732"/><path fill="#00008b80" stroke="#000" stroke-width=".22" d="m1243.961 910.024-15.912 8.604 34.861 17.053 15.912-8.604"/><path fill="#00008b80" stroke="#000" stroke-width=".22" d="m1228.049 918.628-15.912 13.476 34.861 17.053 15.912-13.476m-50.773-3.577-15.912 18.349 34.861 17.052 15.912-18.348"/><path fill="#00008b80" stroke="#000" stroke-width=".22" d="m1196.225 950.453-15.912 23.22 34.861 17.052 15.912-23.22"/><path fill="#00008b80" stroke="#000" stroke-width=".22" d="m1180.313 973.673-15.912 28.092 34.861 17.052 15.912-28.092"/><path fill="#00008b80" stroke="#000" stroke-width=".22" d="m1164.401 1001.765-15.912 32.964 34.861 17.052 15.912-32.964"/><path fill="#00008b80" stroke="#000" stroke-width=".22" d="m1148.489 1034.729-15.912 37.836 34.861 17.052 15.912-37.836"/><path fill="#00008b80" stroke="#000" stroke-width=".22" d="m1132.577 1072.565-15.912 42.709 34.861 17.052 15.912-42.709"/><path fill="#00008b80" stroke="#000" stroke-width=".22" d="m1116.665 1115.274-15.912 47.58 34.861 17.052 15.912-47.58m-50.773 30.528-15.912 52.452 34.861 17.052 15.912-52.452m-50.773 35.4-15.912 57.325 34.861 17.052 15.912-57.325"/><path fill="#00008b80" stroke="#000" stroke-width=".22" d="m1068.929 1272.63-15.913 62.197 34.862 17.052 15.912-62.196"/><path fill="#00008b80" stroke="#000" stroke-width=".22" d="m1053.016 1334.827-15.912 67.069 34.862 17.052 15.912-67.069"/><path fill="#00008b80" stroke="#000" stroke-width=".22" d="m1037.104 1401.896-15.912 71.94 34.862 17.052 15.912-71.94"/><path fill="#00008b80" stroke="#000" stroke-width=".22" d="m1021.192 1473.836-15.912 76.813 34.862 17.052 15.912-76.813"/><path fill="#00008b80" stroke="#000" stroke-width=".22" d="m1005.28 1550.649-15.912 81.685 34.862 17.052 15.912-81.685m-50.774 64.633-15.912 86.556 34.862 17.053 15.912-86.557m-50.774 69.504-15.912 91.43 34.862 17.051 15.912-91.428m493.273-417.757-15.912-59.605 34.862 12.18 15.912 59.605m-50.774-71.785-15.912-54.732 34.862 12.18 15.912 54.732m-50.774-66.913-15.912-49.86 34.861 12.18 15.913 49.86"/><path fill="#00008b80" stroke="#000" stroke-width=".22" d="M1453.855 1153.988 1437.943 1109l34.861 12.18 15.912 44.988"/><path fill="#00008b80" stroke="#000" stroke-width=".22" d="m1437.943 1109-15.912-40.117 34.861 12.18 15.912 40.117m-50.773-52.297-15.912-35.244 34.861 12.18 15.912 35.244m-50.773-47.424-15.912-30.373 34.861 12.18 15.912 30.373m-50.773-42.553-15.912-25.5 34.861 12.18 15.912 25.5"/><path fill="#00008b80" stroke="#000" stroke-width=".22" d="m1374.295 977.766-15.912-20.629 34.861 12.18 15.912 20.629"/><path fill="#00008b80" stroke="#000" stroke-width=".22" d="m1358.383 957.137-15.912-15.756 34.861 12.18 15.912 15.757"/><path fill="#00008b80" stroke="#000" stroke-width=".22" d="m1342.471 941.381-15.912-10.884 34.861 12.18 15.912 10.884"/><path fill="#00008b80" stroke="#000" stroke-width=".22" d="m1326.559 930.497-15.912-6.012 34.861 12.18 15.912 6.012"/><path fill="#00008b80" stroke="#000" stroke-width=".22" d="m1310.647 924.485-15.912-1.14 34.861 12.18 15.912 1.14"/><path fill="#00008b80" stroke="#000" stroke-width=".22" d="m1294.735 923.345-15.913 3.732 34.862 12.18 15.912-3.732"/><path fill="#00008b80" stroke="#000" stroke-width=".22" d="m1278.822 927.077-15.912 8.604 34.862 12.18 15.912-8.604"/><path fill="#00008b80" stroke="#000" stroke-width=".22" d="m1262.91 935.68-15.912 13.477 34.862 12.18 15.912-13.476m-50.774 1.296-15.912 18.348 34.862 12.18 15.912-18.348m-50.774 6.168-15.912 23.22 34.862 12.18 15.912-23.22m-50.774 11.04-15.912 28.092 34.862 12.18 15.912-28.092m-50.774 15.912-15.912 32.964 34.862 12.18 15.912-32.964m-50.774 20.784-15.912 37.836 34.862 12.18 15.912-37.836m-50.774 25.656-15.912 42.709 34.862 12.18 15.912-42.708m-50.774 30.528-15.912 47.58 34.862 12.18 15.912-47.58m-50.774 35.4-15.912 52.452 34.862 12.18 15.912-52.452m-50.774 40.272-15.912 57.325 34.862 12.18 15.912-57.324m-50.774 45.144-15.912 62.196 34.862 12.18 15.912-62.196m-50.774 50.017-15.912 67.068 34.862 12.18 15.912-67.069m-50.774 54.889-15.912 71.94 34.861 12.18 15.913-71.94m-50.774 59.76-15.912 76.813 34.861 12.18 15.912-76.812m-50.773 64.632-15.912 81.685 34.861 12.18 15.912-81.685"/><path fill="#00008b80" stroke="#000" stroke-width=".22" d="m1024.23 1649.386-15.912 86.557 34.861 12.18 15.912-86.557"/><path fill="#00008b80" stroke="#000" stroke-width=".22" d="m1008.318 1735.943-15.912 91.428 34.861 12.18 15.912-91.428m493.274-417.757-15.912-59.605 34.861 7.309 15.912 59.604"/><path fill="#00008b80" stroke="#000" stroke-width=".22" d="m1520.541 1270.761-15.912-54.732 34.861 7.308 15.912 54.733m-50.773-62.042-15.913-49.86 34.862 7.308 15.912 49.86m-50.774-57.168-15.912-44.988 34.862 7.308 15.912 44.988"/><path fill="#00008b80" stroke="#000" stroke-width=".22" d="m1472.804 1121.18-15.912-40.117 34.862 7.308 15.912 40.117m-50.774-47.425-15.912-35.244 34.862 7.308 15.912 35.244m-50.774-42.552-15.912-30.373 34.862 7.308 15.912 30.373m-50.774-37.681-15.912-25.5 34.862 7.308 15.912 25.5"/><path fill="#00008b80" stroke="#000" stroke-width=".22" d="m1409.156 989.946-15.912-20.628 34.862 7.308 15.912 20.628m-50.774-27.936-15.912-15.757 34.862 7.308 15.912 15.757"/><path fill="#00008b80" stroke="#000" stroke-width=".22" d="m1377.332 953.561-15.912-10.884 34.862 7.308 15.912 10.884m-50.774-18.192-15.912-6.012 34.862 7.308 15.912 6.012"/><path fill="#00008b80" stroke="#000" stroke-width=".22" d="m1345.508 936.665-15.912-1.14 34.862 7.308 15.912 1.14"/><path fill="#00008b80" stroke="#000" stroke-width=".22" d="m1329.596 935.525-15.912 3.732 34.862 7.308 15.912-3.732"/><path fill="#00008b80" stroke="#000" stroke-width=".22" d="m1313.684 939.257-15.912 8.604 34.862 7.308 15.912-8.604"/><path fill="#00008b80" stroke="#000" stroke-width=".22" d="m1297.772 947.86-15.912 13.477 34.861 7.308 15.913-13.476"/><path fill="#00008b80" stroke="#000" stroke-width=".22" d="m1281.86 961.337-15.912 18.348 34.861 7.308 15.912-18.348"/><path fill="#00008b80" stroke="#000" stroke-width=".22" d="m1265.948 979.685-15.912 23.22 34.861 7.308 15.912-23.22m-50.773 15.912-15.912 28.092 34.861 7.308 15.912-28.092m-50.773 20.784-15.912 32.964 34.861 7.308 15.912-32.964m-50.773 25.656-15.912 37.837 34.861 7.308 15.912-37.837m-50.773 30.529-15.912 42.708 34.861 7.308 15.912-42.708m-50.773 35.4-15.912 47.58 34.861 7.308 15.912-47.58m-50.773 40.272-15.912 52.453 34.861 7.308 15.912-52.453m-50.773 45.145-15.912 57.324 34.861 7.308 15.912-57.324m-50.773 50.016-15.912 62.196 34.861 7.309 15.912-62.197m-50.773 54.889-15.912 67.068 34.861 7.308 15.912-67.068m-50.773 59.76-15.913 71.94 34.862 7.309 15.912-71.94m-50.774 64.632-15.912 76.812 34.862 7.308 15.912-76.812m-50.774 69.504-15.912 81.685 34.862 7.308 15.912-81.685m-50.774 74.377-15.912 86.557 34.862 7.308 15.912-86.557m-50.774 79.249-15.912 91.428 34.862 7.308 15.912-91.428m493.273-417.757-15.912-59.604 34.862 2.436 15.912 59.604"/><path fill="#00008b80" stroke="#000" stroke-width=".22" d="m1555.402 1278.07-15.912-54.733 34.862 2.436 15.912 54.733m-50.774-57.17-15.912-49.86 34.862 2.436 15.912 49.86"/><path fill="#00008b80" stroke="#000" stroke-width=".22" d="m1523.578 1173.476-15.912-44.988 34.861 2.436 15.913 44.988"/><path fill="#00008b80" stroke="#000" stroke-width=".22" d="m1507.666 1128.488-15.912-40.117 34.861 2.436 15.912 40.117m-50.773-42.553-15.912-35.244 34.861 2.436 15.912 35.244m-50.773-37.68-15.912-30.373 34.861 2.436 15.912 30.373"/><path fill="#00008b80" stroke="#000" stroke-width=".22" d="m1459.93 1022.754-15.912-25.5 34.861 2.436 15.912 25.5"/><path fill="#00008b80" stroke="#000" stroke-width=".22" d="m1444.018 997.254-15.912-20.628 34.861 2.436 15.912 20.628"/><path fill="#00008b80" stroke="#000" stroke-width=".22" d="m1428.106 976.626-15.912-15.757 34.861 2.436 15.912 15.757"/><path fill="#00008b80" stroke="#000" stroke-width=".22" d="m1412.194 960.869-15.912-10.884 34.861 2.436 15.912 10.884m-50.773-13.32-15.912-6.012 34.861 2.436 15.912 6.012m-50.773-8.448-15.912-1.14 34.861 2.436 15.912 1.14"/><path fill="#00008b80" stroke="#000" stroke-width=".22" d="m1364.458 942.833-15.912 3.732 34.861 2.436 15.912-3.732m-50.773 1.296-15.912 8.604 34.861 2.436 15.912-8.604"/><path fill="#00008b80" stroke="#000" stroke-width=".22" d="m1332.634 955.169-15.913 13.476 34.862 2.436 15.912-13.476"/><path fill="#00008b80" stroke="#000" stroke-width=".22" d="m1316.721 968.645-15.912 18.348 34.862 2.436 15.912-18.348m-50.774 15.912-15.912 23.22 34.862 2.436 15.912-23.22"/><path fill="#00008b80" stroke="#000" stroke-width=".22" d="m1284.897 1010.213-15.912 28.092 34.862 2.436 15.912-28.092"/><path fill="#00008b80" stroke="#000" stroke-width=".22" d="m1268.985 1038.305-15.912 32.964 34.862 2.436 15.912-32.964m-50.774 30.529-15.912 37.836 34.862 2.436 15.912-37.837"/><path fill="#00008b80" stroke="#000" stroke-width=".22" d="m1237.161 1109.106-15.912 42.708 34.862 2.436 15.912-42.708"/><path fill="#00008b80" stroke="#000" stroke-width=".22" d="m1221.249 1151.814-15.912 47.58 34.862 2.436 15.912-47.58"/><path fill="#00008b80" stroke="#000" stroke-width=".22" d="m1205.337 1199.394-15.912 52.453 34.862 2.436 15.912-52.453"/><path fill="#00008b80" stroke="#000" stroke-width=".22" d="m1189.425 1251.847-15.912 57.324 34.862 2.436 15.912-57.324"/><path fill="#00008b80" stroke="#000" stroke-width=".22" d="m1173.513 1309.171-15.912 62.197 34.862 2.436 15.912-62.197"/><path fill="#00008b80" stroke="#000" stroke-width=".22" d="m1157.601 1371.368-15.912 67.068 34.862 2.436 15.912-67.068m-50.774 64.632-15.912 71.94 34.862 2.437 15.912-71.94m-50.774 69.504-15.912 76.812 34.862 2.436 15.912-76.812m-50.774 74.377-15.912 81.684 34.861 2.436 15.913-81.685m-50.774 79.249-15.912 86.557 34.861 2.436 15.912-86.557"/><path fill="#00008b80" stroke="#000" stroke-width=".22" d="m1078.041 1755.43-15.912 91.43 34.861 2.436 15.912-91.43m493.274-417.756-15.912-59.604 34.861-2.436 15.912 59.604"/><path fill="#00008b80" stroke="#000" stroke-width=".22" d="m1590.264 1280.506-15.912-54.733 34.861-2.436 15.912 54.733m-50.773-52.297-15.912-49.86 34.861-2.437 15.912 49.86m-50.773-47.424-15.913-44.988 34.862-2.436 15.912 44.988m-50.774-42.552-15.912-40.117 34.862-2.436 15.912 40.117m-50.774-37.681-15.912-35.244 34.862-2.436 15.912 35.244m-50.774-32.808-15.912-30.373 34.862-2.436 15.912 30.373m-50.774-27.937-15.912-25.5 34.862-2.436 15.912 25.5m-50.774-23.064-15.912-20.628 34.862-2.436 15.912 20.628m-50.774-18.192-15.912-15.757 34.862-2.436 15.912 15.757m-50.774-13.321-15.912-10.884 34.862-2.436 15.912 10.884m-50.774-8.448-15.912-6.012 34.862-2.436 15.912 6.012m-50.774-3.576-15.912-1.14 34.862-2.436 15.912 1.14"/><path fill="#00008b80" stroke="#000" stroke-width=".22" d="M1399.319 945.269 1383.407 949l34.862-2.436 15.912-3.732m-50.774 6.169-15.912 8.604 34.862-2.436 15.912-8.604"/><path fill="#00008b80" stroke="#000" stroke-width=".22" d="m1367.495 957.605-15.912 13.476 34.862-2.436 15.912-13.476m-50.774 15.912-15.912 18.348 34.862-2.436 15.912-18.348m-50.774 20.784-15.912 23.22 34.861-2.436 15.913-23.22"/><path fill="#00008b80" stroke="#000" stroke-width=".22" d="m1319.759 1012.649-15.912 28.092 34.861-2.436 15.912-28.092"/><path fill="#00008b80" stroke="#000" stroke-width=".22" d="m1303.847 1040.741-15.912 32.964 34.861-2.436 15.912-32.964"/><path fill="#00008b80" stroke="#000" stroke-width=".22" d="m1287.935 1073.705-15.912 37.837 34.861-2.436 15.912-37.837"/><path fill="#00008b80" stroke="#000" stroke-width=".22" d="m1272.023 1111.542-15.912 42.708 34.861-2.436 15.912-42.708m-50.773 45.144-15.912 47.58 34.861-2.436 15.912-47.58"/><path fill="#00008b80" stroke="#000" stroke-width=".22" d="m1240.199 1201.83-15.912 52.453 34.861-2.436 15.912-52.453"/><path fill="#00008b80" stroke="#000" stroke-width=".22" d="m1224.287 1254.283-15.912 57.324 34.861-2.436 15.912-57.324m-50.773 59.76-15.912 62.197 34.861-2.436 15.912-62.197"/><path fill="#00008b80" stroke="#000" stroke-width=".22" d="m1192.463 1373.804-15.912 67.068 34.861-2.436 15.912-67.068m-50.773 69.504-15.912 71.94 34.861-2.435 15.912-71.94m-50.773 74.376-15.912 76.812 34.861-2.436 15.912-76.812m-50.773 79.248-15.913 81.685 34.862-2.436 15.912-81.685"/><path fill="#00008b80" stroke="#000" stroke-width=".22" d="m1128.814 1671.31-15.912 86.557 34.862-2.436 15.912-86.557"/><path fill="#00008b80" stroke="#000" stroke-width=".22" d="m1112.902 1757.867-15.912 91.429 34.862-2.437 15.912-91.428m493.273-417.757-15.912-59.604 34.862-7.309 15.912 59.605m-50.774-52.297-15.912-54.732 34.862-7.308 15.912 54.732m-50.774-47.424-15.912-49.86 34.862-7.309 15.912 49.86m-50.774-42.552-15.912-44.988 34.862-7.308 15.912 44.988m-50.774-37.68-15.912-40.117 34.862-7.308 15.912 40.117m-50.774-32.809-15.912-35.244 34.861-7.308 15.913 35.244m-50.774-27.937-15.912-30.372 34.861-7.308 15.912 30.373m-50.773-23.065-15.912-25.5 34.861-7.308 15.912 25.5m-50.773-18.192-15.912-20.628 34.861-7.308 15.912 20.628m-50.773-13.32-15.912-15.757 34.861-7.308 15.912 15.757m-50.773-8.449-15.912-10.884 34.861-7.308 15.912 10.884m-50.773-3.576-15.912-6.012 34.861-7.308 15.912 6.012m-50.773 1.296-15.912-1.14 34.861-7.308 15.912 1.14"/><path fill="#00008b80" stroke="#000" stroke-width=".22" d="m1434.181 942.833-15.912 3.732 34.861-7.308 15.912-3.732m-50.773 11.04-15.912 8.604 34.861-7.308 15.912-8.604"/><path fill="#00008b80" stroke="#000" stroke-width=".22" d="m1402.357 955.169-15.912 13.476 34.861-7.308 15.912-13.476"/><path fill="#00008b80" stroke="#000" stroke-width=".22" d="m1386.445 968.645-15.912 18.348 34.861-7.308 15.912-18.348m-50.773 25.656-15.913 23.22 34.862-7.308 15.912-23.22m-50.774 30.528-15.912 28.092 34.862-7.308 15.912-28.092m-50.774 35.4-15.912 32.964 34.862-7.308 15.912-32.964"/><path fill="#00008b80" stroke="#000" stroke-width=".22" d="m1322.796 1071.269-15.912 37.837 34.862-7.308 15.912-37.837"/><path fill="#00008b80" stroke="#000" stroke-width=".22" d="m1306.884 1109.106-15.912 42.708 34.862-7.308 15.912-42.708"/><path fill="#00008b80" stroke="#000" stroke-width=".22" d="m1290.972 1151.814-15.912 47.58 34.862-7.308 15.912-47.58"/><path fill="#00008b80" stroke="#000" stroke-width=".22" d="m1275.06 1199.394-15.912 52.453 34.862-7.308 15.912-52.453m-50.774 59.761-15.912 57.324 34.862-7.308 15.912-57.324"/><path fill="#00008b80" stroke="#000" stroke-width=".22" d="m1243.236 1309.171-15.912 62.197 34.862-7.309 15.912-62.196"/><path fill="#00008b80" stroke="#000" stroke-width=".22" d="m1227.324 1371.368-15.912 67.068 34.862-7.308 15.912-67.069"/><path fill="#00008b80" stroke="#000" stroke-width=".22" d="m1211.412 1438.436-15.912 71.94 34.862-7.307 15.912-71.941m-50.774 79.249-15.912 76.812 34.862-7.308 15.912-76.812m-50.774 84.12-15.912 81.685 34.862-7.308 15.912-81.685m-50.774 88.993-15.912 86.557 34.861-7.308 15.913-86.557m-50.774 93.865-15.912 91.428 34.861-7.308 15.912-91.428m493.274-417.757-15.912-59.605 34.861-12.18 15.912 59.605m-50.773-47.425-15.912-54.732 34.861-12.18 15.912 54.732m-50.773-42.553-15.912-49.86 34.861-12.18 15.912 49.86m-50.773-37.68-15.912-44.988 34.861-12.18 15.912 44.988m-50.773-32.808-15.912-40.117 34.861-12.18 15.912 40.117m-50.773-27.937-15.913-35.244 34.862-12.18 15.912 35.244m-50.774-23.064-15.912-30.373 34.862-12.18 15.912 30.373m-50.774-18.193-15.912-25.5 34.862-12.18 15.912 25.5m-50.774-13.32-15.912-20.628 34.862-12.18 15.912 20.628m-50.774-8.448-15.912-15.757 34.862-12.18 15.912 15.756m-50.774-3.576-15.912-10.884 34.862-12.18 15.912 10.884m-50.774 1.296-15.912-6.012 34.862-12.18 15.912 6.012m-50.774 6.168-15.912-1.14 34.862-12.18 15.912 1.14m-50.774 11.04-15.912 3.732 34.862-12.18 15.912-3.732"/><path fill="#00008b80" stroke="#000" stroke-width=".22" d="m1453.13 939.257-15.912 8.604 34.862-12.18 15.912-8.604"/><path fill="#00008b80" stroke="#000" stroke-width=".22" d="m1437.218 947.86-15.912 13.477 34.862-12.18 15.912-13.476m-50.774 25.656-15.912 18.348 34.862-12.18 15.912-18.348"/><path fill="#00008b80" stroke="#000" stroke-width=".22" d="m1405.394 979.685-15.912 23.22 34.862-12.18 15.912-23.22m-50.774 35.4-15.912 28.092 34.861-12.18 15.913-28.092"/><path fill="#00008b80" stroke="#000" stroke-width=".22" d="m1373.57 1030.997-15.912 32.964 34.861-12.18 15.912-32.964m-50.773 45.144-15.912 37.837 34.861-12.18 15.912-37.837"/><path fill="#00008b80" stroke="#000" stroke-width=".22" d="m1341.746 1101.797-15.912 42.709 34.861-12.18 15.912-42.709"/><path fill="#00008b80" stroke="#000" stroke-width=".22" d="m1325.834 1144.506-15.912 47.58 34.861-12.18 15.912-47.58"/><path fill="#00008b80" stroke="#000" stroke-width=".22" d="m1309.922 1192.086-15.912 52.453 34.861-12.18 15.912-52.453"/><path fill="#00008b80" stroke="#000" stroke-width=".22" d="m1294.01 1244.538-15.912 57.325 34.861-12.18 15.912-57.325"/><path fill="#00008b80" stroke="#000" stroke-width=".22" d="m1278.098 1301.863-15.912 62.196 34.861-12.18 15.912-62.196m-50.773 74.377-15.912 67.068 34.861-12.18 15.912-67.069m-50.773 79.249-15.912 71.94 34.861-12.18 15.912-71.94"/><path fill="#00008b80" stroke="#000" stroke-width=".22" d="m1230.362 1503.068-15.912 76.813 34.861-12.18 15.912-76.813"/><path fill="#00008b80" stroke="#000" stroke-width=".22" d="m1214.45 1579.881-15.912 81.685 34.861-12.18 15.912-81.685"/><path fill="#00008b80" stroke="#000" stroke-width=".22" d="m1198.538 1661.566-15.913 86.557 34.862-12.18 15.912-86.557"/><path fill="#00008b80" stroke="#000" stroke-width=".22" d="m1182.625 1748.123-15.912 91.428 34.862-12.18 15.912-91.428m493.273-417.757-15.912-59.605 34.862-17.052 15.912 59.605"/><path fill="#00008b80" stroke="#000" stroke-width=".22" d="m1694.848 1258.581-15.912-54.732 34.862-17.052 15.912 54.732m-50.774-37.68-15.912-49.86 34.862-17.053 15.912 49.86m-50.774-32.808L1647.112 1109l34.862-17.053 15.912 44.989"/><path fill="#00008b80" stroke="#000" stroke-width=".22" d="m1647.112 1109-15.912-40.117 34.862-17.052 15.912 40.116"/><path fill="#00008b80" stroke="#000" stroke-width=".22" d="m1631.2 1068.883-15.912-35.244 34.862-17.053 15.912 35.245m-50.774-18.192-15.912-30.373 34.862-17.052 15.912 30.372m-50.774-13.32-15.912-25.5 34.861-17.052 15.913 25.5m-50.774-8.449-15.912-20.628 34.861-17.052 15.912 20.629m-50.773-3.577-15.912-15.756 34.861-17.052 15.912 15.756m-50.773 1.296-15.912-10.884 34.861-17.052 15.912 10.884m-50.773 6.168-15.912-6.012 34.861-17.052 15.912 6.012m-50.773 11.04-15.912-1.14 34.861-17.052 15.912 1.14m-50.773 15.912-15.912 3.732 34.861-17.053 15.912-3.731"/><path fill="#00008b80" stroke="#000" stroke-width=".22" d="m1487.992 927.077-15.912 8.604 34.861-17.053 15.912-8.604"/><path fill="#00008b80" stroke="#000" stroke-width=".22" d="m1472.08 935.681-15.912 13.476 34.861-17.053 15.912-13.476m-50.773 30.529-15.912 18.348 34.861-17.052 15.912-18.349"/><path fill="#00008b80" stroke="#000" stroke-width=".22" d="m1440.256 967.505-15.912 23.22 34.861-17.052 15.912-23.22"/><path fill="#00008b80" stroke="#000" stroke-width=".22" d="m1424.344 990.725-15.913 28.092 34.862-17.052 15.912-28.092m-50.774 45.144-15.912 32.964 34.862-17.052 15.912-32.964"/><path fill="#00008b80" stroke="#000" stroke-width=".22" d="m1392.519 1051.781-15.912 37.836 34.862-17.052 15.912-37.836"/><path fill="#00008b80" stroke="#000" stroke-width=".22" d="m1376.607 1089.617-15.912 42.709 34.862-17.052 15.912-42.709"/><path fill="#00008b80" stroke="#000" stroke-width=".22" d="m1360.695 1132.326-15.912 47.58 34.862-17.052 15.912-47.58m-50.774 64.632-15.912 52.452 34.862-17.052 15.912-52.452"/><path fill="#00008b80" stroke="#000" stroke-width=".22" d="m1328.871 1232.358-15.912 57.325 34.862-17.052 15.912-57.325m-50.774 74.377-15.912 62.196 34.862-17.052 15.912-62.196"/><path fill="#00008b80" stroke="#000" stroke-width=".22" d="m1297.047 1351.879-15.912 67.069 34.862-17.052 15.912-67.069m-50.774 84.121-15.912 71.94 34.862-17.052 15.912-71.94"/><path fill="#00008b80" stroke="#000" stroke-width=".22" d="m1265.223 1490.888-15.912 76.813 34.862-17.052 15.912-76.813"/><path fill="#00008b80" stroke="#000" stroke-width=".22" d="m1249.311 1567.701-15.912 81.685 34.862-17.052 15.912-81.685m-50.774 98.737-15.912 86.557 34.862-17.053 15.912-86.556m-50.774 103.609-15.912 91.428 34.862-17.052 15.912-91.429m493.273-417.756-15.912-59.605 34.861-21.924 15.912 59.605m-50.773-37.681-15.912-54.732 34.861-21.925 15.912 54.733m-50.773-32.808-15.912-49.861 34.861-21.924 15.912 49.86m-50.773-27.936-15.912-44.989 34.861-21.924 15.912 44.989m-50.773-23.065-15.912-40.116 34.861-21.924 15.912 40.116m-50.773-18.192-15.912-35.245 34.861-21.924 15.912 35.245m-50.773-13.321-15.912-30.372 34.861-21.924 15.912 30.372m-50.773-8.448-15.913-25.5 34.862-21.925 15.912 25.5m-50.774-3.575-15.912-20.629 34.862-21.924 15.912 20.628m-50.774 1.296-15.912-15.756 34.862-21.924 15.912 15.756"/><path fill="#00008b80" stroke="#000" stroke-width=".22" d="m1586.501 924.33-15.912-10.885 34.862-21.924 15.912 10.884"/><path fill="#00008b80" stroke="#000" stroke-width=".22" d="m1570.589 913.445-15.912-6.012 34.862-21.925 15.912 6.013m-50.774 15.912-15.912-1.14 34.862-21.925 15.912 1.14m-50.774 20.785-15.912 3.731 34.862-21.924 15.912-3.732m-50.774 25.656-15.912 8.604 34.862-21.924 15.912-8.604"/><path fill="#00008b80" stroke="#000" stroke-width=".22" d="m1506.941 918.628-15.912 13.476 34.862-21.924 15.912-13.476m-50.774 35.4-15.912 18.349 34.862-21.925 15.912-18.348"/><path fill="#00008b80" stroke="#000" stroke-width=".22" d="m1475.117 950.453-15.912 23.22 34.862-21.925 15.912-23.22"/><path fill="#00008b80" stroke="#000" stroke-width=".22" d="m1459.205 973.673-15.912 28.092 34.862-21.924 15.912-28.093m-50.774 50.017-15.912 32.964 34.862-21.924 15.912-32.964"/><path fill="#00008b80" stroke="#000" stroke-width=".22" d="m1427.381 1034.729-15.912 37.836 34.861-21.924 15.913-37.836"/><path fill="#00008b80" stroke="#000" stroke-width=".22" d="m1411.469 1072.565-15.912 42.709 34.861-21.925 15.912-42.708"/><path fill="#00008b80" stroke="#000" stroke-width=".22" d="m1395.557 1115.274-15.912 47.58 34.861-21.924 15.912-47.58m-50.773 69.504-15.912 52.452 34.861-21.924 15.912-52.452m-50.773 74.376-15.912 57.325 34.861-21.924 15.912-57.325m-50.773 79.249-15.912 62.196 34.861-21.924 15.912-62.196"/><path fill="#00008b80" stroke="#000" stroke-width=".22" d="m1331.909 1334.827-15.912 67.069 34.861-21.924 15.912-67.069"/><path fill="#00008b80" stroke="#000" stroke-width=".22" d="m1315.997 1401.896-15.912 71.94 34.861-21.924 15.912-71.94"/><path fill="#00008b80" stroke="#000" stroke-width=".22" d="m1300.085 1473.836-15.912 76.813 34.861-21.924 15.912-76.813"/><path fill="#00008b80" stroke="#000" stroke-width=".22" d="m1284.173 1550.649-15.912 81.685 34.861-21.925 15.912-81.684m-50.773 103.609-15.912 86.556 34.861-21.924 15.912-86.557m-50.773 108.481-15.912 91.43 34.861-21.925 15.912-91.429m493.273-417.757-15.912-59.604 34.862-26.796 15.912 59.604m-50.774-32.808-15.912-54.733 34.862-26.796 15.912 54.733m-50.774-27.937-15.912-49.86 34.862-26.797 15.912 49.861m-50.774-23.064-15.912-44.989 34.862-26.796 15.912 44.988m-50.774-18.192-15.912-40.116 34.862-26.797 15.912 40.117m-50.774-13.321-15.912-35.244 34.862-26.796 15.912 35.244"/><path fill="#00008b80" stroke="#000" stroke-width=".22" d="M1685.011 994.662 1669.1 964.29l34.862-26.796 15.912 30.372m-50.775-3.576-15.912-25.5 34.862-26.797 15.912 25.5"/><path fill="#00008b80" stroke="#000" stroke-width=".22" d="m1653.187 938.789-15.912-20.628 34.861-26.796 15.913 20.628"/><path fill="#00008b80" stroke="#000" stroke-width=".22" d="m1637.275 918.161-15.912-15.756 34.861-26.796 15.912 15.756m-50.773 11.039-15.912-10.883 34.861-26.797 15.912 10.885m-50.773 15.912-15.912-6.013 34.861-26.796 15.912 6.012m-50.773 20.784-15.912-1.14 34.861-26.796 15.912 1.14m-50.773 25.656-15.912 3.732 34.861-26.796 15.912-3.732m-50.773 30.528-15.912 8.604 34.861-26.796 15.912-8.604"/><path fill="#00008b80" stroke="#000" stroke-width=".22" d="m1541.803 896.704-15.912 13.476 34.861-26.796 15.912-13.476"/><path fill="#00008b80" stroke="#000" stroke-width=".22" d="m1525.891 910.18-15.912 18.348 34.861-26.796 15.912-18.348m-50.773 45.144-15.912 23.22 34.861-26.796 15.912-23.22"/><path fill="#00008b80" stroke="#000" stroke-width=".22" d="m1494.067 951.748-15.912 28.093 34.861-26.797 15.912-28.092"/><path fill="#00008b80" stroke="#000" stroke-width=".22" d="m1478.155 979.841-15.912 32.964 34.861-26.796 15.912-32.965"/><path fill="#00008b80" stroke="#000" stroke-width=".22" d="m1462.243 1012.805-15.913 37.836 34.862-26.796 15.912-37.836m-50.774 64.632-15.912 42.708 34.862-26.796 15.912-42.708m-50.774 69.504-15.912 47.58 34.862-26.796 15.912-47.58m-50.774 74.377-15.912 52.452 34.862-26.796 15.912-52.453m-50.774 79.249-15.912 57.325 34.862-26.797 15.912-57.324"/><path fill="#00008b80" stroke="#000" stroke-width=".22" d="m1382.682 1250.707-15.912 62.196 34.862-26.796 15.912-62.197"/><path fill="#00008b80" stroke="#000" stroke-width=".22" d="m1366.77 1312.903-15.912 67.069 34.862-26.797 15.912-67.068m-50.774 93.865-15.912 71.94 34.862-26.796 15.912-71.94m-50.774 98.736-15.912 76.813 34.862-26.797 15.912-76.812"/><path fill="#00008b80" stroke="#000" stroke-width=".22" d="m1319.034 1528.725-15.912 81.684 34.862-26.796 15.912-81.685m-50.774 108.481-15.912 86.557 34.862-26.796 15.912-86.557"/><path fill="#00008b80" stroke="#000" stroke-width=".22" d="m1287.21 1696.966-15.912 91.429 34.862-26.796 15.912-91.43m493.273-417.756-15.912-59.604 34.861-31.669 15.912 59.605"/><path fill="#00008b80" stroke="#000" stroke-width=".22" d="m1799.433 1192.808-15.912-54.732 34.861-31.668 15.912 54.732m-50.773-23.064-15.912-49.86 34.861-31.669 15.912 49.86m-50.773-18.192-15.912-44.988 34.861-31.668 15.912 44.988m-50.773-13.32-15.912-40.117 34.861-31.668 15.912 40.117m-50.773-8.449-15.912-35.244 34.861-31.668 15.912 35.244m-50.773-3.577-15.912-30.371 34.861-31.669 15.912 30.373m-50.773 1.296-15.912-25.5 34.861-31.67 15.912 25.501"/><path fill="#00008b80" stroke="#000" stroke-width=".22" d="m1688.049 911.993-15.913-20.628 34.862-31.668 15.912 20.628"/><path fill="#00008b80" stroke="#000" stroke-width=".22" d="m1672.136 891.365-15.912-15.756 34.862-31.669 15.912 15.757"/><path fill="#00008b80" stroke="#000" stroke-width=".22" d="m1656.224 875.609-15.912-10.885 34.862-31.668 15.912 10.884"/><path fill="#00008b80" stroke="#000" stroke-width=".22" d="m1640.312 864.724-15.912-6.012 34.862-31.668 15.912 6.012"/><path fill="#00008b80" stroke="#000" stroke-width=".22" d="m1624.4 858.712-15.912-1.14 34.862-31.668 15.912 1.14"/><path fill="#00008b80" stroke="#000" stroke-width=".22" d="m1608.488 857.572-15.912 3.732 34.862-31.668 15.912-3.732"/><path fill="#00008b80" stroke="#000" stroke-width=".22" d="m1592.576 861.304-15.912 8.604 34.862-31.668 15.912-8.604"/><path fill="#00008b80" stroke="#000" stroke-width=".22" d="m1576.664 869.908-15.912 13.476 34.862-31.668 15.912-13.476"/><path fill="#00008b80" stroke="#000" stroke-width=".22" d="m1560.752 883.384-15.912 18.348 34.862-31.668 15.912-18.348m-50.774 50.016-15.912 23.22 34.862-31.668 15.912-23.22"/><path fill="#00008b80" stroke="#000" stroke-width=".22" d="m1528.928 924.952-15.912 28.092 34.862-31.668 15.912-28.092"/><path fill="#00008b80" stroke="#000" stroke-width=".22" d="m1513.016 953.044-15.912 32.965 34.862-31.669 15.912-32.964"/><path fill="#00008b80" stroke="#000" stroke-width=".22" d="m1497.104 986.009-15.912 37.836 34.862-31.669 15.912-37.836m-50.774 69.505-15.912 42.708 34.862-31.668 15.912-42.709"/><path fill="#00008b80" stroke="#000" stroke-width=".22" d="m1465.28 1066.553-15.912 47.58 34.861-31.668 15.913-47.58"/><path fill="#00008b80" stroke="#000" stroke-width=".22" d="m1449.368 1114.133-15.912 52.453 34.861-31.669 15.912-52.452m-50.773 84.121-15.912 57.324 34.861-31.668 15.912-57.325"/><path fill="#00008b80" stroke="#000" stroke-width=".22" d="m1417.544 1223.91-15.912 62.197 34.861-31.669 15.912-62.196m-50.773 93.865-15.912 67.068 34.861-31.668 15.912-67.069"/><path fill="#00008b80" stroke="#000" stroke-width=".22" d="m1385.72 1353.175-15.912 71.94 34.861-31.667 15.912-71.941m-50.773 103.609-15.912 76.812 34.861-31.668 15.912-76.812m-50.773 108.48-15.912 81.685 34.861-31.668 15.912-81.685"/><path fill="#00008b80" stroke="#000" stroke-width=".22" d="m1337.984 1583.613-15.912 86.557 34.861-31.668 15.912-86.557m-50.773 118.225-15.912 91.429 34.861-31.669 15.912-91.428m493.273-417.757-15.912-59.605 34.862-36.54 15.912 59.605"/><path fill="#00008b80" stroke="#000" stroke-width=".22" d="m1834.294 1161.14-15.912-54.732 34.862-36.54 15.912 54.732m-50.774-18.193-15.912-49.86 34.862-36.54 15.912 49.86"/><path fill="#00008b80" stroke="#000" stroke-width=".22" d="m1802.47 1056.548-15.912-44.99 34.862-36.54 15.912 44.989"/><path fill="#00008b80" stroke="#000" stroke-width=".22" d="m1786.558 1011.559-15.912-40.117 34.862-36.54 15.912 40.116m-50.774-3.576-15.912-35.244 34.862-36.54 15.912 35.244m-50.774 1.296-15.912-30.373 34.862-36.54 15.912 30.372m-50.774 6.168-15.912-25.5 34.862-36.54 15.912 25.5m-50.774 11.04-15.912-20.628 34.862-36.54 15.912 20.628m-50.774 15.912-15.912-15.757 34.862-36.54 15.912 15.756m-50.774 20.784-15.912-10.884 34.861-36.54 15.913 10.884m-50.774 25.656-15.912-6.012 34.861-36.54 15.912 6.012m-50.773 30.527-15.912-1.14 34.861-36.54 15.912 1.14m-50.773 35.4-15.912 3.733 34.861-36.54 15.912-3.733m-50.773 40.272-15.912 8.605 34.861-36.54 15.912-8.605m-50.773 45.145-15.912 13.476 34.861-36.54 15.912-13.477"/><path fill="#00008b80" stroke="#000" stroke-width=".22" d="m1595.614 851.715-15.912 18.349 34.861-36.54 15.912-18.349"/><path fill="#00008b80" stroke="#000" stroke-width=".22" d="m1579.702 870.063-15.912 23.22 34.861-36.54 15.912-23.22"/><path fill="#00008b80" stroke="#000" stroke-width=".22" d="m1563.79 893.283-15.912 28.093 34.861-36.54 15.912-28.093"/><path fill="#00008b80" stroke="#000" stroke-width=".22" d="m1547.878 921.376-15.912 32.964 34.861-36.54 15.912-32.964m-50.773 69.504-15.912 37.836 34.861-36.54 15.912-37.836"/><path fill="#00008b80" stroke="#000" stroke-width=".22" d="m1516.054 992.176-15.912 42.709 34.861-36.54 15.912-42.709"/><path fill="#00008b80" stroke="#000" stroke-width=".22" d="m1500.142 1034.884-15.913 47.581 34.862-36.54 15.912-47.58"/><path fill="#00008b80" stroke="#000" stroke-width=".22" d="m1484.229 1082.465-15.912 52.452 34.862-36.54 15.912-52.452"/><path fill="#00008b80" stroke="#000" stroke-width=".22" d="m1468.317 1134.917-15.912 57.325 34.862-36.54 15.912-57.325"/><path fill="#00008b80" stroke="#000" stroke-width=".22" d="m1452.405 1192.242-15.912 62.196 34.862-36.54 15.912-62.196m-50.774 98.736-15.912 67.069 34.862-36.54 15.912-67.069m-50.774 103.609-15.912 71.94 34.862-36.54 15.912-71.94"/><path fill="#00008b80" stroke="#000" stroke-width=".22" d="m1404.669 1393.447-15.912 76.813 34.862-36.54 15.912-76.813"/><path fill="#00008b80" stroke="#000" stroke-width=".22" d="m1388.757 1470.26-15.912 81.685 34.862-36.54 15.912-81.685"/><path fill="#00008b80" stroke="#000" stroke-width=".22" d="m1372.845 1551.944-15.912 86.558 34.862-36.54 15.912-86.558"/><path fill="#00008b80" stroke="#000" stroke-width=".22" d="m1356.933 1638.501-15.912 91.43 34.862-36.541 15.912-91.429m493.273-417.756-15.912-59.605 34.861-41.412 15.912 59.604m-50.773-18.192-15.912-54.733 34.861-41.412 15.912 54.733m-50.773-13.321-15.912-49.86 34.861-41.413 15.912 49.861m-50.773-8.449-15.912-44.988 34.861-41.412 15.912 44.988m-50.773-3.576-15.912-40.116 34.861-41.413 15.912 40.117m-50.773 1.296-15.912-35.245 34.861-41.412 15.912 35.244m-50.773 6.168-15.912-30.372 34.861-41.413 15.912 30.373m-50.773 11.04-15.912-25.5 34.861-41.413 15.912 25.5m-50.773 15.912-15.912-20.628 34.861-41.412 15.912 20.628m-50.773 20.784-15.912-15.756 34.861-41.412 15.912 15.756m-50.773 25.656-15.913-10.884 34.862-41.413 15.912 10.885m-50.774 30.528-15.912-6.012 34.862-41.413 15.912 6.012m-50.774 35.401-15.912-1.14 34.862-41.413 15.912 1.14m-50.774 40.272-15.912 3.732 34.862-41.412 15.912-3.732m-50.774 45.144-15.912 8.604 34.862-41.412 15.912-8.604m-50.774 50.016-15.912 13.476 34.862-41.412 15.912-13.476m-50.774 54.888-15.912 18.348 34.862-41.412 15.912-18.348"/><path fill="#00008b80" stroke="#000" stroke-width=".22" d="m1614.563 833.523-15.912 23.22 34.862-41.412 15.912-23.22"/><path fill="#00008b80" stroke="#000" stroke-width=".22" d="m1598.651 856.743-15.912 28.093 34.862-41.413 15.912-28.092"/><path fill="#00008b80" stroke="#000" stroke-width=".22" d="m1582.739 884.836-15.912 32.964 34.862-41.413 15.912-32.964"/><path fill="#00008b80" stroke="#000" stroke-width=".22" d="m1566.827 917.8-15.912 37.836 34.862-41.412 15.912-37.837m-50.774 79.249-15.912 42.708 34.862-41.412 15.912-42.708m-50.774 84.12-15.912 47.58 34.862-41.412 15.912-47.58m-50.774 88.993-15.912 52.452 34.861-41.412 15.913-52.453m-50.774 93.865-15.912 57.325 34.861-41.413 15.912-57.324"/><path fill="#00008b80" stroke="#000" stroke-width=".22" d="m1487.267 1155.702-15.912 62.196 34.861-41.412 15.912-62.197m-50.773 103.609-15.912 67.069 34.861-41.413 15.912-67.068m-50.773 108.481-15.912 71.94 34.861-41.412 15.912-71.94"/><path fill="#00008b80" stroke="#000" stroke-width=".22" d="m1439.531 1356.907-15.912 76.813 34.861-41.413 15.912-76.812m-50.773 118.225-15.912 81.684 34.861-41.412 15.912-81.685"/><path fill="#00008b80" stroke="#000" stroke-width=".22" d="m1407.707 1515.404-15.912 86.557 34.861-41.412 15.912-86.557"/><path fill="#00008b80" stroke="#000" stroke-width=".22" d="m1391.795 1601.961-15.912 91.429 34.861-41.412 15.912-91.43m493.273-417.755-15.912-59.605 34.862-46.285 15.912 59.605m-50.774-13.32-15.912-54.733 34.862-46.284 15.912 54.732m-50.774-8.448-15.912-49.86 34.862-46.285 15.912 49.86m-50.774-3.576-15.912-44.988 34.862-46.285 15.912 44.989m-50.774 1.295-15.912-40.116 34.862-46.284 15.912 40.116"/><path fill="#00008b80" stroke="#000" stroke-width=".22" d="m1840.369 893.49-15.912-35.245 34.862-46.285 15.912 35.245m-50.774 11.04-15.912-30.373 34.862-46.284 15.912 30.372"/><path fill="#00008b80" stroke="#000" stroke-width=".22" d="m1808.545 827.872-15.912-25.5 34.862-46.284 15.912 25.5"/><path fill="#00008b80" stroke="#000" stroke-width=".22" d="m1792.633 802.372-15.912-20.628 34.862-46.285 15.912 20.629m-50.774 25.655-15.912-15.755 34.862-46.285 15.912 15.756"/><path fill="#00008b80" stroke="#000" stroke-width=".22" d="m1760.809 765.988-15.912-10.885 34.862-46.284 15.912 10.884m-50.774 35.4-15.912-6.012 34.861-46.284 15.913 6.012m-50.774 40.272-15.912-1.14 34.861-46.284 15.912 1.14m-50.773 45.144-15.912 3.732 34.861-46.285 15.912-3.731m-50.773 50.016-15.912 8.604 34.861-46.285 15.912-8.604m-50.773 54.889-15.912 13.476 34.861-46.285 15.912-13.476m-50.773 59.761-15.912 18.348 34.861-46.284 15.912-18.349"/><path fill="#00008b80" stroke="#000" stroke-width=".22" d="m1649.425 792.111-15.912 23.22 34.861-46.284 15.912-23.22"/><path fill="#00008b80" stroke="#000" stroke-width=".22" d="m1633.513 815.331-15.912 28.092 34.861-46.284 15.912-28.092m-50.773 74.376-15.912 32.964 34.861-46.284 15.912-32.964"/><path fill="#00008b80" stroke="#000" stroke-width=".22" d="m1601.689 876.387-15.912 37.837 34.861-46.285 15.912-37.836m-50.773 84.121-15.912 42.708 34.861-46.284 15.912-42.709"/><path fill="#00008b80" stroke="#000" stroke-width=".22" d="m1569.865 956.932-15.912 47.58 34.861-46.284 15.912-47.58"/><path fill="#00008b80" stroke="#000" stroke-width=".22" d="m1553.953 1004.512-15.913 52.453 34.862-46.285 15.912-52.452"/><path fill="#00008b80" stroke="#000" stroke-width=".22" d="m1538.04 1056.965-15.912 57.324 34.862-46.284 15.912-57.325m-50.774 103.609-15.912 62.197 34.862-46.285 15.912-62.196m-50.774 108.481-15.912 67.068 34.862-46.284 15.912-67.069"/><path fill="#00008b80" stroke="#000" stroke-width=".22" d="m1490.304 1243.554-15.912 71.94 34.862-46.284 15.912-71.94"/><path fill="#00008b80" stroke="#000" stroke-width=".22" d="m1474.392 1315.495-15.912 76.812 34.862-46.284 15.912-76.813m-50.774 123.097-15.912 81.685 34.862-46.284 15.912-81.685m-50.774 127.969-15.912 86.557 34.862-46.285 15.912-86.556m-50.774 132.841-15.912 91.429 34.862-46.285 15.912-91.429m493.273-417.757-15.912-59.604 34.861-51.156 15.913 59.604"/><path fill="#00008b80" stroke="#000" stroke-width=".22" d="m1938.879 1036.904-15.912-54.733 34.861-51.157 15.912 54.733"/><path fill="#00008b80" stroke="#000" stroke-width=".22" d="m1922.967 982.171-15.912-49.861 34.861-51.157 15.912 49.861m-50.773 1.296-15.912-44.989 34.861-51.156 15.912 44.988m-50.773 6.168-15.912-40.116 34.861-51.157 15.912 40.117m-50.773 11.039-15.912-35.244 34.861-51.156 15.912 35.244m-50.773 15.912-15.912-30.372 34.861-51.156 15.912 30.372m-50.773 20.784-15.912-25.5 34.861-51.157 15.912 25.5m-50.773 25.657-15.912-20.629 34.861-51.156 15.912 20.628m-50.773 30.528-15.912-15.756 34.861-51.156 15.912 15.756m-50.773 35.4-15.912-10.884 34.861-51.157 15.912 10.885m-50.773 40.272-15.913-6.012 34.862-51.157 15.912 6.012m-50.774 45.145-15.912-1.14 34.862-51.157 15.912 1.14m-50.774 50.017-15.912 3.731 34.862-51.156 15.912-3.732m-50.774 54.888-15.912 8.604 34.862-51.156 15.912-8.604m-50.774 59.76-15.912 13.476 34.862-51.156 15.912-13.476m-50.774 64.632-15.912 18.349 34.862-51.157 15.912-18.348m-50.774 69.505-15.912 23.22 34.862-51.157 15.912-23.22"/><path fill="#00008b80" stroke="#000" stroke-width=".22" d="m1668.374 769.047-15.912 28.092 34.862-51.157 15.912-28.092m-50.774 79.249-15.912 32.964 34.862-51.156 15.912-32.965"/><path fill="#00008b80" stroke="#000" stroke-width=".22" d="m1636.55 830.103-15.912 37.836 34.862-51.156 15.912-37.836m-50.774 88.992-15.912 42.709 34.862-51.157 15.912-42.708m-50.774 93.865-15.912 47.58 34.862-51.157 15.912-47.58m-50.774 98.737-15.912 52.452 34.862-51.156 15.912-52.453"/><path fill="#00008b80" stroke="#000" stroke-width=".22" d="m1572.902 1010.68-15.912 57.325 34.862-51.157 15.912-57.324m-50.774 108.481-15.912 62.196 34.861-51.156 15.913-62.197m-50.774 113.353-15.912 67.069 34.861-51.157 15.912-67.068m-50.773 118.225-15.912 71.94 34.861-51.156 15.912-71.94m-50.773 123.096-15.912 76.813 34.861-51.157 15.912-76.812"/><path fill="#00008b80" stroke="#000" stroke-width=".22" d="m1493.342 1346.023-15.912 81.685 34.861-51.157 15.912-81.685m-50.773 132.842-15.912 86.556 34.861-51.156 15.912-86.557"/><path fill="#00008b80" stroke="#000" stroke-width=".22" d="m1461.518 1514.264-15.912 91.43 34.861-51.157 15.912-91.43m493.274-417.756-15.913-59.604 34.862-56.029 15.912 59.605m-50.774-3.576-15.912-54.733 34.862-56.029 15.912 54.733m-50.774 1.296-15.912-49.86 34.862-56.03 15.912 49.861"/><path fill="#00008b80" stroke="#000" stroke-width=".22" d="m1941.916 881.153-15.912-44.988 34.862-56.029 15.912 44.989"/><path fill="#00008b80" stroke="#000" stroke-width=".22" d="m1926.004 836.165-15.912-40.117 34.862-56.028 15.912 40.116"/><path fill="#00008b80" stroke="#000" stroke-width=".22" d="m1910.092 796.048-15.912-35.244 34.862-56.029 15.912 35.245m-50.774 20.783-15.912-30.371 34.862-56.029 15.912 30.372m-50.774 25.657-15.912-25.5 34.862-56.03 15.912 25.501"/><path fill="#00008b80" stroke="#000" stroke-width=".22" d="m1862.356 704.931-15.912-20.628 34.862-56.029 15.912 20.629"/><path fill="#00008b80" stroke="#000" stroke-width=".22" d="m1846.444 684.303-15.912-15.756 34.862-56.029 15.912 15.756"/><path fill="#00008b80" stroke="#000" stroke-width=".22" d="m1830.532 668.547-15.912-10.885 34.862-56.028 15.912 10.884"/><path fill="#00008b80" stroke="#000" stroke-width=".22" d="m1814.62 657.662-15.912-6.012 34.862-56.028 15.912 6.012"/><path fill="#00008b80" stroke="#000" stroke-width=".22" d="m1798.708 651.65-15.912-1.14 34.862-56.028 15.912 1.14"/><path fill="#00008b80" stroke="#000" stroke-width=".22" d="m1782.796 650.51-15.912 3.732 34.861-56.029 15.913-3.731"/><path fill="#00008b80" stroke="#000" stroke-width=".22" d="m1766.884 654.242-15.912 8.604 34.861-56.029 15.912-8.604"/><path fill="#00008b80" stroke="#000" stroke-width=".22" d="m1750.972 662.846-15.912 13.476 34.861-56.029 15.912-13.476"/><path fill="#00008b80" stroke="#000" stroke-width=".22" d="m1735.06 676.322-15.912 18.348 34.861-56.029 15.912-18.348"/><path fill="#00008b80" stroke="#000" stroke-width=".22" d="m1719.148 694.67-15.912 23.22 34.861-56.028 15.912-23.22"/><path fill="#00008b80" stroke="#000" stroke-width=".22" d="m1703.236 717.89-15.912 28.092 34.861-56.028 15.912-28.092"/><path fill="#00008b80" stroke="#000" stroke-width=".22" d="m1687.324 745.982-15.912 32.965 34.861-56.029 15.912-32.964"/><path fill="#00008b80" stroke="#000" stroke-width=".22" d="m1671.412 778.947-15.912 37.836 34.861-56.029 15.912-37.836"/><path fill="#00008b80" stroke="#000" stroke-width=".22" d="m1655.5 816.783-15.912 42.708 34.861-56.028 15.912-42.709"/><path fill="#00008b80" stroke="#000" stroke-width=".22" d="m1639.588 859.491-15.912 47.58 34.861-56.028 15.912-47.58"/><path fill="#00008b80" stroke="#000" stroke-width=".22" d="m1623.676 907.071-15.912 52.453 34.861-56.029 15.912-52.452m-50.773 108.481-15.912 57.324 34.861-56.028 15.912-57.325m-50.773 113.353-15.913 62.197 34.862-56.029 15.912-62.196"/><path fill="#00008b80" stroke="#000" stroke-width=".22" d="m1575.939 1079.045-15.912 67.068 34.862-56.028 15.912-67.069"/><path fill="#00008b80" stroke="#000" stroke-width=".22" d="m1560.027 1146.113-15.912 71.94 34.862-56.028 15.912-71.94"/><path fill="#00008b80" stroke="#000" stroke-width=".22" d="m1544.115 1218.054-15.912 76.812 34.862-56.028 15.912-76.813"/><path fill="#00008b80" stroke="#000" stroke-width=".22" d="m1528.203 1294.866-15.912 81.685 34.862-56.028 15.912-81.685m-50.774 137.713-15.912 86.557 34.862-56.029 15.912-86.556"/><path fill="#00008b80" stroke="#000" stroke-width=".22" d="m1496.379 1463.108-15.912 91.429 34.862-56.029 15.912-91.429m493.273-417.756-15.912-59.605 34.862-60.9 15.912 59.604"/><path fill="#00008b80" stroke="#000" stroke-width=".22" d="m2008.602 929.718-15.912-54.733 34.861-60.9 15.913 54.733m-50.774 6.167-15.912-49.86 34.861-60.9 15.912 49.86m-50.773 11.04-15.912-44.989 34.861-60.9 15.912 44.988m-50.773 15.912-15.912-40.116 34.861-60.9 15.912 40.116m-50.773 20.784-15.912-35.245 34.861-60.9 15.912 35.244m-50.773 25.656-15.912-30.372 34.861-60.9 15.912 30.372m-50.773 30.528-15.912-25.5 34.861-60.901 15.912 25.5m-50.773 35.401-15.912-20.629 34.861-60.9 15.912 20.628m-50.773 40.272-15.912-15.756 34.861-60.9 15.912 15.756m-50.773 45.144-15.912-10.884 34.861-60.9 15.912 10.883m-50.773 50.017-15.912-6.012 34.861-60.9 15.912 6.011m-50.773 54.889-15.912-1.14 34.861-60.901 15.912 1.14m-50.773 59.761-15.913 3.731 34.862-60.9 15.912-3.732m-50.774 64.632-15.912 8.604 34.862-60.9 15.912-8.604m-50.774 69.504-15.912 13.476 34.862-60.9 15.912-13.476m-50.774 74.376-15.912 18.348 34.862-60.9 15.912-18.348m-50.774 79.248-15.912 23.22 34.862-60.9 15.912-23.22"/><path fill="#00008b80" stroke="#000" stroke-width=".22" d="m1738.097 661.861-15.912 28.093 34.862-60.9 15.912-28.093"/><path fill="#00008b80" stroke="#000" stroke-width=".22" d="m1722.185 689.953-15.912 32.965 34.862-60.9 15.912-32.965"/><path fill="#00008b80" stroke="#000" stroke-width=".22" d="m1706.273 722.918-15.912 37.836 34.862-60.9 15.912-37.837m-50.774 98.737-15.912 42.709 34.862-60.901 15.912-42.708"/><path fill="#00008b80" stroke="#000" stroke-width=".22" d="m1674.449 803.462-15.912 47.58 34.862-60.9 15.912-47.58"/><path fill="#00008b80" stroke="#000" stroke-width=".22" d="m1658.537 851.042-15.912 52.453 34.862-60.9 15.912-52.453"/><path fill="#00008b80" stroke="#000" stroke-width=".22" d="m1642.625 903.495-15.912 57.325 34.862-60.9 15.912-57.325"/><path fill="#00008b80" stroke="#000" stroke-width=".22" d="m1626.713 960.82-15.912 62.196 34.862-60.9 15.912-62.197"/><path fill="#00008b80" stroke="#000" stroke-width=".22" d="m1610.801 1023.016-15.912 67.069 34.861-60.9 15.913-67.07"/><path fill="#00008b80" stroke="#000" stroke-width=".22" d="m1594.889 1090.084-15.912 71.941 34.861-60.9 15.912-71.94m-50.773 132.84-15.912 76.813 34.861-60.9 15.912-76.813"/><path fill="#00008b80" stroke="#000" stroke-width=".22" d="m1563.065 1238.837-15.912 81.686 34.861-60.901 15.912-81.685"/><path fill="#00008b80" stroke="#000" stroke-width=".22" d="m1547.153 1320.522-15.912 86.557 34.861-60.9 15.912-86.557"/><path fill="#00008b80" stroke="#000" stroke-width=".22" d="m1531.241 1407.079-15.912 91.43 34.861-60.901 15.912-91.43m493.274-417.756-15.912-59.604 34.861-65.773 15.912 59.605m-50.773 6.168-15.913-54.733 34.862-65.773 15.912 54.733m-50.774 11.04-15.912-49.86 34.862-65.773 15.912 49.86m-50.774 15.912-15.912-44.988 34.862-65.773 15.912 44.989m-50.774 20.784-15.912-40.117 34.862-65.772 15.912 40.116m-50.774 25.656-15.912-35.244 34.862-65.773 15.912 35.245m-50.774 30.528-15.912-30.373 34.862-65.772 15.912 30.372m-50.774 35.4-15.912-25.5 34.862-65.773 15.912 25.5m-50.774 40.273-15.912-20.628 34.862-65.773 15.912 20.628m-50.774 45.145-15.912-15.757 34.862-65.772 15.912 15.756m-50.774 50.016-15.912-10.884 34.862-65.772 15.912 10.884m-50.774 54.888-15.912-6.012 34.862-65.773 15.912 6.013m-50.774 59.76-15.912-1.14 34.862-65.773 15.912 1.14m-50.774 64.633-15.912 3.732 34.862-65.773 15.912-3.732m-50.774 69.505-15.912 8.604 34.862-65.773 15.912-8.604m-50.774 74.377-15.912 13.476 34.861-65.773 15.913-13.476m-50.774 79.249-15.912 18.348 34.861-65.773 15.912-18.348m-50.773 84.121-15.912 23.22 34.861-65.773 15.912-23.22m-50.773 88.993-15.912 28.092 34.861-65.772 15.912-28.093"/><path fill="#00008b80" stroke="#000" stroke-width=".22" d="m1757.047 629.053-15.912 32.964 34.861-65.772 15.912-32.964"/><path fill="#00008b80" stroke="#000" stroke-width=".22" d="m1741.135 662.017-15.912 37.837 34.861-65.773 15.912-37.836"/><path fill="#00008b80" stroke="#000" stroke-width=".22" d="m1725.223 699.854-15.912 42.708 34.861-65.773 15.912-42.708m-50.773 108.481-15.912 47.58 34.861-65.772 15.912-47.58m-50.773 113.352-15.912 52.453 34.861-65.773 15.912-52.452"/><path fill="#00008b80" stroke="#000" stroke-width=".22" d="m1677.487 842.595-15.912 57.324 34.861-65.773 15.912-57.324"/><path fill="#00008b80" stroke="#000" stroke-width=".22" d="m1661.575 899.919-15.912 62.197 34.861-65.773 15.912-62.197"/><path fill="#00008b80" stroke="#000" stroke-width=".22" d="m1645.663 962.116-15.913 67.068 34.862-65.773 15.912-67.068m-50.774 132.841-15.912 71.94 34.862-65.772 15.912-71.94"/><path fill="#00008b80" stroke="#000" stroke-width=".22" d="m1613.838 1101.125-15.912 76.812 34.862-65.772 15.912-76.813"/><path fill="#00008b80" stroke="#000" stroke-width=".22" d="m1597.926 1177.937-15.912 81.685 34.862-65.773 15.912-81.684m-50.774 147.457-15.912 86.557 34.862-65.773 15.912-86.557m-50.774 152.33-15.912 91.429 34.862-65.773 15.912-91.429m493.273-417.756-15.912-59.605 34.862-70.645 15.912 59.605m-50.774 11.04-15.912-54.733 34.862-70.644 15.912 54.732m-50.774 15.912-15.912-49.86 34.862-70.645 15.912 49.86m-50.774 20.785-15.912-44.989 34.861-70.645 15.913 44.989m-50.774 25.656-15.912-40.116 34.861-70.645 15.912 40.116m-50.773 30.529-15.912-35.245 34.861-70.645 15.912 35.245m-50.773 35.4-15.912-30.372 34.861-70.645 15.912 30.372m-50.773 40.273-15.912-25.5 34.861-70.645 15.912 25.5m-50.773 45.144-15.912-20.628 34.861-70.645 15.912 20.629m-50.773 50.016-15.912-15.756 34.861-70.645 15.912 15.756m-50.773 54.889-15.912-10.884 34.861-70.645 15.912 10.884m-50.773 59.761-15.912-6.013 34.861-70.644 15.912 6.012m-50.773 64.632-15.912-1.14 34.861-70.644 15.912 1.14m-50.773 69.504-15.912 3.732 34.861-70.644 15.912-3.732m-50.773 74.376-15.912 8.604 34.861-70.645 15.912-8.603m-50.773 79.248-15.913 13.476 34.862-70.644 15.912-13.477m-50.774 84.121-15.912 18.348 34.862-70.644 15.912-18.348m-50.774 88.992-15.912 23.22 34.862-70.644 15.912-23.22m-50.774 93.864-15.912 28.093 34.862-70.645 15.912-28.092"/><path fill="#00008b80" stroke="#000" stroke-width=".22" d="m1791.908 563.281-15.912 32.964 34.862-70.645 15.912-32.964m-50.774 103.609-15.912 37.836 34.862-70.645 15.912-37.836m-50.774 108.481-15.912 42.708 34.862-70.644 15.912-42.709"/><path fill="#00008b80" stroke="#000" stroke-width=".22" d="m1744.172 676.789-15.912 47.58 34.862-70.644 15.912-47.58M1728.26 724.37l-15.912 52.452 34.862-70.645 15.912-52.452"/><path fill="#00008b80" stroke="#000" stroke-width=".22" d="m1712.348 776.822-15.912 57.324 34.862-70.644 15.912-57.325"/><path fill="#00008b80" stroke="#000" stroke-width=".22" d="m1696.436 834.146-15.912 62.197 34.862-70.645 15.912-62.196m-50.774 132.841-15.912 67.068 34.862-70.644 15.912-67.069m-50.774 137.713-15.912 71.941 34.862-70.645 15.912-71.94m-50.774 142.585-15.912 76.813 34.861-70.645 15.913-76.813"/><path fill="#00008b80" stroke="#000" stroke-width=".22" d="m1632.788 1112.165-15.912 81.684 34.861-70.644 15.912-81.685"/><path fill="#00008b80" stroke="#000" stroke-width=".22" d="m1616.876 1193.849-15.912 86.557 34.861-70.645 15.912-86.556"/><path fill="#00008b80" stroke="#000" stroke-width=".22" d="m1600.964 1280.406-15.912 91.429 34.861-70.645 15.912-91.429m493.274-417.756-15.912-59.605 34.861-75.517 15.912 59.605m-50.773 15.912-15.912-54.732 34.861-75.517 15.912 54.732m-50.773 20.785-15.912-49.861 34.861-75.517 15.912 49.86"/><path fill="#00008b80" stroke="#000" stroke-width=".22" d="m2081.363 627.807-15.913-44.989 34.862-75.516 15.912 44.988"/><path fill="#00008b80" stroke="#000" stroke-width=".22" d="m2065.45 582.818-15.912-40.116 34.862-75.517 15.912 40.117m-50.774 35.4-15.912-35.245 34.862-75.516 15.912 35.244"/><path fill="#00008b80" stroke="#000" stroke-width=".22" d="m2033.626 507.458-15.912-30.373 34.862-75.517 15.912 30.373m-50.774 45.144-15.912-25.5 34.862-75.517 15.912 25.5m-50.774 50.017-15.912-20.629 34.862-75.516 15.912 20.628"/><path fill="#00008b80" stroke="#000" stroke-width=".22" d="m1985.89 430.956-15.912-15.756 34.862-75.517 15.912 15.757m-50.774 59.76-15.912-10.884 34.862-75.517 15.912 10.884m-50.774 64.633-15.912-6.012 34.862-75.517 15.912 6.012m-50.774 69.505-15.912-1.14 34.862-75.517 15.912 1.14m-50.774 74.377-15.912 3.732 34.862-75.517 15.912-3.732m-50.774 79.249-15.912 8.603 34.862-75.516 15.912-8.604m-50.774 84.12-15.912 13.477 34.862-75.517 15.912-13.476m-50.774 88.993-15.912 18.348 34.861-75.517 15.913-18.348m-50.774 93.865-15.912 23.22 34.861-75.517 15.912-23.22m-50.773 98.737-15.912 28.092 34.861-75.517 15.912-28.092m-50.773 103.609-15.912 32.964 34.861-75.517 15.912-32.964"/><path fill="#00008b80" stroke="#000" stroke-width=".22" d="m1810.858 525.6-15.912 37.836 34.861-75.516 15.912-37.837m-50.773 113.353-15.912 42.709 34.861-75.517 15.912-42.708m-50.773 118.225-15.912 47.58 34.861-75.517 15.912-47.58"/><path fill="#00008b80" stroke="#000" stroke-width=".22" d="m1763.122 653.725-15.912 52.452 34.861-75.516 15.912-52.453m-50.773 127.969-15.912 57.325 34.861-75.517 15.912-57.324m-50.773 132.841-15.912 62.196 34.861-75.516 15.912-62.197"/><path fill="#00008b80" stroke="#000" stroke-width=".22" d="m1715.386 825.698-15.912 67.069 34.861-75.517 15.912-67.068m-50.773 142.585-15.912 71.94 34.861-75.516 15.912-71.94m-50.773 147.456-15.913 76.813 34.862-75.517 15.912-76.812"/><path fill="#00008b80" stroke="#000" stroke-width=".22" d="m1667.649 1041.52-15.912 81.685 34.862-75.517 15.912-81.685m-50.774 157.202-15.912 86.556 34.862-75.516 15.912-86.557"/><path fill="#00008b80" stroke="#000" stroke-width=".22" d="m1635.825 1209.761-15.912 91.43 34.862-75.518 15.912-91.428"/><path fill="none" stroke="#ff4136" stroke-linecap="square" stroke-width="1.1" d="M539.206 1849.296V602.05"/><path fill="none" stroke="#2ecc40" stroke-linecap="square" stroke-width="1.1" d="M539.206 1849.296h1115.569"/><path fill="none" stroke="#0074d9" stroke-linecap="square" stroke-width="1.1" d="m2163.96 1340.11-509.185 509.186"/><path fill="none" stroke="#000" stroke-dasharray="5.5 11" stroke-width="1.1" d="M1654.775 1849.296V602.05m-1115.569.001h1115.569M2163.96 92.866l-509.185 509.185"/><path fill="none" d="M672.194 2269.373h9.438v11.451h-9.438z"/><use xlink:href="#e" transform="matrix(1 0 0 -1 672.194 2280.643)"/><path fill="none" d="M2522.93 1594.703h8.547v14.652h-8.547z"/><use xlink:href="#f" transform="matrix(1 0 0 -1 2522.93 1605.972)"/><path fill="none" d="M70.866 1219.948h8.168v11.451h-8.168z"/><use xlink:href="#g" transform="matrix(1 0 0 -1 70.866 1231.217)"/><defs><symbol id="a" overflow="visible"><path d="M2.547 1.243c.071 0 .148.127.148.182 0 .044-.022.093-.077.093H.468C.4 1.518.33 1.414.33 1.331c0-.044.033-.088.082-.088Z"/></symbol><symbol id="b" overflow="visible"><path d="M.336 2.574c0-.115.104-.214.22-.214.093 0 .258.098.258.22 0 .043-.011.076-.022.115s-.044.088-.044.132c0 .138.143.336.545.336.198 0 .478-.138.478-.666 0-.352-.126-.638-.451-.968l-.407-.401C.374.577.286.314.286-.012c0 0 .28.011.456.011h.963c.176 0 .429-.011.429-.011.072.291.127.704.132.869-.033.027-.104.038-.16.027-.093-.39-.186-.528-.384-.528h-.98c0 .264.38.638.408.666l.555.533c.314.303.55.545.55.963 0 .594-.484.836-.93.836-.61 0-.99-.451-.99-.781"/></symbol><symbol id="c" overflow="visible"><path d="M2.365 1.205h-.456V2.81c0 .275 0 .489.01.533l-.01.011h-.176c-.039 0-.066-.033-.088-.06C1.298 2.87.66 1.964.153 1.177.17 1.095.203.946.368.946H1.49V.44c0-.253-.21-.253-.446-.27-.033-.032-.033-.148 0-.181a19 19 0 0 0 1.249 0c.033.033.033.149 0 .182-.27.022-.385.01-.385.269v.506h.379c.077 0 .16.105.16.17 0 .055-.022.088-.083.088M1.49 2.788V1.204H.44c.28.451.671 1.068 1.05 1.585"/></symbol><symbol id="d" overflow="visible"><path d="M1.584.671V2.58c0 .33.006.665.017.737 0 .027-.011.027-.033.027-.303-.187-.594-.324-1.078-.55.01-.06.033-.115.082-.148.253.104.374.137.479.137.093 0 .11-.132.11-.319V.671c0-.456-.149-.484-.534-.5C.594.138.594.022.627-.011c.27.006.468.011.765.011.264 0 .396-.005.67-.011.034.033.034.149 0 .182-.384.016-.478.044-.478.5"/></symbol><symbol id="e" overflow="visible"><path d="M8.696 6.155c0 .758-.743 1.138-1.568 1.138-.71 0-1.27-.38-1.7-1.139-.346.76-.924 1.139-1.765 1.139-.809 0-1.469-.38-1.997-1.122C1.221 5.527.99 5.049.99 4.735c0-.148.082-.23.247-.23.149 0 .248.082.281.23.313.957 1.006 2.08 2.112 2.08.544 0 .808-.347.808-1.024 0-.346-.297-1.633-.874-3.844C3.284.841 2.788.297 2.079.297c-.231 0-.446.05-.627.132q.643.248.643.891c0 .429-.214.643-.66.643-.544 0-.957-.462-.957-1.006 0-.759.776-1.139 1.584-1.139.693 0 1.254.38 1.7 1.139.313-.759.907-1.139 1.765-1.139.792 0 1.452.38 1.98 1.122.446.644.677 1.122.677 1.436 0 .148-.082.231-.247.231-.149 0-.232-.083-.281-.231-.28-.94-1.023-2.079-2.095-2.079-.545 0-.826.33-.826 1.006 0 .215.083.677.264 1.42L5.56 4.95c.314 1.237.825 1.864 1.551 1.864.231 0 .446-.049.627-.132-.445-.148-.66-.445-.66-.89 0-.43.231-.644.677-.644.528 0 .94.479.94 1.007"/></symbol><symbol id="f" overflow="visible"><path d="M2.69 7.293q-1.114 0-1.733-1.237C.643 5.412.478 4.966.478 4.719c0-.148.083-.231.264-.231.231 0 .248.099.314.347.38 1.303.908 1.963 1.584 1.963.215 0 .33-.148.33-.445 0-.264-.082-.644-.264-1.122-.627-1.7-.94-2.838-.94-3.449 0-1.254.775-1.996 2.046-1.996.544 0 1.056.198 1.518.594q-.867-3.267-2.723-3.267-.841 0-1.138.544.99.05.99.94c0 .413-.215.628-.66.628-.611 0-.974-.512-.974-1.122 0-.908.825-1.485 1.782-1.485 1.897 0 3.448 1.749 3.861 3.366L8.019 6.22c.05.182.066.314.066.396 0 .33-.181.495-.528.495-.264 0-.478-.132-.627-.379a12 12 0 0 1-.231-.891l-1.056-4.24C5.478 1.005 4.603.263 3.861.263c-.627 0-.94.412-.94 1.254 0 .693.28 1.749.825 3.168.214.578.33.974.33 1.205 0 .808-.578 1.402-1.386 1.402"/></symbol><symbol id="g" overflow="visible"><path d="m2.673 1.518-.28-.033a72 72 0 0 0 1.815 1.716L5.79 4.67c.38.346.776.775 1.155 1.254.512.627.76 1.006.76 1.138 0 .149-.083.231-.248.231-.115 0-.214-.066-.297-.214-.412-.677-.792-1.007-1.155-1.007s-.627.297-.775.495c-.396.479-.792.726-1.172.726-.429 0-.874-.198-1.336-.627q-.693-.643-.693-1.287c0-.165.082-.247.264-.247.115 0 .214.082.28.23.182.479.627.71 1.304.71.23 0 .56-.082 1.006-.231a3.7 3.7 0 0 1 1.122-.247A52 52 0 0 0 3.861 3.58L2.393 2.21a15 15 0 0 1-.908-.99C.974.578.71.198.71.05s.082-.231.264-.231c.099 0 .198.082.313.247.413.644.858.974 1.32.974.264 0 .561-.198.891-.611.33-.412.71-.61 1.089-.61.561 0 1.122.297 1.716.874q.891.867.891 1.683c0 .149-.082.231-.264.231q-.173 0-.297-.247a1.99 1.99 0 0 0-1.881-1.32c-.396 0-1.683.478-2.079.478"/></symbol></defs></svg>