<svg xmlns="http://www.w3.org/2000/svg" xmlns:xlink="http://www.w3.org/1999/xlink" width="1041.62" height="279.207" viewBox="0 0 781.215 209.405"><path fill="none" stroke="#888" stroke-width="3" d="m113.213 141.559-42.52-28.346m0 0v-42.52m0 0L56.52 28.173m14.173 42.52 51.024-14.173m-51.024 99.213v-42.52m-42.52 28.346 42.52-28.346M56.52 28.173 14 49.433m42.52-21.26L99.04 14"/><path fill="#404040" d="M70.693 58.693c-6.621 0-12 5.379-12 12s5.379 12 12 12 12-5.379 12-12-5.379-12-12-12"/><path fill="url(#a)" d="M12 0C5.379 0 0 5.379 0 12s5.379 12 12 12 12-5.379 12-12S18.621 0 12 0" transform="translate(58.693 58.693)"/><path fill="none" d="M65.75 66.108h9.885v9.17H65.75z"/><use xlink:href="#b" fill="#fff" transform="matrix(1 0 0 -1 65.75 75.138)"/><path fill="#404040" d="M70.693 101.213c-6.621 0-12 5.378-12 12s5.379 12 12 12 12-5.379 12-12-5.379-12-12-12"/><path fill="url(#c)" d="M12 0C5.379 0 0 5.379 0 12s5.379 12 12 12 12-5.379 12-12S18.621 0 12 0" transform="translate(58.693 101.213)"/><path fill="none" d="M65.75 108.628h9.885v9.17H65.75z"/><use xlink:href="#b" fill="#fff" transform="matrix(1 0 0 -1 65.75 117.658)"/><path fill="#44f" d="M56.52 15.173c-7.174 0-13 5.827-13 13s5.826 13 13 13c7.173 0 13-5.827 13-13s-5.827-13-13-13"/><path fill="url(#d)" d="M13 0C5.827 0 0 5.827 0 13s5.827 13 13 13 13-5.827 13-13S20.173 0 13 0" transform="translate(43.52 15.173)"/><path fill="none" d="M51.34 23.574H61.7v9.198H51.34z"/><use xlink:href="#e" transform="matrix(1 0 0 -1 51.34 32.604)"/><path fill="#f44" d="M121.717 42.52c-7.725 0-14 6.275-14 14s6.275 14 14 14 14-6.275 14-14-6.275-14-14-14"/><path fill="url(#f)" d="M14 0C6.275 0 0 6.275 0 14s6.275 14 14 14 14-6.275 14-14S21.725 0 14 0" transform="translate(107.717 42.52)"/><path fill="none" d="M116.607 51.935h10.22v9.17h-10.22z"/><use xlink:href="#g" transform="matrix(1 0 0 -1 116.607 60.965)"/><path fill="#fff" d="M113.213 132.56c-4.966 0-9 4.033-9 9 0 4.965 4.034 9 9 9s9-4.035 9-9c0-4.967-4.034-9-9-9"/><path fill="url(#h)" d="M9 0C4.034 0 0 4.034 0 9s4.034 9 9 9 9-4.034 9-9-4.034-9-9-9" transform="translate(104.213 132.56)"/><path fill="none" d="M107.494 137.03h11.438v9.058h-11.438z"/><use xlink:href="#i" transform="matrix(1 0 0 -1 107.494 146.06)"/><path fill="#fff" d="M70.693 146.732c-4.966 0-9 4.034-9 9s4.034 9 9 9 9-4.034 9-9-4.034-9-9-9"/><path fill="url(#h)" d="M9 0C4.034 0 0 4.034 0 9s4.034 9 9 9 9-4.034 9-9-4.034-9-9-9" transform="translate(61.693 146.732)"/><path fill="none" d="M64.974 151.203h11.438v9.058H64.974z"/><use xlink:href="#i" transform="matrix(1 0 0 -1 64.974 160.233)"/><path fill="#fff" d="M28.173 132.56c-4.966 0-9 4.033-9 9 0 4.965 4.034 9 9 9s9-4.035 9-9c0-4.967-4.034-9-9-9"/><path fill="url(#h)" d="M9 0C4.034 0 0 4.034 0 9s4.034 9 9 9 9-4.034 9-9-4.034-9-9-9" transform="translate(19.173 132.56)"/><path fill="none" d="M22.454 137.03h11.438v9.058H22.454z"/><use xlink:href="#i" transform="matrix(1 0 0 -1 22.454 146.06)"/><path fill="#fff" d="M14 40.433c-4.966 0-9 4.034-9 9s4.034 9 9 9 9-4.034 9-9-4.034-9-9-9"/><path fill="url(#h)" d="M9 0C4.034 0 0 4.034 0 9s4.034 9 9 9 9-4.034 9-9-4.034-9-9-9" transform="translate(5 40.433)"/><path fill="none" d="M8.281 44.904h11.438v9.058H8.281z"/><use xlink:href="#i" transform="matrix(1 0 0 -1 8.281 53.934)"/><path fill="#fff" d="M99.04 5c-4.967 0-9 4.034-9 9s4.033 9 9 9c4.965 0 9-4.034 9-9s-4.035-9-9-9"/><path fill="url(#h)" d="M9 0C4.034 0 0 4.034 0 9s4.034 9 9 9 9-4.034 9-9-4.034-9-9-9" transform="translate(90.04 5)"/><path fill="none" d="M93.32 9.471h11.438v9.058H93.32z"/><use xlink:href="#i" transform="matrix(1 0 0 -1 93.32 18.501)"/><path fill="none" d="M7.392 193.667h126.602v9.17H7.392z"/><g transform="matrix(1 0 0 -1 7.392 202.697)"><use xlink:href="#j"/><use xlink:href="#k" x="12.586"/><use xlink:href="#l" x="20.3"/><use xlink:href="#m" x="24.85"/><use xlink:href="#n" x="31.794"/><use xlink:href="#o" x="38.178"/><use xlink:href="#l" x="46.55"/><use xlink:href="#p" x="51.1"/><use xlink:href="#q" x="58.184"/><use xlink:href="#r" x="67.676"/><use xlink:href="#s" x="74.732"/><use xlink:href="#q" x="79.744"/><use xlink:href="#o" x="85.736"/><use xlink:href="#n" x="94.108"/><use xlink:href="#s" x="100.492"/><use xlink:href="#o" x="105.504"/><use xlink:href="#q" x="113.876"/><use xlink:href="#m" x="119.756"/></g><path fill="#e6b24c" d="M240.772 13.433v17.008h17.008V13.433z"/><path fill="none" d="M245.556 19.253h7.44v5.368h-7.44z"/><g transform="matrix(1 0 0 -1 245.556 24.517)"><use xlink:href="#t"/><use xlink:href="#u" x="3.72"/></g><path fill="#e6916e" d="M257.78 13.433v17.008h17.007V13.433z"/><path fill="none" d="M262.563 19.261h7.44v5.352h-7.44z"/><g fill="#fff" transform="matrix(1 0 0 -1 262.563 24.525)"><use xlink:href="#v"/><use xlink:href="#w" x="3.72"/></g><path fill="#e69a65" d="M274.787 13.433v17.008h17.008V13.433z"/><path fill="none" d="M279.571 19.257h7.44v5.36h-7.44z"/><g fill="#fff" transform="matrix(1 0 0 -1 279.571 24.521)"><use xlink:href="#x"/><use xlink:href="#y" x="3.72"/></g><path fill="#e68d72" d="M291.795 13.433v17.008h17.008V13.433z"/><path fill="none" d="M296.58 19.265h7.44v5.344h-7.44z"/><g fill="#fff" transform="matrix(1 0 0 -1 296.58 24.529)"><use xlink:href="#v"/><use xlink:href="#z" x="3.72"/></g><path fill="#e6827d" d="M308.803 13.433v17.008h17.008V13.433z"/><path fill="none" d="M315.447 19.265h3.72v5.344h-3.72z"/><use xlink:href="#x" fill="#fff" transform="matrix(1 0 0 -1 315.447 24.529)"/><path fill="#e6827d" d="M325.811 13.433v17.008h17.008V13.433z"/><path fill="none" d="M332.455 19.265h3.72v5.344h-3.72z"/><use xlink:href="#x" fill="#fff" transform="matrix(1 0 0 -1 332.455 24.529)"/><path fill="#e6827d" d="M342.819 13.433v17.008h17.008V13.433z"/><path fill="none" d="M349.463 19.265h3.72v5.344h-3.72z"/><use xlink:href="#x" fill="#fff" transform="matrix(1 0 0 -1 349.463 24.529)"/><path fill="#e6827d" d="M359.827 13.433v17.008h17.008V13.433z"/><path fill="none" d="M366.47 19.265h3.72v5.344h-3.72z"/><use xlink:href="#x" fill="#fff" transform="matrix(1 0 0 -1 366.47 24.529)"/><path fill="#e6827d" d="M376.835 13.433v17.008h17.008V13.433z"/><path fill="none" d="M383.479 19.265h3.72v5.344h-3.72z"/><use xlink:href="#x" fill="#fff" transform="matrix(1 0 0 -1 383.479 24.529)"/><path fill="#e6916e" d="M240.772 30.44v17.01h17.008V30.44z"/><path fill="none" d="M245.556 36.269h7.44v5.352h-7.44z"/><g fill="#fff" transform="matrix(1 0 0 -1 245.556 41.533)"><use xlink:href="#v"/><use xlink:href="#w" x="3.72"/></g><path fill="#e6a45b" d="M257.78 30.44v17.01h17.007V30.44z"/><path fill="none" d="M262.563 36.269h7.44v5.352h-7.44z"/><g transform="matrix(1 0 0 -1 262.563 41.533)"><use xlink:href="#w"/><use xlink:href="#x" x="3.72"/></g><path fill="#e6956a" d="M274.787 30.44v17.01h17.008V30.44z"/><path fill="none" d="M279.571 36.273h7.44v5.344h-7.44z"/><g fill="#fff" transform="matrix(1 0 0 -1 279.571 41.537)"><use xlink:href="#x"/><use xlink:href="#A" x="3.72"/></g><path fill="#e68b74" d="M291.795 30.44v17.01h17.008V30.44z"/><path fill="none" d="M296.58 36.26h7.44v5.369h-7.44z"/><g fill="#fff" transform="matrix(1 0 0 -1 296.58 41.525)"><use xlink:href="#A"/><use xlink:href="#t" x="3.72"/></g><path fill="#e6847b" d="M308.803 30.44v17.01h17.008V30.44z"/><path fill="none" d="M315.447 36.26h3.72v5.369h-3.72z"/><use xlink:href="#t" fill="#fff" transform="matrix(1 0 0 -1 315.447 41.525)"/><path fill="#e6847b" d="M325.811 30.44v17.01h17.008V30.44z"/><path fill="none" d="M332.455 36.26h3.72v5.369h-3.72z"/><use xlink:href="#t" fill="#fff" transform="matrix(1 0 0 -1 332.455 41.525)"/><path fill="#e6817e" d="M342.819 30.44v17.01h17.008V30.44z"/><path fill="none" d="M349.463 36.305h3.72v5.28h-3.72z"/><use xlink:href="#v" fill="#fff" transform="matrix(1 0 0 -1 349.463 41.569)"/><path fill="#e6827d" d="M359.827 30.44v17.01h17.008V30.44z"/><path fill="none" d="M366.47 36.273h3.72v5.344h-3.72z"/><use xlink:href="#x" fill="#fff" transform="matrix(1 0 0 -1 366.47 41.537)"/><path fill="#e6817e" d="M376.835 30.44v17.01h17.008V30.44z"/><path fill="none" d="M383.479 36.305h3.72v5.28h-3.72z"/><use xlink:href="#v" fill="#fff" transform="matrix(1 0 0 -1 383.479 41.569)"/><path fill="#e69a65" d="M240.772 47.449v17.008h17.008V47.449z"/><path fill="none" d="M245.556 53.273h7.44v5.36h-7.44z"/><g fill="#fff" transform="matrix(1 0 0 -1 245.556 58.537)"><use xlink:href="#x"/><use xlink:href="#y" x="3.72"/></g><path fill="#e6956a" d="M257.78 47.449v17.008h17.007V47.449z"/><path fill="none" d="M262.563 53.28h7.44v5.345h-7.44z"/><g fill="#fff" transform="matrix(1 0 0 -1 262.563 58.545)"><use xlink:href="#x"/><use xlink:href="#A" x="3.72"/></g><path fill="#e69966" d="M274.787 47.449v17.008h17.008V47.449z"/><path fill="none" d="M279.571 53.269h7.44v5.368h-7.44z"/><g fill="#fff" transform="matrix(1 0 0 -1 279.571 58.533)"><use xlink:href="#x"/><use xlink:href="#t" x="3.72"/></g><path fill="#e6906f" d="M291.795 47.449v17.008h17.008V47.449z"/><path fill="none" d="M296.58 53.313h7.44v5.28h-7.44z"/><g fill="#fff" transform="matrix(1 0 0 -1 296.58 58.577)"><use xlink:href="#v"/><use xlink:href="#u" x="3.72"/></g><path fill="#e6827d" d="M308.803 47.449v17.008h17.008V47.449z"/><path fill="none" d="M315.447 53.28h3.72v5.345h-3.72z"/><use xlink:href="#x" fill="#fff" transform="matrix(1 0 0 -1 315.447 58.545)"/><path fill="#e6827d" d="M325.811 47.449v17.008h17.008V47.449z"/><path fill="none" d="M332.455 53.28h3.72v5.345h-3.72z"/><use xlink:href="#x" fill="#fff" transform="matrix(1 0 0 -1 332.455 58.545)"/><path fill="#e6827d" d="M342.819 47.449v17.008h17.008V47.449z"/><path fill="none" d="M349.463 53.28h3.72v5.345h-3.72z"/><use xlink:href="#x" fill="#fff" transform="matrix(1 0 0 -1 349.463 58.545)"/><path fill="#e6827d" d="M359.827 47.449v17.008h17.008V47.449z"/><path fill="none" d="M366.47 53.28h3.72v5.345h-3.72z"/><use xlink:href="#x" fill="#fff" transform="matrix(1 0 0 -1 366.47 58.545)"/><path fill="#e6827d" d="M376.835 47.449v17.008h17.008V47.449z"/><path fill="none" d="M383.479 53.28h3.72v5.345h-3.72z"/><use xlink:href="#x" fill="#fff" transform="matrix(1 0 0 -1 383.479 58.545)"/><path fill="#e68d72" d="M240.772 64.457v17.008h17.008V64.457z"/><path fill="none" d="M245.556 70.289h7.44v5.344h-7.44z"/><g fill="#fff" transform="matrix(1 0 0 -1 245.556 75.553)"><use xlink:href="#v"/><use xlink:href="#z" x="3.72"/></g><path fill="#e68b74" d="M257.78 64.457v17.008h17.007V64.457z"/><path fill="none" d="M262.563 70.277h7.44v5.368h-7.44z"/><g fill="#fff" transform="matrix(1 0 0 -1 262.563 75.54)"><use xlink:href="#A"/><use xlink:href="#t" x="3.72"/></g><path fill="#e6906f" d="M274.787 64.457v17.008h17.008V64.457z"/><path fill="none" d="M279.571 70.32h7.44v5.28h-7.44z"/><g fill="#fff" transform="matrix(1 0 0 -1 279.571 75.585)"><use xlink:href="#v"/><use xlink:href="#u" x="3.72"/></g><path fill="#e69966" d="M291.795 64.457v17.008h17.008V64.457z"/><path fill="none" d="M296.58 70.277h7.44v5.368h-7.44z"/><g fill="#fff" transform="matrix(1 0 0 -1 296.58 75.54)"><use xlink:href="#x"/><use xlink:href="#t" x="3.72"/></g><path fill="#e6817e" d="M308.803 64.457v17.008h17.008V64.457z"/><path fill="none" d="M315.447 70.32h3.72v5.28h-3.72z"/><use xlink:href="#v" fill="#fff" transform="matrix(1 0 0 -1 315.447 75.585)"/><path fill="#e6817e" d="M325.811 64.457v17.008h17.008V64.457z"/><path fill="none" d="M332.455 70.32h3.72v5.28h-3.72z"/><use xlink:href="#v" fill="#fff" transform="matrix(1 0 0 -1 332.455 75.585)"/><path fill="#e6847b" d="M342.819 64.457v17.008h17.008V64.457z"/><path fill="none" d="M349.463 70.285h3.72v5.352h-3.72z"/><use xlink:href="#B" fill="#fff" transform="matrix(1 0 0 -1 349.463 75.549)"/><path fill="#e6837c" d="M359.827 64.457v17.008h17.008V64.457z"/><path fill="none" d="M366.47 70.285h3.72v5.352h-3.72z"/><use xlink:href="#w" fill="#fff" transform="matrix(1 0 0 -1 366.47 75.549)"/><path fill="#e6837c" d="M376.835 64.457v17.008h17.008V64.457z"/><path fill="none" d="M383.479 70.285h3.72v5.352h-3.72z"/><use xlink:href="#w" fill="#fff" transform="matrix(1 0 0 -1 383.479 75.549)"/><path fill="#e6827d" d="M240.772 81.465v17.007h17.008V81.465z"/><path fill="none" d="M247.416 87.297h3.72v5.344h-3.72z"/><use xlink:href="#x" fill="#fff" transform="matrix(1 0 0 -1 247.416 92.56)"/><path fill="#e6847b" d="M257.78 81.465v17.007h17.007V81.465z"/><path fill="none" d="M264.423 87.285h3.72v5.368h-3.72z"/><use xlink:href="#t" fill="#fff" transform="matrix(1 0 0 -1 264.423 92.549)"/><path fill="#e6827d" d="M274.787 81.465v17.007h17.008V81.465z"/><path fill="none" d="M281.431 87.297h3.72v5.344h-3.72z"/><use xlink:href="#x" fill="#fff" transform="matrix(1 0 0 -1 281.431 92.56)"/><path fill="#e6817e" d="M291.795 81.465v17.007h17.008V81.465z"/><path fill="none" d="M298.44 87.329h3.72v5.28h-3.72z"/><use xlink:href="#v" fill="#fff" transform="matrix(1 0 0 -1 298.44 92.593)"/><path fill="#e68080" d="M308.803 81.465v17.007h17.008V81.465z"/><path fill="none" d="M315.447 87.297h3.72v5.344h-3.72z"/><use xlink:href="#z" fill="#fff" transform="matrix(1 0 0 -1 315.447 92.56)"/><path fill="#e6807f" d="M325.811 81.465v17.007h17.008V81.465z"/><path fill="none" d="M332.455 87.329h3.72v5.28h-3.72z"/><use xlink:href="#A" fill="#fff" transform="matrix(1 0 0 -1 332.455 92.593)"/><path fill="#e68080" d="M342.819 81.465v17.007h17.008V81.465z"/><path fill="none" d="M349.463 87.297h3.72v5.344h-3.72z"/><use xlink:href="#z" fill="#fff" transform="matrix(1 0 0 -1 349.463 92.56)"/><path fill="#e68080" d="M359.827 81.465v17.007h17.008V81.465z"/><path fill="none" d="M366.47 87.297h3.72v5.344h-3.72z"/><use xlink:href="#z" fill="#fff" transform="matrix(1 0 0 -1 366.47 92.56)"/><path fill="#e68080" d="M376.835 81.465v17.007h17.008V81.465z"/><path fill="none" d="M383.479 87.297h3.72v5.344h-3.72z"/><use xlink:href="#z" fill="#fff" transform="matrix(1 0 0 -1 383.479 92.56)"/><path fill="#e6827d" d="M240.772 98.472v17.008h17.008V98.472z"/><path fill="none" d="M247.416 104.304h3.72v5.344h-3.72z"/><use xlink:href="#x" fill="#fff" transform="matrix(1 0 0 -1 247.416 109.568)"/><path fill="#e6847b" d="M257.78 98.472v17.008h17.007V98.472z"/><path fill="none" d="M264.423 104.292h3.72v5.368h-3.72z"/><use xlink:href="#t" fill="#fff" transform="matrix(1 0 0 -1 264.423 109.556)"/><path fill="#e6827d" d="M274.787 98.472v17.008h17.008V98.472z"/><path fill="none" d="M281.431 104.304h3.72v5.344h-3.72z"/><use xlink:href="#x" fill="#fff" transform="matrix(1 0 0 -1 281.431 109.568)"/><path fill="#e6817e" d="M291.795 98.472v17.008h17.008V98.472z"/><path fill="none" d="M298.44 104.336h3.72v5.28h-3.72z"/><use xlink:href="#v" fill="#fff" transform="matrix(1 0 0 -1 298.44 109.6)"/><path fill="#e6807f" d="M308.803 98.472v17.008h17.008V98.472z"/><path fill="none" d="M315.447 104.336h3.72v5.28h-3.72z"/><use xlink:href="#A" fill="#fff" transform="matrix(1 0 0 -1 315.447 109.6)"/><path fill="#e68080" d="M325.811 98.472v17.008h17.008V98.472z"/><path fill="none" d="M332.455 104.304h3.72v5.344h-3.72z"/><use xlink:href="#z" fill="#fff" transform="matrix(1 0 0 -1 332.455 109.568)"/><path fill="#e68080" d="M342.819 98.472v17.008h17.008V98.472z"/><path fill="none" d="M349.463 104.304h3.72v5.344h-3.72z"/><use xlink:href="#z" fill="#fff" transform="matrix(1 0 0 -1 349.463 109.568)"/><path fill="#e68080" d="M359.827 98.472v17.008h17.008V98.472z"/><path fill="none" d="M366.47 104.304h3.72v5.344h-3.72z"/><use xlink:href="#z" fill="#fff" transform="matrix(1 0 0 -1 366.47 109.568)"/><path fill="#e68080" d="M376.835 98.472v17.008h17.008V98.472z"/><path fill="none" d="M383.479 104.304h3.72v5.344h-3.72z"/><use xlink:href="#z" fill="#fff" transform="matrix(1 0 0 -1 383.479 109.568)"/><path fill="#e6827d" d="M240.772 115.48v17.008h17.008V115.48z"/><path fill="none" d="M247.416 121.312h3.72v5.344h-3.72z"/><use xlink:href="#x" fill="#fff" transform="matrix(1 0 0 -1 247.416 126.576)"/><path fill="#e6817e" d="M257.78 115.48v17.008h17.007V115.48z"/><path fill="none" d="M264.423 121.344h3.72v5.28h-3.72z"/><use xlink:href="#v" fill="#fff" transform="matrix(1 0 0 -1 264.423 126.608)"/><path fill="#e6827d" d="M274.787 115.48v17.008h17.008V115.48z"/><path fill="none" d="M281.431 121.312h3.72v5.344h-3.72z"/><use xlink:href="#x" fill="#fff" transform="matrix(1 0 0 -1 281.431 126.576)"/><path fill="#e6847b" d="M291.795 115.48v17.008h17.008V115.48z"/><path fill="none" d="M298.44 121.308h3.72v5.352h-3.72z"/><use xlink:href="#B" fill="#fff" transform="matrix(1 0 0 -1 298.44 126.572)"/><path fill="#e68080" d="M308.803 115.48v17.008h17.008V115.48z"/><path fill="none" d="M315.447 121.312h3.72v5.344h-3.72z"/><use xlink:href="#z" fill="#fff" transform="matrix(1 0 0 -1 315.447 126.576)"/><path fill="#e68080" d="M325.811 115.48v17.008h17.008V115.48z"/><path fill="none" d="M332.455 121.312h3.72v5.344h-3.72z"/><use xlink:href="#z" fill="#fff" transform="matrix(1 0 0 -1 332.455 126.576)"/><path fill="#e68080" d="M342.819 115.48v17.008h17.008V115.48z"/><path fill="none" d="M349.463 121.312h3.72v5.344h-3.72z"/><use xlink:href="#z" fill="#fff" transform="matrix(1 0 0 -1 349.463 126.576)"/><path fill="#e6807f" d="M359.827 115.48v17.008h17.008V115.48z"/><path fill="none" d="M366.47 121.344h3.72v5.28h-3.72z"/><use xlink:href="#A" fill="#fff" transform="matrix(1 0 0 -1 366.47 126.608)"/><path fill="#e6807f" d="M376.835 115.48v17.008h17.008V115.48z"/><path fill="none" d="M383.479 121.344h3.72v5.28h-3.72z"/><use xlink:href="#A" fill="#fff" transform="matrix(1 0 0 -1 383.479 126.608)"/><path fill="#e6827d" d="M240.772 132.488v17.008h17.008v-17.008z"/><path fill="none" d="M247.416 138.32h3.72v5.344h-3.72z"/><use xlink:href="#x" fill="#fff" transform="matrix(1 0 0 -1 247.416 143.584)"/><path fill="#e6827d" d="M257.78 132.488v17.008h17.007v-17.008z"/><path fill="none" d="M264.423 138.32h3.72v5.344h-3.72z"/><use xlink:href="#x" fill="#fff" transform="matrix(1 0 0 -1 264.423 143.584)"/><path fill="#e6827d" d="M274.787 132.488v17.008h17.008v-17.008z"/><path fill="none" d="M281.431 138.32h3.72v5.344h-3.72z"/><use xlink:href="#x" fill="#fff" transform="matrix(1 0 0 -1 281.431 143.584)"/><path fill="#e6837c" d="M291.795 132.488v17.008h17.008v-17.008z"/><path fill="none" d="M298.44 138.316h3.72v5.352h-3.72z"/><use xlink:href="#w" fill="#fff" transform="matrix(1 0 0 -1 298.44 143.58)"/><path fill="#e68080" d="M308.803 132.488v17.008h17.008v-17.008z"/><path fill="none" d="M315.447 138.32h3.72v5.344h-3.72z"/><use xlink:href="#z" fill="#fff" transform="matrix(1 0 0 -1 315.447 143.584)"/><path fill="#e68080" d="M325.811 132.488v17.008h17.008v-17.008z"/><path fill="none" d="M332.455 138.32h3.72v5.344h-3.72z"/><use xlink:href="#z" fill="#fff" transform="matrix(1 0 0 -1 332.455 143.584)"/><path fill="#e6807f" d="M342.819 132.488v17.008h17.008v-17.008z"/><path fill="none" d="M349.463 138.352h3.72v5.28h-3.72z"/><use xlink:href="#A" fill="#fff" transform="matrix(1 0 0 -1 349.463 143.616)"/><path fill="#e68080" d="M359.827 132.488v17.008h17.008v-17.008z"/><path fill="none" d="M366.47 138.32h3.72v5.344h-3.72z"/><use xlink:href="#z" fill="#fff" transform="matrix(1 0 0 -1 366.47 143.584)"/><path fill="#e6807f" d="M376.835 132.488v17.008h17.008v-17.008z"/><path fill="none" d="M383.479 138.352h3.72v5.28h-3.72z"/><use xlink:href="#A" fill="#fff" transform="matrix(1 0 0 -1 383.479 143.616)"/><path fill="#e6827d" d="M240.772 149.496v17.008h17.008v-17.008z"/><path fill="none" d="M247.416 155.328h3.72v5.344h-3.72z"/><use xlink:href="#x" fill="#fff" transform="matrix(1 0 0 -1 247.416 160.592)"/><path fill="#e6817e" d="M257.78 149.496v17.008h17.007v-17.008z"/><path fill="none" d="M264.423 155.36h3.72v5.28h-3.72z"/><use xlink:href="#v" fill="#fff" transform="matrix(1 0 0 -1 264.423 160.624)"/><path fill="#e6827d" d="M274.787 149.496v17.008h17.008v-17.008z"/><path fill="none" d="M281.431 155.328h3.72v5.344h-3.72z"/><use xlink:href="#x" fill="#fff" transform="matrix(1 0 0 -1 281.431 160.592)"/><path fill="#e6837c" d="M291.795 149.496v17.008h17.008v-17.008z"/><path fill="none" d="M298.44 155.324h3.72v5.352h-3.72z"/><use xlink:href="#w" fill="#fff" transform="matrix(1 0 0 -1 298.44 160.588)"/><path fill="#e68080" d="M308.803 149.496v17.008h17.008v-17.008z"/><path fill="none" d="M315.447 155.328h3.72v5.344h-3.72z"/><use xlink:href="#z" fill="#fff" transform="matrix(1 0 0 -1 315.447 160.592)"/><path fill="#e68080" d="M325.811 149.496v17.008h17.008v-17.008z"/><path fill="none" d="M332.455 155.328h3.72v5.344h-3.72z"/><use xlink:href="#z" fill="#fff" transform="matrix(1 0 0 -1 332.455 160.592)"/><path fill="#e6807f" d="M342.819 149.496v17.008h17.008v-17.008z"/><path fill="none" d="M349.463 155.36h3.72v5.28h-3.72z"/><use xlink:href="#A" fill="#fff" transform="matrix(1 0 0 -1 349.463 160.624)"/><path fill="#e6807f" d="M359.827 149.496v17.008h17.008v-17.008z"/><path fill="none" d="M366.47 155.36h3.72v5.28h-3.72z"/><use xlink:href="#A" fill="#fff" transform="matrix(1 0 0 -1 366.47 160.624)"/><path fill="#e68080" d="M376.835 149.496v17.008h17.008v-17.008z"/><path fill="none" d="M383.479 155.328h3.72v5.344h-3.72z"/><use xlink:href="#z" fill="#fff" transform="matrix(1 0 0 -1 383.479 160.592)"/><path fill="none" d="M283.89 192.099h66.835v12.306H283.89z"/><g transform="matrix(1 0 0 -1 283.89 201.129)"><use xlink:href="#C"/><use xlink:href="#m" x="10.276"/><use xlink:href="#D" x="17.122"/><use xlink:href="#n" x="23.1"/><use xlink:href="#q" x="29.484"/><use xlink:href="#E" x="35.476"/><use xlink:href="#F" x="39.984"/><use xlink:href="#s" x="48.118"/><use xlink:href="#k" x="53.13"/><use xlink:href="#q" x="60.844"/></g><path fill="#40d0d0" d="M493.055 116.041c-6.26 0-11.345 5.085-11.345 11.345s5.085 11.345 11.345 11.345 11.345-5.085 11.345-11.345-5.085-11.345-11.345-11.345"/><use xlink:href="#G" transform="matrix(1 0 0 -1 488.776 131.142)"/><use xlink:href="#H" transform="matrix(1 0 0 -1 491.834 131.142)"/><path fill="#40d0d0" d="M493.055 73.521c-6.26 0-11.345 5.085-11.345 11.345s5.085 11.345 11.345 11.345S504.4 91.126 504.4 84.866s-5.085-11.345-11.345-11.345"/><use xlink:href="#G" transform="matrix(1 0 0 -1 488.776 88.623)"/><use xlink:href="#I" transform="matrix(1 0 0 -1 491.834 88.623)"/><path fill="#40d0d0" d="M493.055 30.919c-6.306 0-11.428 5.122-11.428 11.427 0 6.306 5.122 11.428 11.428 11.428s11.428-5.122 11.428-11.428c0-6.305-5.122-11.427-11.428-11.427"/><use xlink:href="#G" transform="matrix(1 0 0 -1 488.776 45.982)"/><use xlink:href="#J" transform="matrix(1 0 0 -1 491.834 45.982)"/><path fill="#8080ff" d="M563.921 136.141c-6.9 0-12.504 5.605-12.504 12.505s5.605 12.504 12.504 12.504c6.9 0 12.505-5.605 12.505-12.504 0-6.9-5.605-12.505-12.505-12.505"/><use xlink:href="#K" transform="matrix(1 0 0 -1 558.113 152.402)"/><use xlink:href="#H" transform="matrix(1 0 0 -1 564.23 152.402)"/><path fill="#8080ff" d="M563.921 93.622c-6.9 0-12.504 5.604-12.504 12.504s5.605 12.504 12.504 12.504c6.9 0 12.505-5.604 12.505-12.504s-5.605-12.504-12.505-12.504"/><use xlink:href="#K" transform="matrix(1 0 0 -1 558.113 109.882)"/><use xlink:href="#I" transform="matrix(1 0 0 -1 564.23 109.882)"/><path fill="#8080ff" d="M563.921 51.026c-6.941 0-12.58 5.639-12.58 12.58 0 6.942 5.639 12.58 12.58 12.58 6.942 0 12.58-5.638 12.58-12.58 0-6.941-5.638-12.58-12.58-12.58"/><use xlink:href="#K" transform="matrix(1 0 0 -1 558.113 67.242)"/><use xlink:href="#J" transform="matrix(1 0 0 -1 564.23 67.242)"/><path fill="#8080ff" d="M563.921 8.582c-6.9 0-12.504 5.605-12.504 12.505s5.605 12.504 12.504 12.504c6.9 0 12.505-5.605 12.505-12.504 0-6.9-5.605-12.505-12.505-12.505"/><use xlink:href="#K" transform="matrix(1 0 0 -1 558.113 24.843)"/><use xlink:href="#L" transform="matrix(1 0 0 -1 564.23 24.843)"/><path fill="#f08040" d="M634.787 72.563c-6.788 0-12.302 5.515-12.302 12.303s5.514 12.303 12.302 12.303c6.789 0 12.303-5.514 12.303-12.303 0-6.788-5.514-12.303-12.303-12.303"/><use xlink:href="#M" transform="matrix(1 0 0 -1 629.287 88.562)"/><use xlink:href="#H" transform="matrix(1 0 0 -1 634.787 88.562)"/><path fill="none" stroke="#aaa" stroke-width=".5" d="m503.923 130.646 48.02 14.406m-48.02-20.927 48.02-14.405m-50.457 10.078 53.087-47.778m-55.226 45.928 57.639-86.458m-55.5 60.964 53.143 47.829m-50.706-52.156 48.02 14.405m-48.02-20.926 47.947-14.384m-50.384 10.057 53.143-47.83m-55.236 22.405 57.593 86.389M501.547 49.99l53.082 47.773M504.003 45.63l47.867 14.36m-47.867-20.928 47.94-14.382m21.27 115.603 52.432-47.189m-49.745 9.438 47.102-14.13m-47.029-21.18 47.029 14.108m-49.789-51.88 52.432 47.188"/><path fill="none" d="M544.097 193.667h39.648v9.17h-39.648z"/><g transform="matrix(1 0 0 -1 544.097 202.697)"><use xlink:href="#j"/><use xlink:href="#k" x="12.586"/><use xlink:href="#N" x="20.398"/><use xlink:href="#m" x="28.252"/><use xlink:href="#l" x="35.098"/></g><path fill="none" d="M732.173 67.516h32v34.7h-32z"/><use xlink:href="#O" transform="matrix(1 0 0 -1 732.173 95.666)"/><path fill="none" d="M720.131 192.099h56.084v12.306h-56.084z"/><g transform="matrix(1 0 0 -1 720.131 201.129)"><use xlink:href="#P"/><use xlink:href="#q" x="8.596"/><use xlink:href="#k" x="14.476"/><use xlink:href="#F" x="22.19"/><use xlink:href="#m" x="30.422"/><use xlink:href="#q" x="37.268"/><use xlink:href="#s" x="43.26"/><use xlink:href="#Q" x="48.272"/></g><path fill="none" stroke="#888" stroke-width="5" d="M173.449 84.866h38.234m4.253 0-5.67-2.126 1.417 2.126-1.417 2.126zm195.624 0h38.233m4.253 0-5.67-2.126 1.417 2.126-1.417 2.126zm212.631 0h38.234m4.253 0-5.67-2.126 1.417 2.126-1.417 2.126z"/><defs><symbol id="b" overflow="visible"><path d="M5.558-.14c1.358 0 2.604.644 3.556 1.89-.07.126-.308.294-.462.294C7.658.952 6.524.588 5.544.588c-1.624 0-2.912 1.904-2.912 4.088 0 2.17 1.12 3.962 2.786 3.962 1.932 0 2.562-1.092 2.926-2.296.168-.056.448-.014.602.07-.07.728-.182 1.4-.308 2.17-.714.07-1.344.63-3.066.63C2.828 9.212.518 7.49.518 4.41c0-1.316.574-2.856 1.694-3.668C3.108.098 4.2-.14 5.558-.14"/></symbol><symbol id="e" overflow="visible"><path d="M8.834 0s-.07.994-.07 1.428v5.74c0 1.246.238 1.316 1.218 1.414.084.084.084.392 0 .476-.686-.014-.924-.028-1.512-.028-.63 0-.924.014-1.624.028-.084-.084-.084-.392 0-.476.98-.098 1.218-.14 1.218-1.414V3.234c0-.35-.182-.28-.378-.042L3.976 7.56 2.73 9.03l-2.282.028c-.084-.084-.084-.392 0-.476.602-.042 1.022-.518 1.106-.882V1.862C1.554.616 1.316.546.336.448.252.364.252.056.336-.028c.686.014.952.028 1.568.028s.868-.014 1.568-.028c.084.084.084.392 0 .476-.98.098-1.218.14-1.218 1.414V6.02c0 .14.028.28.112.28.07 0 .182-.098.336-.28L7.392.448c.28-.35.56-.616.56-.616.49 0 .63.042.882.168"/></symbol><symbol id="g" overflow="visible"><path d="M9.716 4.606c0 2.786-2.072 4.606-4.634 4.606-1.4 0-2.618-.602-3.43-1.568C.924 6.776.518 5.614.518 4.326.518 1.554 2.716-.14 5.096-.14c1.442 0 2.618.518 3.416 1.386.77.84 1.204 1.988 1.204 3.36M4.914 8.624c1.498 0 2.688-1.47 2.688-4.312 0-2.324-.812-3.864-2.226-3.864-1.54 0-2.744 1.526-2.744 4.158 0 2.856 1.036 4.018 2.282 4.018"/></symbol><symbol id="i" overflow="visible"><path d="M7.896 7.322V5.138h-4.34v2.184c0 1.162.392 1.218 1.162 1.26.14.084.14.392 0 .476A108 108 0 0 0 2.59 9.03c-.56 0-1.596.014-2.156.028-.14-.084-.14-.392 0-.476.77-.042 1.162-.098 1.162-1.26V1.708C1.596.546 1.204.49.434.448c-.14-.084-.14-.392 0-.476C.994-.014 2.03 0 2.59 0s1.568-.014 2.128-.028c.14.084.14.392 0 .476-.77.042-1.162.098-1.162 1.26v2.758h4.34V1.708C7.896.546 7.504.49 6.734.448c-.14-.084-.14-.392 0-.476C7.294-.014 8.33 0 8.89 0s1.568-.014 2.128-.028c.14.084.14.392 0 .476-.77.042-1.162.098-1.162 1.26v5.614c0 1.162.392 1.218 1.162 1.26.14.084.14.392 0 .476A108 108 0 0 0 8.89 9.03c-.56 0-1.596.014-2.156.028-.14-.084-.14-.392 0-.476.77-.042 1.162-.098 1.162-1.26"/></symbol><symbol id="j" overflow="visible"><path d="M9.282 1.624C9.352.49 9.296.49 8.386.448c-.084-.084-.084-.392 0-.476.658.014 1.918.028 2.338.028s1.064-.014 1.526-.028c.084.084.084.392 0 .476-.952.042-.994.084-1.078 1.246l-.42 5.894c-.056.756.014.938.966.994.084.084.084.392 0 .476L8.904 9.03l-2.66-6.216h-.07L3.668 9.03l-2.87.028c-.084-.084-.084-.392 0-.476.966-.056 1.05-.07.952-1.12l-.56-5.768C1.106.854.938.518.14.448.056.364.056.056.14-.028.56-.014 1.008 0 1.344 0S2.52-.014 2.94-.028c.084.084.084.392 0 .476-.924.07-.994.49-.924 1.274l.364 5.25h.056L5.194.07c.042-.098.196-.182.28-.182s.21.056.266.182l3.15 7.406h.028Z"/></symbol><symbol id="k" overflow="visible"><path d="M.518 2.898C.518 1.064 1.974-.14 3.85-.14c.994 0 1.82.28 2.394.798.714.63.952 1.582.952 2.366 0 1.834-1.246 3.192-3.332 3.192-1.162 0-2.03-.406-2.576-1.036-.532-.616-.77-1.456-.77-2.282m3.122 2.73c.952 0 1.596-1.134 1.596-3.052 0-1.68-.658-2.128-1.162-2.128-1.148 0-1.596 1.722-1.596 2.758 0 1.288.224 2.422 1.162 2.422"/></symbol><symbol id="l" overflow="visible"><path d="M1.4 1.778C1.4.616 1.176.49.322.448.238.364.238.056.322-.028.91-.014 1.54 0 2.31 0s1.386-.014 1.988-.028c.084.084.084.392 0 .476C3.444.49 3.22.616 3.22 1.778v6.384c0 .91.042 1.428.042 1.428 0 .126-.098.182-.224.182C2.52 9.604 1.4 9.45.406 9.408a.6.6 0 0 1 .042-.448c.882-.07.952-.084.952-1.05Z"/></symbol><symbol id="m" overflow="visible"><path d="M6.034 1.806c-.574-.588-1.33-.742-1.862-.742-1.092 0-1.764.63-1.764 2.002 0 .098.014.154.014.224h3.36c.336 0 .406.238.406.434 0 1.19-.462 2.492-2.52 2.492-1.47 0-3.15-1.302-3.15-3.444 0-.812.294-1.666.896-2.212.532-.476 1.218-.7 2.212-.7.966 0 1.918.49 2.618 1.512 0 .182-.07.434-.21.434M2.478 3.85c.014.49.084 1.022.28 1.302.224.336.602.476.756.476.378 0 .896-.364.896-1.484 0-.084 0-.266-.028-.294Z"/></symbol><symbol id="n" overflow="visible"><path d="M5.908 1.218c0 .168-.028.434-.182.434-.56-.518-1.036-.784-1.442-.784-1.05 0-1.876.756-1.876 2.436 0 1.554.35 2.324 1.092 2.324.518 0 .728-.546.77-.994.042-.378.42-.658.868-.658s.77.35.77.784c0 .63-.756 1.456-2.282 1.456-1.652 0-3.108-1.33-3.108-3.402 0-.91.322-1.708.868-2.226S2.576-.14 3.57-.14c.84 0 1.806.588 2.338 1.358"/></symbol><symbol id="o" overflow="visible"><path d="M7.14 1.862v2.422c0 1.176.028 1.008.028 1.344 0 .238-.056.392-.14.476a15 15 0 0 0-.798-.028c-.392 0-1.302.014-1.848.028-.084-.084-.084-.392 0-.476.714-.07.938-.168.938-1.344v-2.59c0-.14 0-.28.014-.42C4.76.924 4.298.896 4.046.896c-.56 0-.98.07-.98 1.05v2.338c0 1.176.028 1.008.028 1.344 0 .238-.056.392-.14.476a15 15 0 0 0-.798-.028c-.714 0-1.246.014-1.848.028-.084-.084-.084-.392 0-.476.644-.028.938-.168.938-1.344V2.1c0-1.484.588-2.24 1.792-2.24.504 0 1.526.406 2.338.854.028-.35.056-.616.056-.616.014-.168.126-.238.322-.238.518.14 1.358.336 2.324.462.028.084 0 .364-.028.448-.756.07-.91.294-.91 1.092"/></symbol><symbol id="p" overflow="visible"><path d="M4.13.686c.098-.574.476-.826 1.092-.826.77 0 1.316.294 1.834.784a.52.52 0 0 1-.252.392.83.83 0 0 0-.588-.196c-.308 0-.392.252-.392.938l.028 2.016c0 2.016-1.246 2.422-2.394 2.422-1.022 0-2.59-.588-2.59-1.512 0-.392.168-.7.714-.7.504 0 .868.308.868.644 0 .07-.014.154-.028.238-.028.14-.056.28-.028.42.014.154.126.322.588.322.588 0 1.078-.252 1.078-2.03l-.938-.294C1.652 2.842.616 2.436.616 1.33c0-.966.532-1.47 1.75-1.47.406 0 1.218.448 1.68.812Zm-.07 2.366V1.204C3.71.924 3.36.7 3.108.7c-.602 0-.812.406-.812.84 0 .518.042.952 1.036 1.274Z"/></symbol><symbol id="q" overflow="visible"><path d="M3.192 3.752c0 .504.154.714.336.924.112.14.238.238.448.238.126 0 .28-.126.392-.266.098-.112.336-.224.658-.224.406 0 .798.42.798 1.008 0 .364-.42.784-.924.784-.49 0-1.022-.42-1.666-1.344h-.056c-.028.42-.098 1.106-.098 1.106-.014.126-.126.238-.322.238-.658-.168-1.4-.364-2.324-.462-.028-.084 0-.35.028-.434.77-.07.91-.196.91-.994V1.708C1.372.546 1.218.518.364.448.28.364.28.056.364-.028.952-.014 1.54 0 2.282 0S3.598-.014 4.2-.028c.084.084.084.392 0 .476-.854.056-1.008.098-1.008 1.26Z"/></symbol><symbol id="r" overflow="visible"><path d="M5.894 8.834c-.77.112-1.064.378-2.366.378-.63 0-1.456-.196-2.044-.672-.518-.42-.91-1.064-.91-1.75 0-.532.14-1.204.462-1.624.644-.868 1.806-1.344 2.408-1.764.644-.448 1.274-1.008 1.274-1.792 0-.686-.602-1.162-1.456-1.162-.938 0-1.904.77-2.184 2.044-.224.084-.448.028-.658-.028-.014 0-.028-.014-.042-.014C.378 1.4.49.658.644.14c.798 0 .84-.28 2.772-.28.854 0 1.54.252 2.114.77.504.434.952 1.078.952 1.946 0 .728-.308 1.218-.728 1.68-.546.602-1.33 1.036-1.876 1.316-.56.28-1.554 1.008-1.554 1.806 0 .784.476 1.26 1.19 1.26 1.19 0 1.582-1.078 1.834-2.002.196-.056.546-.056.7.07 0 .742-.056 1.316-.154 2.128"/></symbol><symbol id="s" overflow="visible"><path d="M.882 6.076a.9.9 0 0 1-.588-.21V5.46c0-.07.014-.084.07-.084h.91a246 246 0 0 1-.042-3.906c0-.49.126-.966.42-1.218.322-.266.826-.392 1.162-.392.77 0 1.624.392 1.904.784 0 .168-.084.252-.252.392C4.284.896 3.934.84 3.668.84c-.308 0-.616.238-.616.938s-.014 2.198-.014 3.598h1.414c.14 0 .336.056.336.182v.434c0 .056-.042.084-.112.084H3.038l.014.476c.028.938.07 1.582.07 1.582 0 .084-.042.126-.112.126-.098 0-.616-.154-.84-.252-.238-.098-.644-.182-.742-.308s-.154-.504-.154-1.624Z"/></symbol><symbol id="t" overflow="visible"><path d="M1.36 4.28h1.432C2.168 2.728 1.536 1.168.992-.048l.064-.056.544.024c.456 1.36.896 2.688 1.792 4.872l-.128.096a2 2 0 0 0-.616-.088H1c-.272 0-.256.08-.4.112-.024 0-.032 0-.032-.024-.008-.384-.096-.864-.16-1.28a.7.7 0 0 1 .256-.024c.176.64.44.696.696.696"/></symbol><symbol id="u" overflow="visible"><path d="M3.44 1.752h-.664v2.336c0 .4 0 .712.016.776l-.016.016H2.52c-.056 0-.096-.048-.128-.088C1.888 4.176.96 2.856.224 1.712c.024-.12.072-.336.312-.336h1.632V.64c0-.368-.304-.368-.648-.392-.048-.048-.048-.216 0-.264.256.008.576.016.944.016.312 0 .616-.008.872-.016.048.048.048.216 0 .264-.392.032-.56.016-.56.392v.736h.552c.112 0 .232.152.232.248 0 .08-.032.128-.12.128M2.168 4.056V1.752H.64c.408.656.976 1.552 1.528 2.304"/></symbol><symbol id="v" overflow="visible"><path d="M.488 3.744c0-.168.152-.312.32-.312.136 0 .376.144.376.32 0 .064-.016.112-.032.168s-.064.128-.064.192c0 .2.208.488.792.488.288 0 .696-.2.696-.968 0-.512-.184-.928-.656-1.408l-.592-.584C.544.84.416.456.416-.016c0 0 .408.016.664.016h1.4c.256 0 .624-.016.624-.016.104.424.184 1.024.192 1.264-.048.04-.152.056-.232.04C2.928.72 2.792.52 2.504.52H1.08c0 .384.552.928.592.968l.808.776c.456.44.8.792.8 1.4 0 .864-.704 1.216-1.352 1.216-.888 0-1.44-.656-1.44-1.136"/></symbol><symbol id="w" overflow="visible"><path d="M2.552 1.512c0-.76-.4-1.32-.88-1.32-.304 0-.408.2-.528.36C1.04.688.904.808.736.808.584.808.432.672.432.512c0-.328.68-.6 1.136-.6.992 0 1.696.736 1.696 1.744 0 .776-.536 1.472-1.432 1.472-.344 0-.64-.072-.784-.128l.16 1.336c.296-.032.552-.072.936-.072.24 0 .512.016.84.048l.128.544-.056.032A13 13 0 0 0 1.744 4.8c-.296 0-.584.016-.864.04L.608 2.536c.424.16.728.192 1.016.192.52 0 .928-.344.928-1.216"/></symbol><symbol id="x" overflow="visible"><path d="M1.72 4.6c.344 0 .664-.208.664-.72 0-.4-.464-1.016-1.256-1.128l.04-.256c.136.016.28.016.384.016.456 0 1.048-.128 1.048-1.032C2.6.416 1.888.2 1.608.2c-.408 0-.48.184-.576.328C.952.64.848.736.688.736.52.736.352.584.352.456c0-.32.672-.536 1.152-.536.952 0 1.8.616 1.8 1.672 0 .872-.656 1.184-1.128 1.264l-.008.016c.656.312.84.64.84 1.064a.83.83 0 0 1-.248.632c-.176.176-.456.312-.872.312C.712 4.88.376 4.112.376 3.848c0-.112.08-.272.272-.272.28 0 .312.264.312.416 0 .512.552.608.76.608"/></symbol><symbol id="y" overflow="visible"><path d="M2.616 2.048C2.4 1.32 1.888.512.824.112c0-.096.032-.168.096-.208C1.728.144 2.224.48 2.672 1c.496.576.744 1.304.744 1.936 0 1.624-.92 1.944-1.536 1.944C.832 4.88.4 3.864.4 3.176s.368-1.304 1.456-1.304c.208 0 .52.064.76.176m.072.288a1.16 1.16 0 0 0-.664-.184c-.784 0-.96.768-.96 1.168 0 .88.336 1.28.728 1.28.504 0 .96-.272.96-1.64 0-.176-.016-.392-.064-.624"/></symbol><symbol id="z" overflow="visible"><path d="M1.824-.08c.616 0 1.552.624 1.552 2.504 0 .792-.192 1.472-.544 1.936-.208.28-.544.52-.976.52-.792 0-1.544-.944-1.544-2.528 0-.856.264-1.656.704-2.096q.338-.336.808-.336m.032 4.68a.53.53 0 0 0 .36-.136c.248-.208.464-.816.464-1.888 0-.736-.024-1.24-.136-1.648C2.368.272 1.976.2 1.832.2c-.744 0-.824 1.368-.824 2.064 0 1.968.488 2.336.848 2.336"/></symbol><symbol id="A" overflow="visible"><path d="M2.304.976v2.776c0 .48.008.968.024 1.072 0 .04-.016.04-.048.04-.44-.272-.864-.472-1.568-.8.016-.088.048-.168.12-.216.368.152.544.2.696.2.136 0 .16-.192.16-.464V.976c0-.664-.216-.704-.776-.728C.864.2.864.032.912-.016c.392.008.68.016 1.112.016C2.408 0 2.6-.008 3-.016c.048.048.048.216 0 .264-.56.024-.696.064-.696.728"/></symbol><symbol id="B" overflow="visible"><path d="M1.152 2.744c.216.728.728 1.536 1.792 1.936 0 .096-.032.168-.096.208-.808-.24-1.304-.576-1.752-1.096C.6 3.216.352 2.488.352 1.856c0-1.624.92-1.944 1.536-1.944 1.048 0 1.48 1.016 1.48 1.704S3 2.92 1.912 2.92c-.208 0-.52-.064-.76-.176m-.072-.288c.264.176.528.184.664.184.784 0 .96-.768.96-1.168 0-.88-.336-1.28-.728-1.28-.504 0-.96.272-.96 1.64 0 .184.016.392.064.624"/></symbol><symbol id="C" overflow="visible"><path d="M2.59 0c.56 0 1.708-.028 2.268-.028 1.232 0 2.618.308 3.612 1.176.672.588 1.134 1.75 1.134 3.178 0 2.59-1.68 4.718-5.124 4.718-.742 0-1.33-.014-1.89-.014s-2.156.028-2.156.028c-.14-.084-.14-.392 0-.476.77-.042 1.162-.098 1.162-1.26V1.708C1.596.546 1.204.49.434.448c-.14-.084-.14-.392 0-.476 0 0 1.596.028 2.156.028m.966 1.666v5.74c0 .77.364 1.05.868 1.05 2.758 0 3.066-2.366 3.066-4.48C7.49 1.428 5.964.56 4.9.56c-.98 0-1.344.168-1.344 1.106"/></symbol><symbol id="D" overflow="visible"><path d="M.672 2.044C.728 1.358.798.7.91.168 1.176.084 2.072-.14 2.856-.14c1.078 0 2.422.588 2.422 1.806 0 .476-.112.854-.434 1.204-.392.448-.98.798-1.624 1.078-.56.238-.756.686-.756 1.092 0 .322.266.588.672.588.49 0 .966-.448 1.316-1.302.252-.042.406-.028.546.07 0 .504-.056 1.036-.182 1.484-.448.196-.798.336-1.568.336-.742 0-1.442-.28-1.89-.728a1.55 1.55 0 0 1-.476-1.092c0-.42.168-.756.434-1.05C1.75 2.87 2.52 2.38 2.94 2.184c.56-.252.714-.756.714-1.092 0-.448-.448-.686-.826-.686-.63 0-1.302.644-1.596 1.666-.224.042-.336.028-.56-.028"/></symbol><symbol id="E" overflow="visible"><path d="M3.248 1.708v2.786c0 .7.056 1.484.056 1.484 0 .154-.126.238-.322.238C2.59 6.062 1.456 5.95.49 5.824c-.028-.084 0-.364.028-.448.77-.07.91-.182.91-.98V1.708C1.428.546 1.274.518.42.448.336.364.336.056.42-.028 1.008-.014 1.596 0 2.338 0s1.316-.014 1.918-.028c.084.084.084.392 0 .476-.854.056-1.008.098-1.008 1.26m-1.89 6.636c0-.462.336-.924.896-.924.63 0 .994.504.994.868 0 .42-.322.924-.91.924-.658 0-.98-.448-.98-.868"/></symbol><symbol id="F" overflow="visible"><path d="M1.33 4.326V-1.54c0-1.162-.154-1.19-1.008-1.26-.084-.084-.084-.392 0-.476.588.014 1.176.028 1.918.028s1.316-.014 1.918-.028c.084.084.084.392 0 .476-.854.056-1.008.098-1.008 1.26V.098c.308-.154.602-.238.938-.238 2.128 0 3.514 1.4 3.514 3.458 0 .784-.294 1.652-.84 2.198-.49.49-1.19.7-1.918.7-.406 0-1.162-.49-1.652-.938h-.084c-.028.392-.07.7-.07.7-.014.168-.126.238-.322.238a18 18 0 0 0-2.324-.462c-.028-.084 0-.364.028-.448.77-.07.91-.182.91-.98M3.15.91v3.822c.406.364.924.546 1.246.546.574 0 1.246-.7 1.246-2.338 0-1.176-.42-2.492-1.638-2.492-.154 0-.504.084-.854.462"/></symbol><symbol id="G" overflow="visible"><path d="M2.134 6.611a.62.62 0 0 1-.605.616.63.63 0 0 1-.616-.616c0-.33.275-.627.605-.627.341 0 .616.286.616.627M1.573.033 2.717 0v.429c-.363 0-.583.022-.649.066S1.98.66 1.98.858v4.037L.407 4.763v-.418c.363 0 .594-.033.671-.088s.11-.209.11-.462V.869c0-.209-.033-.341-.11-.385S.759.429.363.429V0Z"/></symbol><symbol id="H" overflow="visible"><path d="M2.959 7.326q-.677-.693-1.98-.693v-.429c.572 0 1.045.088 1.408.264V.902c0-.198-.044-.33-.143-.385S1.87.429 1.43.429h-.385V0q.413.033 1.782.033 1.37 0 1.782-.033v.429h-.385c-.451 0-.726.033-.814.088s-.143.187-.143.385v6.094c0 .264-.022.33-.308.33"/></symbol><symbol id="I" overflow="visible"><path d="M2.607 7.326a2 2 0 0 1-1.441-.594C.759 6.336.55 5.874.55 5.313c0-.374.275-.649.616-.649a.62.62 0 0 1 .605.616.595.595 0 0 1-.616.616c-.033 0-.055 0-.077-.011.209.539.693 1.012 1.386 1.012.902 0 1.408-.781 1.408-1.727 0-.737-.374-1.529-1.122-2.365L.682.473C.539.308.55.319.55 0h4.081l.319 1.98h-.363c-.088-.561-.165-.88-.231-.979-.055-.055-.385-.077-.99-.077H1.529l1.067 1.045c.748.704 1.694 1.463 2.013 2.046q.33.577.33 1.155c0 1.298-1.012 2.156-2.332 2.156"/></symbol><symbol id="J" overflow="visible"><path d="M3.333 3.883c.726.275 1.408.968 1.408 1.903 0 .473-.231.858-.682 1.155a2.46 2.46 0 0 1-1.353.385c-.495 0-.924-.132-1.309-.385-.429-.286-.649-.66-.649-1.133 0-.363.242-.616.594-.616s.594.253.594.605c0 .363-.209.561-.627.583.286.385.737.583 1.353.583.66 0 .99-.385.99-1.166 0-.462-.088-.847-.253-1.166-.297-.528-.704-.627-1.386-.627-.132-.022-.198-.077-.198-.176 0-.165.077-.165.297-.165h.473c.825 0 1.243-.583 1.243-1.76 0-.935-.341-1.749-1.177-1.749-.715 0-1.243.242-1.562.726a.636.636 0 0 1 .671.649.63.63 0 0 1-.649.649c-.429 0-.649-.22-.649-.671 0-.539.242-.968.726-1.309.429-.297.935-.44 1.496-.44a2.43 2.43 0 0 1 1.639.616c.473.407.704.913.704 1.529 0 1.034-.814 1.749-1.694 1.98"/></symbol><symbol id="K" overflow="visible"><path d="M3.454 4.565c.495 0 .748-.385.748-1.166V.869c0-.209-.033-.341-.11-.385S3.773.429 3.366.429V0l1.265.033L5.885 0v.429c-.352 0-.583.011-.693.044s-.154.11-.154.231v2.079c0 .528-.011.891-.044 1.1-.11.671-.605 1.012-1.474 1.012q-1.006 0-1.518-.924v3.663l-1.65-.121v-.418q.594 0 .726-.099c.088-.066.121-.22.121-.473V.869c0-.209-.044-.341-.121-.385S.759.429.352.429V0l1.265.033L2.871 0v.429c-.407 0-.638.011-.715.055s-.121.176-.121.385v2.002c0 .891.561 1.694 1.419 1.694"/></symbol><symbol id="L" overflow="visible"><path d="M3.883 7.447c-.099 0-.187-.055-.253-.154L.308 2.189v-.396h2.871V.891c0-.198-.044-.33-.121-.385S2.772.429 2.409.429h-.275V0c.319.022.825.033 1.507.033S4.829.022 5.148 0v.429h-.275c-.363 0-.572.022-.649.077s-.121.187-.121.385v.902h1.078v.429H4.103V7.26c0 .11-.077.187-.22.187m-.638-1.364V2.222H.737Z"/></symbol><symbol id="M" overflow="visible"><path d="M2.739-.121c.682 0 1.254.242 1.727.726s.715 1.067.715 1.749c0 .693-.231 1.298-.693 1.804a2.27 2.27 0 0 1-1.738.77c-.693 0-1.265-.264-1.738-.77a2.55 2.55 0 0 1-.704-1.804c0-.682.231-1.265.704-1.749a2.34 2.34 0 0 1 1.727-.726m.011.352c-.528 0-.924.231-1.199.704-.176.308-.264.814-.264 1.507 0 .671.088 1.155.253 1.463.264.473.66.704 1.199.704.517 0 .913-.231 1.188-.682.187-.308.275-.803.275-1.485 0-1.276-.374-2.211-1.452-2.211"/></symbol><symbol id="N" overflow="visible"><path d="M4.97.672c.028-.336.056-.574.056-.574.014-.168.126-.238.322-.238.518.14 1.358.336 2.324.462.028.084 0 .364-.028.448-.756.07-.91.294-.91 1.092v6.3c0 .91.042 1.428.042 1.428 0 .126-.098.182-.224.182-.518-.168-1.638-.322-2.632-.364a.68.68 0 0 1 .042-.476c.882-.07.952-.084.952-1.05v-1.82a3.3 3.3 0 0 1-1.008.154C2.1 6.216.518 4.634.518 2.772c0-.826.294-1.792.98-2.324.504-.392.854-.588 1.638-.588.378 0 1.414.616 1.708.812Zm-.042.658C4.634 1.092 3.892.784 3.724.784c-.7 0-1.246.784-1.246 2.422 0 .742.084 1.386.35 1.82.238.378.616.602 1.036.602.364 0 .714-.042 1.05-.504V1.68c0-.112 0-.238.014-.35"/></symbol><symbol id="O" overflow="visible"><path d="M15.5 22.1c-3.45 0-6.55-1.5-9.3-4.45s-4.15-6.2-4.15-9.7c0-4.9 3.3-8.5 8.2-8.5 3.45 0 6.85 1.35 10.25 4 .75-2.65 2.3-4 4.6-4 1.8 0 4.35 1.9 4.35 3.7 0 .45-.25.65-.8.65-.35 0-.65-.2-.8-.6-.4-1.05-1.45-2.3-2.6-2.3-.85 0-1.3 1.6-1.3 4.85 0 .7.15 1.25.45 1.6C25.75 9 26.95 10.9 27.9 13c1.25 2.7 2 4.7 2.2 6v.2c-.15.35-.45.5-.8.5-.25-.05-.55-.45-.9-1.15-1.05-3.6-2.5-6.7-4.45-9.25v2.5c0 5.8-2.9 10.3-8.45 10.3m4.65-11.55c0-2.95.05-4.75.1-5.4C17 2.3 13.7.9 10.35.9 7.5.9 6.1 2.65 6.1 6.1c0 2.9 1.65 8.3 2.8 10.1 1.9 2.95 4.1 4.45 6.55 4.45 1.55 0 2.6-.6 3.25-1.8.35-.6.6-1.2.85-1.75.4-1.15.6-4.2.6-6.55"/></symbol><symbol id="P" overflow="visible"><path d="M4.844 9.156c-.56 0-3.85-.098-4.41-.098-.14-.084-.14-.392 0-.476.77-.042 1.162-.098 1.162-1.26V1.708C1.596.546 1.204.49.434.448c-.14-.084-.14-.392 0-.476C.994-.014 2.03 0 2.59 0s1.568-.014 2.128-.028c.14.084.14.392 0 .476-.77.042-1.162.098-1.162 1.26v5.628c0 .952.098 1.246.84 1.246.812 0 1.75-.336 1.75-2.044 0-1.456-.406-2.072-1.554-2.072-.21 0-.504.014-.7.042 0-.266.084-.462.28-.588.196-.028.154-.042.49-.042 1.232 0 2.1.21 2.66.672.7.574.938 1.484.938 2.226 0 .56-.21 1.4-1.078 1.918-.518.308-1.288.462-2.338.462"/></symbol><symbol id="Q" overflow="visible"><path d="M3.388-2.352c.224.392.434.896.602 1.316 1.12 2.702 1.806 4.214 2.548 5.782.196.406.616.84 1.134.882.084.084.084.392 0 .476-.35-.014-.602-.028-.994-.028-.49 0-.966.014-1.484.028-.084-.084-.084-.392 0-.476.448-.042.896-.112.672-.616L4.424 1.778c0-.014 0-.014-.014-.028 0 .014 0 .028-.014.056L3.094 4.732c-.014.014-.014.028-.014.042-.252.546-.35.784.476.854.084.084.084.392 0 .476a84 84 0 0 0-1.862-.028c-.476 0-1.274.014-1.554.028-.084-.084-.084-.392 0-.476.616-.056.728-.154 1.106-1.036L3.052.448c.042-.07.098-.126.14-.182.182-.252.336-.462.252-.658l-.336-.77c-.182-.434-.35-.686-.742-.686-.252 0-.294.056-.49.056-.532 0-.84-.364-.84-.644 0-.182.042-.406.168-.56a.77.77 0 0 1 .546-.252c.182 0 .602.056.798.14.294.14.686.476.84.756"/></symbol></defs><defs><radialGradient id="R" cx=".35" cy=".3" r=".5" fr=".05" fx=".3" fy=".25" gradientUnits="userSpaceOnUse" spreadMethod="pad"><stop offset="0%" stop-color="#cfcfcf"/><stop offset="6.25%" stop-color="#bcbcbc"/><stop offset="12.5%" stop-color="#a9a9a9"/><stop offset="18.75%" stop-color="#969696"/><stop offset="25%" stop-color="#848484"/><stop offset="31.25%" stop-color="#727272"/><stop offset="37.5%" stop-color="#616161"/><stop offset="43.75%" stop-color="#505050"/><stop offset="50%" stop-color="#404040"/><stop offset="100%" stop-color="#363636"/></radialGradient><radialGradient id="S" cx=".35" cy=".3" r=".5" fr=".05" fx=".3" fy=".25" gradientUnits="userSpaceOnUse" spreadMethod="pad"><stop offset="0%" stop-color="#cfcfcf"/><stop offset="6.25%" stop-color="#bcbcbc"/><stop offset="12.5%" stop-color="#a9a9a9"/><stop offset="18.75%" stop-color="#969696"/><stop offset="25%" stop-color="#848484"/><stop offset="31.25%" stop-color="#727272"/><stop offset="37.5%" stop-color="#616161"/><stop offset="43.75%" stop-color="#505050"/><stop offset="50%" stop-color="#404040"/><stop offset="100%" stop-color="#363636"/></radialGradient><radialGradient id="T" cx=".35" cy=".3" r=".5" fr=".05" fx=".3" fy=".25" gradientUnits="userSpaceOnUse" spreadMethod="pad"><stop offset="0%" stop-color="#d0d0ff"/><stop offset="6.25%" stop-color="#bcc1ff"/><stop offset="12.5%" stop-color="#a8b2ff"/><stop offset="18.75%" stop-color="#95a3ff"/><stop offset="25%" stop-color="#8293ff"/><stop offset="31.25%" stop-color="#7082ff"/><stop offset="37.5%" stop-color="#6070ff"/><stop offset="40.63%" stop-color="#5866ff"/><stop offset="43.75%" stop-color="#515cff"/><stop offset="46.88%" stop-color="#4a51ff"/><stop offset="50%" stop-color="#44f"/><stop offset="100%" stop-color="#3a3ad9"/></radialGradient><radialGradient id="U" cx=".35" cy=".3" r=".5" fr=".05" fx=".3" fy=".25" gradientUnits="userSpaceOnUse" spreadMethod="pad"><stop offset="0%" stop-color="#ffd0d0"/><stop offset="12.5%" stop-color="#ffb2ae"/><stop offset="18.75%" stop-color="#ffa39d"/><stop offset="25%" stop-color="#ff928c"/><stop offset="31.25%" stop-color="#ff827a"/><stop offset="37.5%" stop-color="#ff7069"/><stop offset="40.63%" stop-color="#ff6660"/><stop offset="43.75%" stop-color="#ff5c57"/><stop offset="46.88%" stop-color="#ff504e"/><stop offset="50%" stop-color="#f44"/><stop offset="100%" stop-color="#d93a3a"/></radialGradient><radialGradient id="V" cx=".35" cy=".3" r=".5" fr=".05" fx=".3" fy=".25" gradientUnits="userSpaceOnUse" spreadMethod="pad"><stop offset="0%" stop-color="#fff"/><stop offset="50%" stop-color="#fff"/><stop offset="100%" stop-color="#d9d9d9"/></radialGradient></defs><defs><radialGradient xlink:href="#R" id="a" gradientTransform="scale(24)" href="#R"/><radialGradient xlink:href="#S" id="c" gradientTransform="scale(24)" href="#S"/><radialGradient xlink:href="#T" id="d" gradientTransform="scale(26)" href="#T"/><radialGradient xlink:href="#U" id="f" gradientTransform="scale(28)" href="#U"/><radialGradient xlink:href="#V" id="h" gradientTransform="scale(18)" href="#V"/></defs></svg>