<svg class="typst-doc" viewBox="0 0 485.5874015748032 68.38425196850393" width="485.5874015748032pt" height="68.38425196850393pt" xmlns="http://www.w3.org/2000/svg" xmlns:xlink="http://www.w3.org/1999/xlink" xmlns:h5="http://www.w3.org/1999/xhtml">
    <path class="typst-shape" fill="#ffffff" fill-rule="nonzero" d="M 0 0v 68.384254 h 485.5874 v -68.384254 Z "/>
    <g>
        <g class="typst-group" transform="matrix(1 0 0 1 8 8)">
            <g>
                <path class="typst-shape" fill="none" stroke="#ff0000" stroke-width="3.2" stroke-linecap="butt" stroke-linejoin="miter" stroke-miterlimit="4" transform="matrix(1 0 0 1 6.236220472440945 33.19333252455163)" d="M 0 0m 0 16.33615 v -16.33615 "/>
                <path class="typst-shape" fill="none" stroke="#000000" stroke-width="3.2" stroke-linecap="butt" stroke-linejoin="miter" stroke-miterlimit="4" transform="matrix(1 0 0 1 6.236220472440945 31.192987798751723)" d="M 0 0m 0 2.0003448 v -2.0003448 "/>
                <path class="typst-shape" fill="none" stroke="#000000" stroke-width="3.2" stroke-linecap="butt" stroke-linejoin="miter" stroke-miterlimit="4" transform="matrix(1 0 0 1 6.236220472440945 27.192298347151922)" d="M 0 0m 0 2.0003448 v -2.0003448 "/>
                <path class="typst-shape" fill="none" stroke="#000000" stroke-width="3.2" stroke-linecap="butt" stroke-linejoin="miter" stroke-miterlimit="4" transform="matrix(1 0 0 1 6.236220472440945 23.191608895552122)" d="M 0 0m 0 2.0003448 v -2.0003448 "/>
                <path class="typst-shape" fill="none" stroke="#000000" stroke-width="3.2" stroke-linecap="butt" stroke-linejoin="miter" stroke-miterlimit="4" transform="matrix(1 0 0 1 6.236220472440945 19.190919443952314)" d="M 0 0m 0 2.0003448 v -2.0003448 "/>
                <path class="typst-shape" fill="none" stroke="#0000ff" stroke-width="3.2" stroke-linecap="butt" stroke-linejoin="miter" stroke-miterlimit="4" transform="matrix(1 0 0 1 6.236220472440945 2.8547708499197917)" d="M 0 0m 0 16.33615 v -16.33615 "/>
                <path class="typst-shape" fill="none" stroke="#ff0000" stroke-width="3.2" stroke-linecap="butt" stroke-linejoin="miter" stroke-miterlimit="4" transform="matrix(1 0 0 1 15.590551181102365 34.04976377952757)" d="M 0 0m 0 18.334488 v -18.334488 "/>
                <path class="typst-shape" fill="none" stroke="#000000" stroke-width="3.2" stroke-linecap="butt" stroke-linejoin="miter" stroke-miterlimit="4" transform="matrix(1 0 0 1 15.590551181102365 31.804724409448824)" d="M 0 0m 0 2.2450395 v -2.2450395 "/>
                <path class="typst-shape" fill="none" stroke="#000000" stroke-width="3.2" stroke-linecap="butt" stroke-linejoin="miter" stroke-miterlimit="4" transform="matrix(1 0 0 1 15.590551181102365 27.31464566929134)" d="M 0 0m 0 2.2450395 v -2.2450395 "/>
                <path class="typst-shape" fill="none" stroke="#000000" stroke-width="3.2" stroke-linecap="butt" stroke-linejoin="miter" stroke-miterlimit="4" transform="matrix(1 0 0 1 15.590551181102365 22.824566929133862)" d="M 0 0m 0 2.2450395 v -2.2450395 "/>
                <path class="typst-shape" fill="none" stroke="#000000" stroke-width="3.2" stroke-linecap="butt" stroke-linejoin="miter" stroke-miterlimit="4" transform="matrix(1 0 0 1 15.590551181102365 18.334488188976376)" d="M 0 0m 0 2.2450395 v -2.2450395 "/>
                <path class="typst-shape" fill="none" stroke="#0000ff" stroke-width="3.2" stroke-linecap="butt" stroke-linejoin="miter" stroke-miterlimit="4" transform="matrix(1 0 0 1 15.590551181102365 0)" d="M 0 0m 0 18.334488 v -18.334488 "/>
                <path class="typst-shape" fill="none" stroke="#ff0000" stroke-width="3.2" stroke-linecap="butt" stroke-linejoin="miter" stroke-miterlimit="4" transform="matrix(1 0 0 1 24.94488188976378 33.19333252455163)" d="M 0 0m 0 16.33615 v -16.33615 "/>
                <path class="typst-shape" fill="none" stroke="#000000" stroke-width="3.2" stroke-linecap="butt" stroke-linejoin="miter" stroke-miterlimit="4" transform="matrix(1 0 0 1 24.94488188976378 31.192987798751723)" d="M 0 0m 0 2.0003448 v -2.0003448 "/>
                <path class="typst-shape" fill="none" stroke="#000000" stroke-width="3.2" stroke-linecap="butt" stroke-linejoin="miter" stroke-miterlimit="4" transform="matrix(1 0 0 1 24.94488188976378 27.192298347151922)" d="M 0 0m 0 2.0003448 v -2.0003448 "/>
                <path class="typst-shape" fill="none" stroke="#000000" stroke-width="3.2" stroke-linecap="butt" stroke-linejoin="miter" stroke-miterlimit="4" transform="matrix(1 0 0 1 24.94488188976378 23.191608895552122)" d="M 0 0m 0 2.0003448 v -2.0003448 "/>
                <path class="typst-shape" fill="none" stroke="#000000" stroke-width="3.2" stroke-linecap="butt" stroke-linejoin="miter" stroke-miterlimit="4" transform="matrix(1 0 0 1 24.94488188976378 19.190919443952314)" d="M 0 0m 0 2.0003448 v -2.0003448 "/>
                <path class="typst-shape" fill="none" stroke="#0000ff" stroke-width="3.2" stroke-linecap="butt" stroke-linejoin="miter" stroke-miterlimit="4" transform="matrix(1 0 0 1 24.94488188976378 2.8547708499197917)" d="M 0 0m 0 16.33615 v -16.33615 "/>
                <path class="typst-shape" fill="none" stroke="#0000ff" stroke-width="3.2" stroke-linecap="butt" stroke-linejoin="miter" stroke-miterlimit="4" transform="matrix(1 0 0 1 68.59842519685041 33.19333252455163)" d="M 0 0m 0 16.33615 v -16.33615 "/>
                <path class="typst-shape" fill="none" stroke="#000000" stroke-width="3.2" stroke-linecap="butt" stroke-linejoin="miter" stroke-miterlimit="4" transform="matrix(1 0 0 1 68.59842519685041 31.192987798751723)" d="M 0 0m 0 2.0003448 v -2.0003448 "/>
                <path class="typst-shape" fill="none" stroke="#000000" stroke-width="3.2" stroke-linecap="butt" stroke-linejoin="miter" stroke-miterlimit="4" transform="matrix(1 0 0 1 68.59842519685041 27.192298347151922)" d="M 0 0m 0 2.0003448 v -2.0003448 "/>
                <path class="typst-shape" fill="none" stroke="#000000" stroke-width="3.2" stroke-linecap="butt" stroke-linejoin="miter" stroke-miterlimit="4" transform="matrix(1 0 0 1 68.59842519685041 23.191608895552122)" d="M 0 0m 0 2.0003448 v -2.0003448 "/>
                <path class="typst-shape" fill="none" stroke="#000000" stroke-width="3.2" stroke-linecap="butt" stroke-linejoin="miter" stroke-miterlimit="4" transform="matrix(1 0 0 1 68.59842519685041 19.190919443952314)" d="M 0 0m 0 2.0003448 v -2.0003448 "/>
                <path class="typst-shape" fill="none" stroke="#ff0000" stroke-width="3.2" stroke-linecap="butt" stroke-linejoin="miter" stroke-miterlimit="4" transform="matrix(1 0 0 1 68.59842519685041 2.8547708499197917)" d="M 0 0m 0 16.33615 v -16.33615 "/>
                <path class="typst-shape" fill="none" stroke="#0000ff" stroke-width="3.2" stroke-linecap="butt" stroke-linejoin="miter" stroke-miterlimit="4" transform="matrix(1 0 0 1 77.95275590551182 34.04976377952757)" d="M 0 0m 0 18.334488 v -18.334488 "/>
                <path class="typst-shape" fill="none" stroke="#000000" stroke-width="3.2" stroke-linecap="butt" stroke-linejoin="miter" stroke-miterlimit="4" transform="matrix(1 0 0 1 77.95275590551182 31.804724409448824)" d="M 0 0m 0 2.2450395 v -2.2450395 "/>
                <path class="typst-shape" fill="none" stroke="#000000" stroke-width="3.2" stroke-linecap="butt" stroke-linejoin="miter" stroke-miterlimit="4" transform="matrix(1 0 0 1 77.95275590551182 27.31464566929134)" d="M 0 0m 0 2.2450395 v -2.2450395 "/>
                <path class="typst-shape" fill="none" stroke="#000000" stroke-width="3.2" stroke-linecap="butt" stroke-linejoin="miter" stroke-miterlimit="4" transform="matrix(1 0 0 1 77.95275590551182 22.824566929133862)" d="M 0 0m 0 2.2450395 v -2.2450395 "/>
                <path class="typst-shape" fill="none" stroke="#000000" stroke-width="3.2" stroke-linecap="butt" stroke-linejoin="miter" stroke-miterlimit="4" transform="matrix(1 0 0 1 77.95275590551182 18.334488188976376)" d="M 0 0m 0 2.2450395 v -2.2450395 "/>
                <path class="typst-shape" fill="none" stroke="#ff0000" stroke-width="3.2" stroke-linecap="butt" stroke-linejoin="miter" stroke-miterlimit="4" transform="matrix(1 0 0 1 77.95275590551182 0)" d="M 0 0m 0 18.334488 v -18.334488 "/>
                <path class="typst-shape" fill="none" stroke="#0000ff" stroke-width="3.2" stroke-linecap="butt" stroke-linejoin="miter" stroke-miterlimit="4" transform="matrix(1 0 0 1 87.30708661417323 33.193332524551636)" d="M 0 0m 0 16.33615 v -16.33615 "/>
                <path class="typst-shape" fill="none" stroke="#000000" stroke-width="3.2" stroke-linecap="butt" stroke-linejoin="miter" stroke-miterlimit="4" transform="matrix(1 0 0 1 87.30708661417323 31.19298779875173)" d="M 0 0m 0 2.0003448 v -2.0003448 "/>
                <path class="typst-shape" fill="none" stroke="#000000" stroke-width="3.2" stroke-linecap="butt" stroke-linejoin="miter" stroke-miterlimit="4" transform="matrix(1 0 0 1 87.30708661417323 27.192298347151926)" d="M 0 0m 0 2.0003448 v -2.0003448 "/>
                <path class="typst-shape" fill="none" stroke="#000000" stroke-width="3.2" stroke-linecap="butt" stroke-linejoin="miter" stroke-miterlimit="4" transform="matrix(1 0 0 1 87.30708661417323 23.191608895552122)" d="M 0 0m 0 2.0003448 v -2.0003448 "/>
                <path class="typst-shape" fill="none" stroke="#000000" stroke-width="3.2" stroke-linecap="butt" stroke-linejoin="miter" stroke-miterlimit="4" transform="matrix(1 0 0 1 87.30708661417323 19.190919443952314)" d="M 0 0m 0 2.0003448 v -2.0003448 "/>
                <path class="typst-shape" fill="none" stroke="#ff0000" stroke-width="3.2" stroke-linecap="butt" stroke-linejoin="miter" stroke-miterlimit="4" transform="matrix(1 0 0 1 87.30708661417323 2.8547708499197775)" d="M 0 0m 0 16.33615 v -16.33615 "/>
                <path class="typst-shape" fill="none" stroke="#ff0000" stroke-width="3.2" stroke-linecap="butt" stroke-linejoin="miter" stroke-miterlimit="4" transform="matrix(1 0 0 1 130.96062992125988 33.193332524551636)" d="M 0 0m 0 16.33615 v -16.33615 "/>
                <path class="typst-shape" fill="none" stroke="#000000" stroke-width="3.2" stroke-linecap="butt" stroke-linejoin="miter" stroke-miterlimit="4" transform="matrix(1 0 0 1 130.96062992125988 31.19298779875173)" d="M 0 0m 0 2.0003448 v -2.0003448 "/>
                <path class="typst-shape" fill="none" stroke="#000000" stroke-width="3.2" stroke-linecap="butt" stroke-linejoin="miter" stroke-miterlimit="4" transform="matrix(1 0 0 1 130.96062992125988 27.192298347151922)" d="M 0 0m 0 2.0003448 v -2.0003448 "/>
                <path class="typst-shape" fill="none" stroke="#000000" stroke-width="3.2" stroke-linecap="butt" stroke-linejoin="miter" stroke-miterlimit="4" transform="matrix(1 0 0 1 130.96062992125988 23.191608895552122)" d="M 0 0m 0 2.0003448 v -2.0003448 "/>
                <path class="typst-shape" fill="none" stroke="#000000" stroke-width="3.2" stroke-linecap="butt" stroke-linejoin="miter" stroke-miterlimit="4" transform="matrix(1 0 0 1 130.96062992125988 19.190919443952314)" d="M 0 0m 0 2.0003448 v -2.0003448 "/>
                <path class="typst-shape" fill="none" stroke="#0000ff" stroke-width="3.2" stroke-linecap="butt" stroke-linejoin="miter" stroke-miterlimit="4" transform="matrix(1 0 0 1 130.96062992125988 2.8547708499197775)" d="M 0 0m 0 16.33615 v -16.33615 "/>
                <path class="typst-shape" fill="none" stroke="#ff0000" stroke-width="3.2" stroke-linecap="butt" stroke-linejoin="miter" stroke-miterlimit="4" transform="matrix(1 0 0 1 140.3149606299213 34.04976377952757)" d="M 0 0m 0 18.334488 v -18.334488 "/>
                <path class="typst-shape" fill="none" stroke="#000000" stroke-width="3.2" stroke-linecap="butt" stroke-linejoin="miter" stroke-miterlimit="4" transform="matrix(1 0 0 1 140.3149606299213 31.804724409448824)" d="M 0 0m 0 2.2450395 v -2.2450395 "/>
                <path class="typst-shape" fill="none" stroke="#000000" stroke-width="3.2" stroke-linecap="butt" stroke-linejoin="miter" stroke-miterlimit="4" transform="matrix(1 0 0 1 140.3149606299213 27.31464566929134)" d="M 0 0m 0 2.2450395 v -2.2450395 "/>
                <path class="typst-shape" fill="none" stroke="#000000" stroke-width="3.2" stroke-linecap="butt" stroke-linejoin="miter" stroke-miterlimit="4" transform="matrix(1 0 0 1 140.3149606299213 22.824566929133862)" d="M 0 0m 0 2.2450395 v -2.2450395 "/>
                <path class="typst-shape" fill="none" stroke="#000000" stroke-width="3.2" stroke-linecap="butt" stroke-linejoin="miter" stroke-miterlimit="4" transform="matrix(1 0 0 1 140.3149606299213 18.334488188976376)" d="M 0 0m 0 2.2450395 v -2.2450395 "/>
                <path class="typst-shape" fill="none" stroke="#0000ff" stroke-width="3.2" stroke-linecap="butt" stroke-linejoin="miter" stroke-miterlimit="4" transform="matrix(1 0 0 1 140.3149606299213 0)" d="M 0 0m 0 18.334488 v -18.334488 "/>
                <path class="typst-shape" fill="none" stroke="#ff0000" stroke-width="3.2" stroke-linecap="butt" stroke-linejoin="miter" stroke-miterlimit="4" transform="matrix(1 0 0 1 149.66929133858267 33.19333252455163)" d="M 0 0m 0 16.33615 v -16.33615 "/>
                <path class="typst-shape" fill="none" stroke="#000000" stroke-width="3.2" stroke-linecap="butt" stroke-linejoin="miter" stroke-miterlimit="4" transform="matrix(1 0 0 1 149.66929133858267 31.192987798751723)" d="M 0 0m 0 2.0003448 v -2.0003448 "/>
                <path class="typst-shape" fill="none" stroke="#000000" stroke-width="3.2" stroke-linecap="butt" stroke-linejoin="miter" stroke-miterlimit="4" transform="matrix(1 0 0 1 149.66929133858267 27.192298347151922)" d="M 0 0m 0 2.0003448 v -2.0003448 "/>
                <path class="typst-shape" fill="none" stroke="#000000" stroke-width="3.2" stroke-linecap="butt" stroke-linejoin="miter" stroke-miterlimit="4" transform="matrix(1 0 0 1 149.66929133858267 23.191608895552122)" d="M 0 0m 0 2.0003448 v -2.0003448 "/>
                <path class="typst-shape" fill="none" stroke="#000000" stroke-width="3.2" stroke-linecap="butt" stroke-linejoin="miter" stroke-miterlimit="4" transform="matrix(1 0 0 1 149.66929133858267 19.190919443952314)" d="M 0 0m 0 2.0003448 v -2.0003448 "/>
                <path class="typst-shape" fill="none" stroke="#0000ff" stroke-width="3.2" stroke-linecap="butt" stroke-linejoin="miter" stroke-miterlimit="4" transform="matrix(1 0 0 1 149.66929133858267 2.8547708499197917)" d="M 0 0m 0 16.33615 v -16.33615 "/>
                <path class="typst-shape" fill="none" stroke="#0000ff" stroke-width="3.2" stroke-linecap="butt" stroke-linejoin="miter" stroke-miterlimit="4" transform="matrix(1 0 0 1 193.32283464566933 33.193332524551636)" d="M 0 0m 0 16.33615 v -16.33615 "/>
                <path class="typst-shape" fill="none" stroke="#000000" stroke-width="3.2" stroke-linecap="butt" stroke-linejoin="miter" stroke-miterlimit="4" transform="matrix(1 0 0 1 193.32283464566933 31.19298779875173)" d="M 0 0m 0 2.0003448 v -2.0003448 "/>
                <path class="typst-shape" fill="none" stroke="#000000" stroke-width="3.2" stroke-linecap="butt" stroke-linejoin="miter" stroke-miterlimit="4" transform="matrix(1 0 0 1 193.32283464566933 27.192298347151922)" d="M 0 0m 0 2.0003448 v -2.0003448 "/>
                <path class="typst-shape" fill="none" stroke="#000000" stroke-width="3.2" stroke-linecap="butt" stroke-linejoin="miter" stroke-miterlimit="4" transform="matrix(1 0 0 1 193.32283464566933 23.191608895552122)" d="M 0 0m 0 2.0003448 v -2.0003448 "/>
                <path class="typst-shape" fill="none" stroke="#000000" stroke-width="3.2" stroke-linecap="butt" stroke-linejoin="miter" stroke-miterlimit="4" transform="matrix(1 0 0 1 193.32283464566933 19.190919443952314)" d="M 0 0m 0 2.0003448 v -2.0003448 "/>
                <path class="typst-shape" fill="none" stroke="#ff0000" stroke-width="3.2" stroke-linecap="butt" stroke-linejoin="miter" stroke-miterlimit="4" transform="matrix(1 0 0 1 193.32283464566933 2.8547708499197775)" d="M 0 0m 0 16.33615 v -16.33615 "/>
                <path class="typst-shape" fill="none" stroke="#0000ff" stroke-width="3.2" stroke-linecap="butt" stroke-linejoin="miter" stroke-miterlimit="4" transform="matrix(1 0 0 1 202.67716535433073 34.04976377952757)" d="M 0 0m 0 18.334488 v -18.334488 "/>
                <path class="typst-shape" fill="none" stroke="#000000" stroke-width="3.2" stroke-linecap="butt" stroke-linejoin="miter" stroke-miterlimit="4" transform="matrix(1 0 0 1 202.67716535433073 31.804724409448824)" d="M 0 0m 0 2.2450395 v -2.2450395 "/>
                <path class="typst-shape" fill="none" stroke="#000000" stroke-width="3.2" stroke-linecap="butt" stroke-linejoin="miter" stroke-miterlimit="4" transform="matrix(1 0 0 1 202.67716535433073 27.31464566929134)" d="M 0 0m 0 2.2450395 v -2.2450395 "/>
                <path class="typst-shape" fill="none" stroke="#000000" stroke-width="3.2" stroke-linecap="butt" stroke-linejoin="miter" stroke-miterlimit="4" transform="matrix(1 0 0 1 202.67716535433073 22.824566929133862)" d="M 0 0m 0 2.2450395 v -2.2450395 "/>
                <path class="typst-shape" fill="none" stroke="#000000" stroke-width="3.2" stroke-linecap="butt" stroke-linejoin="miter" stroke-miterlimit="4" transform="matrix(1 0 0 1 202.67716535433073 18.334488188976376)" d="M 0 0m 0 2.2450395 v -2.2450395 "/>
                <path class="typst-shape" fill="none" stroke="#ff0000" stroke-width="3.2" stroke-linecap="butt" stroke-linejoin="miter" stroke-miterlimit="4" transform="matrix(1 0 0 1 202.67716535433073 0)" d="M 0 0m 0 18.334488 v -18.334488 "/>
                <path class="typst-shape" fill="none" stroke="#0000ff" stroke-width="3.2" stroke-linecap="butt" stroke-linejoin="miter" stroke-miterlimit="4" transform="matrix(1 0 0 1 212.03149606299215 33.19333252455163)" d="M 0 0m 0 16.33615 v -16.33615 "/>
                <path class="typst-shape" fill="none" stroke="#000000" stroke-width="3.2" stroke-linecap="butt" stroke-linejoin="miter" stroke-miterlimit="4" transform="matrix(1 0 0 1 212.03149606299215 31.192987798751723)" d="M 0 0m 0 2.0003448 v -2.0003448 "/>
                <path class="typst-shape" fill="none" stroke="#000000" stroke-width="3.2" stroke-linecap="butt" stroke-linejoin="miter" stroke-miterlimit="4" transform="matrix(1 0 0 1 212.03149606299215 27.192298347151922)" d="M 0 0m 0 2.0003448 v -2.0003448 "/>
                <path class="typst-shape" fill="none" stroke="#000000" stroke-width="3.2" stroke-linecap="butt" stroke-linejoin="miter" stroke-miterlimit="4" transform="matrix(1 0 0 1 212.03149606299215 23.191608895552122)" d="M 0 0m 0 2.0003448 v -2.0003448 "/>
                <path class="typst-shape" fill="none" stroke="#000000" stroke-width="3.2" stroke-linecap="butt" stroke-linejoin="miter" stroke-miterlimit="4" transform="matrix(1 0 0 1 212.03149606299215 19.190919443952314)" d="M 0 0m 0 2.0003448 v -2.0003448 "/>
                <path class="typst-shape" fill="none" stroke="#ff0000" stroke-width="3.2" stroke-linecap="butt" stroke-linejoin="miter" stroke-miterlimit="4" transform="matrix(1 0 0 1 212.03149606299215 2.8547708499197917)" d="M 0 0m 0 16.33615 v -16.33615 "/>
                <path class="typst-shape" fill="none" stroke="#ff0000" stroke-width="3.2" stroke-linecap="butt" stroke-linejoin="miter" stroke-miterlimit="4" transform="matrix(1 0 0 1 255.68503937007873 33.19333252455163)" d="M 0 0m 0 16.33615 v -16.33615 "/>
                <path class="typst-shape" fill="none" stroke="#000000" stroke-width="3.2" stroke-linecap="butt" stroke-linejoin="miter" stroke-miterlimit="4" transform="matrix(1 0 0 1 255.68503937007873 31.19298779875173)" d="M 0 0m 0 2.0003448 v -2.0003448 "/>
                <path class="typst-shape" fill="none" stroke="#000000" stroke-width="3.2" stroke-linecap="butt" stroke-linejoin="miter" stroke-miterlimit="4" transform="matrix(1 0 0 1 255.68503937007873 27.192298347151926)" d="M 0 0m 0 2.0003448 v -2.0003448 "/>
                <path class="typst-shape" fill="none" stroke="#000000" stroke-width="3.2" stroke-linecap="butt" stroke-linejoin="miter" stroke-miterlimit="4" transform="matrix(1 0 0 1 255.68503937007873 23.191608895552125)" d="M 0 0m 0 2.0003448 v -2.0003448 "/>
                <path class="typst-shape" fill="none" stroke="#000000" stroke-width="3.2" stroke-linecap="butt" stroke-linejoin="miter" stroke-miterlimit="4" transform="matrix(1 0 0 1 255.68503937007873 19.19091944395232)" d="M 0 0m 0 2.0003448 v -2.0003448 "/>
                <path class="typst-shape" fill="none" stroke="#0000ff" stroke-width="3.2" stroke-linecap="butt" stroke-linejoin="miter" stroke-miterlimit="4" transform="matrix(1 0 0 1 255.68503937007873 2.854770849919799)" d="M 0 0m 0 16.33615 v -16.33615 "/>
                <path class="typst-shape" fill="none" stroke="#ff0000" stroke-width="3.2" stroke-linecap="butt" stroke-linejoin="miter" stroke-miterlimit="4" transform="matrix(1 0 0 1 265.0393700787402 34.04976377952757)" d="M 0 0m 0 18.334488 v -18.334488 "/>
                <path class="typst-shape" fill="none" stroke="#000000" stroke-width="3.2" stroke-linecap="butt" stroke-linejoin="miter" stroke-miterlimit="4" transform="matrix(1 0 0 1 265.0393700787402 31.804724409448824)" d="M 0 0m 0 2.2450395 v -2.2450395 "/>
                <path class="typst-shape" fill="none" stroke="#000000" stroke-width="3.2" stroke-linecap="butt" stroke-linejoin="miter" stroke-miterlimit="4" transform="matrix(1 0 0 1 265.0393700787402 27.31464566929134)" d="M 0 0m 0 2.2450395 v -2.2450395 "/>
                <path class="typst-shape" fill="none" stroke="#000000" stroke-width="3.2" stroke-linecap="butt" stroke-linejoin="miter" stroke-miterlimit="4" transform="matrix(1 0 0 1 265.0393700787402 22.824566929133862)" d="M 0 0m 0 2.2450395 v -2.2450395 "/>
                <path class="typst-shape" fill="none" stroke="#000000" stroke-width="3.2" stroke-linecap="butt" stroke-linejoin="miter" stroke-miterlimit="4" transform="matrix(1 0 0 1 265.0393700787402 18.334488188976376)" d="M 0 0m 0 2.2450395 v -2.2450395 "/>
                <path class="typst-shape" fill="none" stroke="#0000ff" stroke-width="3.2" stroke-linecap="butt" stroke-linejoin="miter" stroke-miterlimit="4" transform="matrix(1 0 0 1 265.0393700787402 0)" d="M 0 0m 0 18.334488 v -18.334488 "/>
                <path class="typst-shape" fill="none" stroke="#ff0000" stroke-width="3.2" stroke-linecap="butt" stroke-linejoin="miter" stroke-miterlimit="4" transform="matrix(1 0 0 1 274.39370078740166 33.19333252455162)" d="M 0 0m 0 16.33615 v -16.33615 "/>
                <path class="typst-shape" fill="none" stroke="#000000" stroke-width="3.2" stroke-linecap="butt" stroke-linejoin="miter" stroke-miterlimit="4" transform="matrix(1 0 0 1 274.39370078740166 31.192987798751716)" d="M 0 0m 0 2.0003448 v -2.0003448 "/>
                <path class="typst-shape" fill="none" stroke="#000000" stroke-width="3.2" stroke-linecap="butt" stroke-linejoin="miter" stroke-miterlimit="4" transform="matrix(1 0 0 1 274.39370078740166 27.192298347151922)" d="M 0 0m 0 2.0003448 v -2.0003448 "/>
                <path class="typst-shape" fill="none" stroke="#000000" stroke-width="3.2" stroke-linecap="butt" stroke-linejoin="miter" stroke-miterlimit="4" transform="matrix(1 0 0 1 274.39370078740166 23.191608895552122)" d="M 0 0m 0 2.0003448 v -2.0003448 "/>
                <path class="typst-shape" fill="none" stroke="#000000" stroke-width="3.2" stroke-linecap="butt" stroke-linejoin="miter" stroke-miterlimit="4" transform="matrix(1 0 0 1 274.39370078740166 19.190919443952314)" d="M 0 0m 0 2.0003448 v -2.0003448 "/>
                <path class="typst-shape" fill="none" stroke="#0000ff" stroke-width="3.2" stroke-linecap="butt" stroke-linejoin="miter" stroke-miterlimit="4" transform="matrix(1 0 0 1 274.39370078740166 2.8547708499198055)" d="M 0 0m 0 16.33615 v -16.33615 "/>
                <path class="typst-shape" fill="none" stroke="#0000ff" stroke-width="3.2" stroke-linecap="butt" stroke-linejoin="miter" stroke-miterlimit="4" transform="matrix(1 0 0 1 318.0472440944882 33.19333252455163)" d="M 0 0m 0 16.33615 v -16.33615 "/>
                <path class="typst-shape" fill="none" stroke="#000000" stroke-width="3.2" stroke-linecap="butt" stroke-linejoin="miter" stroke-miterlimit="4" transform="matrix(1 0 0 1 318.0472440944882 31.19298779875173)" d="M 0 0m 0 2.0003448 v -2.0003448 "/>
                <path class="typst-shape" fill="none" stroke="#000000" stroke-width="3.2" stroke-linecap="butt" stroke-linejoin="miter" stroke-miterlimit="4" transform="matrix(1 0 0 1 318.0472440944882 27.192298347151926)" d="M 0 0m 0 2.0003448 v -2.0003448 "/>
                <path class="typst-shape" fill="none" stroke="#000000" stroke-width="3.2" stroke-linecap="butt" stroke-linejoin="miter" stroke-miterlimit="4" transform="matrix(1 0 0 1 318.0472440944882 23.191608895552125)" d="M 0 0m 0 2.0003448 v -2.0003448 "/>
                <path class="typst-shape" fill="none" stroke="#000000" stroke-width="3.2" stroke-linecap="butt" stroke-linejoin="miter" stroke-miterlimit="4" transform="matrix(1 0 0 1 318.0472440944882 19.19091944395232)" d="M 0 0m 0 2.0003448 v -2.0003448 "/>
                <path class="typst-shape" fill="none" stroke="#ff0000" stroke-width="3.2" stroke-linecap="butt" stroke-linejoin="miter" stroke-miterlimit="4" transform="matrix(1 0 0 1 318.0472440944882 2.854770849919799)" d="M 0 0m 0 16.33615 v -16.33615 "/>
                <path class="typst-shape" fill="none" stroke="#0000ff" stroke-width="3.2" stroke-linecap="butt" stroke-linejoin="miter" stroke-miterlimit="4" transform="matrix(1 0 0 1 327.4015748031497 34.04976377952757)" d="M 0 0m 0 18.334488 v -18.334488 "/>
                <path class="typst-shape" fill="none" stroke="#000000" stroke-width="3.2" stroke-linecap="butt" stroke-linejoin="miter" stroke-miterlimit="4" transform="matrix(1 0 0 1 327.4015748031497 31.804724409448824)" d="M 0 0m 0 2.2450395 v -2.2450395 "/>
                <path class="typst-shape" fill="none" stroke="#000000" stroke-width="3.2" stroke-linecap="butt" stroke-linejoin="miter" stroke-miterlimit="4" transform="matrix(1 0 0 1 327.4015748031497 27.31464566929134)" d="M 0 0m 0 2.2450395 v -2.2450395 "/>
                <path class="typst-shape" fill="none" stroke="#000000" stroke-width="3.2" stroke-linecap="butt" stroke-linejoin="miter" stroke-miterlimit="4" transform="matrix(1 0 0 1 327.4015748031497 22.824566929133862)" d="M 0 0m 0 2.2450395 v -2.2450395 "/>
                <path class="typst-shape" fill="none" stroke="#000000" stroke-width="3.2" stroke-linecap="butt" stroke-linejoin="miter" stroke-miterlimit="4" transform="matrix(1 0 0 1 327.4015748031497 18.334488188976376)" d="M 0 0m 0 2.2450395 v -2.2450395 "/>
                <path class="typst-shape" fill="none" stroke="#ff0000" stroke-width="3.2" stroke-linecap="butt" stroke-linejoin="miter" stroke-miterlimit="4" transform="matrix(1 0 0 1 327.4015748031497 0)" d="M 0 0m 0 18.334488 v -18.334488 "/>
                <path class="typst-shape" fill="none" stroke="#0000ff" stroke-width="3.2" stroke-linecap="butt" stroke-linejoin="miter" stroke-miterlimit="4" transform="matrix(1 0 0 1 336.7559055118111 33.19333252455162)" d="M 0 0m 0 16.33615 v -16.33615 "/>
                <path class="typst-shape" fill="none" stroke="#000000" stroke-width="3.2" stroke-linecap="butt" stroke-linejoin="miter" stroke-miterlimit="4" transform="matrix(1 0 0 1 336.7559055118111 31.192987798751716)" d="M 0 0m 0 2.0003448 v -2.0003448 "/>
                <path class="typst-shape" fill="none" stroke="#000000" stroke-width="3.2" stroke-linecap="butt" stroke-linejoin="miter" stroke-miterlimit="4" transform="matrix(1 0 0 1 336.7559055118111 27.192298347151922)" d="M 0 0m 0 2.0003448 v -2.0003448 "/>
                <path class="typst-shape" fill="none" stroke="#000000" stroke-width="3.2" stroke-linecap="butt" stroke-linejoin="miter" stroke-miterlimit="4" transform="matrix(1 0 0 1 336.7559055118111 23.191608895552122)" d="M 0 0m 0 2.0003448 v -2.0003448 "/>
                <path class="typst-shape" fill="none" stroke="#000000" stroke-width="3.2" stroke-linecap="butt" stroke-linejoin="miter" stroke-miterlimit="4" transform="matrix(1 0 0 1 336.7559055118111 19.190919443952314)" d="M 0 0m 0 2.0003448 v -2.0003448 "/>
                <path class="typst-shape" fill="none" stroke="#ff0000" stroke-width="3.2" stroke-linecap="butt" stroke-linejoin="miter" stroke-miterlimit="4" transform="matrix(1 0 0 1 336.7559055118111 2.8547708499198055)" d="M 0 0m 0 16.33615 v -16.33615 "/>
                <path class="typst-shape" fill="none" stroke="#ff0000" stroke-width="3.2" stroke-linecap="butt" stroke-linejoin="miter" stroke-miterlimit="4" transform="matrix(1 0 0 1 380.40944881889766 33.19333252455163)" d="M 0 0m 0 16.33615 v -16.33615 "/>
                <path class="typst-shape" fill="none" stroke="#000000" stroke-width="3.2" stroke-linecap="butt" stroke-linejoin="miter" stroke-miterlimit="4" transform="matrix(1 0 0 1 380.40944881889766 31.19298779875173)" d="M 0 0m 0 2.0003448 v -2.0003448 "/>
                <path class="typst-shape" fill="none" stroke="#000000" stroke-width="3.2" stroke-linecap="butt" stroke-linejoin="miter" stroke-miterlimit="4" transform="matrix(1 0 0 1 380.40944881889766 27.192298347151926)" d="M 0 0m 0 2.0003448 v -2.0003448 "/>
                <path class="typst-shape" fill="none" stroke="#000000" stroke-width="3.2" stroke-linecap="butt" stroke-linejoin="miter" stroke-miterlimit="4" transform="matrix(1 0 0 1 380.40944881889766 23.191608895552125)" d="M 0 0m 0 2.0003448 v -2.0003448 "/>
                <path class="typst-shape" fill="none" stroke="#000000" stroke-width="3.2" stroke-linecap="butt" stroke-linejoin="miter" stroke-miterlimit="4" transform="matrix(1 0 0 1 380.40944881889766 19.19091944395232)" d="M 0 0m 0 2.0003448 v -2.0003448 "/>
                <path class="typst-shape" fill="none" stroke="#0000ff" stroke-width="3.2" stroke-linecap="butt" stroke-linejoin="miter" stroke-miterlimit="4" transform="matrix(1 0 0 1 380.40944881889766 2.854770849919799)" d="M 0 0m 0 16.33615 v -16.33615 "/>
                <path class="typst-shape" fill="none" stroke="#ff0000" stroke-width="3.2" stroke-linecap="butt" stroke-linejoin="miter" stroke-miterlimit="4" transform="matrix(1 0 0 1 389.7637795275591 34.04976377952757)" d="M 0 0m 0 18.334488 v -18.334488 "/>
                <path class="typst-shape" fill="none" stroke="#000000" stroke-width="3.2" stroke-linecap="butt" stroke-linejoin="miter" stroke-miterlimit="4" transform="matrix(1 0 0 1 389.7637795275591 31.804724409448824)" d="M 0 0m 0 2.2450395 v -2.2450395 "/>
                <path class="typst-shape" fill="none" stroke="#000000" stroke-width="3.2" stroke-linecap="butt" stroke-linejoin="miter" stroke-miterlimit="4" transform="matrix(1 0 0 1 389.7637795275591 27.31464566929134)" d="M 0 0m 0 2.2450395 v -2.2450395 "/>
                <path class="typst-shape" fill="none" stroke="#000000" stroke-width="3.2" stroke-linecap="butt" stroke-linejoin="miter" stroke-miterlimit="4" transform="matrix(1 0 0 1 389.7637795275591 22.824566929133862)" d="M 0 0m 0 2.2450395 v -2.2450395 "/>
                <path class="typst-shape" fill="none" stroke="#000000" stroke-width="3.2" stroke-linecap="butt" stroke-linejoin="miter" stroke-miterlimit="4" transform="matrix(1 0 0 1 389.7637795275591 18.334488188976376)" d="M 0 0m 0 2.2450395 v -2.2450395 "/>
                <path class="typst-shape" fill="none" stroke="#0000ff" stroke-width="3.2" stroke-linecap="butt" stroke-linejoin="miter" stroke-miterlimit="4" transform="matrix(1 0 0 1 389.7637795275591 0)" d="M 0 0m 0 18.334488 v -18.334488 "/>
                <path class="typst-shape" fill="none" stroke="#ff0000" stroke-width="3.2" stroke-linecap="butt" stroke-linejoin="miter" stroke-miterlimit="4" transform="matrix(1 0 0 1 399.1181102362205 33.19333252455162)" d="M 0 0m 0 16.33615 v -16.33615 "/>
                <path class="typst-shape" fill="none" stroke="#000000" stroke-width="3.2" stroke-linecap="butt" stroke-linejoin="miter" stroke-miterlimit="4" transform="matrix(1 0 0 1 399.1181102362205 31.192987798751716)" d="M 0 0m 0 2.0003448 v -2.0003448 "/>
                <path class="typst-shape" fill="none" stroke="#000000" stroke-width="3.2" stroke-linecap="butt" stroke-linejoin="miter" stroke-miterlimit="4" transform="matrix(1 0 0 1 399.1181102362205 27.192298347151922)" d="M 0 0m 0 2.0003448 v -2.0003448 "/>
                <path class="typst-shape" fill="none" stroke="#000000" stroke-width="3.2" stroke-linecap="butt" stroke-linejoin="miter" stroke-miterlimit="4" transform="matrix(1 0 0 1 399.1181102362205 23.191608895552122)" d="M 0 0m 0 2.0003448 v -2.0003448 "/>
                <path class="typst-shape" fill="none" stroke="#000000" stroke-width="3.2" stroke-linecap="butt" stroke-linejoin="miter" stroke-miterlimit="4" transform="matrix(1 0 0 1 399.1181102362205 19.190919443952314)" d="M 0 0m 0 2.0003448 v -2.0003448 "/>
                <path class="typst-shape" fill="none" stroke="#0000ff" stroke-width="3.2" stroke-linecap="butt" stroke-linejoin="miter" stroke-miterlimit="4" transform="matrix(1 0 0 1 399.1181102362205 2.8547708499198055)" d="M 0 0m 0 16.33615 v -16.33615 "/>
                <path class="typst-shape" fill="none" stroke="#0000ff" stroke-width="3.2" stroke-linecap="butt" stroke-linejoin="miter" stroke-miterlimit="4" transform="matrix(1 0 0 1 442.77165354330714 33.19333252455163)" d="M 0 0m 0 16.33615 v -16.33615 "/>
                <path class="typst-shape" fill="none" stroke="#000000" stroke-width="3.2" stroke-linecap="butt" stroke-linejoin="miter" stroke-miterlimit="4" transform="matrix(1 0 0 1 442.77165354330714 31.19298779875173)" d="M 0 0m 0 2.0003448 v -2.0003448 "/>
                <path class="typst-shape" fill="none" stroke="#000000" stroke-width="3.2" stroke-linecap="butt" stroke-linejoin="miter" stroke-miterlimit="4" transform="matrix(1 0 0 1 442.77165354330714 27.192298347151926)" d="M 0 0m 0 2.0003448 v -2.0003448 "/>
                <path class="typst-shape" fill="none" stroke="#000000" stroke-width="3.2" stroke-linecap="butt" stroke-linejoin="miter" stroke-miterlimit="4" transform="matrix(1 0 0 1 442.77165354330714 23.191608895552125)" d="M 0 0m 0 2.0003448 v -2.0003448 "/>
                <path class="typst-shape" fill="none" stroke="#000000" stroke-width="3.2" stroke-linecap="butt" stroke-linejoin="miter" stroke-miterlimit="4" transform="matrix(1 0 0 1 442.77165354330714 19.19091944395232)" d="M 0 0m 0 2.0003448 v -2.0003448 "/>
                <path class="typst-shape" fill="none" stroke="#ff0000" stroke-width="3.2" stroke-linecap="butt" stroke-linejoin="miter" stroke-miterlimit="4" transform="matrix(1 0 0 1 442.77165354330714 2.854770849919799)" d="M 0 0m 0 16.33615 v -16.33615 "/>
                <path class="typst-shape" fill="none" stroke="#0000ff" stroke-width="3.2" stroke-linecap="butt" stroke-linejoin="miter" stroke-miterlimit="4" transform="matrix(1 0 0 1 452.1259842519686 34.04976377952757)" d="M 0 0m 0 18.334488 v -18.334488 "/>
                <path class="typst-shape" fill="none" stroke="#000000" stroke-width="3.2" stroke-linecap="butt" stroke-linejoin="miter" stroke-miterlimit="4" transform="matrix(1 0 0 1 452.1259842519686 31.804724409448824)" d="M 0 0m 0 2.2450395 v -2.2450395 "/>
                <path class="typst-shape" fill="none" stroke="#000000" stroke-width="3.2" stroke-linecap="butt" stroke-linejoin="miter" stroke-miterlimit="4" transform="matrix(1 0 0 1 452.1259842519686 27.31464566929134)" d="M 0 0m 0 2.2450395 v -2.2450395 "/>
                <path class="typst-shape" fill="none" stroke="#000000" stroke-width="3.2" stroke-linecap="butt" stroke-linejoin="miter" stroke-miterlimit="4" transform="matrix(1 0 0 1 452.1259842519686 22.824566929133862)" d="M 0 0m 0 2.2450395 v -2.2450395 "/>
                <path class="typst-shape" fill="none" stroke="#000000" stroke-width="3.2" stroke-linecap="butt" stroke-linejoin="miter" stroke-miterlimit="4" transform="matrix(1 0 0 1 452.1259842519686 18.334488188976376)" d="M 0 0m 0 2.2450395 v -2.2450395 "/>
                <path class="typst-shape" fill="none" stroke="#ff0000" stroke-width="3.2" stroke-linecap="butt" stroke-linejoin="miter" stroke-miterlimit="4" transform="matrix(1 0 0 1 452.1259842519686 0)" d="M 0 0m 0 18.334488 v -18.334488 "/>
                <path class="typst-shape" fill="none" stroke="#0000ff" stroke-width="3.2" stroke-linecap="butt" stroke-linejoin="miter" stroke-miterlimit="4" transform="matrix(1 0 0 1 461.48031496063 33.19333252455162)" d="M 0 0m 0 16.33615 v -16.33615 "/>
                <path class="typst-shape" fill="none" stroke="#000000" stroke-width="3.2" stroke-linecap="butt" stroke-linejoin="miter" stroke-miterlimit="4" transform="matrix(1 0 0 1 461.48031496063 31.192987798751716)" d="M 0 0m 0 2.0003448 v -2.0003448 "/>
                <path class="typst-shape" fill="none" stroke="#000000" stroke-width="3.2" stroke-linecap="butt" stroke-linejoin="miter" stroke-miterlimit="4" transform="matrix(1 0 0 1 461.48031496063 27.192298347151922)" d="M 0 0m 0 2.0003448 v -2.0003448 "/>
                <path class="typst-shape" fill="none" stroke="#000000" stroke-width="3.2" stroke-linecap="butt" stroke-linejoin="miter" stroke-miterlimit="4" transform="matrix(1 0 0 1 461.48031496063 23.191608895552122)" d="M 0 0m 0 2.0003448 v -2.0003448 "/>
                <path class="typst-shape" fill="none" stroke="#000000" stroke-width="3.2" stroke-linecap="butt" stroke-linejoin="miter" stroke-miterlimit="4" transform="matrix(1 0 0 1 461.48031496063 19.190919443952314)" d="M 0 0m 0 2.0003448 v -2.0003448 "/>
                <path class="typst-shape" fill="none" stroke="#ff0000" stroke-width="3.2" stroke-linecap="butt" stroke-linejoin="miter" stroke-miterlimit="4" transform="matrix(1 0 0 1 461.48031496063 2.8547708499198055)" d="M 0 0m 0 16.33615 v -16.33615 "/>
                <path class="typst-shape" fill="none" stroke="#0000ff" stroke-width="3.2" stroke-linecap="butt" stroke-linejoin="miter" stroke-miterlimit="4" transform="matrix(1 0 0 1 0 0.0237275834057939)" d="M 0 0m 0 7.6477685 l 2.347937 -2.056129 l 2.347937 -1.7685878 l 2.3479366 -1.4563322 l 2.3479376 -1.1237254 l 2.3479366 -0.7754157 l 2.3479366 -0.41627038 l 2.3479366 -0.051307973 l 2.3479385 0.3143714 l 2.3479366 0.6756577 l 2.3479366 1.0275023 l 2.3479366 1.3649886 l 2.3479366 1.6834004 l 2.3479385 1.9782882 l 2.3479347 2.245531 l 2.3479385 2.4813948 l 2.3479385 2.6825838 l 2.3479347 2.8462849 l 2.3479385 2.970213 "/>
                <path class="typst-shape" fill="none" stroke="#0000ff" stroke-width="3.2" stroke-linecap="butt" stroke-linejoin="miter" stroke-miterlimit="4" transform="matrix(1 0 0 1 51.65461417322836 0.010468792379424574)" d="M 0 0m 0 32.55979 l 2.347937 2.953205 l 2.347937 2.8228111 l 2.3479366 2.6529655 l 2.3479376 2.4460487 l 2.3479366 2.2049522 l 2.3479366 1.9330444 l 2.3479366 1.634121 l 2.3479385 1.3123665 l 2.3479366 0.97226715 l 2.3479366 0.6185837 l 2.3479366 0.25625992 l 2.3479366 -0.10964966 l 2.3479385 -0.47402573 l 2.3479347 -0.8317795 l 2.3479385 -1.177906 l 2.3479385 -1.5075722 l 2.3479347 -1.8161736 l 2.3479385 -2.0993996 l 2.3479347 -2.353279 l 2.3479385 -2.5742836 l 2.3479385 -2.7593079 l 2.3479347 -2.9057732 l 2.3479385 -3.0116386 l 2.3479347 -3.0754147 l 2.3479385 -3.0962162 l 2.3479385 -3.0737514 l 2.3479347 -3.0083313 l 2.3479347 -2.900876 l 2.3479385 -2.752881 l 2.3479385 -2.5664177 l 2.3479385 -2.344091 l 2.3479385 -2.0890083 l 2.347931 -1.8047333 l 2.3479385 -1.4952388 l 2.3479385 -1.1648498 l 2.3479385 -0.8181828 l 2.3479385 -0.4600827 l 2.347931 -0.09555334 l 2.3479385 0.2703113 l 2.3479385 0.6323986 l 2.3479385 0.9856487 l 2.3479385 1.3251252 l 2.347931 1.6460848 l 2.3479385 1.9440408 l 2.3479385 2.2148318 l 2.3479385 2.4546719 l 2.3479385 2.6602097 l 2.347931 2.8285742 l 2.3479385 2.9574127 "/>
                <path class="typst-shape" fill="none" stroke="#0000ff" stroke-width="3.2" stroke-linecap="butt" stroke-linejoin="miter" stroke-miterlimit="4" transform="matrix(1 0 0 1 176.0952755905512 0.0025594900725163577)" d="M 0 0m 0 32.203938 l 2.347937 2.966198 l 2.347937 2.840702 l 2.3479366 2.6755142 l 2.3479376 2.4729347 l 2.3479366 2.235798 l 2.3479366 1.9674149 l 2.3479366 1.6715469 l 2.3479385 1.352314 l 2.3479366 1.0141869 l 2.3479366 0.6618881 l 2.3479366 0.30033493 l 2.3479366 -0.065410614 l 2.3479385 -0.43024063 l 2.3479347 -0.7890625 l 2.3479385 -1.1368561 l 2.3479385 -1.4687653 l 2.3479347 -1.7801437 l 2.3479385 -2.0666542 l 2.3479347 -2.3242798 l 2.3479385 -2.549427 l 2.3479385 -2.7389488 l 2.3479347 -2.8901978 l 2.3479385 -3.0010567 l 2.3479347 -3.0699787 l 2.3479385 -3.0960007 l 2.3479385 -3.0787582 l 2.3479347 -3.0184956 l 2.3479347 -2.91605 l 2.3479385 -2.7728558 l 2.3479385 -2.5909128 l 2.3479385 -2.3727655 l 2.3479385 -2.121461 l 2.347931 -1.8405099 l 2.3479385 -1.53384 l 2.3479385 -1.2057359 l 2.3479385 -0.8607828 l 2.3479385 -0.5038011 l 2.347931 -0.13977918 l 2.3479385 0.22619599 l 2.3479385 0.5890103 l 2.3479385 0.94359374 l 2.3479385 1.2849913 l 2.347931 1.6084323 l 2.3479385 1.9093966 l 2.3479385 2.183679 l 2.3479385 2.4274473 l 2.3479385 2.6372938 l 2.347931 2.8102846 l 2.3479385 2.9440079 "/>
                <path class="typst-shape" fill="none" stroke="#0000ff" stroke-width="3.2" stroke-linecap="butt" stroke-linejoin="miter" stroke-miterlimit="4" transform="matrix(1 0 0 1 302.88387401574806 0.0000012925296014589947)" d="M 0 0m 0 34.820087 l 2.347937 2.858017 l 2.347937 2.6975136 l 2.3479366 2.4993134 l 2.3479376 2.2661858 l 2.3479366 2.0013885 l 2.3479366 1.7086258 l 2.3479366 1.3919907 l 2.3479385 1.0558968 l 2.3479366 0.70505524 l 2.3479366 0.34435272 l 2.3479366 -0.021156311 l 2.3479366 -0.3863716 l 2.3479385 -0.7461853 l 2.3479347 -1.0955734 l 2.3479385 -1.4296532 l 2.3479385 -1.7437553 l 2.3479347 -2.0334854 l 2.3479385 -2.2948074 l 2.3479347 -2.5240517 l 2.3479385 -2.718029 l 2.3479385 -2.8740273 l 2.3479347 -2.9898624 l 2.3479385 -3.0639153 l 2.3479347 -3.095152 l 2.3479385 -3.0831394 l 2.3479385 -3.02804 l 2.3479347 -2.9306297 l 2.3479347 -2.792264 l 2.3479385 -2.6148796 l 2.3479385 -2.4009552 l 2.3479385 -2.1534796 l 2.3479385 -1.8759108 l 2.347931 -1.5721276 l 2.3479385 -1.2463757 l 2.3479385 -0.9032068 l 2.3479385 -0.5474165 l 2.3479385 -0.18397647 l 2.347931 0.18203446 l 2.3479385 0.5455016 l 2.3479385 0.90134585 l 2.3479385 1.2445948 l 2.3479385 1.5704515 l 2.347931 1.8743625 l 2.3479385 2.1520805 l 2.3479385 2.3997269 l 2.3479385 2.6138372 l 2.3479385 2.7914228 l 2.347931 2.9300003 "/>
                <path class="typst-shape" fill="none" stroke="#0000ff" stroke-width="3.2" stroke-linecap="butt" stroke-linejoin="miter" stroke-miterlimit="4" transform="matrix(1 0 0 1 427.32453543307093 34.46571783297527)" d="M 0 0l 2.347937 2.8747501 l 2.347937 2.7189622 l 2.3479366 2.5251794 l 2.3479376 2.2961102 l 2.3479366 2.034953 l 2.3479366 1.7453613 l 2.3479366 1.4313784 l 2.3479385 1.097394 l 2.3479366 0.7480736 l 2.3479366 0.38830185 l 2.3479366 0.023101807 l 2.3479366 -0.34242058 l 2.3479385 -0.7031574 l 2.3479347 -1.0540705 l 2.3479385 -1.3902502 l 2.3479385 -1.7070055 l 2.3479347 -1.9999056 l 2.3479385 -2.2648582 "/>
                <path class="typst-shape" fill="none" stroke="#ff0000" stroke-width="3.2" stroke-linecap="butt" stroke-linejoin="miter" stroke-miterlimit="4" transform="matrix(1 0 0 1 0 0.007367396493223761)" d="M 0 0m 0 44.705387 l 2.347937 2.0561295 l 2.347937 1.768589 l 2.3479366 1.4563332 l 2.3479376 1.1237259 l 2.3479366 0.7754135 l 2.3479366 0.4162712 l 2.3479366 0.05130768 l 2.3479385 -0.31437302 l 2.3479366 -0.67565536 l 2.3479366 -1.027504 l 2.3479366 -1.3649864 l 2.3479366 -1.683403 l 2.3479385 -1.9782867 l 2.3479347 -2.2455292 l 2.3479385 -2.4813957 l 2.3479385 -2.6825829 l 2.3479347 -2.8462868 l 2.3479385 -2.9702148 l 2.3479347 -3.0526333 l 2.3479385 -3.0923977 l 2.3479385 -3.0889492 l 2.3479347 -3.0423355 l 2.3479385 -2.953205 l 2.3479347 -2.8228092 l 2.3479385 -2.6529655 l 2.3479385 -2.4460506 l 2.3479347 -2.2049522 l 2.3479347 -1.9330435 l 2.3479385 -1.6341217 l 2.3479385 -1.3123642 l 2.3479385 -0.97226804 l 2.3479385 -0.6185851 l 2.347931 -0.25625816 l 2.3479385 0.109649844 l 2.3479385 0.4740256 l 2.3479385 0.83177716 l 2.3479385 1.1779057 l 2.347931 1.5075738 l 2.3479385 1.816175 l 2.3479385 2.0993972 l 2.3479385 2.353281 l 2.3479385 2.5742817 l 2.347931 2.7593079 l 2.3479385 2.905775 "/>
                <path class="typst-shape" fill="none" stroke="#ff0000" stroke-width="3.2" stroke-linecap="butt" stroke-linejoin="miter" stroke-miterlimit="4" transform="matrix(1 0 0 1 115.0489133858268 0.01892164735163484)" d="M 0 0m 0 33.86295 l 2.347937 2.900875 l 2.347937 2.75288 l 2.3479366 2.5664177 l 2.3479376 2.3440895 l 2.3479366 2.0890083 l 2.3479366 1.8047333 l 2.3479366 1.4952393 l 2.3479385 1.1648483 l 2.3479366 0.8181839 l 2.3479366 0.460083 l 2.3479366 0.09555435 l 2.3479366 -0.27031326 l 2.3479385 -0.6323967 l 2.3479347 -0.9856491 l 2.3479385 -1.3251266 l 2.3479385 -1.6460838 l 2.3479347 -1.9440422 l 2.3479385 -2.2148285 l 2.3479347 -2.4546738 l 2.3479385 -2.6602097 l 2.3479385 -2.8285751 l 2.3479347 -2.9574127 l 2.3479385 -3.0449219 l 2.3479347 -3.0898838 l 2.3479385 -3.0916653 l 2.3479385 -3.0502453 l 2.3479347 -2.966198 l 2.3479347 -2.840705 l 2.3479385 -2.6755133 l 2.3479385 -2.4729328 l 2.3479385 -2.2357974 l 2.3479385 -1.9674177 l 2.347931 -1.6715455 l 2.3479385 -1.3523148 l 2.3479385 -1.0141869 l 2.3479385 -0.66188645 l 2.3479385 -0.3003368 l 2.347931 0.06540971 l 2.3479385 0.4302422 l 2.3479385 0.7890624 l 2.3479385 1.1368562 l 2.3479385 1.4687636 l 2.347931 1.7801461 l 2.3479385 2.0666533 l 2.3479385 2.3242803 l 2.3479385 2.549428 l 2.3479385 2.7389488 l 2.347931 2.8901958 "/>
                <path class="typst-shape" fill="none" stroke="#ff0000" stroke-width="3.2" stroke-linecap="butt" stroke-linejoin="miter" stroke-miterlimit="4" transform="matrix(1 0 0 1 239.48957480314965 0.03582365982523326)" d="M 0 0m 0 33.487373 l 2.347937 2.91605 l 2.347937 2.7728577 l 2.3479366 2.5909119 l 2.3479376 2.3727684 l 2.3479366 2.12146 l 2.3479366 1.8405075 l 2.3479366 1.5338402 l 2.3479385 1.2057381 l 2.3479366 0.8607826 l 2.3479366 0.50379944 l 2.3479366 0.13977814 l 2.3479366 -0.22619247 l 2.3479385 -0.58901215 l 2.3479347 -0.9435921 l 2.3479385 -1.2849922 l 2.3479385 -1.6084328 l 2.3479347 -1.9093971 l 2.3479385 -2.1836777 l 2.3479347 -2.4274483 l 2.3479385 -2.6372948 l 2.3479385 -2.8102837 l 2.3479347 -2.9440079 l 2.3479385 -3.0365887 l 2.3479347 -3.0867367 l 2.3479385 -3.093752 l 2.3479385 -3.0575314 l 2.3479347 -2.9785862 l 2.3479347 -2.8580198 l 2.3479385 -2.6975136 l 2.3479385 -2.4993114 l 2.3479385 -2.2661848 l 2.3479385 -2.00139 l 2.347931 -1.7086279 l 2.3479385 -1.391989 l 2.3479385 -1.0558982 l 2.3479385 -0.7050524 l 2.3479385 -0.34435412 l 2.347931 0.021156223 l 2.3479385 0.38637093 l 2.3479385 0.74618644 l 2.3479385 1.0955747 l 2.3479385 1.4296532 l 2.347931 1.7437537 l 2.3479385 2.0334873 l 2.3479385 2.2948036 l 2.3479385 2.5240536 l 2.3479385 2.718031 l 2.347931 2.8740273 "/>
                <path class="typst-shape" fill="none" stroke="#ff0000" stroke-width="3.2" stroke-linecap="butt" stroke-linejoin="miter" stroke-miterlimit="4" transform="matrix(1 0 0 1 363.9302362204725 0.03496839070225778)" d="M 0 0m 0 33.12806 l 2.347937 2.9306297 l 2.347937 2.792263 l 2.3479366 2.6148834 l 2.3479376 2.4009552 l 2.3479366 2.1534767 l 2.3479366 1.8759117 l 2.3479366 1.5721283 l 2.3479385 1.246376 l 2.3479366 0.9032059 l 2.3479366 0.5474167 l 2.3479366 0.18397522 l 2.3479366 -0.18203354 l 2.3479385 -0.5455017 l 2.3479347 -0.9013443 l 2.3479385 -1.2445946 l 2.3479385 -1.5704536 l 2.3479347 -1.874363 l 2.3479385 -2.1520805 l 2.3479347 -2.3997269 l 2.3479385 -2.6138382 l 2.3479385 -2.79142 l 2.3479347 -2.9300003 l 2.3479385 -3.0276356 l 2.3479347 -3.0829601 l 2.3479385 -3.0952034 l 2.3479385 -3.0641937 l 2.3479347 -2.990366 l 2.3479347 -2.8747501 l 2.3479385 -2.7189627 l 2.3479385 -2.525179 l 2.3479385 -2.2961102 l 2.3479385 -2.034953 l 2.347931 -1.7453613 l 2.3479385 -1.4313786 l 2.3479385 -1.097394 l 2.3479385 -0.74807435 l 2.3479385 -0.38830104 l 2.347931 -0.02310159 l 2.3479385 0.3424207 l 2.3479385 0.703158 l 2.3479385 1.0540693 l 2.3479385 1.3902509 l 2.347931 1.7070048 l 2.3479385 1.9999056 l 2.3479385 2.2648587 "/>
            </g>
        </g>
    </g>
</svg>
